<?xml version="1.0" encoding="UTF-8"?>
<svg xmlns="http://www.w3.org/2000/svg" xmlns:xlink="http://www.w3.org/1999/xlink" width="800" height="200" viewBox="0 0 800 200">
<rect x="-80" y="-20" width="960" height="240" fill="rgb(10.196078%, 10.196078%, 10.196078%)" fill-opacity="1"/>
<path fill-rule="nonzero" fill="rgb(80%, 24%, 24%)" fill-opacity="1" d="M 475 100 C 475 102.761719 472.761719 105 470 105 C 467.238281 105 465 102.761719 465 100 C 465 97.238281 467.238281 95 470 95 C 472.761719 95 475 97.238281 475 100 Z M 475 100 "/>
<path fill-rule="nonzero" fill="rgb(80%, 35.586207%, 24%)" fill-opacity="1" d="M 473.46875 114.554688 C 473.46875 117.316406 471.230469 119.554688 468.46875 119.554688 C 465.707031 119.554688 463.46875 117.316406 463.46875 114.554688 C 463.46875 111.792969 465.707031 109.554688 468.46875 109.554688 C 471.230469 109.554688 473.46875 111.792969 473.46875 114.554688 Z M 473.46875 114.554688 "/>
<path fill-rule="nonzero" fill="rgb(80%, 47.172414%, 24%)" fill-opacity="1" d="M 468.949219 128.472656 C 468.949219 131.234375 466.710938 133.472656 463.949219 133.472656 C 461.1875 133.472656 458.949219 131.234375 458.949219 128.472656 C 458.949219 125.710938 461.1875 123.472656 463.949219 123.472656 C 466.710938 123.472656 468.949219 125.710938 468.949219 128.472656 Z M 468.949219 128.472656 "/>
<path fill-rule="nonzero" fill="rgb(80%, 58.758621%, 24%)" fill-opacity="1" d="M 461.632812 141.144531 C 461.632812 143.90625 459.394531 146.144531 456.632812 146.144531 C 453.871094 146.144531 451.632812 143.90625 451.632812 141.144531 C 451.632812 138.382812 453.871094 136.144531 456.632812 136.144531 C 459.394531 136.144531 461.632812 138.382812 461.632812 141.144531 Z M 461.632812 141.144531 "/>
<path fill-rule="nonzero" fill="rgb(80%, 70.344828%, 24%)" fill-opacity="1" d="M 451.839844 152.019531 C 451.839844 154.78125 449.601562 157.019531 446.839844 157.019531 C 444.078125 157.019531 441.839844 154.78125 441.839844 152.019531 C 441.839844 149.257812 444.078125 147.019531 446.839844 147.019531 C 449.601562 147.019531 451.839844 149.257812 451.839844 152.019531 Z M 451.839844 152.019531 "/>
<path fill-rule="nonzero" fill="rgb(78.068966%, 80%, 24%)" fill-opacity="1" d="M 440 160.621094 C 440 163.382812 437.761719 165.621094 435 165.621094 C 432.238281 165.621094 430 163.382812 430 160.621094 C 430 157.859375 432.238281 155.621094 435 155.621094 C 437.761719 155.621094 440 157.859375 440 160.621094 Z M 440 160.621094 "/>
<path fill-rule="nonzero" fill="rgb(66.482759%, 80%, 24%)" fill-opacity="1" d="M 426.632812 166.574219 C 426.632812 169.335938 424.394531 171.574219 421.632812 171.574219 C 418.871094 171.574219 416.632812 169.335938 416.632812 166.574219 C 416.632812 163.8125 418.871094 161.574219 421.632812 161.574219 C 424.394531 161.574219 426.632812 163.8125 426.632812 166.574219 Z M 426.632812 166.574219 "/>
<path fill-rule="nonzero" fill="rgb(54.896552%, 80%, 24%)" fill-opacity="1" d="M 412.316406 169.617188 C 412.316406 172.378906 410.078125 174.617188 407.316406 174.617188 C 404.554688 174.617188 402.316406 172.378906 402.316406 169.617188 C 402.316406 166.855469 404.554688 164.617188 407.316406 164.617188 C 410.078125 164.617188 412.316406 166.855469 412.316406 169.617188 Z M 412.316406 169.617188 "/>
<path fill-rule="nonzero" fill="rgb(43.310345%, 80%, 24%)" fill-opacity="1" d="M 397.683594 169.617188 C 397.683594 172.378906 395.445312 174.617188 392.683594 174.617188 C 389.921875 174.617188 387.683594 172.378906 387.683594 169.617188 C 387.683594 166.855469 389.921875 164.617188 392.683594 164.617188 C 395.445312 164.617188 397.683594 166.855469 397.683594 169.617188 Z M 397.683594 169.617188 "/>
<path fill-rule="nonzero" fill="rgb(31.724138%, 80%, 24%)" fill-opacity="1" d="M 383.367188 166.574219 C 383.367188 169.335938 381.128906 171.574219 378.367188 171.574219 C 375.605469 171.574219 373.367188 169.335938 373.367188 166.574219 C 373.367188 163.8125 375.605469 161.574219 378.367188 161.574219 C 381.128906 161.574219 383.367188 163.8125 383.367188 166.574219 Z M 383.367188 166.574219 "/>
<path fill-rule="nonzero" fill="rgb(24%, 80%, 27.862069%)" fill-opacity="1" d="M 370 160.621094 C 370 163.382812 367.761719 165.621094 365 165.621094 C 362.238281 165.621094 360 163.382812 360 160.621094 C 360 157.859375 362.238281 155.621094 365 155.621094 C 367.761719 155.621094 370 157.859375 370 160.621094 Z M 370 160.621094 "/>
<path fill-rule="nonzero" fill="rgb(24%, 80%, 39.448276%)" fill-opacity="1" d="M 358.160156 152.019531 C 358.160156 154.78125 355.921875 157.019531 353.160156 157.019531 C 350.398438 157.019531 348.160156 154.78125 348.160156 152.019531 C 348.160156 149.257812 350.398438 147.019531 353.160156 147.019531 C 355.921875 147.019531 358.160156 149.257812 358.160156 152.019531 Z M 358.160156 152.019531 "/>
<path fill-rule="nonzero" fill="rgb(24%, 80%, 51.034483%)" fill-opacity="1" d="M 348.367188 141.144531 C 348.367188 143.90625 346.128906 146.144531 343.367188 146.144531 C 340.605469 146.144531 338.367188 143.90625 338.367188 141.144531 C 338.367188 138.382812 340.605469 136.144531 343.367188 136.144531 C 346.128906 136.144531 348.367188 138.382812 348.367188 141.144531 Z M 348.367188 141.144531 "/>
<path fill-rule="nonzero" fill="rgb(24%, 80%, 62.62069%)" fill-opacity="1" d="M 341.050781 128.472656 C 341.050781 131.234375 338.8125 133.472656 336.050781 133.472656 C 333.289062 133.472656 331.050781 131.234375 331.050781 128.472656 C 331.050781 125.710938 333.289062 123.472656 336.050781 123.472656 C 338.8125 123.472656 341.050781 125.710938 341.050781 128.472656 Z M 341.050781 128.472656 "/>
<path fill-rule="nonzero" fill="rgb(24%, 80%, 74.206897%)" fill-opacity="1" d="M 336.53125 114.554688 C 336.53125 117.316406 334.292969 119.554688 331.53125 119.554688 C 328.769531 119.554688 326.53125 117.316406 326.53125 114.554688 C 326.53125 111.792969 328.769531 109.554688 331.53125 109.554688 C 334.292969 109.554688 336.53125 111.792969 336.53125 114.554688 Z M 336.53125 114.554688 "/>
<path fill-rule="nonzero" fill="rgb(24%, 74.206897%, 80%)" fill-opacity="1" d="M 335 100 C 335 102.761719 332.761719 105 330 105 C 327.238281 105 325 102.761719 325 100 C 325 97.238281 327.238281 95 330 95 C 332.761719 95 335 97.238281 335 100 Z M 335 100 "/>
<path fill-rule="nonzero" fill="rgb(24%, 62.62069%, 80%)" fill-opacity="1" d="M 336.53125 85.445312 C 336.53125 88.207031 334.292969 90.445312 331.53125 90.445312 C 328.769531 90.445312 326.53125 88.207031 326.53125 85.445312 C 326.53125 82.683594 328.769531 80.445312 331.53125 80.445312 C 334.292969 80.445312 336.53125 82.683594 336.53125 85.445312 Z M 336.53125 85.445312 "/>
<path fill-rule="nonzero" fill="rgb(24%, 51.034483%, 80%)" fill-opacity="1" d="M 341.050781 71.527344 C 341.050781 74.289062 338.8125 76.527344 336.050781 76.527344 C 333.289062 76.527344 331.050781 74.289062 331.050781 71.527344 C 331.050781 68.765625 333.289062 66.527344 336.050781 66.527344 C 338.8125 66.527344 341.050781 68.765625 341.050781 71.527344 Z M 341.050781 71.527344 "/>
<path fill-rule="nonzero" fill="rgb(24%, 39.448276%, 80%)" fill-opacity="1" d="M 348.367188 58.855469 C 348.367188 61.617188 346.128906 63.855469 343.367188 63.855469 C 340.605469 63.855469 338.367188 61.617188 338.367188 58.855469 C 338.367188 56.09375 340.605469 53.855469 343.367188 53.855469 C 346.128906 53.855469 348.367188 56.09375 348.367188 58.855469 Z M 348.367188 58.855469 "/>
<path fill-rule="nonzero" fill="rgb(24%, 27.862069%, 80%)" fill-opacity="1" d="M 358.160156 47.980469 C 358.160156 50.742188 355.921875 52.980469 353.160156 52.980469 C 350.398438 52.980469 348.160156 50.742188 348.160156 47.980469 C 348.160156 45.21875 350.398438 42.980469 353.160156 42.980469 C 355.921875 42.980469 358.160156 45.21875 358.160156 47.980469 Z M 358.160156 47.980469 "/>
<path fill-rule="nonzero" fill="rgb(31.724138%, 24%, 80%)" fill-opacity="1" d="M 370 39.378906 C 370 42.140625 367.761719 44.378906 365 44.378906 C 362.238281 44.378906 360 42.140625 360 39.378906 C 360 36.617188 362.238281 34.378906 365 34.378906 C 367.761719 34.378906 370 36.617188 370 39.378906 Z M 370 39.378906 "/>
<path fill-rule="nonzero" fill="rgb(43.310345%, 24%, 80%)" fill-opacity="1" d="M 383.367188 33.425781 C 383.367188 36.1875 381.128906 38.425781 378.367188 38.425781 C 375.605469 38.425781 373.367188 36.1875 373.367188 33.425781 C 373.367188 30.664062 375.605469 28.425781 378.367188 28.425781 C 381.128906 28.425781 383.367188 30.664062 383.367188 33.425781 Z M 383.367188 33.425781 "/>
<path fill-rule="nonzero" fill="rgb(54.896552%, 24%, 80%)" fill-opacity="1" d="M 397.683594 30.382812 C 397.683594 33.144531 395.445312 35.382812 392.683594 35.382812 C 389.921875 35.382812 387.683594 33.144531 387.683594 30.382812 C 387.683594 27.621094 389.921875 25.382812 392.683594 25.382812 C 395.445312 25.382812 397.683594 27.621094 397.683594 30.382812 Z M 397.683594 30.382812 "/>
<path fill-rule="nonzero" fill="rgb(66.482759%, 24%, 80%)" fill-opacity="1" d="M 412.316406 30.382812 C 412.316406 33.144531 410.078125 35.382812 407.316406 35.382812 C 404.554688 35.382812 402.316406 33.144531 402.316406 30.382812 C 402.316406 27.621094 404.554688 25.382812 407.316406 25.382812 C 410.078125 25.382812 412.316406 27.621094 412.316406 30.382812 Z M 412.316406 30.382812 "/>
<path fill-rule="nonzero" fill="rgb(78.068966%, 24%, 80%)" fill-opacity="1" d="M 426.632812 33.425781 C 426.632812 36.1875 424.394531 38.425781 421.632812 38.425781 C 418.871094 38.425781 416.632812 36.1875 416.632812 33.425781 C 416.632812 30.664062 418.871094 28.425781 421.632812 28.425781 C 424.394531 28.425781 426.632812 30.664062 426.632812 33.425781 Z M 426.632812 33.425781 "/>
<path fill-rule="nonzero" fill="rgb(80%, 24%, 70.344828%)" fill-opacity="1" d="M 440 39.378906 C 440 42.140625 437.761719 44.378906 435 44.378906 C 432.238281 44.378906 430 42.140625 430 39.378906 C 430 36.617188 432.238281 34.378906 435 34.378906 C 437.761719 34.378906 440 36.617188 440 39.378906 Z M 440 39.378906 "/>
<path fill-rule="nonzero" fill="rgb(80%, 24%, 58.758621%)" fill-opacity="1" d="M 451.839844 47.980469 C 451.839844 50.742188 449.601562 52.980469 446.839844 52.980469 C 444.078125 52.980469 441.839844 50.742188 441.839844 47.980469 C 441.839844 45.21875 444.078125 42.980469 446.839844 42.980469 C 449.601562 42.980469 451.839844 45.21875 451.839844 47.980469 Z M 451.839844 47.980469 "/>
<path fill-rule="nonzero" fill="rgb(80%, 24%, 47.172414%)" fill-opacity="1" d="M 461.632812 58.855469 C 461.632812 61.617188 459.394531 63.855469 456.632812 63.855469 C 453.871094 63.855469 451.632812 61.617188 451.632812 58.855469 C 451.632812 56.09375 453.871094 53.855469 456.632812 53.855469 C 459.394531 53.855469 461.632812 56.09375 461.632812 58.855469 Z M 461.632812 58.855469 "/>
<path fill-rule="nonzero" fill="rgb(80%, 24%, 35.586207%)" fill-opacity="1" d="M 468.949219 71.527344 C 468.949219 74.289062 466.710938 76.527344 463.949219 76.527344 C 461.1875 76.527344 458.949219 74.289062 458.949219 71.527344 C 458.949219 68.765625 461.1875 66.527344 463.949219 66.527344 C 466.710938 66.527344 468.949219 68.765625 468.949219 71.527344 Z M 468.949219 71.527344 "/>
<path fill-rule="nonzero" fill="rgb(80%, 24%, 24%)" fill-opacity="1" d="M 473.46875 85.445312 C 473.46875 88.207031 471.230469 90.445312 468.46875 90.445312 C 465.707031 90.445312 463.46875 88.207031 463.46875 85.445312 C 463.46875 82.683594 465.707031 80.445312 468.46875 80.445312 C 471.230469 80.445312 473.46875 82.683594 473.46875 85.445312 Z M 473.46875 85.445312 "/>
</svg>
