<?xml version="1.0" encoding="UTF-8"?>
<svg xmlns="http://www.w3.org/2000/svg" xmlns:xlink="http://www.w3.org/1999/xlink" width="800" height="400" viewBox="0 0 800 400">
<rect x="-80" y="-40" width="960" height="480" fill="rgb(10.196078%, 10.196078%, 10.196078%)" fill-opacity="1"/>
<path fill-rule="nonzero" fill="rgb(96%, 96%, 24%)" fill-opacity="1" d="M 570.355469 200.355469 L 566.117188 207.449219 L 561.867188 214.535156 L 557.585938 221.585938 L 553.265625 228.597656 L 548.882812 235.550781 L 544.433594 242.433594 L 539.898438 249.230469 L 535.269531 255.9375 L 530.535156 262.535156 L 525.6875 269.023438 L 520.71875 275.382812 L 515.617188 281.617188 L 510.378906 287.710938 L 505 293.664062 L 499.476562 299.476562 L 493.664062 305 L 487.710938 310.378906 L 481.617188 315.617188 L 475.382812 320.71875 L 469.023438 325.6875 L 462.535156 330.535156 L 455.9375 335.269531 L 449.230469 339.898438 L 442.433594 344.433594 L 435.550781 348.882812 L 428.597656 353.265625 L 421.585938 357.585938 L 414.535156 361.867188 L 407.449219 366.117188 L 400.355469 370.355469 L 399.644531 369.644531 L 403.882812 362.550781 L 408.132812 355.464844 L 412.414062 348.414062 L 416.734375 341.402344 L 421.117188 334.449219 L 425.566406 327.566406 L 430.101562 320.769531 L 434.730469 314.0625 L 439.464844 307.464844 L 444.3125 300.976562 L 449.28125 294.617188 L 454.382812 288.382812 L 459.621094 282.289062 L 465 276.335938 L 470.523438 270.523438 L 476.335938 265 L 482.289062 259.621094 L 488.382812 254.382812 L 494.617188 249.28125 L 500.976562 244.3125 L 507.464844 239.464844 L 514.0625 234.730469 L 520.769531 230.101562 L 527.566406 225.566406 L 534.449219 221.117188 L 541.402344 216.734375 L 548.414062 212.414062 L 555.464844 208.132812 L 562.550781 203.882812 L 569.644531 199.644531 "/>
<path fill-rule="nonzero" fill="rgb(24%, 96%, 24%)" fill-opacity="1" d="M 570 200.5 L 558.667969 202.523438 L 547.332031 204.527344 L 536 206.488281 L 524.667969 208.386719 L 513.332031 210.207031 L 502 211.925781 L 490.667969 213.527344 L 479.332031 214.996094 L 468 216.316406 L 456.667969 217.472656 L 445.332031 218.457031 L 434 219.253906 L 422.667969 219.863281 L 411.332031 220.269531 L 400 220.472656 L 388.667969 220.269531 L 377.332031 219.863281 L 366 219.253906 L 354.667969 218.457031 L 343.332031 217.472656 L 332 216.316406 L 320.667969 214.996094 L 309.332031 213.527344 L 298 211.925781 L 286.667969 210.207031 L 275.332031 208.386719 L 264 206.488281 L 252.667969 204.527344 L 241.332031 202.523438 L 230 200.5 L 230 199.5 L 241.332031 197.476562 L 252.667969 195.472656 L 264 193.511719 L 275.332031 191.613281 L 286.667969 189.792969 L 298 188.074219 L 309.332031 186.472656 L 320.667969 185.003906 L 332 183.683594 L 343.332031 182.527344 L 354.667969 181.542969 L 366 180.746094 L 377.332031 180.136719 L 388.667969 179.730469 L 400 179.527344 L 411.332031 179.730469 L 422.667969 180.136719 L 434 180.746094 L 445.332031 181.542969 L 456.667969 182.527344 L 468 183.683594 L 479.332031 185.003906 L 490.667969 186.472656 L 502 188.074219 L 513.332031 189.792969 L 524.667969 191.613281 L 536 193.511719 L 547.332031 195.472656 L 558.667969 197.476562 L 570 199.5 "/>
<path fill-rule="nonzero" fill="rgb(24%, 96%, 96%)" fill-opacity="1" d="M 569.644531 200.355469 L 562.550781 196.117188 L 555.464844 191.867188 L 548.414062 187.585938 L 541.402344 183.265625 L 534.449219 178.882812 L 527.566406 174.433594 L 520.769531 169.898438 L 514.0625 165.269531 L 507.464844 160.535156 L 500.976562 155.6875 L 494.617188 150.71875 L 488.382812 145.617188 L 482.289062 140.378906 L 476.335938 135 L 470.523438 129.476562 L 465 123.664062 L 459.621094 117.710938 L 454.382812 111.617188 L 449.28125 105.382812 L 444.3125 99.023438 L 439.464844 92.535156 L 434.730469 85.9375 L 430.101562 79.230469 L 425.566406 72.433594 L 421.117188 65.550781 L 416.734375 58.597656 L 412.414062 51.585938 L 408.132812 44.535156 L 403.882812 37.449219 L 399.644531 30.355469 L 400.355469 29.644531 L 407.449219 33.882812 L 414.535156 38.132812 L 421.585938 42.414062 L 428.597656 46.734375 L 435.550781 51.117188 L 442.433594 55.566406 L 449.230469 60.101562 L 455.9375 64.730469 L 462.535156 69.464844 L 469.023438 74.3125 L 475.382812 79.28125 L 481.617188 84.382812 L 487.710938 89.621094 L 493.664062 95 L 499.476562 100.523438 L 505 106.335938 L 510.378906 112.289062 L 515.617188 118.382812 L 520.71875 124.617188 L 525.6875 130.976562 L 530.535156 137.464844 L 535.269531 144.0625 L 539.898438 150.769531 L 544.433594 157.566406 L 548.882812 164.449219 L 553.265625 171.402344 L 557.585938 178.414062 L 561.867188 185.464844 L 566.117188 192.550781 L 570.355469 199.644531 "/>
<path fill-rule="nonzero" fill="rgb(24%, 24%, 96%)" fill-opacity="1" d="M 399.644531 370.355469 L 392.550781 366.117188 L 385.464844 361.867188 L 378.414062 357.585938 L 371.402344 353.265625 L 364.449219 348.882812 L 357.566406 344.433594 L 350.769531 339.898438 L 344.0625 335.269531 L 337.464844 330.535156 L 330.976562 325.6875 L 324.617188 320.71875 L 318.382812 315.617188 L 312.289062 310.378906 L 306.335938 305 L 300.523438 299.476562 L 295 293.664062 L 289.621094 287.710938 L 284.382812 281.617188 L 279.28125 275.382812 L 274.3125 269.023438 L 269.464844 262.535156 L 264.730469 255.9375 L 260.101562 249.230469 L 255.566406 242.433594 L 251.117188 235.550781 L 246.734375 228.597656 L 242.414062 221.585938 L 238.132812 214.535156 L 233.882812 207.449219 L 229.644531 200.355469 L 230.355469 199.644531 L 237.449219 203.882812 L 244.535156 208.132812 L 251.585938 212.414062 L 258.597656 216.734375 L 265.550781 221.117188 L 272.433594 225.566406 L 279.230469 230.101562 L 285.9375 234.730469 L 292.535156 239.464844 L 299.023438 244.3125 L 305.382812 249.28125 L 311.617188 254.382812 L 317.710938 259.621094 L 323.664062 265 L 329.476562 270.523438 L 335 276.335938 L 340.378906 282.289062 L 345.617188 288.382812 L 350.71875 294.617188 L 355.6875 300.976562 L 360.535156 307.464844 L 365.269531 314.0625 L 369.898438 320.769531 L 374.433594 327.566406 L 378.882812 334.449219 L 383.265625 341.402344 L 387.585938 348.414062 L 391.867188 355.464844 L 396.117188 362.550781 L 400.355469 369.644531 "/>
<path fill-rule="nonzero" fill="rgb(96%, 24%, 96%)" fill-opacity="1" d="M 399.5 370 L 397.476562 358.667969 L 395.472656 347.332031 L 393.511719 336 L 391.613281 324.667969 L 389.792969 313.332031 L 388.074219 302 L 386.472656 290.667969 L 385.003906 279.332031 L 383.683594 268 L 382.527344 256.667969 L 381.542969 245.332031 L 380.746094 234 L 380.136719 222.667969 L 379.730469 211.332031 L 379.527344 200 L 379.730469 188.667969 L 380.136719 177.332031 L 380.746094 166 L 381.542969 154.667969 L 382.527344 143.332031 L 383.683594 132 L 385.003906 120.667969 L 386.472656 109.332031 L 388.074219 98 L 389.792969 86.667969 L 391.613281 75.332031 L 393.511719 64 L 395.472656 52.667969 L 397.476562 41.332031 L 399.5 30 L 400.5 30 L 402.523438 41.332031 L 404.527344 52.667969 L 406.488281 64 L 408.386719 75.332031 L 410.207031 86.667969 L 411.925781 98 L 413.527344 109.332031 L 414.996094 120.667969 L 416.316406 132 L 417.472656 143.332031 L 418.457031 154.667969 L 419.253906 166 L 419.863281 177.332031 L 420.269531 188.667969 L 420.472656 200 L 420.269531 211.332031 L 419.863281 222.667969 L 419.253906 234 L 418.457031 245.332031 L 417.472656 256.667969 L 416.316406 268 L 414.996094 279.332031 L 413.527344 290.667969 L 411.925781 302 L 410.207031 313.332031 L 408.386719 324.667969 L 406.488281 336 L 404.527344 347.332031 L 402.523438 358.667969 L 400.5 370 "/>
<path fill-rule="nonzero" fill="rgb(96%, 24%, 24%)" fill-opacity="1" d="M 229.644531 199.644531 L 233.882812 192.550781 L 238.132812 185.464844 L 242.414062 178.414062 L 246.734375 171.402344 L 251.117188 164.449219 L 255.566406 157.566406 L 260.101562 150.769531 L 264.730469 144.0625 L 269.464844 137.464844 L 274.3125 130.976562 L 279.28125 124.617188 L 284.382812 118.382812 L 289.621094 112.289062 L 295 106.335938 L 300.523438 100.523438 L 306.335938 95 L 312.289062 89.621094 L 318.382812 84.382812 L 324.617188 79.28125 L 330.976562 74.3125 L 337.464844 69.464844 L 344.0625 64.730469 L 350.769531 60.101562 L 357.566406 55.566406 L 364.449219 51.117188 L 371.402344 46.734375 L 378.414062 42.414062 L 385.464844 38.132812 L 392.550781 33.882812 L 399.644531 29.644531 L 400.355469 30.355469 L 396.117188 37.449219 L 391.867188 44.535156 L 387.585938 51.585938 L 383.265625 58.597656 L 378.882812 65.550781 L 374.433594 72.433594 L 369.898438 79.230469 L 365.269531 85.9375 L 360.535156 92.535156 L 355.6875 99.023438 L 350.71875 105.382812 L 345.617188 111.617188 L 340.378906 117.710938 L 335 123.664062 L 329.476562 129.476562 L 323.664062 135 L 317.710938 140.378906 L 311.617188 145.617188 L 305.382812 150.71875 L 299.023438 155.6875 L 292.535156 160.535156 L 285.9375 165.269531 L 279.230469 169.898438 L 272.433594 174.433594 L 265.550781 178.882812 L 258.597656 183.265625 L 251.585938 187.585938 L 244.535156 191.867188 L 237.449219 196.117188 L 230.355469 200.355469 "/>
</svg>
