<?xml version="1.0" encoding="UTF-8"?>
<svg xmlns="http://www.w3.org/2000/svg" xmlns:xlink="http://www.w3.org/1999/xlink" width="600" height="400" viewBox="0 0 600 400">
<rect x="-60" y="-40" width="720" height="480" fill="rgb(0%, 0%, 0%)" fill-opacity="1"/>
<path fill="none" stroke-width="0.25" stroke-linecap="butt" stroke-linejoin="bevel" stroke="rgb(60%, 60%, 60%)" stroke-opacity="1" stroke-miterlimit="10" d="M 338.417969 254.433594 L 390.617188 305.707031 L 338.417969 254.433594 L 383.414062 273.554688 L 338.417969 254.433594 L 438.359375 335.53125 L 338.417969 254.433594 L 424.691406 280.011719 L 338.417969 254.433594 L 432.054688 257.355469 L 338.417969 254.433594 L 451.082031 309.324219 L 338.417969 254.433594 L 422.515625 312.480469 L 338.417969 254.433594 L 365.933594 353.902344 L 338.417969 254.433594 L 418.34375 350.648438 L 338.417969 254.433594 L 361.894531 299.324219 L 338.417969 254.433594 L 451.21875 281.746094 L 338.417969 254.433594 L 403.363281 256.867188 L 338.417969 254.433594 L 386.761719 338.140625 L 338.417969 254.433594 L 355.949219 327.78125 L 338.417969 254.433594 L 394.742188 362.132812 L 338.417969 254.433594 L 263.121094 146.863281 L 338.417969 254.433594 L 270.035156 258.824219 L 390.617188 305.707031 L 383.414062 273.554688 L 390.617188 305.707031 L 438.359375 335.53125 L 390.617188 305.707031 L 424.691406 280.011719 L 390.617188 305.707031 L 432.054688 257.355469 L 390.617188 305.707031 L 451.082031 309.324219 L 390.617188 305.707031 L 422.515625 312.480469 L 390.617188 305.707031 L 365.933594 353.902344 L 390.617188 305.707031 L 418.34375 350.648438 L 390.617188 305.707031 L 361.894531 299.324219 L 390.617188 305.707031 L 451.21875 281.746094 L 390.617188 305.707031 L 403.363281 256.867188 L 390.617188 305.707031 L 386.761719 338.140625 L 390.617188 305.707031 L 355.949219 327.78125 L 390.617188 305.707031 L 394.742188 362.132812 L 383.414062 273.554688 L 438.359375 335.53125 L 383.414062 273.554688 L 424.691406 280.011719 L 383.414062 273.554688 L 432.054688 257.355469 L 383.414062 273.554688 L 451.082031 309.324219 L 383.414062 273.554688 L 422.515625 312.480469 L 383.414062 273.554688 L 365.933594 353.902344 L 383.414062 273.554688 L 418.34375 350.648438 L 383.414062 273.554688 L 361.894531 299.324219 L 383.414062 273.554688 L 451.21875 281.746094 L 383.414062 273.554688 L 403.363281 256.867188 L 383.414062 273.554688 L 386.761719 338.140625 L 383.414062 273.554688 L 355.949219 327.78125 L 383.414062 273.554688 L 394.742188 362.132812 L 438.359375 335.53125 L 424.691406 280.011719 L 438.359375 335.53125 L 432.054688 257.355469 L 438.359375 335.53125 L 451.082031 309.324219 L 438.359375 335.53125 L 422.515625 312.480469 L 438.359375 335.53125 L 365.933594 353.902344 L 438.359375 335.53125 L 418.34375 350.648438 L 438.359375 335.53125 L 361.894531 299.324219 L 438.359375 335.53125 L 451.21875 281.746094 L 438.359375 335.53125 L 403.363281 256.867188 L 438.359375 335.53125 L 386.761719 338.140625 L 438.359375 335.53125 L 355.949219 327.78125 L 438.359375 335.53125 L 394.742188 362.132812 L 424.691406 280.011719 L 432.054688 257.355469 L 424.691406 280.011719 L 451.082031 309.324219 L 424.691406 280.011719 L 422.515625 312.480469 L 424.691406 280.011719 L 365.933594 353.902344 L 424.691406 280.011719 L 418.34375 350.648438 L 424.691406 280.011719 L 361.894531 299.324219 L 424.691406 280.011719 L 451.21875 281.746094 L 424.691406 280.011719 L 403.363281 256.867188 L 424.691406 280.011719 L 386.761719 338.140625 L 424.691406 280.011719 L 355.949219 327.78125 L 424.691406 280.011719 L 394.742188 362.132812 L 432.054688 257.355469 L 451.082031 309.324219 L 432.054688 257.355469 L 422.515625 312.480469 L 432.054688 257.355469 L 365.933594 353.902344 L 432.054688 257.355469 L 418.34375 350.648438 L 432.054688 257.355469 L 361.894531 299.324219 L 432.054688 257.355469 L 451.21875 281.746094 L 432.054688 257.355469 L 403.363281 256.867188 L 432.054688 257.355469 L 386.761719 338.140625 L 432.054688 257.355469 L 355.949219 327.78125 L 432.054688 257.355469 L 394.742188 362.132812 L 451.082031 309.324219 L 422.515625 312.480469 L 451.082031 309.324219 L 365.933594 353.902344 L 451.082031 309.324219 L 418.34375 350.648438 L 451.082031 309.324219 L 361.894531 299.324219 L 451.082031 309.324219 L 451.21875 281.746094 L 451.082031 309.324219 L 403.363281 256.867188 L 451.082031 309.324219 L 386.761719 338.140625 L 451.082031 309.324219 L 355.949219 327.78125 L 451.082031 309.324219 L 394.742188 362.132812 L 422.515625 312.480469 L 365.933594 353.902344 L 422.515625 312.480469 L 418.34375 350.648438 L 422.515625 312.480469 L 361.894531 299.324219 L 422.515625 312.480469 L 451.21875 281.746094 L 422.515625 312.480469 L 403.363281 256.867188 L 422.515625 312.480469 L 386.761719 338.140625 L 422.515625 312.480469 L 355.949219 327.78125 L 422.515625 312.480469 L 394.742188 362.132812 L 365.933594 353.902344 L 418.34375 350.648438 L 365.933594 353.902344 L 361.894531 299.324219 L 365.933594 353.902344 L 451.21875 281.746094 L 365.933594 353.902344 L 403.363281 256.867188 L 365.933594 353.902344 L 386.761719 338.140625 L 365.933594 353.902344 L 355.949219 327.78125 L 365.933594 353.902344 L 394.742188 362.132812 L 418.34375 350.648438 L 361.894531 299.324219 L 418.34375 350.648438 L 451.21875 281.746094 L 418.34375 350.648438 L 403.363281 256.867188 L 418.34375 350.648438 L 386.761719 338.140625 L 418.34375 350.648438 L 355.949219 327.78125 L 418.34375 350.648438 L 394.742188 362.132812 L 361.894531 299.324219 L 451.21875 281.746094 L 361.894531 299.324219 L 403.363281 256.867188 L 361.894531 299.324219 L 386.761719 338.140625 L 361.894531 299.324219 L 355.949219 327.78125 L 361.894531 299.324219 L 394.742188 362.132812 L 451.21875 281.746094 L 403.363281 256.867188 L 451.21875 281.746094 L 386.761719 338.140625 L 451.21875 281.746094 L 355.949219 327.78125 L 451.21875 281.746094 L 394.742188 362.132812 L 403.363281 256.867188 L 386.761719 338.140625 L 403.363281 256.867188 L 355.949219 327.78125 L 403.363281 256.867188 L 394.742188 362.132812 L 386.761719 338.140625 L 355.949219 327.78125 L 386.761719 338.140625 L 394.742188 362.132812 L 355.949219 327.78125 L 394.742188 362.132812 L 263.121094 146.863281 L 237.722656 52.023438 L 263.121094 146.863281 L 236.632812 103.820312 L 263.121094 146.863281 L 193.171875 145.085938 L 263.121094 146.863281 L 174.996094 95.570312 L 263.121094 146.863281 L 213.734375 76.925781 L 263.121094 146.863281 L 245.4375 76.902344 L 263.121094 146.863281 L 217.765625 132.058594 L 263.121094 146.863281 L 178.71875 60.070312 L 263.121094 146.863281 L 157.96875 71.804688 L 263.121094 146.863281 L 216.859375 42.261719 L 263.121094 146.863281 L 200.117188 110.6875 L 263.121094 146.863281 L 148.78125 100.503906 L 263.121094 146.863281 L 193.292969 43.652344 L 263.121094 146.863281 L 154.570312 124.976562 L 263.121094 146.863281 L 169.957031 141.167969 L 263.121094 146.863281 L 331.449219 142.738281 L 237.722656 52.023438 L 236.632812 103.820312 L 237.722656 52.023438 L 193.171875 145.085938 L 237.722656 52.023438 L 174.996094 95.570312 L 237.722656 52.023438 L 213.734375 76.925781 L 237.722656 52.023438 L 245.4375 76.902344 L 237.722656 52.023438 L 217.765625 132.058594 L 237.722656 52.023438 L 178.71875 60.070312 L 237.722656 52.023438 L 157.96875 71.804688 L 237.722656 52.023438 L 216.859375 42.261719 L 237.722656 52.023438 L 200.117188 110.6875 L 237.722656 52.023438 L 148.78125 100.503906 L 237.722656 52.023438 L 193.292969 43.652344 L 237.722656 52.023438 L 154.570312 124.976562 L 237.722656 52.023438 L 169.957031 141.167969 L 236.632812 103.820312 L 193.171875 145.085938 L 236.632812 103.820312 L 174.996094 95.570312 L 236.632812 103.820312 L 213.734375 76.925781 L 236.632812 103.820312 L 245.4375 76.902344 L 236.632812 103.820312 L 217.765625 132.058594 L 236.632812 103.820312 L 178.71875 60.070312 L 236.632812 103.820312 L 157.96875 71.804688 L 236.632812 103.820312 L 216.859375 42.261719 L 236.632812 103.820312 L 200.117188 110.6875 L 236.632812 103.820312 L 148.78125 100.503906 L 236.632812 103.820312 L 193.292969 43.652344 L 236.632812 103.820312 L 154.570312 124.976562 L 236.632812 103.820312 L 169.957031 141.167969 L 193.171875 145.085938 L 174.996094 95.570312 L 193.171875 145.085938 L 213.734375 76.925781 L 193.171875 145.085938 L 245.4375 76.902344 L 193.171875 145.085938 L 217.765625 132.058594 L 193.171875 145.085938 L 178.71875 60.070312 L 193.171875 145.085938 L 157.96875 71.804688 L 193.171875 145.085938 L 216.859375 42.261719 L 193.171875 145.085938 L 200.117188 110.6875 L 193.171875 145.085938 L 148.78125 100.503906 L 193.171875 145.085938 L 193.292969 43.652344 L 193.171875 145.085938 L 154.570312 124.976562 L 193.171875 145.085938 L 169.957031 141.167969 L 174.996094 95.570312 L 213.734375 76.925781 L 174.996094 95.570312 L 245.4375 76.902344 L 174.996094 95.570312 L 217.765625 132.058594 L 174.996094 95.570312 L 178.71875 60.070312 L 174.996094 95.570312 L 157.96875 71.804688 L 174.996094 95.570312 L 216.859375 42.261719 L 174.996094 95.570312 L 200.117188 110.6875 L 174.996094 95.570312 L 148.78125 100.503906 L 174.996094 95.570312 L 193.292969 43.652344 L 174.996094 95.570312 L 154.570312 124.976562 L 174.996094 95.570312 L 169.957031 141.167969 L 213.734375 76.925781 L 245.4375 76.902344 L 213.734375 76.925781 L 217.765625 132.058594 L 213.734375 76.925781 L 178.71875 60.070312 L 213.734375 76.925781 L 157.96875 71.804688 L 213.734375 76.925781 L 216.859375 42.261719 L 213.734375 76.925781 L 200.117188 110.6875 L 213.734375 76.925781 L 148.78125 100.503906 L 213.734375 76.925781 L 193.292969 43.652344 L 213.734375 76.925781 L 154.570312 124.976562 L 213.734375 76.925781 L 169.957031 141.167969 L 245.4375 76.902344 L 217.765625 132.058594 L 245.4375 76.902344 L 178.71875 60.070312 L 245.4375 76.902344 L 157.96875 71.804688 L 245.4375 76.902344 L 216.859375 42.261719 L 245.4375 76.902344 L 200.117188 110.6875 L 245.4375 76.902344 L 148.78125 100.503906 L 245.4375 76.902344 L 193.292969 43.652344 L 245.4375 76.902344 L 154.570312 124.976562 L 245.4375 76.902344 L 169.957031 141.167969 L 217.765625 132.058594 L 178.71875 60.070312 L 217.765625 132.058594 L 157.96875 71.804688 L 217.765625 132.058594 L 216.859375 42.261719 L 217.765625 132.058594 L 200.117188 110.6875 L 217.765625 132.058594 L 148.78125 100.503906 L 217.765625 132.058594 L 193.292969 43.652344 L 217.765625 132.058594 L 154.570312 124.976562 L 217.765625 132.058594 L 169.957031 141.167969 L 178.71875 60.070312 L 157.96875 71.804688 L 178.71875 60.070312 L 216.859375 42.261719 L 178.71875 60.070312 L 200.117188 110.6875 L 178.71875 60.070312 L 148.78125 100.503906 L 178.71875 60.070312 L 193.292969 43.652344 L 178.71875 60.070312 L 154.570312 124.976562 L 178.71875 60.070312 L 169.957031 141.167969 L 157.96875 71.804688 L 216.859375 42.261719 L 157.96875 71.804688 L 200.117188 110.6875 L 157.96875 71.804688 L 148.78125 100.503906 L 157.96875 71.804688 L 193.292969 43.652344 L 157.96875 71.804688 L 154.570312 124.976562 L 157.96875 71.804688 L 169.957031 141.167969 L 216.859375 42.261719 L 200.117188 110.6875 L 216.859375 42.261719 L 148.78125 100.503906 L 216.859375 42.261719 L 193.292969 43.652344 L 216.859375 42.261719 L 154.570312 124.976562 L 216.859375 42.261719 L 169.957031 141.167969 L 200.117188 110.6875 L 148.78125 100.503906 L 200.117188 110.6875 L 193.292969 43.652344 L 200.117188 110.6875 L 154.570312 124.976562 L 200.117188 110.6875 L 169.957031 141.167969 L 148.78125 100.503906 L 193.292969 43.652344 L 148.78125 100.503906 L 154.570312 124.976562 L 148.78125 100.503906 L 169.957031 141.167969 L 193.292969 43.652344 L 154.570312 124.976562 L 193.292969 43.652344 L 169.957031 141.167969 L 154.570312 124.976562 L 169.957031 141.167969 L 331.449219 142.738281 L 340.878906 63.53125 L 331.449219 142.738281 L 370.5 116.480469 L 331.449219 142.738281 L 348.414062 41.226562 L 331.449219 142.738281 L 393.941406 132.542969 L 331.449219 142.738281 L 345.921875 90.867188 L 331.449219 142.738281 L 423.25 51.351562 L 331.449219 142.738281 L 437.519531 107.542969 L 331.449219 142.738281 L 421.832031 128.429688 L 331.449219 142.738281 L 370.078125 30 L 331.449219 142.738281 L 405.792969 104.933594 L 331.449219 142.738281 L 373.128906 84.167969 L 331.449219 142.738281 L 414.0625 74.046875 L 331.449219 142.738281 L 382.457031 54.429688 L 331.449219 142.738281 L 399.632812 34.765625 L 331.449219 142.738281 L 439.089844 81.207031 L 331.449219 142.738281 L 270.035156 258.824219 L 340.878906 63.53125 L 370.5 116.480469 L 340.878906 63.53125 L 348.414062 41.226562 L 340.878906 63.53125 L 393.941406 132.542969 L 340.878906 63.53125 L 345.921875 90.867188 L 340.878906 63.53125 L 423.25 51.351562 L 340.878906 63.53125 L 437.519531 107.542969 L 340.878906 63.53125 L 421.832031 128.429688 L 340.878906 63.53125 L 370.078125 30 L 340.878906 63.53125 L 405.792969 104.933594 L 340.878906 63.53125 L 373.128906 84.167969 L 340.878906 63.53125 L 414.0625 74.046875 L 340.878906 63.53125 L 382.457031 54.429688 L 340.878906 63.53125 L 399.632812 34.765625 L 340.878906 63.53125 L 439.089844 81.207031 L 370.5 116.480469 L 348.414062 41.226562 L 370.5 116.480469 L 393.941406 132.542969 L 370.5 116.480469 L 345.921875 90.867188 L 370.5 116.480469 L 423.25 51.351562 L 370.5 116.480469 L 437.519531 107.542969 L 370.5 116.480469 L 421.832031 128.429688 L 370.5 116.480469 L 370.078125 30 L 370.5 116.480469 L 405.792969 104.933594 L 370.5 116.480469 L 373.128906 84.167969 L 370.5 116.480469 L 414.0625 74.046875 L 370.5 116.480469 L 382.457031 54.429688 L 370.5 116.480469 L 399.632812 34.765625 L 370.5 116.480469 L 439.089844 81.207031 L 348.414062 41.226562 L 393.941406 132.542969 L 348.414062 41.226562 L 345.921875 90.867188 L 348.414062 41.226562 L 423.25 51.351562 L 348.414062 41.226562 L 437.519531 107.542969 L 348.414062 41.226562 L 421.832031 128.429688 L 348.414062 41.226562 L 370.078125 30 L 348.414062 41.226562 L 405.792969 104.933594 L 348.414062 41.226562 L 373.128906 84.167969 L 348.414062 41.226562 L 414.0625 74.046875 L 348.414062 41.226562 L 382.457031 54.429688 L 348.414062 41.226562 L 399.632812 34.765625 L 348.414062 41.226562 L 439.089844 81.207031 L 393.941406 132.542969 L 345.921875 90.867188 L 393.941406 132.542969 L 423.25 51.351562 L 393.941406 132.542969 L 437.519531 107.542969 L 393.941406 132.542969 L 421.832031 128.429688 L 393.941406 132.542969 L 370.078125 30 L 393.941406 132.542969 L 405.792969 104.933594 L 393.941406 132.542969 L 373.128906 84.167969 L 393.941406 132.542969 L 414.0625 74.046875 L 393.941406 132.542969 L 382.457031 54.429688 L 393.941406 132.542969 L 399.632812 34.765625 L 393.941406 132.542969 L 439.089844 81.207031 L 345.921875 90.867188 L 423.25 51.351562 L 345.921875 90.867188 L 437.519531 107.542969 L 345.921875 90.867188 L 421.832031 128.429688 L 345.921875 90.867188 L 370.078125 30 L 345.921875 90.867188 L 405.792969 104.933594 L 345.921875 90.867188 L 373.128906 84.167969 L 345.921875 90.867188 L 414.0625 74.046875 L 345.921875 90.867188 L 382.457031 54.429688 L 345.921875 90.867188 L 399.632812 34.765625 L 345.921875 90.867188 L 439.089844 81.207031 L 423.25 51.351562 L 437.519531 107.542969 L 423.25 51.351562 L 421.832031 128.429688 L 423.25 51.351562 L 370.078125 30 L 423.25 51.351562 L 405.792969 104.933594 L 423.25 51.351562 L 373.128906 84.167969 L 423.25 51.351562 L 414.0625 74.046875 L 423.25 51.351562 L 382.457031 54.429688 L 423.25 51.351562 L 399.632812 34.765625 L 423.25 51.351562 L 439.089844 81.207031 L 437.519531 107.542969 L 421.832031 128.429688 L 437.519531 107.542969 L 370.078125 30 L 437.519531 107.542969 L 405.792969 104.933594 L 437.519531 107.542969 L 373.128906 84.167969 L 437.519531 107.542969 L 414.0625 74.046875 L 437.519531 107.542969 L 382.457031 54.429688 L 437.519531 107.542969 L 399.632812 34.765625 L 437.519531 107.542969 L 439.089844 81.207031 L 421.832031 128.429688 L 370.078125 30 L 421.832031 128.429688 L 405.792969 104.933594 L 421.832031 128.429688 L 373.128906 84.167969 L 421.832031 128.429688 L 414.0625 74.046875 L 421.832031 128.429688 L 382.457031 54.429688 L 421.832031 128.429688 L 399.632812 34.765625 L 421.832031 128.429688 L 439.089844 81.207031 L 370.078125 30 L 405.792969 104.933594 L 370.078125 30 L 373.128906 84.167969 L 370.078125 30 L 414.0625 74.046875 L 370.078125 30 L 382.457031 54.429688 L 370.078125 30 L 399.632812 34.765625 L 370.078125 30 L 439.089844 81.207031 L 405.792969 104.933594 L 373.128906 84.167969 L 405.792969 104.933594 L 414.0625 74.046875 L 405.792969 104.933594 L 382.457031 54.429688 L 405.792969 104.933594 L 399.632812 34.765625 L 405.792969 104.933594 L 439.089844 81.207031 L 373.128906 84.167969 L 414.0625 74.046875 L 373.128906 84.167969 L 382.457031 54.429688 L 373.128906 84.167969 L 399.632812 34.765625 L 373.128906 84.167969 L 439.089844 81.207031 L 414.0625 74.046875 L 382.457031 54.429688 L 414.0625 74.046875 L 399.632812 34.765625 L 414.0625 74.046875 L 439.089844 81.207031 L 382.457031 54.429688 L 399.632812 34.765625 L 382.457031 54.429688 L 439.089844 81.207031 L 399.632812 34.765625 L 439.089844 81.207031 L 270.035156 258.824219 L 200.730469 267.855469 L 270.035156 258.824219 L 216.636719 320.214844 L 270.035156 258.824219 L 188.09375 356.820312 L 270.035156 258.824219 L 259.679688 327.476562 L 270.035156 258.824219 L 258.367188 352.515625 L 270.035156 258.824219 L 225.402344 347.246094 L 270.035156 258.824219 L 247.746094 303.78125 L 270.035156 258.824219 L 226.996094 280.335938 L 270.035156 258.824219 L 240.003906 370 L 270.035156 258.824219 L 198.144531 297.527344 L 270.035156 258.824219 L 164.007812 297.804688 L 270.035156 258.824219 L 178.003906 337.429688 L 270.035156 258.824219 L 175.339844 276.808594 L 270.035156 258.824219 L 164.066406 320.988281 L 270.035156 258.824219 L 210.578125 369.582031 L 200.730469 267.855469 L 216.636719 320.214844 L 200.730469 267.855469 L 188.09375 356.820312 L 200.730469 267.855469 L 259.679688 327.476562 L 200.730469 267.855469 L 258.367188 352.515625 L 200.730469 267.855469 L 225.402344 347.246094 L 200.730469 267.855469 L 247.746094 303.78125 L 200.730469 267.855469 L 226.996094 280.335938 L 200.730469 267.855469 L 240.003906 370 L 200.730469 267.855469 L 198.144531 297.527344 L 200.730469 267.855469 L 164.007812 297.804688 L 200.730469 267.855469 L 178.003906 337.429688 L 200.730469 267.855469 L 175.339844 276.808594 L 200.730469 267.855469 L 164.066406 320.988281 L 200.730469 267.855469 L 210.578125 369.582031 L 216.636719 320.214844 L 188.09375 356.820312 L 216.636719 320.214844 L 259.679688 327.476562 L 216.636719 320.214844 L 258.367188 352.515625 L 216.636719 320.214844 L 225.402344 347.246094 L 216.636719 320.214844 L 247.746094 303.78125 L 216.636719 320.214844 L 226.996094 280.335938 L 216.636719 320.214844 L 240.003906 370 L 216.636719 320.214844 L 198.144531 297.527344 L 216.636719 320.214844 L 164.007812 297.804688 L 216.636719 320.214844 L 178.003906 337.429688 L 216.636719 320.214844 L 175.339844 276.808594 L 216.636719 320.214844 L 164.066406 320.988281 L 216.636719 320.214844 L 210.578125 369.582031 L 188.09375 356.820312 L 259.679688 327.476562 L 188.09375 356.820312 L 258.367188 352.515625 L 188.09375 356.820312 L 225.402344 347.246094 L 188.09375 356.820312 L 247.746094 303.78125 L 188.09375 356.820312 L 226.996094 280.335938 L 188.09375 356.820312 L 240.003906 370 L 188.09375 356.820312 L 198.144531 297.527344 L 188.09375 356.820312 L 164.007812 297.804688 L 188.09375 356.820312 L 178.003906 337.429688 L 188.09375 356.820312 L 175.339844 276.808594 L 188.09375 356.820312 L 164.066406 320.988281 L 188.09375 356.820312 L 210.578125 369.582031 L 259.679688 327.476562 L 258.367188 352.515625 L 259.679688 327.476562 L 225.402344 347.246094 L 259.679688 327.476562 L 247.746094 303.78125 L 259.679688 327.476562 L 226.996094 280.335938 L 259.679688 327.476562 L 240.003906 370 L 259.679688 327.476562 L 198.144531 297.527344 L 259.679688 327.476562 L 164.007812 297.804688 L 259.679688 327.476562 L 178.003906 337.429688 L 259.679688 327.476562 L 175.339844 276.808594 L 259.679688 327.476562 L 164.066406 320.988281 L 259.679688 327.476562 L 210.578125 369.582031 L 258.367188 352.515625 L 225.402344 347.246094 L 258.367188 352.515625 L 247.746094 303.78125 L 258.367188 352.515625 L 226.996094 280.335938 L 258.367188 352.515625 L 240.003906 370 L 258.367188 352.515625 L 198.144531 297.527344 L 258.367188 352.515625 L 164.007812 297.804688 L 258.367188 352.515625 L 178.003906 337.429688 L 258.367188 352.515625 L 175.339844 276.808594 L 258.367188 352.515625 L 164.066406 320.988281 L 258.367188 352.515625 L 210.578125 369.582031 L 225.402344 347.246094 L 247.746094 303.78125 L 225.402344 347.246094 L 226.996094 280.335938 L 225.402344 347.246094 L 240.003906 370 L 225.402344 347.246094 L 198.144531 297.527344 L 225.402344 347.246094 L 164.007812 297.804688 L 225.402344 347.246094 L 178.003906 337.429688 L 225.402344 347.246094 L 175.339844 276.808594 L 225.402344 347.246094 L 164.066406 320.988281 L 225.402344 347.246094 L 210.578125 369.582031 L 247.746094 303.78125 L 226.996094 280.335938 L 247.746094 303.78125 L 240.003906 370 L 247.746094 303.78125 L 198.144531 297.527344 L 247.746094 303.78125 L 164.007812 297.804688 L 247.746094 303.78125 L 178.003906 337.429688 L 247.746094 303.78125 L 175.339844 276.808594 L 247.746094 303.78125 L 164.066406 320.988281 L 247.746094 303.78125 L 210.578125 369.582031 L 226.996094 280.335938 L 240.003906 370 L 226.996094 280.335938 L 198.144531 297.527344 L 226.996094 280.335938 L 164.007812 297.804688 L 226.996094 280.335938 L 178.003906 337.429688 L 226.996094 280.335938 L 175.339844 276.808594 L 226.996094 280.335938 L 164.066406 320.988281 L 226.996094 280.335938 L 210.578125 369.582031 L 240.003906 370 L 198.144531 297.527344 L 240.003906 370 L 164.007812 297.804688 L 240.003906 370 L 178.003906 337.429688 L 240.003906 370 L 175.339844 276.808594 L 240.003906 370 L 164.066406 320.988281 L 240.003906 370 L 210.578125 369.582031 L 198.144531 297.527344 L 164.007812 297.804688 L 198.144531 297.527344 L 178.003906 337.429688 L 198.144531 297.527344 L 175.339844 276.808594 L 198.144531 297.527344 L 164.066406 320.988281 L 198.144531 297.527344 L 210.578125 369.582031 L 164.007812 297.804688 L 178.003906 337.429688 L 164.007812 297.804688 L 175.339844 276.808594 L 164.007812 297.804688 L 164.066406 320.988281 L 164.007812 297.804688 L 210.578125 369.582031 L 178.003906 337.429688 L 175.339844 276.808594 L 178.003906 337.429688 L 164.066406 320.988281 L 178.003906 337.429688 L 210.578125 369.582031 L 175.339844 276.808594 L 164.066406 320.988281 L 175.339844 276.808594 L 210.578125 369.582031 L 164.066406 320.988281 L 210.578125 369.582031 "/>
<path fill="none" stroke-width="4" stroke-linecap="butt" stroke-linejoin="bevel" stroke="rgb(100%, 84.313725%, 0%)" stroke-opacity="1" stroke-miterlimit="10" d="M 432.054688 257.355469 L 338.417969 254.433594 L 263.121094 146.863281 L 148.78125 100.503906 "/>
<path fill-rule="nonzero" fill="rgb(100%, 84.313725%, 0%)" fill-opacity="1" d="M 437.054688 257.355469 C 437.054688 260.117188 434.816406 262.355469 432.054688 262.355469 C 429.292969 262.355469 427.054688 260.117188 427.054688 257.355469 C 427.054688 254.59375 429.292969 252.355469 432.054688 252.355469 C 434.816406 252.355469 437.054688 254.59375 437.054688 257.355469 Z M 437.054688 257.355469 "/>
<path fill-rule="nonzero" fill="rgb(100%, 84.313725%, 0%)" fill-opacity="1" d="M 153.78125 100.503906 C 153.78125 103.265625 151.542969 105.503906 148.78125 105.503906 C 146.019531 105.503906 143.78125 103.265625 143.78125 100.503906 C 143.78125 97.742188 146.019531 95.503906 148.78125 95.503906 C 151.542969 95.503906 153.78125 97.742188 153.78125 100.503906 Z M 153.78125 100.503906 "/>
</svg>
