<?xml version="1.0" encoding="UTF-8"?>
<svg xmlns="http://www.w3.org/2000/svg" xmlns:xlink="http://www.w3.org/1999/xlink" width="600" height="500" viewBox="0 0 600 500">
<defs>
<g>
<g id="glyph-672123-0-0">
<path d="M 2.871094 -14.851562 L 2.871094 -16.875 C 4.773438 -17.0625 6.101562 -17.371094 6.855469 -17.804688 C 7.609375 -18.238281 8.167969 -19.265625 8.539062 -20.890625 L 10.621094 -20.890625 L 10.621094 0 L 7.808594 0 L 7.808594 -14.851562 Z M 2.871094 -14.851562 "/>
</g>
<g id="glyph-672123-0-1">
<path d="M 0.9375 0 C 1.035156 -1.804688 1.410156 -3.378906 2.058594 -4.71875 C 2.707031 -6.054688 3.976562 -7.269531 5.859375 -8.363281 L 8.671875 -9.992188 C 9.929688 -10.722656 10.816406 -11.347656 11.324219 -11.867188 C 12.125 -12.675781 12.523438 -13.601562 12.523438 -14.648438 C 12.523438 -15.867188 12.15625 -16.839844 11.425781 -17.554688 C 10.695312 -18.273438 9.71875 -18.632812 8.496094 -18.632812 C 6.6875 -18.632812 5.4375 -17.949219 4.746094 -16.582031 C 4.375 -15.851562 4.171875 -14.835938 4.132812 -13.535156 L 1.449219 -13.535156 C 1.480469 -15.359375 1.816406 -16.851562 2.460938 -18.003906 C 3.601562 -20.035156 5.621094 -21.050781 8.511719 -21.050781 C 10.914062 -21.050781 12.667969 -20.398438 13.777344 -19.101562 C 14.886719 -17.804688 15.4375 -16.359375 15.4375 -14.765625 C 15.4375 -13.085938 14.847656 -11.648438 13.667969 -10.460938 C 12.984375 -9.765625 11.757812 -8.925781 9.992188 -7.9375 L 7.984375 -6.828125 C 7.027344 -6.300781 6.273438 -5.796875 5.726562 -5.316406 C 4.75 -4.46875 4.136719 -3.523438 3.882812 -2.492188 L 15.335938 -2.492188 L 15.335938 0 Z M 0.9375 0 "/>
</g>
<g id="glyph-672123-0-2">
<path d="M 7.792969 0.570312 C 5.3125 0.570312 3.511719 -0.109375 2.394531 -1.472656 C 1.277344 -2.835938 0.71875 -4.492188 0.71875 -6.445312 L 3.472656 -6.445312 C 3.589844 -5.085938 3.84375 -4.101562 4.234375 -3.484375 C 4.917969 -2.382812 6.152344 -1.832031 7.9375 -1.832031 C 9.324219 -1.832031 10.4375 -2.203125 11.28125 -2.945312 C 12.121094 -3.6875 12.539062 -4.644531 12.539062 -5.816406 C 12.539062 -7.261719 12.097656 -8.273438 11.214844 -8.847656 C 10.328125 -9.421875 9.101562 -9.710938 7.53125 -9.710938 C 7.355469 -9.710938 7.175781 -9.710938 6.996094 -9.703125 C 6.8125 -9.699219 6.632812 -9.691406 6.445312 -9.683594 L 6.445312 -12.011719 C 6.71875 -11.984375 6.949219 -11.960938 7.132812 -11.953125 C 7.320312 -11.945312 7.519531 -11.9375 7.734375 -11.9375 C 8.71875 -11.9375 9.53125 -12.09375 10.164062 -12.40625 C 11.277344 -12.953125 11.835938 -13.929688 11.835938 -15.335938 C 11.835938 -16.382812 11.464844 -17.1875 10.722656 -17.753906 C 9.980469 -18.320312 9.117188 -18.601562 8.128906 -18.601562 C 6.371094 -18.601562 5.15625 -18.015625 4.484375 -16.84375 C 4.113281 -16.199219 3.902344 -15.28125 3.851562 -14.09375 L 1.246094 -14.09375 C 1.246094 -15.65625 1.558594 -16.984375 2.183594 -18.078125 C 3.257812 -20.03125 5.148438 -21.007812 7.851562 -21.007812 C 9.992188 -21.007812 11.644531 -20.53125 12.816406 -19.578125 C 13.988281 -18.625 14.574219 -17.246094 14.574219 -15.4375 C 14.574219 -14.148438 14.226562 -13.105469 13.535156 -12.304688 C 13.105469 -11.804688 12.546875 -11.414062 11.867188 -11.132812 C 12.96875 -10.828125 13.832031 -10.246094 14.449219 -9.382812 C 15.070312 -8.519531 15.382812 -7.460938 15.382812 -6.210938 C 15.382812 -4.210938 14.722656 -2.578125 13.402344 -1.320312 C 12.085938 -0.0585938 10.214844 0.570312 7.792969 0.570312 Z M 7.792969 0.570312 "/>
</g>
<g id="glyph-672123-0-3">
<path d="M 9.917969 -7.425781 L 9.917969 -16.933594 L 3.195312 -7.425781 Z M 9.960938 0 L 9.960938 -5.125 L 0.761719 -5.125 L 0.761719 -7.703125 L 10.371094 -21.035156 L 12.597656 -21.035156 L 12.597656 -7.425781 L 15.6875 -7.425781 L 15.6875 -5.125 L 12.597656 -5.125 L 12.597656 0 Z M 9.960938 0 "/>
</g>
<g id="glyph-672123-0-4">
<path d="M 3.707031 -5.347656 C 3.882812 -3.84375 4.578125 -2.804688 5.800781 -2.226562 C 6.425781 -1.933594 7.148438 -1.789062 7.96875 -1.789062 C 9.53125 -1.789062 10.6875 -2.285156 11.441406 -3.28125 C 12.191406 -4.277344 12.570312 -5.382812 12.570312 -6.59375 C 12.570312 -8.058594 12.121094 -9.1875 11.226562 -9.992188 C 10.335938 -10.792969 9.261719 -11.191406 8.011719 -11.191406 C 7.105469 -11.191406 6.324219 -11.015625 5.675781 -10.664062 C 5.027344 -10.3125 4.472656 -9.824219 4.015625 -9.199219 L 1.726562 -9.332031 L 3.324219 -20.625 L 14.222656 -20.625 L 14.222656 -18.078125 L 5.304688 -18.078125 L 4.410156 -12.246094 C 4.898438 -12.617188 5.359375 -12.894531 5.800781 -13.082031 C 6.582031 -13.402344 7.484375 -13.5625 8.511719 -13.5625 C 10.433594 -13.5625 12.066406 -12.945312 13.402344 -11.703125 C 14.742188 -10.464844 15.410156 -8.890625 15.410156 -6.988281 C 15.410156 -5.003906 14.796875 -3.257812 13.570312 -1.742188 C 12.34375 -0.230469 10.390625 0.527344 7.703125 0.527344 C 5.996094 0.527344 4.484375 0.046875 3.171875 -0.914062 C 1.859375 -1.875 1.125 -3.355469 0.96875 -5.347656 Z M 3.707031 -5.347656 "/>
</g>
<g id="glyph-672123-0-5">
<path d="M 8.773438 -21.0625 C 11.117188 -21.0625 12.75 -20.457031 13.675781 -19.242188 C 14.597656 -18.023438 15.058594 -16.773438 15.058594 -15.484375 L 12.453125 -15.484375 C 12.296875 -16.3125 12.046875 -16.960938 11.703125 -17.429688 C 11.070312 -18.308594 10.109375 -18.75 8.820312 -18.75 C 7.34375 -18.75 6.171875 -18.070312 5.304688 -16.707031 C 4.433594 -15.34375 3.949219 -13.394531 3.851562 -10.855469 C 4.457031 -11.742188 5.21875 -12.40625 6.136719 -12.847656 C 6.976562 -13.238281 7.914062 -13.433594 8.949219 -13.433594 C 10.707031 -13.433594 12.242188 -12.871094 13.550781 -11.75 C 14.859375 -10.625 15.511719 -8.949219 15.511719 -6.722656 C 15.511719 -4.820312 14.890625 -3.132812 13.652344 -1.664062 C 12.414062 -0.195312 10.644531 0.542969 8.351562 0.542969 C 6.386719 0.542969 4.691406 -0.203125 3.265625 -1.691406 C 1.839844 -3.179688 1.128906 -5.6875 1.128906 -9.214844 C 1.128906 -11.820312 1.445312 -14.03125 2.078125 -15.851562 C 3.300781 -19.328125 5.53125 -21.0625 8.773438 -21.0625 Z M 8.585938 -1.800781 C 9.972656 -1.800781 11.007812 -2.269531 11.695312 -3.199219 C 12.382812 -4.132812 12.730469 -5.234375 12.730469 -6.503906 C 12.730469 -7.578125 12.421875 -8.601562 11.804688 -9.574219 C 11.191406 -10.546875 10.074219 -11.03125 8.453125 -11.03125 C 7.320312 -11.03125 6.324219 -10.65625 5.472656 -9.902344 C 4.617188 -9.148438 4.1875 -8.015625 4.1875 -6.503906 C 4.1875 -5.175781 4.578125 -4.058594 5.355469 -3.15625 C 6.132812 -2.253906 7.207031 -1.800781 8.585938 -1.800781 Z M 8.585938 -1.800781 "/>
</g>
<g id="glyph-672123-0-6">
<path d="M 15.6875 -20.625 L 15.6875 -18.324219 C 15.015625 -17.671875 14.117188 -16.53125 13 -14.914062 C 11.882812 -13.292969 10.894531 -11.542969 10.035156 -9.667969 C 9.183594 -7.84375 8.539062 -6.175781 8.101562 -4.671875 C 7.816406 -3.707031 7.453125 -2.148438 7 0 L 4.085938 0 C 4.75 -4.003906 6.214844 -7.988281 8.480469 -11.953125 C 9.820312 -14.277344 11.226562 -16.285156 12.699219 -17.972656 L 1.097656 -17.972656 L 1.097656 -20.625 Z M 15.6875 -20.625 "/>
</g>
</g>
</defs>
<rect x="-60" y="-50" width="720" height="600" fill="rgb(10.196078%, 10.196078%, 10.196078%)" fill-opacity="1"/>
<path fill="none" stroke-width="2" stroke-linecap="butt" stroke-linejoin="miter" stroke="rgb(80%, 16%, 16%)" stroke-opacity="1" stroke-miterlimit="10" d="M 40.683594 156.292969 C 49.898438 212.183594 46.652344 268.023438 32.785156 320.957031 "/>
<path fill-rule="nonzero" fill="rgb(80%, 16%, 16%)" fill-opacity="1" d="M 38.398438 320.554688 L 30 331.054688 L 28.511719 317.691406 "/>
<path fill-rule="nonzero" fill="rgb(80%, 16%, 16%)" fill-opacity="1" d="M 36.039062 158.394531 L 38.621094 145.203125 L 46.125 156.355469 "/>
<g fill="rgb(100%, 100%, 100%)" fill-opacity="1">
<use xlink:href="#glyph-672123-0-0" x="25.967929" y="238.128604"/>
</g>
<path fill="none" stroke-width="4" stroke-linecap="butt" stroke-linejoin="miter" stroke="rgb(80%, 79.822222%, 16%)" stroke-opacity="1" stroke-miterlimit="10" d="M 51.472656 149.625 C 105.234375 169.46875 152.949219 199.589844 193.398438 237.34375 "/>
<path fill-rule="nonzero" fill="rgb(80%, 79.822222%, 16%)" fill-opacity="1" d="M 196.066406 230.941406 L 202.40625 245.996094 L 187.277344 239.832031 "/>
<path fill-rule="nonzero" fill="rgb(80%, 79.822222%, 16%)" fill-opacity="1" d="M 51.042969 155.804688 L 38.621094 145.203125 L 54.902344 143.914062 "/>
<g fill="rgb(100%, 100%, 100%)" fill-opacity="1">
<use xlink:href="#glyph-672123-0-1" x="112.170456" y="195.598646"/>
</g>
<path fill="none" stroke-width="6" stroke-linecap="butt" stroke-linejoin="miter" stroke="rgb(16.355556%, 80%, 16%)" stroke-opacity="1" stroke-miterlimit="10" d="M 43.652344 320.15625 C 87.480469 287.074219 136.101562 263.792969 187.179688 249.855469 "/>
<path fill-rule="nonzero" fill="rgb(16.355556%, 80%, 16%)" fill-opacity="1" d="M 183.4375 242.886719 L 202.40625 245.996094 L 186.792969 257.210938 "/>
<path fill-rule="nonzero" fill="rgb(16.355556%, 80%, 16%)" fill-opacity="1" d="M 48.34375 325.308594 L 30 331.054688 L 38.90625 314.019531 "/>
<g fill="rgb(100%, 100%, 100%)" fill-opacity="1">
<use xlink:href="#glyph-672123-0-2" x="107.860242" y="288.525382"/>
</g>
<path fill="none" stroke-width="8" stroke-linecap="butt" stroke-linejoin="miter" stroke="rgb(16%, 80%, 79.466667%)" stroke-opacity="1" stroke-miterlimit="10" d="M 221.886719 242.757812 C 276.066406 235.363281 329.558594 238.382812 380.867188 250.378906 "/>
<path fill-rule="nonzero" fill="rgb(16%, 80%, 79.466667%)" fill-opacity="1" d="M 380.433594 241.128906 L 397.882812 254.707031 L 375.941406 257.445312 "/>
<path fill-rule="nonzero" fill="rgb(16%, 80%, 79.466667%)" fill-opacity="1" d="M 224.058594 250.460938 L 202.40625 245.996094 L 220.875 233.839844 "/>
<g fill="rgb(100%, 100%, 100%)" fill-opacity="1">
<use xlink:href="#glyph-672123-0-3" x="291.802129" y="250.350712"/>
</g>
<path fill="none" stroke-width="10" stroke-linecap="butt" stroke-linejoin="miter" stroke="rgb(16%, 16.711111%, 80%)" stroke-opacity="1" stroke-miterlimit="10" d="M 418.03125 261.765625 C 467.078125 280.746094 510.691406 308.085938 548.339844 341.949219 "/>
<path fill-rule="nonzero" fill="rgb(16%, 16.711111%, 80%)" fill-opacity="1" d="M 552.226562 331.796875 L 562.019531 354.796875 L 538.832031 345.457031 "/>
<path fill-rule="nonzero" fill="rgb(16%, 16.711111%, 80%)" fill-opacity="1" d="M 416.96875 270.855469 L 397.882812 254.707031 L 422.796875 252.632812 "/>
<g fill="rgb(100%, 100%, 100%)" fill-opacity="1">
<use xlink:href="#glyph-672123-0-4" x="471.61017" y="304.752066"/>
</g>
<path fill="none" stroke-width="12" stroke-linecap="butt" stroke-linejoin="miter" stroke="rgb(79.111111%, 16%, 80%)" stroke-opacity="1" stroke-miterlimit="10" d="M 417.695312 239.078125 C 458.34375 209.382812 502.589844 188.046875 549.039062 174.476562 "/>
<path fill-rule="nonzero" fill="rgb(79.111111%, 16%, 80%)" fill-opacity="1" d="M 542.460938 164.523438 L 570 168.914062 L 547.417969 185.285156 "/>
<path fill-rule="nonzero" fill="rgb(79.111111%, 16%, 80%)" fill-opacity="1" d="M 424.464844 246.261719 L 397.882812 254.707031 L 410.707031 229.941406 "/>
<g fill="rgb(100%, 100%, 100%)" fill-opacity="1">
<use xlink:href="#glyph-672123-0-5" x="475.599602" y="211.810999"/>
</g>
<path fill="none" stroke-width="14" stroke-linecap="butt" stroke-linejoin="miter" stroke="rgb(80%, 16%, 17.066667%)" stroke-opacity="1" stroke-miterlimit="10" d="M 557.410156 326.992188 C 551.78125 280.75 554.386719 235.464844 564.160156 191.839844 "/>
<path fill-rule="nonzero" fill="rgb(80%, 16%, 17.066667%)" fill-opacity="1" d="M 550.859375 193.019531 L 570 168.914062 L 573.507812 199.492188 "/>
<path fill-rule="nonzero" fill="rgb(80%, 16%, 17.066667%)" fill-opacity="1" d="M 567.824219 324.574219 L 562.019531 354.796875 L 544.753906 329.320312 "/>
<g fill="rgb(100%, 100%, 100%)" fill-opacity="1">
<use xlink:href="#glyph-672123-0-6" x="557.668283" y="261.857066"/>
</g>
<path fill-rule="nonzero" fill="rgb(100%, 100%, 100%)" fill-opacity="1" stroke-width="1" stroke-linecap="butt" stroke-linejoin="miter" stroke="rgb(100%, 100%, 100%)" stroke-opacity="1" stroke-miterlimit="10" d="M 44.621094 145.203125 C 44.621094 148.515625 41.933594 151.203125 38.621094 151.203125 C 35.308594 151.203125 32.621094 148.515625 32.621094 145.203125 C 32.621094 141.886719 35.308594 139.203125 38.621094 139.203125 C 41.933594 139.203125 44.621094 141.886719 44.621094 145.203125 Z M 44.621094 145.203125 "/>
<path fill-rule="nonzero" fill="rgb(100%, 100%, 100%)" fill-opacity="1" stroke-width="1" stroke-linecap="butt" stroke-linejoin="miter" stroke="rgb(100%, 100%, 100%)" stroke-opacity="1" stroke-miterlimit="10" d="M 36 331.054688 C 36 334.367188 33.3125 337.054688 30 337.054688 C 26.6875 337.054688 24 334.367188 24 331.054688 C 24 327.742188 26.6875 325.054688 30 325.054688 C 33.3125 325.054688 36 327.742188 36 331.054688 Z M 36 331.054688 "/>
<path fill-rule="nonzero" fill="rgb(100%, 100%, 100%)" fill-opacity="1" stroke-width="1" stroke-linecap="butt" stroke-linejoin="miter" stroke="rgb(100%, 100%, 100%)" stroke-opacity="1" stroke-miterlimit="10" d="M 208.40625 245.996094 C 208.40625 249.308594 205.71875 251.996094 202.40625 251.996094 C 199.089844 251.996094 196.40625 249.308594 196.40625 245.996094 C 196.40625 242.683594 199.089844 239.996094 202.40625 239.996094 C 205.71875 239.996094 208.40625 242.683594 208.40625 245.996094 Z M 208.40625 245.996094 "/>
<path fill-rule="nonzero" fill="rgb(100%, 100%, 100%)" fill-opacity="1" stroke-width="1" stroke-linecap="butt" stroke-linejoin="miter" stroke="rgb(100%, 100%, 100%)" stroke-opacity="1" stroke-miterlimit="10" d="M 403.882812 254.707031 C 403.882812 258.019531 401.199219 260.707031 397.882812 260.707031 C 394.570312 260.707031 391.882812 258.019531 391.882812 254.707031 C 391.882812 251.390625 394.570312 248.707031 397.882812 248.707031 C 401.199219 248.707031 403.882812 251.390625 403.882812 254.707031 Z M 403.882812 254.707031 "/>
<path fill-rule="nonzero" fill="rgb(100%, 100%, 100%)" fill-opacity="1" stroke-width="1" stroke-linecap="butt" stroke-linejoin="miter" stroke="rgb(100%, 100%, 100%)" stroke-opacity="1" stroke-miterlimit="10" d="M 568.019531 354.796875 C 568.019531 358.113281 565.335938 360.796875 562.019531 360.796875 C 558.707031 360.796875 556.019531 358.113281 556.019531 354.796875 C 556.019531 351.484375 558.707031 348.796875 562.019531 348.796875 C 565.335938 348.796875 568.019531 351.484375 568.019531 354.796875 Z M 568.019531 354.796875 "/>
<path fill-rule="nonzero" fill="rgb(100%, 100%, 100%)" fill-opacity="1" stroke-width="1" stroke-linecap="butt" stroke-linejoin="miter" stroke="rgb(100%, 100%, 100%)" stroke-opacity="1" stroke-miterlimit="10" d="M 576 168.914062 C 576 172.230469 573.3125 174.914062 570 174.914062 C 566.6875 174.914062 564 172.230469 564 168.914062 C 564 165.601562 566.6875 162.914062 570 162.914062 C 573.3125 162.914062 576 165.601562 576 168.914062 Z M 576 168.914062 "/>
</svg>
