<?xml version="1.0" encoding="UTF-8"?>
<svg xmlns="http://www.w3.org/2000/svg" xmlns:xlink="http://www.w3.org/1999/xlink" width="600" height="300" viewBox="0 0 600 300">
<defs>
<g>
<g id="glyph-963504-0-0">
<path d="M 0.957031 -4.953125 L 0.957031 -5.625 C 1.59375 -5.6875 2.035156 -5.789062 2.285156 -5.933594 C 2.535156 -6.078125 2.722656 -6.421875 2.847656 -6.960938 L 3.539062 -6.960938 L 3.539062 0 L 2.601562 0 L 2.601562 -4.953125 Z M 0.957031 -4.953125 "/>
</g>
<g id="glyph-963504-0-1">
<path d="M 0.3125 0 C 0.34375 -0.601562 0.46875 -1.125 0.6875 -1.570312 C 0.902344 -2.015625 1.324219 -2.421875 1.953125 -2.789062 L 2.890625 -3.328125 C 3.3125 -3.574219 3.605469 -3.78125 3.773438 -3.953125 C 4.039062 -4.226562 4.175781 -4.535156 4.175781 -4.882812 C 4.175781 -5.289062 4.054688 -5.613281 3.808594 -5.851562 C 3.5625 -6.089844 3.238281 -6.210938 2.832031 -6.210938 C 2.230469 -6.210938 1.8125 -5.984375 1.582031 -5.527344 C 1.457031 -5.28125 1.390625 -4.945312 1.375 -4.511719 L 0.484375 -4.511719 C 0.492188 -5.121094 0.605469 -5.617188 0.820312 -6 C 1.203125 -6.679688 1.875 -7.015625 2.835938 -7.015625 C 3.636719 -7.015625 4.222656 -6.800781 4.59375 -6.367188 C 4.960938 -5.933594 5.148438 -5.453125 5.148438 -4.921875 C 5.148438 -4.363281 4.949219 -3.882812 4.554688 -3.484375 C 4.328125 -3.253906 3.917969 -2.976562 3.328125 -2.648438 L 2.660156 -2.273438 C 2.34375 -2.097656 2.089844 -1.933594 1.910156 -1.773438 C 1.585938 -1.488281 1.378906 -1.175781 1.292969 -0.828125 L 5.113281 -0.828125 L 5.113281 0 Z M 0.3125 0 "/>
</g>
<g id="glyph-963504-0-2">
<path d="M 2.597656 0.191406 C 1.769531 0.191406 1.171875 -0.0351562 0.796875 -0.492188 C 0.425781 -0.945312 0.238281 -1.496094 0.238281 -2.148438 L 1.15625 -2.148438 C 1.195312 -1.695312 1.28125 -1.367188 1.410156 -1.164062 C 1.640625 -0.796875 2.050781 -0.609375 2.648438 -0.609375 C 3.109375 -0.609375 3.480469 -0.734375 3.757812 -0.980469 C 4.039062 -1.226562 4.179688 -1.546875 4.179688 -1.9375 C 4.179688 -2.421875 4.03125 -2.757812 3.738281 -2.949219 C 3.445312 -3.140625 3.035156 -3.238281 2.507812 -3.238281 C 2.449219 -3.238281 2.390625 -3.238281 2.332031 -3.234375 C 2.273438 -3.234375 2.210938 -3.230469 2.148438 -3.226562 L 2.148438 -4.003906 C 2.238281 -3.992188 2.316406 -3.988281 2.378906 -3.984375 C 2.441406 -3.980469 2.507812 -3.980469 2.578125 -3.980469 C 2.90625 -3.980469 3.175781 -4.03125 3.390625 -4.136719 C 3.761719 -4.320312 3.945312 -4.644531 3.945312 -5.113281 C 3.945312 -5.460938 3.820312 -5.730469 3.574219 -5.917969 C 3.328125 -6.105469 3.039062 -6.203125 2.710938 -6.203125 C 2.125 -6.203125 1.71875 -6.007812 1.492188 -5.617188 C 1.371094 -5.402344 1.300781 -5.09375 1.285156 -4.695312 L 0.414062 -4.695312 C 0.414062 -5.21875 0.519531 -5.660156 0.726562 -6.023438 C 1.085938 -6.675781 1.714844 -7 2.617188 -7 C 3.328125 -7 3.882812 -6.84375 4.273438 -6.527344 C 4.664062 -6.210938 4.859375 -5.75 4.859375 -5.148438 C 4.859375 -4.71875 4.742188 -4.367188 4.511719 -4.101562 C 4.367188 -3.9375 4.183594 -3.804688 3.953125 -3.710938 C 4.320312 -3.609375 4.609375 -3.414062 4.816406 -3.128906 C 5.023438 -2.839844 5.125 -2.488281 5.125 -2.070312 C 5.125 -1.402344 4.90625 -0.859375 4.46875 -0.4375 C 4.027344 -0.0195312 3.40625 0.191406 2.597656 0.191406 Z M 2.597656 0.191406 "/>
</g>
<g id="glyph-963504-0-3">
<path d="M 3.304688 -2.476562 L 3.304688 -5.644531 L 1.0625 -2.476562 Z M 3.320312 0 L 3.320312 -1.710938 L 0.253906 -1.710938 L 0.253906 -2.570312 L 3.457031 -7.011719 L 4.199219 -7.011719 L 4.199219 -2.476562 L 5.230469 -2.476562 L 5.230469 -1.710938 L 4.199219 -1.710938 L 4.199219 0 Z M 3.320312 0 "/>
</g>
<g id="glyph-963504-0-4">
<path d="M 1.234375 -1.78125 C 1.292969 -1.28125 1.527344 -0.933594 1.933594 -0.742188 C 2.140625 -0.644531 2.382812 -0.59375 2.65625 -0.59375 C 3.175781 -0.59375 3.5625 -0.761719 3.8125 -1.09375 C 4.0625 -1.425781 4.1875 -1.792969 4.1875 -2.195312 C 4.1875 -2.683594 4.039062 -3.0625 3.742188 -3.328125 C 3.445312 -3.597656 3.085938 -3.730469 2.671875 -3.730469 C 2.367188 -3.730469 2.109375 -3.671875 1.890625 -3.554688 C 1.675781 -3.4375 1.492188 -3.273438 1.335938 -3.066406 L 0.578125 -3.109375 L 1.109375 -6.875 L 4.742188 -6.875 L 4.742188 -6.023438 L 1.765625 -6.023438 L 1.46875 -4.082031 C 1.632812 -4.207031 1.789062 -4.296875 1.933594 -4.359375 C 2.195312 -4.46875 2.496094 -4.523438 2.835938 -4.523438 C 3.476562 -4.523438 4.023438 -4.316406 4.46875 -3.902344 C 4.914062 -3.488281 5.136719 -2.964844 5.136719 -2.328125 C 5.136719 -1.667969 4.933594 -1.085938 4.523438 -0.582031 C 4.117188 -0.078125 3.464844 0.175781 2.570312 0.175781 C 2 0.175781 1.496094 0.015625 1.058594 -0.304688 C 0.621094 -0.625 0.375 -1.117188 0.320312 -1.78125 Z M 1.234375 -1.78125 "/>
</g>
<g id="glyph-963504-0-5">
<path d="M 2.925781 -7.023438 C 3.707031 -7.023438 4.25 -6.820312 4.558594 -6.414062 C 4.867188 -6.007812 5.019531 -5.589844 5.019531 -5.160156 L 4.148438 -5.160156 C 4.097656 -5.4375 4.015625 -5.65625 3.902344 -5.8125 C 3.691406 -6.105469 3.367188 -6.25 2.9375 -6.25 C 2.445312 -6.25 2.058594 -6.023438 1.765625 -5.570312 C 1.476562 -5.117188 1.316406 -4.464844 1.285156 -3.617188 C 1.484375 -3.914062 1.738281 -4.136719 2.046875 -4.28125 C 2.328125 -4.414062 2.636719 -4.476562 2.984375 -4.476562 C 3.570312 -4.476562 4.082031 -4.289062 4.515625 -3.914062 C 4.953125 -3.539062 5.171875 -2.984375 5.171875 -2.242188 C 5.171875 -1.605469 4.964844 -1.042969 4.550781 -0.554688 C 4.136719 -0.0625 3.546875 0.179688 2.78125 0.179688 C 2.128906 0.179688 1.5625 -0.0664062 1.089844 -0.5625 C 0.613281 -1.058594 0.375 -1.894531 0.375 -3.070312 C 0.375 -3.941406 0.480469 -4.679688 0.695312 -5.28125 C 1.101562 -6.441406 1.84375 -7.023438 2.925781 -7.023438 Z M 2.859375 -0.601562 C 3.324219 -0.601562 3.667969 -0.757812 3.898438 -1.066406 C 4.128906 -1.378906 4.242188 -1.746094 4.242188 -2.167969 C 4.242188 -2.527344 4.140625 -2.867188 3.9375 -3.191406 C 3.730469 -3.515625 3.359375 -3.675781 2.816406 -3.675781 C 2.4375 -3.675781 2.109375 -3.550781 1.824219 -3.300781 C 1.539062 -3.050781 1.398438 -2.671875 1.398438 -2.167969 C 1.398438 -1.726562 1.527344 -1.351562 1.785156 -1.050781 C 2.042969 -0.75 2.402344 -0.601562 2.859375 -0.601562 Z M 2.859375 -0.601562 "/>
</g>
</g>
</defs>
<rect x="-60" y="-30" width="720" height="360" fill="rgb(10.196078%, 10.196078%, 10.196078%)" fill-opacity="1"/>
<path fill="none" stroke-width="1" stroke-linecap="butt" stroke-linejoin="miter" stroke="rgb(100%, 84.313725%, 0%)" stroke-opacity="1" stroke-miterlimit="10" d="M 262.09375 30 L 228.15625 255.488281 "/>
<path fill="none" stroke-width="1" stroke-linecap="butt" stroke-linejoin="miter" stroke="rgb(100%, 84.313725%, 0%)" stroke-opacity="1" stroke-miterlimit="10" d="M 262.09375 30 L 96.550781 118.496094 "/>
<path fill="none" stroke-width="1" stroke-linecap="butt" stroke-linejoin="miter" stroke="rgb(100%, 84.313725%, 0%)" stroke-opacity="1" stroke-miterlimit="10" d="M 262.09375 30 L 503.449219 180.59375 "/>
<path fill="none" stroke-width="1" stroke-linecap="butt" stroke-linejoin="miter" stroke="rgb(100%, 84.313725%, 0%)" stroke-opacity="1" stroke-miterlimit="10" d="M 262.09375 30 L 338.054688 270 "/>
<path fill="none" stroke-width="1" stroke-linecap="butt" stroke-linejoin="miter" stroke="rgb(100%, 84.313725%, 0%)" stroke-opacity="1" stroke-miterlimit="10" d="M 228.15625 255.488281 L 96.550781 118.496094 "/>
<path fill="none" stroke-width="1" stroke-linecap="butt" stroke-linejoin="miter" stroke="rgb(100%, 84.313725%, 0%)" stroke-opacity="1" stroke-miterlimit="10" d="M 228.15625 255.488281 L 503.449219 180.59375 "/>
<path fill="none" stroke-width="1" stroke-linecap="butt" stroke-linejoin="miter" stroke="rgb(100%, 84.313725%, 0%)" stroke-opacity="1" stroke-miterlimit="10" d="M 228.15625 255.488281 L 371.839844 43.519531 "/>
<path fill="none" stroke-width="1" stroke-linecap="butt" stroke-linejoin="miter" stroke="rgb(100%, 84.313725%, 0%)" stroke-opacity="1" stroke-miterlimit="10" d="M 96.550781 118.496094 L 338.054688 270 "/>
<path fill="none" stroke-width="1" stroke-linecap="butt" stroke-linejoin="miter" stroke="rgb(100%, 84.313725%, 0%)" stroke-opacity="1" stroke-miterlimit="10" d="M 96.550781 118.496094 L 371.839844 43.519531 "/>
<path fill="none" stroke-width="1" stroke-linecap="butt" stroke-linejoin="miter" stroke="rgb(100%, 84.313725%, 0%)" stroke-opacity="1" stroke-miterlimit="10" d="M 503.449219 180.59375 L 338.054688 270 "/>
<path fill="none" stroke-width="1" stroke-linecap="butt" stroke-linejoin="miter" stroke="rgb(100%, 84.313725%, 0%)" stroke-opacity="1" stroke-miterlimit="10" d="M 503.449219 180.59375 L 371.839844 43.519531 "/>
<path fill="none" stroke-width="1" stroke-linecap="butt" stroke-linejoin="miter" stroke="rgb(100%, 84.313725%, 0%)" stroke-opacity="1" stroke-miterlimit="10" d="M 338.054688 270 L 371.839844 43.519531 "/>
<path fill-rule="nonzero" fill="rgb(100%, 84.313725%, 0%)" fill-opacity="1" stroke-width="1" stroke-linecap="butt" stroke-linejoin="miter" stroke="rgb(100%, 84.313725%, 0%)" stroke-opacity="1" stroke-miterlimit="10" d="M 272.09375 30 C 272.09375 35.523438 267.617188 40 262.09375 40 C 256.574219 40 252.09375 35.523438 252.09375 30 C 252.09375 24.476562 256.574219 20 262.09375 20 C 267.617188 20 272.09375 24.476562 272.09375 30 Z M 272.09375 30 "/>
<g fill="rgb(0%, 0%, 0%)" fill-opacity="1">
<use xlink:href="#glyph-963504-0-0" x="259.314468" y="33.481445"/>
</g>
<path fill-rule="nonzero" fill="rgb(100%, 84.313725%, 0%)" fill-opacity="1" stroke-width="1" stroke-linecap="butt" stroke-linejoin="miter" stroke="rgb(100%, 84.313725%, 0%)" stroke-opacity="1" stroke-miterlimit="10" d="M 238.15625 255.488281 C 238.15625 261.011719 233.679688 265.488281 228.15625 265.488281 C 222.632812 265.488281 218.15625 261.011719 218.15625 255.488281 C 218.15625 249.964844 222.632812 245.488281 228.15625 245.488281 C 233.679688 245.488281 238.15625 249.964844 238.15625 255.488281 Z M 238.15625 255.488281 "/>
<g fill="rgb(0%, 0%, 0%)" fill-opacity="1">
<use xlink:href="#glyph-963504-0-1" x="225.374709" y="258.996013"/>
</g>
<path fill-rule="nonzero" fill="rgb(100%, 84.313725%, 0%)" fill-opacity="1" stroke-width="1" stroke-linecap="butt" stroke-linejoin="miter" stroke="rgb(100%, 84.313725%, 0%)" stroke-opacity="1" stroke-miterlimit="10" d="M 106.550781 118.496094 C 106.550781 124.019531 102.074219 128.496094 96.550781 128.496094 C 91.027344 128.496094 86.550781 124.019531 86.550781 118.496094 C 86.550781 112.972656 91.027344 108.496094 96.550781 108.496094 C 102.074219 108.496094 106.550781 112.972656 106.550781 118.496094 Z M 106.550781 118.496094 "/>
<g fill="rgb(0%, 0%, 0%)" fill-opacity="1">
<use xlink:href="#glyph-963504-0-2" x="93.770083" y="121.996577"/>
</g>
<path fill-rule="nonzero" fill="rgb(100%, 84.313725%, 0%)" fill-opacity="1" stroke-width="1" stroke-linecap="butt" stroke-linejoin="miter" stroke="rgb(100%, 84.313725%, 0%)" stroke-opacity="1" stroke-miterlimit="10" d="M 513.449219 180.59375 C 513.449219 186.113281 508.972656 190.59375 503.449219 190.59375 C 497.925781 190.59375 493.449219 186.113281 493.449219 180.59375 C 493.449219 175.070312 497.925781 170.59375 503.449219 170.59375 C 508.972656 170.59375 513.449219 175.070312 513.449219 180.59375 Z M 513.449219 180.59375 "/>
<g fill="rgb(0%, 0%, 0%)" fill-opacity="1">
<use xlink:href="#glyph-963504-0-3" x="500.668394" y="184.098126"/>
</g>
<path fill-rule="nonzero" fill="rgb(100%, 84.313725%, 0%)" fill-opacity="1" stroke-width="1" stroke-linecap="butt" stroke-linejoin="miter" stroke="rgb(100%, 84.313725%, 0%)" stroke-opacity="1" stroke-miterlimit="10" d="M 348.054688 270 C 348.054688 275.523438 343.578125 280 338.054688 280 C 332.53125 280 328.054688 275.523438 328.054688 270 C 328.054688 264.476562 332.53125 260 338.054688 260 C 343.578125 260 348.054688 264.476562 348.054688 270 Z M 348.054688 270 "/>
<g fill="rgb(0%, 0%, 0%)" fill-opacity="1">
<use xlink:href="#glyph-963504-0-4" x="335.272581" y="273.4375"/>
</g>
<path fill-rule="nonzero" fill="rgb(100%, 84.313725%, 0%)" fill-opacity="1" stroke-width="1" stroke-linecap="butt" stroke-linejoin="miter" stroke="rgb(100%, 84.313725%, 0%)" stroke-opacity="1" stroke-miterlimit="10" d="M 381.839844 43.519531 C 381.839844 49.042969 377.363281 53.519531 371.839844 53.519531 C 366.316406 53.519531 361.839844 49.042969 361.839844 43.519531 C 361.839844 37.996094 366.316406 33.519531 371.839844 33.519531 C 377.363281 33.519531 381.839844 37.996094 381.839844 43.519531 Z M 381.839844 43.519531 "/>
<g fill="rgb(0%, 0%, 0%)" fill-opacity="1">
<use xlink:href="#glyph-963504-0-5" x="369.058567" y="47.031431"/>
</g>
</svg>
