<?xml version="1.0" encoding="UTF-8"?>
<svg xmlns="http://www.w3.org/2000/svg" xmlns:xlink="http://www.w3.org/1999/xlink" width="600" height="300" viewBox="0 0 600 300">
<defs>
<g>
<g id="glyph-962068-0-0">
<path d="M 8.890625 -13.464844 L 9.71875 -15.457031 C 11.671875 -14.863281 13.105469 -14.625 14.023438 -14.75 C 14.941406 -14.871094 15.914062 -15.652344 16.941406 -17.097656 L 18.992188 -16.25 L 10.464844 4.335938 L 7.695312 3.1875 L 13.757812 -11.449219 Z M 8.890625 -13.464844 "/>
</g>
<g id="glyph-962068-1-0">
<path d="M 0.519531 0.214844 C 0.988281 -0.765625 1.558594 -1.550781 2.222656 -2.140625 C 2.890625 -2.734375 3.871094 -3.117188 5.167969 -3.292969 L 7.101562 -3.546875 C 7.96875 -3.664062 8.601562 -3.808594 9 -3.976562 C 9.628906 -4.242188 10.066406 -4.664062 10.304688 -5.246094 C 10.585938 -5.921875 10.605469 -6.542969 10.363281 -7.109375 C 10.121094 -7.675781 9.664062 -8.097656 8.988281 -8.378906 C 7.988281 -8.792969 7.136719 -8.699219 6.4375 -8.101562 C 6.0625 -7.78125 5.71875 -7.265625 5.398438 -6.554688 L 3.910156 -7.171875 C 4.347656 -8.175781 4.875 -8.921875 5.496094 -9.414062 C 6.597656 -10.277344 7.949219 -10.378906 9.550781 -9.714844 C 10.882812 -9.164062 11.707031 -8.398438 12.023438 -7.425781 C 12.339844 -6.449219 12.3125 -5.523438 11.949219 -4.640625 C 11.5625 -3.710938 10.90625 -3.046875 9.976562 -2.660156 C 9.4375 -2.433594 8.566406 -2.25 7.359375 -2.105469 L 5.992188 -1.949219 C 5.339844 -1.878906 4.808594 -1.773438 4.394531 -1.632812 C 3.660156 -1.386719 3.101562 -1.003906 2.722656 -0.488281 L 9.074219 2.140625 L 8.5 3.523438 Z M 0.519531 0.214844 "/>
</g>
<g id="glyph-962068-2-0">
<path d="M 4.652344 2.339844 C 3.125 1.707031 2.191406 0.828125 1.851562 -0.296875 C 1.511719 -1.421875 1.589844 -2.582031 2.085938 -3.785156 L 3.78125 -3.085938 C 3.507812 -2.21875 3.414062 -1.546875 3.496094 -1.066406 C 3.636719 -0.214844 4.257812 0.441406 5.355469 0.898438 C 6.210938 1.25 6.992188 1.308594 7.699219 1.0625 C 8.40625 0.820312 8.90625 0.339844 9.207031 -0.382812 C 9.574219 -1.273438 9.5625 -2.007812 9.164062 -2.589844 C 8.765625 -3.167969 8.082031 -3.660156 7.113281 -4.0625 C 7.007812 -4.105469 6.898438 -4.148438 6.785156 -4.191406 C 6.671875 -4.234375 6.558594 -4.277344 6.441406 -4.320312 L 7.035156 -5.753906 C 7.195312 -5.667969 7.332031 -5.59375 7.441406 -5.542969 C 7.554688 -5.488281 7.675781 -5.433594 7.808594 -5.378906 C 8.417969 -5.128906 8.957031 -5.019531 9.425781 -5.046875 C 10.25 -5.101562 10.84375 -5.5625 11.203125 -6.425781 C 11.46875 -7.070312 11.445312 -7.660156 11.132812 -8.199219 C 10.820312 -8.738281 10.359375 -9.132812 9.753906 -9.382812 C 8.671875 -9.832031 7.773438 -9.78125 7.058594 -9.230469 C 6.664062 -8.929688 6.300781 -8.417969 5.96875 -7.695312 L 4.363281 -8.363281 C 4.761719 -9.324219 5.292969 -10.0625 5.957031 -10.578125 C 7.117188 -11.507812 8.527344 -11.625 10.195312 -10.933594 C 11.511719 -10.390625 12.410156 -9.671875 12.890625 -8.789062 C 13.367188 -7.902344 13.378906 -6.902344 12.917969 -5.789062 C 12.585938 -4.996094 12.105469 -4.441406 11.476562 -4.125 C 11.085938 -3.929688 10.640625 -3.828125 10.148438 -3.828125 C 10.75 -3.359375 11.132812 -2.78125 11.292969 -2.09375 C 11.457031 -1.402344 11.375 -0.671875 11.058594 0.0976562 C 10.546875 1.332031 9.726562 2.167969 8.589844 2.609375 C 7.457031 3.046875 6.144531 2.957031 4.652344 2.339844 Z M 4.652344 2.339844 "/>
</g>
<g id="glyph-962068-3-0">
<path d="M 4.800781 -1.226562 L 6.257812 -4.738281 L 2.316406 -2.253906 Z M 3.679688 1.523438 L 4.464844 -0.371094 L 1.066406 -1.777344 L 1.460938 -2.730469 L 7.050781 -6.1875 L 7.875 -5.84375 L 5.792969 -0.816406 L 6.933594 -0.34375 L 6.582031 0.507812 L 5.441406 0.0351562 L 4.65625 1.929688 Z M 3.679688 1.523438 "/>
</g>
<g id="glyph-962068-3-1">
<path d="M 2.792969 1.402344 C 1.875 1.023438 1.316406 0.496094 1.109375 -0.175781 C 0.90625 -0.851562 0.953125 -1.550781 1.25 -2.273438 L 2.269531 -1.851562 C 2.105469 -1.332031 2.046875 -0.925781 2.097656 -0.640625 C 2.183594 -0.128906 2.554688 0.265625 3.214844 0.539062 C 3.726562 0.75 4.195312 0.785156 4.617188 0.636719 C 5.042969 0.492188 5.34375 0.203125 5.523438 -0.230469 C 5.746094 -0.765625 5.738281 -1.203125 5.5 -1.554688 C 5.261719 -1.902344 4.851562 -2.195312 4.269531 -2.4375 C 4.203125 -2.464844 4.136719 -2.488281 4.070312 -2.515625 C 4.003906 -2.542969 3.933594 -2.566406 3.863281 -2.589844 L 4.21875 -3.453125 C 4.316406 -3.398438 4.398438 -3.355469 4.464844 -3.324219 C 4.53125 -3.292969 4.605469 -3.261719 4.6875 -3.226562 C 5.050781 -3.078125 5.375 -3.011719 5.65625 -3.027344 C 6.152344 -3.058594 6.507812 -3.335938 6.722656 -3.855469 C 6.882812 -4.242188 6.867188 -4.597656 6.679688 -4.917969 C 6.492188 -5.242188 6.214844 -5.480469 5.851562 -5.628906 C 5.203125 -5.898438 4.664062 -5.871094 4.234375 -5.539062 C 4 -5.359375 3.78125 -5.050781 3.582031 -4.617188 L 2.617188 -5.015625 C 2.855469 -5.59375 3.175781 -6.039062 3.574219 -6.347656 C 4.269531 -6.902344 5.117188 -6.976562 6.117188 -6.5625 C 6.90625 -6.234375 7.445312 -5.804688 7.734375 -5.273438 C 8.019531 -4.742188 8.027344 -4.140625 7.75 -3.472656 C 7.550781 -2.996094 7.265625 -2.664062 6.886719 -2.476562 C 6.652344 -2.359375 6.386719 -2.296875 6.089844 -2.296875 C 6.449219 -2.015625 6.679688 -1.667969 6.777344 -1.253906 C 6.875 -0.839844 6.824219 -0.402344 6.632812 0.0585938 C 6.328125 0.796875 5.835938 1.300781 5.15625 1.566406 C 4.476562 1.828125 3.6875 1.773438 2.792969 1.402344 Z M 2.792969 1.402344 "/>
</g>
<g id="glyph-962068-3-2">
<path d="M 0.347656 0.144531 C 0.660156 -0.507812 1.039062 -1.03125 1.484375 -1.429688 C 1.929688 -1.824219 2.582031 -2.078125 3.445312 -2.195312 L 4.734375 -2.363281 C 5.3125 -2.441406 5.734375 -2.539062 6 -2.652344 C 6.421875 -2.828125 6.710938 -3.109375 6.871094 -3.496094 C 7.058594 -3.949219 7.070312 -4.363281 6.910156 -4.738281 C 6.75 -5.117188 6.441406 -5.398438 5.992188 -5.585938 C 5.324219 -5.863281 4.757812 -5.800781 4.292969 -5.402344 C 4.042969 -5.1875 3.8125 -4.84375 3.597656 -4.371094 L 2.609375 -4.78125 C 2.898438 -5.449219 3.25 -5.949219 3.664062 -6.277344 C 4.398438 -6.851562 5.300781 -6.917969 6.367188 -6.476562 C 7.253906 -6.109375 7.804688 -5.601562 8.015625 -4.949219 C 8.226562 -4.300781 8.210938 -3.679688 7.964844 -3.09375 C 7.707031 -2.472656 7.269531 -2.03125 6.652344 -1.773438 C 6.292969 -1.621094 5.710938 -1.5 4.90625 -1.40625 L 3.996094 -1.300781 C 3.5625 -1.253906 3.207031 -1.179688 2.929688 -1.089844 C 2.4375 -0.925781 2.066406 -0.667969 1.816406 -0.324219 L 6.050781 1.425781 L 5.667969 2.347656 Z M 0.347656 0.144531 "/>
</g>
<g id="glyph-962068-4-0">
<path d="M 1.09375 -0.703125 C 1.011719 -0.414062 1.0625 -0.167969 1.242188 0.03125 C 1.335938 0.132812 1.457031 0.21875 1.609375 0.28125 C 1.898438 0.398438 2.148438 0.394531 2.363281 0.269531 C 2.578125 0.144531 2.734375 -0.03125 2.828125 -0.257812 C 2.9375 -0.527344 2.941406 -0.769531 2.839844 -0.988281 C 2.734375 -1.203125 2.566406 -1.359375 2.335938 -1.453125 C 2.167969 -1.523438 2.011719 -1.550781 1.863281 -1.535156 C 1.71875 -1.519531 1.578125 -1.472656 1.445312 -1.394531 L 1.035156 -1.59375 L 2.191406 -3.554688 L 4.207031 -2.722656 L 4.011719 -2.25 L 2.363281 -2.933594 L 1.753906 -1.925781 C 1.871094 -1.957031 1.976562 -1.972656 2.074219 -1.972656 C 2.242188 -1.972656 2.421875 -1.933594 2.609375 -1.855469 C 2.964844 -1.707031 3.21875 -1.46875 3.371094 -1.136719 C 3.523438 -0.804688 3.527344 -0.464844 3.382812 -0.113281 C 3.230469 0.253906 2.984375 0.53125 2.640625 0.714844 C 2.296875 0.902344 1.878906 0.894531 1.382812 0.6875 C 1.066406 0.554688 0.824219 0.351562 0.65625 0.0742188 C 0.488281 -0.203125 0.464844 -0.535156 0.585938 -0.914062 Z M 1.09375 -0.703125 "/>
</g>
<g id="glyph-962068-4-1">
<path d="M 1.667969 -2.523438 L 1.820312 -2.898438 C 2.1875 -2.785156 2.457031 -2.742188 2.628906 -2.765625 C 2.800781 -2.789062 2.984375 -2.933594 3.175781 -3.207031 L 3.5625 -3.046875 L 1.960938 0.8125 L 1.441406 0.597656 L 2.578125 -2.148438 Z M 1.667969 -2.523438 "/>
</g>
<g id="glyph-962068-4-2">
<path d="M 0.171875 0.0703125 C 0.328125 -0.253906 0.519531 -0.515625 0.742188 -0.714844 C 0.964844 -0.910156 1.289062 -1.039062 1.722656 -1.097656 L 2.367188 -1.183594 C 2.65625 -1.222656 2.867188 -1.269531 3 -1.324219 C 3.210938 -1.414062 3.355469 -1.554688 3.433594 -1.75 C 3.527344 -1.972656 3.535156 -2.179688 3.453125 -2.371094 C 3.375 -2.558594 3.222656 -2.699219 2.996094 -2.792969 C 2.664062 -2.929688 2.378906 -2.898438 2.144531 -2.699219 C 2.019531 -2.59375 1.90625 -2.421875 1.800781 -2.183594 L 1.304688 -2.390625 C 1.449219 -2.726562 1.625 -2.972656 1.832031 -3.136719 C 2.199219 -3.425781 2.648438 -3.460938 3.183594 -3.238281 C 3.628906 -3.054688 3.902344 -2.800781 4.007812 -2.476562 C 4.113281 -2.152344 4.105469 -1.839844 3.984375 -1.546875 C 3.855469 -1.238281 3.636719 -1.015625 3.324219 -0.886719 C 3.144531 -0.8125 2.855469 -0.75 2.453125 -0.703125 L 1.996094 -0.648438 C 1.78125 -0.625 1.601562 -0.589844 1.464844 -0.542969 C 1.21875 -0.460938 1.035156 -0.335938 0.90625 -0.164062 L 3.023438 0.714844 L 2.832031 1.175781 Z M 0.171875 0.0703125 "/>
</g>
<g id="glyph-962068-4-3">
<path d="M 3.105469 -3.253906 C 3.605469 -3.046875 3.882812 -2.691406 3.9375 -2.183594 C 3.976562 -1.792969 3.882812 -1.320312 3.652344 -0.765625 C 3.433594 -0.238281 3.175781 0.167969 2.875 0.445312 C 2.441406 0.847656 1.96875 0.9375 1.453125 0.726562 C 0.988281 0.53125 0.726562 0.1875 0.664062 -0.3125 C 0.613281 -0.726562 0.707031 -1.21875 0.945312 -1.789062 C 1.125 -2.226562 1.339844 -2.582031 1.582031 -2.851562 C 2.039062 -3.351562 2.546875 -3.484375 3.105469 -3.253906 Z M 1.632812 0.28125 C 1.886719 0.386719 2.132812 0.355469 2.375 0.195312 C 2.617188 0.0351562 2.867188 -0.351562 3.121094 -0.960938 C 3.300781 -1.402344 3.398438 -1.789062 3.40625 -2.117188 C 3.417969 -2.445312 3.265625 -2.675781 2.953125 -2.804688 C 2.667969 -2.921875 2.402344 -2.875 2.15625 -2.660156 C 1.910156 -2.445312 1.679688 -2.074219 1.464844 -1.550781 C 1.300781 -1.15625 1.210938 -0.820312 1.195312 -0.542969 C 1.175781 -0.125 1.320312 0.152344 1.632812 0.28125 Z M 1.632812 0.28125 "/>
</g>
<g id="glyph-962068-4-4">
<path d="M 3.234375 -3.21875 C 3.667969 -3.039062 3.921875 -2.804688 4 -2.507812 C 4.078125 -2.214844 4.066406 -1.945312 3.96875 -1.707031 L 3.484375 -1.90625 C 3.519531 -2.074219 3.523438 -2.210938 3.496094 -2.324219 C 3.445312 -2.535156 3.300781 -2.691406 3.066406 -2.789062 C 2.792969 -2.902344 2.523438 -2.867188 2.257812 -2.679688 C 1.992188 -2.496094 1.753906 -2.171875 1.542969 -1.710938 C 1.722656 -1.828125 1.914062 -1.894531 2.117188 -1.902344 C 2.300781 -1.910156 2.492188 -1.875 2.683594 -1.796875 C 3.007812 -1.664062 3.246094 -1.441406 3.402344 -1.132812 C 3.558594 -0.824219 3.550781 -0.464844 3.382812 -0.0546875 C 3.234375 0.296875 2.992188 0.5625 2.648438 0.738281 C 2.308594 0.914062 1.925781 0.914062 1.5 0.738281 C 1.136719 0.589844 0.882812 0.320312 0.734375 -0.0625 C 0.585938 -0.445312 0.644531 -0.964844 0.914062 -1.617188 C 1.113281 -2.097656 1.339844 -2.480469 1.597656 -2.769531 C 2.089844 -3.320312 2.632812 -3.46875 3.234375 -3.21875 Z M 1.722656 0.324219 C 1.980469 0.429688 2.207031 0.421875 2.40625 0.304688 C 2.605469 0.183594 2.753906 0.0078125 2.851562 -0.226562 C 2.933594 -0.425781 2.953125 -0.636719 2.914062 -0.863281 C 2.875 -1.089844 2.707031 -1.265625 2.40625 -1.390625 C 2.195312 -1.476562 1.984375 -1.484375 1.769531 -1.410156 C 1.554688 -1.335938 1.386719 -1.160156 1.273438 -0.882812 C 1.171875 -0.636719 1.15625 -0.398438 1.230469 -0.171875 C 1.304688 0.0546875 1.46875 0.21875 1.722656 0.324219 Z M 1.722656 0.324219 "/>
</g>
<g id="glyph-962068-4-5">
<path d="M 1.125 -0.632812 C 1.027344 -0.355469 1.054688 -0.128906 1.203125 0.0546875 C 1.28125 0.148438 1.382812 0.222656 1.507812 0.273438 C 1.738281 0.371094 1.976562 0.355469 2.222656 0.230469 C 2.46875 0.105469 2.746094 -0.242188 3.0625 -0.804688 C 2.882812 -0.679688 2.699219 -0.613281 2.507812 -0.609375 C 2.320312 -0.605469 2.132812 -0.644531 1.949219 -0.71875 C 1.578125 -0.875 1.328125 -1.113281 1.207031 -1.4375 C 1.085938 -1.761719 1.101562 -2.105469 1.253906 -2.46875 C 1.398438 -2.820312 1.636719 -3.085938 1.960938 -3.265625 C 2.285156 -3.445312 2.660156 -3.445312 3.078125 -3.273438 C 3.640625 -3.039062 3.925781 -2.621094 3.929688 -2.023438 C 3.933594 -1.695312 3.847656 -1.320312 3.675781 -0.902344 C 3.476562 -0.425781 3.230469 -0.0351562 2.9375 0.273438 C 2.449219 0.785156 1.921875 0.921875 1.355469 0.6875 C 0.976562 0.53125 0.730469 0.3125 0.617188 0.0351562 C 0.503906 -0.246094 0.507812 -0.535156 0.632812 -0.835938 Z M 2.191406 -1.121094 C 2.386719 -1.042969 2.589844 -1.03125 2.800781 -1.09375 C 3.011719 -1.152344 3.183594 -1.34375 3.316406 -1.660156 C 3.433594 -1.945312 3.449219 -2.1875 3.367188 -2.386719 C 3.28125 -2.585938 3.125 -2.730469 2.90625 -2.824219 C 2.667969 -2.921875 2.445312 -2.921875 2.238281 -2.820312 C 2.03125 -2.71875 1.875 -2.535156 1.761719 -2.265625 C 1.65625 -2.011719 1.636719 -1.789062 1.699219 -1.585938 C 1.757812 -1.386719 1.921875 -1.234375 2.191406 -1.121094 Z M 2.191406 -1.121094 "/>
</g>
<g id="glyph-962068-5-0">
<path d="M 4.3125 -4.292969 C 4.890625 -4.054688 5.230469 -3.738281 5.332031 -3.34375 C 5.4375 -2.949219 5.421875 -2.59375 5.289062 -2.277344 L 4.648438 -2.542969 C 4.695312 -2.765625 4.699219 -2.949219 4.664062 -3.101562 C 4.597656 -3.382812 4.402344 -3.589844 4.085938 -3.71875 C 3.722656 -3.871094 3.363281 -3.820312 3.011719 -3.574219 C 2.660156 -3.328125 2.339844 -2.898438 2.058594 -2.28125 C 2.296875 -2.4375 2.550781 -2.523438 2.824219 -2.539062 C 3.070312 -2.550781 3.320312 -2.5 3.574219 -2.394531 C 4.007812 -2.214844 4.328125 -1.921875 4.539062 -1.511719 C 4.746094 -1.101562 4.734375 -0.621094 4.507812 -0.0742188 C 4.3125 0.394531 3.988281 0.75 3.53125 0.984375 C 3.078125 1.21875 2.566406 1.21875 2 0.984375 C 1.519531 0.785156 1.175781 0.429688 0.976562 -0.0820312 C 0.777344 -0.59375 0.859375 -1.285156 1.21875 -2.15625 C 1.484375 -2.796875 1.789062 -3.308594 2.128906 -3.691406 C 2.785156 -4.425781 3.511719 -4.625 4.3125 -4.292969 Z M 2.296875 0.433594 C 2.640625 0.574219 2.945312 0.566406 3.207031 0.40625 C 3.472656 0.246094 3.671875 0.0078125 3.800781 -0.304688 C 3.910156 -0.570312 3.9375 -0.851562 3.886719 -1.152344 C 3.832031 -1.457031 3.605469 -1.691406 3.207031 -1.855469 C 2.929688 -1.972656 2.644531 -1.980469 2.359375 -1.882812 C 2.070312 -1.785156 1.851562 -1.546875 1.695312 -1.175781 C 1.558594 -0.847656 1.542969 -0.53125 1.640625 -0.230469 C 1.738281 0.0703125 1.960938 0.292969 2.296875 0.433594 Z M 2.296875 0.433594 "/>
</g>
<g id="glyph-962068-5-1">
<path d="M 5.96875 -3.480469 L 5.734375 -2.914062 C 5.503906 -2.820312 5.164062 -2.632812 4.726562 -2.347656 C 4.285156 -2.0625 3.863281 -1.730469 3.457031 -1.359375 C 3.0625 -0.996094 2.734375 -0.648438 2.472656 -0.324219 C 2.304688 -0.113281 2.054688 0.230469 1.726562 0.714844 L 1.007812 0.417969 C 1.578125 -0.5 2.347656 -1.332031 3.308594 -2.078125 C 3.875 -2.515625 4.425781 -2.867188 4.964844 -3.132812 L 2.105469 -4.316406 L 2.375 -4.96875 Z M 5.96875 -3.480469 "/>
</g>
<g id="glyph-962068-5-2">
<path d="M 3.253906 -2.171875 C 3.539062 -2.050781 3.796875 -2.039062 4.023438 -2.132812 C 4.25 -2.226562 4.410156 -2.382812 4.503906 -2.605469 C 4.582031 -2.796875 4.578125 -3.003906 4.492188 -3.230469 C 4.40625 -3.457031 4.203125 -3.632812 3.886719 -3.761719 C 3.574219 -3.890625 3.316406 -3.90625 3.109375 -3.800781 C 2.902344 -3.699219 2.753906 -3.539062 2.664062 -3.324219 C 2.566406 -3.082031 2.578125 -2.851562 2.699219 -2.640625 C 2.824219 -2.429688 3.007812 -2.273438 3.253906 -2.171875 Z M 2.234375 0.40625 C 2.535156 0.53125 2.816406 0.550781 3.082031 0.472656 C 3.347656 0.390625 3.550781 0.191406 3.683594 -0.132812 C 3.820312 -0.464844 3.824219 -0.761719 3.691406 -1.019531 C 3.558594 -1.277344 3.332031 -1.472656 3.011719 -1.605469 C 2.703125 -1.734375 2.410156 -1.75 2.140625 -1.65625 C 1.871094 -1.558594 1.671875 -1.355469 1.542969 -1.042969 C 1.433594 -0.773438 1.425781 -0.503906 1.523438 -0.234375 C 1.621094 0.0351562 1.859375 0.25 2.234375 0.40625 Z M 2.265625 -2.289062 C 2.117188 -2.441406 2.015625 -2.585938 1.957031 -2.734375 C 1.847656 -3.003906 1.855469 -3.292969 1.980469 -3.601562 C 2.140625 -3.988281 2.417969 -4.257812 2.8125 -4.421875 C 3.207031 -4.582031 3.660156 -4.554688 4.171875 -4.34375 C 4.667969 -4.136719 5 -3.847656 5.175781 -3.46875 C 5.347656 -3.089844 5.363281 -2.726562 5.21875 -2.378906 C 5.085938 -2.058594 4.894531 -1.828125 4.648438 -1.699219 C 4.511719 -1.625 4.320312 -1.570312 4.085938 -1.542969 C 4.257812 -1.355469 4.378906 -1.171875 4.449219 -0.992188 C 4.578125 -0.65625 4.5625 -0.296875 4.402344 0.0859375 C 4.214844 0.539062 3.902344 0.863281 3.464844 1.054688 C 3.027344 1.242188 2.53125 1.222656 1.972656 0.992188 C 1.472656 0.78125 1.101562 0.46875 0.867188 0.0546875 C 0.632812 -0.363281 0.625 -0.832031 0.839844 -1.351562 C 0.964844 -1.65625 1.148438 -1.890625 1.390625 -2.050781 C 1.632812 -2.210938 1.925781 -2.289062 2.265625 -2.289062 Z M 2.265625 -2.289062 "/>
</g>
<g id="glyph-962068-5-3">
<path d="M 0.230469 0.09375 C 0.4375 -0.339844 0.691406 -0.6875 0.988281 -0.953125 C 1.285156 -1.214844 1.722656 -1.386719 2.296875 -1.460938 L 3.15625 -1.578125 C 3.542969 -1.628906 3.824219 -1.691406 4 -1.769531 C 4.28125 -1.886719 4.472656 -2.074219 4.582031 -2.332031 C 4.707031 -2.632812 4.714844 -2.90625 4.605469 -3.160156 C 4.5 -3.410156 4.296875 -3.597656 3.996094 -3.722656 C 3.550781 -3.90625 3.171875 -3.867188 2.863281 -3.601562 C 2.695312 -3.457031 2.542969 -3.230469 2.398438 -2.914062 L 1.738281 -3.1875 C 1.933594 -3.632812 2.167969 -3.964844 2.445312 -4.183594 C 2.933594 -4.566406 3.53125 -4.613281 4.246094 -4.316406 C 4.835938 -4.070312 5.203125 -3.734375 5.34375 -3.300781 C 5.484375 -2.867188 5.472656 -2.453125 5.3125 -2.0625 C 5.140625 -1.648438 4.847656 -1.355469 4.433594 -1.183594 C 4.195312 -1.082031 3.808594 -1 3.273438 -0.9375 L 2.664062 -0.867188 C 2.375 -0.835938 2.136719 -0.789062 1.953125 -0.726562 C 1.625 -0.617188 1.378906 -0.445312 1.210938 -0.21875 L 4.03125 0.953125 L 3.777344 1.566406 Z M 0.230469 0.09375 "/>
</g>
<g id="glyph-962068-5-4">
<path d="M 1.863281 0.9375 C 1.25 0.683594 0.875 0.332031 0.742188 -0.117188 C 0.605469 -0.566406 0.636719 -1.035156 0.835938 -1.515625 L 1.511719 -1.234375 C 1.402344 -0.886719 1.367188 -0.617188 1.398438 -0.425781 C 1.453125 -0.0859375 1.703125 0.175781 2.144531 0.359375 C 2.484375 0.5 2.796875 0.523438 3.078125 0.425781 C 3.363281 0.328125 3.5625 0.136719 3.683594 -0.152344 C 3.832031 -0.507812 3.824219 -0.804688 3.664062 -1.035156 C 3.507812 -1.265625 3.234375 -1.464844 2.847656 -1.625 C 2.804688 -1.640625 2.757812 -1.660156 2.714844 -1.675781 C 2.667969 -1.695312 2.621094 -1.710938 2.574219 -1.726562 L 2.8125 -2.300781 C 2.878906 -2.265625 2.933594 -2.238281 2.976562 -2.21875 C 3.023438 -2.195312 3.070312 -2.175781 3.125 -2.152344 C 3.367188 -2.050781 3.582031 -2.007812 3.769531 -2.019531 C 4.101562 -2.039062 4.335938 -2.222656 4.480469 -2.570312 C 4.585938 -2.828125 4.578125 -3.066406 4.453125 -3.28125 C 4.328125 -3.496094 4.144531 -3.652344 3.902344 -3.753906 C 3.46875 -3.933594 3.109375 -3.914062 2.824219 -3.691406 C 2.667969 -3.570312 2.519531 -3.367188 2.386719 -3.078125 L 1.746094 -3.34375 C 1.90625 -3.730469 2.117188 -4.023438 2.382812 -4.230469 C 2.847656 -4.601562 3.410156 -4.648438 4.078125 -4.375 C 4.605469 -4.15625 4.964844 -3.871094 5.15625 -3.515625 C 5.347656 -3.160156 5.351562 -2.761719 5.167969 -2.316406 C 5.035156 -2 4.84375 -1.777344 4.589844 -1.648438 C 4.433594 -1.570312 4.257812 -1.53125 4.058594 -1.53125 C 4.300781 -1.34375 4.453125 -1.113281 4.519531 -0.835938 C 4.582031 -0.558594 4.550781 -0.269531 4.421875 0.0390625 C 4.21875 0.53125 3.890625 0.867188 3.4375 1.042969 C 2.984375 1.21875 2.457031 1.183594 1.863281 0.9375 Z M 1.863281 0.9375 "/>
</g>
<g id="glyph-962068-5-5">
<path d="M 4.140625 -4.339844 C 4.808594 -4.0625 5.179688 -3.585938 5.25 -2.914062 C 5.304688 -2.390625 5.175781 -1.757812 4.871094 -1.019531 C 4.578125 -0.316406 4.234375 0.222656 3.832031 0.59375 C 3.257812 1.128906 2.625 1.253906 1.9375 0.96875 C 1.316406 0.710938 0.964844 0.25 0.886719 -0.414062 C 0.820312 -0.96875 0.945312 -1.625 1.257812 -2.382812 C 1.5 -2.96875 1.785156 -3.441406 2.113281 -3.800781 C 2.722656 -4.46875 3.398438 -4.648438 4.140625 -4.339844 Z M 2.179688 0.375 C 2.515625 0.515625 2.847656 0.476562 3.167969 0.261719 C 3.492188 0.0429688 3.824219 -0.46875 4.160156 -1.285156 C 4.402344 -1.871094 4.53125 -2.382812 4.542969 -2.820312 C 4.554688 -3.261719 4.355469 -3.566406 3.9375 -3.738281 C 3.554688 -3.898438 3.199219 -3.832031 2.875 -3.546875 C 2.550781 -3.261719 2.242188 -2.765625 1.953125 -2.066406 C 1.734375 -1.539062 1.613281 -1.09375 1.59375 -0.726562 C 1.566406 -0.167969 1.761719 0.199219 2.179688 0.375 Z M 2.179688 0.375 "/>
</g>
<g id="glyph-962068-5-6">
<path d="M 2.222656 -3.367188 L 2.429688 -3.863281 C 2.917969 -3.714844 3.277344 -3.65625 3.507812 -3.6875 C 3.734375 -3.71875 3.980469 -3.914062 4.234375 -4.273438 L 4.75 -4.0625 L 2.617188 1.082031 L 1.921875 0.796875 L 3.4375 -2.863281 Z M 2.222656 -3.367188 "/>
</g>
<g id="glyph-962068-6-0">
<path d="M 1.875 -1.050781 C 1.710938 -0.59375 1.757812 -0.214844 2.007812 0.0898438 C 2.136719 0.25 2.304688 0.371094 2.511719 0.457031 C 2.898438 0.617188 3.296875 0.59375 3.703125 0.382812 C 4.113281 0.175781 4.578125 -0.402344 5.101562 -1.34375 C 4.804688 -1.132812 4.496094 -1.023438 4.183594 -1.019531 C 3.867188 -1.011719 3.558594 -1.074219 3.25 -1.199219 C 2.628906 -1.457031 2.214844 -1.855469 2.015625 -2.394531 C 1.8125 -2.933594 1.839844 -3.507812 2.089844 -4.117188 C 2.332031 -4.703125 2.726562 -5.144531 3.269531 -5.441406 C 3.8125 -5.738281 4.429688 -5.742188 5.128906 -5.453125 C 6.070312 -5.0625 6.542969 -4.371094 6.550781 -3.375 C 6.554688 -2.828125 6.414062 -2.203125 6.125 -1.5 C 5.796875 -0.710938 5.386719 -0.0585938 4.898438 0.453125 C 4.082031 1.304688 3.203125 1.539062 2.261719 1.148438 C 1.628906 0.886719 1.21875 0.523438 1.027344 0.0546875 C 0.835938 -0.410156 0.847656 -0.894531 1.050781 -1.394531 Z M 3.65625 -1.867188 C 3.976562 -1.734375 4.3125 -1.71875 4.667969 -1.820312 C 5.023438 -1.921875 5.308594 -2.238281 5.527344 -2.769531 C 5.722656 -3.242188 5.75 -3.648438 5.609375 -3.980469 C 5.46875 -4.3125 5.210938 -4.554688 4.839844 -4.707031 C 4.445312 -4.871094 4.074219 -4.867188 3.730469 -4.699219 C 3.386719 -4.53125 3.125 -4.222656 2.9375 -3.777344 C 2.765625 -3.355469 2.726562 -2.980469 2.828125 -2.644531 C 2.929688 -2.3125 3.207031 -2.054688 3.65625 -1.867188 Z M 3.65625 -1.867188 "/>
</g>
<g id="glyph-962068-6-1">
<path d="M 2.777344 -4.207031 L 3.035156 -4.832031 C 3.644531 -4.644531 4.09375 -4.570312 4.382812 -4.609375 C 4.667969 -4.648438 4.972656 -4.890625 5.292969 -5.34375 L 5.933594 -5.078125 L 3.269531 1.355469 L 2.40625 0.996094 L 4.300781 -3.578125 Z M 2.777344 -4.207031 "/>
</g>
<g id="glyph-962068-6-2">
<path d="M 4 -1.023438 L 5.214844 -3.949219 L 1.929688 -1.878906 Z M 3.066406 1.269531 L 3.722656 -0.308594 L 0.886719 -1.480469 L 1.21875 -2.277344 L 5.878906 -5.15625 L 6.5625 -4.871094 L 4.828125 -0.679688 L 5.777344 -0.285156 L 5.484375 0.421875 L 4.535156 0.0273438 L 3.878906 1.605469 Z M 3.066406 1.269531 "/>
</g>
<g id="glyph-962068-6-3">
<path d="M 0.289062 0.121094 C 0.550781 -0.421875 0.863281 -0.859375 1.234375 -1.191406 C 1.605469 -1.519531 2.152344 -1.730469 2.871094 -1.828125 L 3.945312 -1.96875 C 4.425781 -2.035156 4.777344 -2.113281 5 -2.210938 C 5.351562 -2.359375 5.59375 -2.589844 5.726562 -2.914062 C 5.882812 -3.289062 5.890625 -3.632812 5.757812 -3.949219 C 5.625 -4.261719 5.371094 -4.5 4.992188 -4.65625 C 4.4375 -4.886719 3.964844 -4.832031 3.578125 -4.5 C 3.371094 -4.324219 3.175781 -4.035156 3 -3.640625 L 2.171875 -3.984375 C 2.414062 -4.542969 2.707031 -4.957031 3.054688 -5.230469 C 3.664062 -5.710938 4.414062 -5.765625 5.304688 -5.398438 C 6.046875 -5.089844 6.503906 -4.667969 6.679688 -4.125 C 6.855469 -3.582031 6.839844 -3.066406 6.636719 -2.578125 C 6.421875 -2.0625 6.058594 -1.695312 5.542969 -1.476562 C 5.242188 -1.351562 4.757812 -1.25 4.089844 -1.171875 L 3.328125 -1.082031 C 2.96875 -1.042969 2.671875 -0.984375 2.441406 -0.90625 C 2.03125 -0.769531 1.722656 -0.558594 1.511719 -0.273438 L 5.039062 1.191406 L 4.722656 1.957031 Z M 0.289062 0.121094 "/>
</g>
<g id="glyph-962068-7-0">
<path d="M 1.113281 -1.683594 L 1.214844 -1.933594 C 1.457031 -1.859375 1.636719 -1.828125 1.753906 -1.84375 C 1.867188 -1.859375 1.988281 -1.957031 2.117188 -2.136719 L 2.375 -2.03125 L 1.308594 0.542969 L 0.960938 0.398438 L 1.71875 -1.429688 Z M 1.113281 -1.683594 "/>
</g>
<g id="glyph-962068-7-1">
<path d="M 2.070312 -2.167969 C 2.40625 -2.03125 2.589844 -1.792969 2.625 -1.457031 C 2.652344 -1.195312 2.589844 -0.878906 2.433594 -0.507812 C 2.289062 -0.15625 2.117188 0.109375 1.917969 0.296875 C 1.628906 0.5625 1.3125 0.625 0.96875 0.484375 C 0.660156 0.355469 0.484375 0.125 0.441406 -0.207031 C 0.410156 -0.484375 0.472656 -0.8125 0.628906 -1.191406 C 0.75 -1.484375 0.894531 -1.722656 1.054688 -1.902344 C 1.359375 -2.234375 1.699219 -2.324219 2.070312 -2.167969 Z M 1.089844 0.1875 C 1.257812 0.257812 1.421875 0.238281 1.585938 0.128906 C 1.746094 0.0234375 1.910156 -0.234375 2.078125 -0.640625 C 2.199219 -0.933594 2.265625 -1.191406 2.269531 -1.410156 C 2.277344 -1.628906 2.175781 -1.78125 1.96875 -1.871094 C 1.777344 -1.949219 1.601562 -1.917969 1.4375 -1.773438 C 1.273438 -1.628906 1.121094 -1.382812 0.976562 -1.035156 C 0.867188 -0.769531 0.808594 -0.546875 0.796875 -0.363281 C 0.78125 -0.0820312 0.878906 0.101562 1.089844 0.1875 Z M 1.089844 0.1875 "/>
</g>
<g id="glyph-962068-7-2">
<path d="M 0.929688 0.46875 C 0.625 0.339844 0.4375 0.164062 0.371094 -0.0585938 C 0.300781 -0.285156 0.316406 -0.515625 0.417969 -0.757812 L 0.757812 -0.617188 C 0.703125 -0.445312 0.683594 -0.308594 0.699219 -0.214844 C 0.726562 -0.0429688 0.851562 0.0898438 1.070312 0.179688 C 1.242188 0.25 1.398438 0.261719 1.539062 0.210938 C 1.679688 0.164062 1.78125 0.0664062 1.839844 -0.078125 C 1.914062 -0.253906 1.914062 -0.402344 1.832031 -0.519531 C 1.753906 -0.632812 1.617188 -0.730469 1.421875 -0.8125 C 1.402344 -0.820312 1.378906 -0.828125 1.355469 -0.839844 C 1.332031 -0.847656 1.3125 -0.855469 1.289062 -0.863281 L 1.40625 -1.152344 C 1.4375 -1.132812 1.464844 -1.117188 1.488281 -1.109375 C 1.511719 -1.097656 1.535156 -1.085938 1.5625 -1.074219 C 1.683594 -1.023438 1.792969 -1.003906 1.886719 -1.007812 C 2.050781 -1.019531 2.167969 -1.113281 2.242188 -1.285156 C 2.292969 -1.414062 2.289062 -1.53125 2.226562 -1.640625 C 2.164062 -1.746094 2.070312 -1.828125 1.949219 -1.875 C 1.734375 -1.964844 1.554688 -1.957031 1.410156 -1.847656 C 1.332031 -1.785156 1.261719 -1.683594 1.195312 -1.539062 L 0.871094 -1.671875 C 0.953125 -1.863281 1.058594 -2.011719 1.191406 -2.117188 C 1.421875 -2.300781 1.707031 -2.324219 2.039062 -2.1875 C 2.300781 -2.078125 2.480469 -1.933594 2.578125 -1.757812 C 2.671875 -1.582031 2.675781 -1.378906 2.582031 -1.15625 C 2.515625 -1 2.421875 -0.886719 2.296875 -0.824219 C 2.21875 -0.785156 2.128906 -0.765625 2.03125 -0.765625 C 2.152344 -0.671875 2.226562 -0.554688 2.257812 -0.417969 C 2.289062 -0.28125 2.273438 -0.132812 2.210938 0.0195312 C 2.109375 0.265625 1.945312 0.433594 1.71875 0.523438 C 1.492188 0.609375 1.230469 0.589844 0.929688 0.46875 Z M 0.929688 0.46875 "/>
</g>
<g id="glyph-962068-7-3">
<path d="M 0.730469 -0.46875 C 0.675781 -0.273438 0.707031 -0.113281 0.828125 0.0234375 C 0.890625 0.0898438 0.972656 0.144531 1.074219 0.1875 C 1.265625 0.265625 1.433594 0.265625 1.578125 0.179688 C 1.71875 0.09375 1.824219 -0.0234375 1.882812 -0.171875 C 1.957031 -0.351562 1.960938 -0.511719 1.894531 -0.65625 C 1.824219 -0.800781 1.710938 -0.90625 1.558594 -0.96875 C 1.445312 -1.015625 1.339844 -1.035156 1.242188 -1.023438 C 1.144531 -1.011719 1.050781 -0.980469 0.964844 -0.929688 L 0.6875 -1.0625 L 1.460938 -2.371094 L 2.804688 -1.816406 L 2.675781 -1.5 L 1.574219 -1.957031 L 1.167969 -1.285156 C 1.246094 -1.304688 1.320312 -1.316406 1.382812 -1.316406 C 1.496094 -1.316406 1.613281 -1.289062 1.742188 -1.238281 C 1.976562 -1.140625 2.148438 -0.980469 2.25 -0.757812 C 2.351562 -0.535156 2.351562 -0.308594 2.253906 -0.0742188 C 2.152344 0.167969 1.988281 0.355469 1.761719 0.476562 C 1.53125 0.601562 1.253906 0.59375 0.921875 0.457031 C 0.710938 0.371094 0.550781 0.234375 0.4375 0.0507812 C 0.324219 -0.136719 0.308594 -0.355469 0.390625 -0.609375 Z M 0.730469 -0.46875 "/>
</g>
<g id="glyph-962068-7-4">
<path d="M 2.15625 -2.148438 C 2.445312 -2.027344 2.613281 -1.871094 2.667969 -1.671875 C 2.71875 -1.476562 2.710938 -1.296875 2.644531 -1.140625 L 2.324219 -1.273438 C 2.347656 -1.382812 2.347656 -1.476562 2.332031 -1.550781 C 2.296875 -1.691406 2.203125 -1.792969 2.042969 -1.859375 C 1.863281 -1.933594 1.683594 -1.910156 1.503906 -1.789062 C 1.328125 -1.664062 1.171875 -1.449219 1.027344 -1.140625 C 1.148438 -1.21875 1.277344 -1.261719 1.410156 -1.269531 C 1.535156 -1.273438 1.660156 -1.25 1.789062 -1.199219 C 2.003906 -1.109375 2.164062 -0.960938 2.269531 -0.753906 C 2.371094 -0.550781 2.367188 -0.3125 2.253906 -0.0351562 C 2.15625 0.199219 1.996094 0.375 1.765625 0.492188 C 1.539062 0.609375 1.285156 0.609375 1 0.492188 C 0.757812 0.390625 0.589844 0.214844 0.488281 -0.0429688 C 0.390625 -0.296875 0.429688 -0.644531 0.609375 -1.078125 C 0.742188 -1.398438 0.894531 -1.65625 1.066406 -1.847656 C 1.394531 -2.210938 1.757812 -2.3125 2.15625 -2.148438 Z M 1.148438 0.214844 C 1.320312 0.285156 1.472656 0.28125 1.605469 0.203125 C 1.738281 0.121094 1.835938 0.00390625 1.898438 -0.152344 C 1.953125 -0.285156 1.96875 -0.425781 1.941406 -0.578125 C 1.917969 -0.726562 1.804688 -0.84375 1.605469 -0.925781 C 1.464844 -0.984375 1.324219 -0.988281 1.179688 -0.941406 C 1.035156 -0.890625 0.925781 -0.773438 0.847656 -0.585938 C 0.78125 -0.421875 0.769531 -0.265625 0.820312 -0.117188 C 0.871094 0.0351562 0.980469 0.144531 1.148438 0.214844 Z M 1.148438 0.214844 "/>
</g>
<g id="glyph-962068-7-5">
<path d="M 2.984375 -1.738281 L 2.867188 -1.457031 C 2.75 -1.410156 2.582031 -1.316406 2.363281 -1.171875 C 2.140625 -1.03125 1.929688 -0.867188 1.730469 -0.679688 C 1.53125 -0.496094 1.367188 -0.324219 1.234375 -0.164062 C 1.152344 -0.0585938 1.027344 0.117188 0.863281 0.355469 L 0.503906 0.207031 C 0.789062 -0.25 1.171875 -0.667969 1.65625 -1.039062 C 1.9375 -1.257812 2.214844 -1.433594 2.480469 -1.566406 L 1.050781 -2.15625 L 1.1875 -2.484375 Z M 2.984375 -1.738281 "/>
</g>
<g id="glyph-962068-7-6">
<path d="M 1.625 -1.085938 C 1.769531 -1.027344 1.898438 -1.019531 2.011719 -1.066406 C 2.125 -1.113281 2.207031 -1.191406 2.25 -1.300781 C 2.289062 -1.398438 2.289062 -1.503906 2.246094 -1.613281 C 2.203125 -1.726562 2.101562 -1.816406 1.945312 -1.882812 C 1.789062 -1.945312 1.65625 -1.953125 1.554688 -1.902344 C 1.453125 -1.851562 1.378906 -1.769531 1.332031 -1.660156 C 1.28125 -1.539062 1.289062 -1.425781 1.351562 -1.320312 C 1.414062 -1.214844 1.503906 -1.136719 1.625 -1.085938 Z M 1.117188 0.203125 C 1.265625 0.265625 1.410156 0.277344 1.542969 0.234375 C 1.675781 0.195312 1.773438 0.09375 1.839844 -0.0664062 C 1.910156 -0.234375 1.910156 -0.382812 1.84375 -0.511719 C 1.777344 -0.640625 1.664062 -0.738281 1.507812 -0.804688 C 1.351562 -0.867188 1.207031 -0.875 1.070312 -0.828125 C 0.9375 -0.78125 0.835938 -0.679688 0.773438 -0.523438 C 0.714844 -0.386719 0.710938 -0.25 0.761719 -0.117188 C 0.8125 0.0195312 0.929688 0.125 1.117188 0.203125 Z M 1.132812 -1.144531 C 1.058594 -1.21875 1.007812 -1.292969 0.976562 -1.367188 C 0.921875 -1.503906 0.925781 -1.648438 0.992188 -1.800781 C 1.070312 -1.992188 1.210938 -2.128906 1.40625 -2.210938 C 1.601562 -2.292969 1.828125 -2.277344 2.085938 -2.171875 C 2.332031 -2.070312 2.5 -1.921875 2.585938 -1.734375 C 2.671875 -1.546875 2.679688 -1.363281 2.609375 -1.191406 C 2.542969 -1.027344 2.445312 -0.914062 2.324219 -0.847656 C 2.253906 -0.8125 2.160156 -0.785156 2.042969 -0.769531 C 2.128906 -0.675781 2.191406 -0.585938 2.226562 -0.496094 C 2.289062 -0.328125 2.28125 -0.148438 2.203125 0.0429688 C 2.109375 0.269531 1.953125 0.433594 1.734375 0.527344 C 1.515625 0.621094 1.265625 0.609375 0.988281 0.496094 C 0.734375 0.390625 0.550781 0.234375 0.433594 0.0273438 C 0.316406 -0.183594 0.3125 -0.417969 0.417969 -0.675781 C 0.480469 -0.828125 0.574219 -0.945312 0.695312 -1.027344 C 0.816406 -1.105469 0.960938 -1.144531 1.132812 -1.144531 Z M 1.132812 -1.144531 "/>
</g>
<g id="glyph-962068-7-7">
<path d="M 0.75 -0.421875 C 0.683594 -0.238281 0.703125 -0.0859375 0.804688 0.0351562 C 0.855469 0.101562 0.921875 0.148438 1.003906 0.183594 C 1.160156 0.246094 1.320312 0.238281 1.480469 0.152344 C 1.644531 0.0703125 1.832031 -0.160156 2.039062 -0.539062 C 1.921875 -0.453125 1.796875 -0.410156 1.671875 -0.40625 C 1.546875 -0.40625 1.421875 -0.429688 1.300781 -0.480469 C 1.050781 -0.582031 0.886719 -0.742188 0.804688 -0.957031 C 0.726562 -1.171875 0.734375 -1.402344 0.835938 -1.648438 C 0.933594 -1.882812 1.089844 -2.058594 1.308594 -2.175781 C 1.523438 -2.296875 1.773438 -2.296875 2.050781 -2.183594 C 2.429688 -2.027344 2.617188 -1.75 2.621094 -1.351562 C 2.621094 -1.132812 2.566406 -0.878906 2.449219 -0.601562 C 2.316406 -0.285156 2.15625 -0.0234375 1.957031 0.179688 C 1.632812 0.523438 1.28125 0.617188 0.90625 0.460938 C 0.652344 0.355469 0.488281 0.210938 0.410156 0.0234375 C 0.335938 -0.164062 0.339844 -0.355469 0.421875 -0.558594 Z M 1.460938 -0.746094 C 1.589844 -0.695312 1.726562 -0.6875 1.867188 -0.730469 C 2.007812 -0.769531 2.125 -0.894531 2.210938 -1.105469 C 2.289062 -1.296875 2.300781 -1.457031 2.242188 -1.589844 C 2.1875 -1.722656 2.085938 -1.820312 1.9375 -1.882812 C 1.777344 -1.949219 1.628906 -1.949219 1.492188 -1.878906 C 1.355469 -1.8125 1.25 -1.6875 1.175781 -1.511719 C 1.105469 -1.34375 1.089844 -1.191406 1.132812 -1.058594 C 1.171875 -0.925781 1.28125 -0.820312 1.460938 -0.746094 Z M 1.460938 -0.746094 "/>
</g>
<g id="glyph-962068-7-8">
<path d="M 0.117188 0.046875 C 0.21875 -0.171875 0.347656 -0.34375 0.496094 -0.476562 C 0.644531 -0.609375 0.859375 -0.691406 1.148438 -0.730469 L 1.578125 -0.789062 C 1.769531 -0.8125 1.910156 -0.847656 2 -0.882812 C 2.140625 -0.941406 2.238281 -1.035156 2.289062 -1.164062 C 2.351562 -1.316406 2.355469 -1.453125 2.304688 -1.578125 C 2.25 -1.703125 2.148438 -1.800781 1.996094 -1.863281 C 1.773438 -1.953125 1.585938 -1.933594 1.429688 -1.800781 C 1.347656 -1.730469 1.269531 -1.613281 1.199219 -1.457031 L 0.871094 -1.59375 C 0.964844 -1.816406 1.082031 -1.984375 1.222656 -2.09375 C 1.464844 -2.285156 1.765625 -2.304688 2.121094 -2.160156 C 2.417969 -2.035156 2.601562 -1.867188 2.671875 -1.648438 C 2.742188 -1.433594 2.738281 -1.226562 2.65625 -1.03125 C 2.570312 -0.824219 2.421875 -0.675781 2.21875 -0.589844 C 2.097656 -0.539062 1.902344 -0.5 1.636719 -0.46875 L 1.332031 -0.433594 C 1.1875 -0.417969 1.070312 -0.394531 0.976562 -0.363281 C 0.8125 -0.308594 0.6875 -0.222656 0.605469 -0.109375 L 2.015625 0.476562 L 1.890625 0.78125 Z M 0.117188 0.046875 "/>
</g>
<g id="glyph-962068-8-0">
<path d="M 0.554688 -0.839844 L 0.605469 -0.964844 C 0.730469 -0.929688 0.820312 -0.914062 0.875 -0.921875 C 0.933594 -0.929688 0.996094 -0.976562 1.058594 -1.070312 L 1.1875 -1.015625 L 0.652344 0.269531 L 0.480469 0.199219 L 0.859375 -0.714844 Z M 0.554688 -0.839844 "/>
</g>
<g id="glyph-962068-8-1">
<path d="M 0.0585938 0.0234375 C 0.109375 -0.0859375 0.171875 -0.171875 0.246094 -0.238281 C 0.320312 -0.304688 0.429688 -0.347656 0.574219 -0.367188 L 0.789062 -0.394531 C 0.886719 -0.40625 0.957031 -0.421875 1 -0.441406 C 1.070312 -0.472656 1.117188 -0.519531 1.144531 -0.582031 C 1.175781 -0.65625 1.179688 -0.726562 1.152344 -0.789062 C 1.125 -0.851562 1.074219 -0.898438 1 -0.929688 C 0.886719 -0.976562 0.792969 -0.964844 0.714844 -0.898438 C 0.671875 -0.863281 0.636719 -0.808594 0.601562 -0.726562 L 0.433594 -0.796875 C 0.484375 -0.910156 0.542969 -0.992188 0.609375 -1.046875 C 0.734375 -1.140625 0.882812 -1.152344 1.0625 -1.078125 C 1.210938 -1.019531 1.300781 -0.933594 1.335938 -0.824219 C 1.371094 -0.714844 1.367188 -0.613281 1.328125 -0.515625 C 1.285156 -0.414062 1.210938 -0.339844 1.109375 -0.296875 C 1.050781 -0.269531 0.953125 -0.25 0.816406 -0.234375 L 0.664062 -0.214844 C 0.59375 -0.207031 0.535156 -0.195312 0.488281 -0.179688 C 0.40625 -0.152344 0.34375 -0.113281 0.300781 -0.0546875 L 1.007812 0.238281 L 0.945312 0.390625 Z M 0.0585938 0.0234375 "/>
</g>
<g id="glyph-962068-9-0">
<path d="M 5.585938 2.808594 C 3.75 2.050781 2.628906 0.996094 2.222656 -0.355469 C 1.8125 -1.703125 1.90625 -3.101562 2.503906 -4.542969 L 4.539062 -3.699219 C 4.210938 -2.660156 4.097656 -1.855469 4.195312 -1.28125 C 4.363281 -0.257812 5.109375 0.53125 6.429688 1.078125 C 7.453125 1.503906 8.390625 1.570312 9.238281 1.277344 C 10.085938 0.984375 10.6875 0.40625 11.046875 -0.460938 C 11.488281 -1.527344 11.472656 -2.410156 10.996094 -3.105469 C 10.519531 -3.800781 9.699219 -4.390625 8.539062 -4.871094 C 8.410156 -4.925781 8.277344 -4.980469 8.140625 -5.03125 C 8.003906 -5.082031 7.867188 -5.132812 7.726562 -5.183594 L 8.441406 -6.90625 C 8.632812 -6.800781 8.796875 -6.714844 8.933594 -6.652344 C 9.066406 -6.585938 9.210938 -6.523438 9.371094 -6.457031 C 10.101562 -6.15625 10.746094 -6.019531 11.3125 -6.058594 C 12.300781 -6.121094 13.011719 -6.671875 13.441406 -7.710938 C 13.761719 -8.484375 13.734375 -9.195312 13.359375 -9.839844 C 12.984375 -10.484375 12.433594 -10.960938 11.703125 -11.261719 C 10.40625 -11.800781 9.328125 -11.738281 8.46875 -11.078125 C 8 -10.714844 7.5625 -10.101562 7.160156 -9.234375 L 5.234375 -10.035156 C 5.710938 -11.1875 6.351562 -12.074219 7.148438 -12.691406 C 8.539062 -13.804688 10.234375 -13.949219 12.234375 -13.121094 C 13.816406 -12.46875 14.890625 -11.609375 15.46875 -10.546875 C 16.042969 -9.484375 16.050781 -8.285156 15.5 -6.949219 C 15.105469 -5.996094 14.527344 -5.332031 13.769531 -4.949219 C 13.300781 -4.714844 12.769531 -4.597656 12.179688 -4.597656 C 12.902344 -4.035156 13.359375 -3.339844 13.554688 -2.511719 C 13.746094 -1.683594 13.652344 -0.804688 13.269531 0.117188 C 12.65625 1.597656 11.671875 2.601562 10.308594 3.128906 C 8.949219 3.65625 7.375 3.550781 5.585938 2.808594 Z M 5.585938 2.808594 "/>
</g>
<g id="glyph-962068-10-0">
<path d="M 7.910156 3.976562 C 5.3125 2.902344 3.726562 1.410156 3.144531 -0.503906 C 2.566406 -2.414062 2.699219 -4.390625 3.546875 -6.4375 L 6.429688 -5.242188 C 5.964844 -3.769531 5.800781 -2.628906 5.945312 -1.8125 C 6.183594 -0.363281 7.234375 0.75 9.105469 1.527344 C 10.558594 2.128906 11.886719 2.222656 13.085938 1.808594 C 14.289062 1.394531 15.144531 0.578125 15.652344 -0.652344 C 16.277344 -2.164062 16.253906 -3.414062 15.578125 -4.402344 C 14.902344 -5.386719 13.742188 -6.222656 12.097656 -6.902344 C 11.914062 -6.980469 11.722656 -7.054688 11.53125 -7.128906 C 11.339844 -7.203125 11.148438 -7.273438 10.949219 -7.34375 L 11.957031 -9.78125 C 12.230469 -9.632812 12.464844 -9.511719 12.652344 -9.421875 C 12.84375 -9.332031 13.050781 -9.238281 13.277344 -9.144531 C 14.308594 -8.71875 15.226562 -8.53125 16.027344 -8.582031 C 17.429688 -8.671875 18.433594 -9.453125 19.042969 -10.925781 C 19.496094 -12.019531 19.457031 -13.023438 18.925781 -13.9375 C 18.394531 -14.851562 17.613281 -15.523438 16.582031 -15.953125 C 14.742188 -16.714844 13.214844 -16.628906 12 -15.695312 C 11.332031 -15.179688 10.714844 -14.308594 10.144531 -13.085938 L 7.414062 -14.214844 C 8.09375 -15.851562 8.996094 -17.105469 10.125 -17.980469 C 12.097656 -19.558594 14.5 -19.761719 17.332031 -18.589844 C 19.570312 -17.660156 21.097656 -16.445312 21.910156 -14.941406 C 22.726562 -13.433594 22.742188 -11.738281 21.957031 -9.84375 C 21.398438 -8.496094 20.582031 -7.550781 19.507812 -7.011719 C 18.84375 -6.679688 18.089844 -6.511719 17.253906 -6.511719 C 18.277344 -5.714844 18.925781 -4.730469 19.199219 -3.554688 C 19.472656 -2.382812 19.339844 -1.140625 18.796875 0.167969 C 17.929688 2.265625 16.53125 3.683594 14.605469 4.433594 C 12.679688 5.179688 10.449219 5.027344 7.910156 3.976562 Z M 7.910156 3.976562 "/>
</g>
<g id="glyph-962068-10-1">
<path d="M 13.605469 -3.476562 L 17.726562 -13.429688 L 6.566406 -6.390625 Z M 10.429688 4.320312 L 12.652344 -1.046875 L 3.019531 -5.039062 L 4.140625 -7.738281 L 19.980469 -17.527344 L 22.3125 -16.5625 L 16.410156 -2.3125 L 19.648438 -0.972656 L 18.652344 1.4375 L 15.414062 0.09375 L 13.191406 5.464844 Z M 10.429688 4.320312 "/>
</g>
</g>
</defs>
<rect x="-60" y="-30" width="720" height="360" fill="rgb(10.196078%, 10.196078%, 10.196078%)" fill-opacity="1"/>
<path fill="none" stroke-width="1" stroke-linecap="butt" stroke-linejoin="miter" stroke="rgb(50.196078%, 0%, 50.196078%)" stroke-opacity="1" stroke-miterlimit="10" d="M 240.652344 132.078125 L 261.78125 137.667969 "/>
<path fill="none" stroke-width="1" stroke-linecap="butt" stroke-linejoin="miter" stroke="rgb(50.196078%, 0%, 50.196078%)" stroke-opacity="1" stroke-miterlimit="10" d="M 240.652344 132.078125 L 297.125 155.746094 "/>
<path fill="none" stroke-width="1" stroke-linecap="butt" stroke-linejoin="miter" stroke="rgb(50.196078%, 0%, 50.196078%)" stroke-opacity="1" stroke-miterlimit="10" d="M 240.652344 132.078125 L 271.277344 101.105469 "/>
<path fill="none" stroke-width="1" stroke-linecap="butt" stroke-linejoin="miter" stroke="rgb(50.196078%, 0%, 50.196078%)" stroke-opacity="1" stroke-miterlimit="10" d="M 240.652344 132.078125 L 196.242188 102.535156 "/>
<path fill="none" stroke-width="1" stroke-linecap="butt" stroke-linejoin="miter" stroke="rgb(50.196078%, 0%, 50.196078%)" stroke-opacity="1" stroke-miterlimit="10" d="M 240.652344 132.078125 L 195.839844 84.101562 "/>
<path fill="none" stroke-width="1" stroke-linecap="butt" stroke-linejoin="miter" stroke="rgb(50.196078%, 0%, 50.196078%)" stroke-opacity="1" stroke-miterlimit="10" d="M 240.652344 132.078125 L 223.011719 66.089844 "/>
<path fill="none" stroke-width="1" stroke-linecap="butt" stroke-linejoin="miter" stroke="rgb(50.196078%, 0%, 50.196078%)" stroke-opacity="1" stroke-miterlimit="10" d="M 240.652344 132.078125 L 242.011719 168.289062 "/>
<path fill="none" stroke-width="1" stroke-linecap="butt" stroke-linejoin="miter" stroke="rgb(50.196078%, 0%, 50.196078%)" stroke-opacity="1" stroke-miterlimit="10" d="M 240.652344 132.078125 L 311.03125 132.949219 "/>
<path fill="none" stroke-width="1" stroke-linecap="butt" stroke-linejoin="miter" stroke="rgb(50.196078%, 0%, 50.196078%)" stroke-opacity="1" stroke-miterlimit="10" d="M 240.652344 132.078125 L 175.195312 127.546875 "/>
<path fill="none" stroke-width="1" stroke-linecap="butt" stroke-linejoin="miter" stroke="rgb(50.196078%, 0%, 50.196078%)" stroke-opacity="1" stroke-miterlimit="10" d="M 240.652344 132.078125 L 179.507812 178.933594 "/>
<path fill="none" stroke-width="1" stroke-linecap="butt" stroke-linejoin="miter" stroke="rgb(50.196078%, 0%, 50.196078%)" stroke-opacity="1" stroke-miterlimit="10" d="M 240.652344 132.078125 L 257.335938 60.402344 "/>
<path fill="none" stroke-width="1" stroke-linecap="butt" stroke-linejoin="miter" stroke="rgb(50.196078%, 0%, 50.196078%)" stroke-opacity="1" stroke-miterlimit="10" d="M 240.652344 132.078125 L 305.65625 113.847656 "/>
<path fill="none" stroke-width="1" stroke-linecap="butt" stroke-linejoin="miter" stroke="rgb(50.196078%, 0%, 50.196078%)" stroke-opacity="1" stroke-miterlimit="10" d="M 240.652344 132.078125 L 207.21875 183.527344 "/>
<path fill="none" stroke-width="1" stroke-linecap="butt" stroke-linejoin="miter" stroke="rgb(50.196078%, 0%, 50.196078%)" stroke-opacity="1" stroke-miterlimit="10" d="M 240.652344 132.078125 L 286.703125 169.695312 "/>
<path fill="none" stroke-width="1" stroke-linecap="butt" stroke-linejoin="miter" stroke="rgb(50.196078%, 0%, 50.196078%)" stroke-opacity="1" stroke-miterlimit="10" d="M 240.652344 132.078125 L 196.707031 149.664062 "/>
<path fill="none" stroke-width="1" stroke-linecap="butt" stroke-linejoin="miter" stroke="rgb(50.196078%, 0%, 50.196078%)" stroke-opacity="1" stroke-miterlimit="10" d="M 240.652344 132.078125 L 285.699219 198.691406 "/>
<path fill="none" stroke-width="1" stroke-linecap="butt" stroke-linejoin="miter" stroke="rgb(50.196078%, 0%, 50.196078%)" stroke-opacity="1" stroke-miterlimit="10" d="M 261.78125 137.667969 L 297.125 155.746094 "/>
<path fill="none" stroke-width="1" stroke-linecap="butt" stroke-linejoin="miter" stroke="rgb(50.196078%, 0%, 50.196078%)" stroke-opacity="1" stroke-miterlimit="10" d="M 261.78125 137.667969 L 271.277344 101.105469 "/>
<path fill="none" stroke-width="1" stroke-linecap="butt" stroke-linejoin="miter" stroke="rgb(50.196078%, 0%, 50.196078%)" stroke-opacity="1" stroke-miterlimit="10" d="M 261.78125 137.667969 L 242.011719 168.289062 "/>
<path fill="none" stroke-width="1" stroke-linecap="butt" stroke-linejoin="miter" stroke="rgb(50.196078%, 0%, 50.196078%)" stroke-opacity="1" stroke-miterlimit="10" d="M 261.78125 137.667969 L 305.65625 113.847656 "/>
<path fill="none" stroke-width="1" stroke-linecap="butt" stroke-linejoin="miter" stroke="rgb(50.196078%, 0%, 50.196078%)" stroke-opacity="1" stroke-miterlimit="10" d="M 261.78125 137.667969 L 207.21875 183.527344 "/>
<path fill="none" stroke-width="1" stroke-linecap="butt" stroke-linejoin="miter" stroke="rgb(50.196078%, 0%, 50.196078%)" stroke-opacity="1" stroke-miterlimit="10" d="M 261.78125 137.667969 L 286.703125 169.695312 "/>
<path fill="none" stroke-width="1" stroke-linecap="butt" stroke-linejoin="miter" stroke="rgb(50.196078%, 0%, 50.196078%)" stroke-opacity="1" stroke-miterlimit="10" d="M 261.78125 137.667969 L 196.707031 149.664062 "/>
<path fill="none" stroke-width="1" stroke-linecap="butt" stroke-linejoin="miter" stroke="rgb(50.196078%, 0%, 50.196078%)" stroke-opacity="1" stroke-miterlimit="10" d="M 261.78125 137.667969 L 339.941406 127.769531 "/>
<path fill="none" stroke-width="1" stroke-linecap="butt" stroke-linejoin="miter" stroke="rgb(50.196078%, 0%, 50.196078%)" stroke-opacity="1" stroke-miterlimit="10" d="M 297.125 155.746094 L 271.277344 101.105469 "/>
<path fill="none" stroke-width="1" stroke-linecap="butt" stroke-linejoin="miter" stroke="rgb(50.196078%, 0%, 50.196078%)" stroke-opacity="1" stroke-miterlimit="10" d="M 297.125 155.746094 L 242.011719 168.289062 "/>
<path fill="none" stroke-width="1" stroke-linecap="butt" stroke-linejoin="miter" stroke="rgb(50.196078%, 0%, 50.196078%)" stroke-opacity="1" stroke-miterlimit="10" d="M 297.125 155.746094 L 311.03125 132.949219 "/>
<path fill="none" stroke-width="1" stroke-linecap="butt" stroke-linejoin="miter" stroke="rgb(50.196078%, 0%, 50.196078%)" stroke-opacity="1" stroke-miterlimit="10" d="M 297.125 155.746094 L 353.933594 106.703125 "/>
<path fill="none" stroke-width="1" stroke-linecap="butt" stroke-linejoin="miter" stroke="rgb(50.196078%, 0%, 50.196078%)" stroke-opacity="1" stroke-miterlimit="10" d="M 297.125 155.746094 L 305.65625 113.847656 "/>
<path fill="none" stroke-width="1" stroke-linecap="butt" stroke-linejoin="miter" stroke="rgb(50.196078%, 0%, 50.196078%)" stroke-opacity="1" stroke-miterlimit="10" d="M 297.125 155.746094 L 309.296875 222.351562 "/>
<path fill="none" stroke-width="1" stroke-linecap="butt" stroke-linejoin="miter" stroke="rgb(50.196078%, 0%, 50.196078%)" stroke-opacity="1" stroke-miterlimit="10" d="M 297.125 155.746094 L 324.148438 205.394531 "/>
<path fill="none" stroke-width="1" stroke-linecap="butt" stroke-linejoin="miter" stroke="rgb(50.196078%, 0%, 50.196078%)" stroke-opacity="1" stroke-miterlimit="10" d="M 297.125 155.746094 L 355.238281 182.808594 "/>
<path fill="none" stroke-width="1" stroke-linecap="butt" stroke-linejoin="miter" stroke="rgb(50.196078%, 0%, 50.196078%)" stroke-opacity="1" stroke-miterlimit="10" d="M 271.277344 101.105469 L 242.011719 168.289062 "/>
<path fill="none" stroke-width="1" stroke-linecap="butt" stroke-linejoin="miter" stroke="rgb(50.196078%, 0%, 50.196078%)" stroke-opacity="1" stroke-miterlimit="10" d="M 271.277344 101.105469 L 257.335938 60.402344 "/>
<path fill="none" stroke-width="1" stroke-linecap="butt" stroke-linejoin="miter" stroke="rgb(50.196078%, 0%, 50.196078%)" stroke-opacity="1" stroke-miterlimit="10" d="M 271.277344 101.105469 L 305.65625 113.847656 "/>
<path fill="none" stroke-width="1" stroke-linecap="butt" stroke-linejoin="miter" stroke="rgb(50.196078%, 0%, 50.196078%)" stroke-opacity="1" stroke-miterlimit="10" d="M 196.242188 102.535156 L 223.011719 66.089844 "/>
<path fill="none" stroke-width="1" stroke-linecap="butt" stroke-linejoin="miter" stroke="rgb(50.196078%, 0%, 50.196078%)" stroke-opacity="1" stroke-miterlimit="10" d="M 196.242188 102.535156 L 175.195312 127.546875 "/>
<path fill="none" stroke-width="1" stroke-linecap="butt" stroke-linejoin="miter" stroke="rgb(50.196078%, 0%, 50.196078%)" stroke-opacity="1" stroke-miterlimit="10" d="M 195.839844 84.101562 L 223.011719 66.089844 "/>
<path fill="none" stroke-width="1" stroke-linecap="butt" stroke-linejoin="miter" stroke="rgb(50.196078%, 0%, 50.196078%)" stroke-opacity="1" stroke-miterlimit="10" d="M 195.839844 84.101562 L 175.195312 127.546875 "/>
<path fill="none" stroke-width="1" stroke-linecap="butt" stroke-linejoin="miter" stroke="rgb(50.196078%, 0%, 50.196078%)" stroke-opacity="1" stroke-miterlimit="10" d="M 195.839844 84.101562 L 174.851562 30 "/>
<path fill="none" stroke-width="1" stroke-linecap="butt" stroke-linejoin="miter" stroke="rgb(50.196078%, 0%, 50.196078%)" stroke-opacity="1" stroke-miterlimit="10" d="M 223.011719 66.089844 L 174.851562 30 "/>
<path fill="none" stroke-width="1" stroke-linecap="butt" stroke-linejoin="miter" stroke="rgb(50.196078%, 0%, 50.196078%)" stroke-opacity="1" stroke-miterlimit="10" d="M 311.03125 132.949219 L 339.941406 127.769531 "/>
<path fill="none" stroke-width="1" stroke-linecap="butt" stroke-linejoin="miter" stroke="rgb(50.196078%, 0%, 50.196078%)" stroke-opacity="1" stroke-miterlimit="10" d="M 311.03125 132.949219 L 355.238281 182.808594 "/>
<path fill="none" stroke-width="1" stroke-linecap="butt" stroke-linejoin="miter" stroke="rgb(50.196078%, 0%, 50.196078%)" stroke-opacity="1" stroke-miterlimit="10" d="M 311.03125 132.949219 L 354.363281 170 "/>
<path fill="none" stroke-width="1" stroke-linecap="butt" stroke-linejoin="miter" stroke="rgb(50.196078%, 0%, 50.196078%)" stroke-opacity="1" stroke-miterlimit="10" d="M 353.933594 106.703125 L 354.363281 170 "/>
<path fill="none" stroke-width="1" stroke-linecap="butt" stroke-linejoin="miter" stroke="rgb(50.196078%, 0%, 50.196078%)" stroke-opacity="1" stroke-miterlimit="10" d="M 305.65625 113.847656 L 354.363281 170 "/>
<path fill="none" stroke-width="1" stroke-linecap="butt" stroke-linejoin="miter" stroke="rgb(50.196078%, 0%, 50.196078%)" stroke-opacity="1" stroke-miterlimit="10" d="M 406.507812 139.25 L 355.238281 182.808594 "/>
<path fill="none" stroke-width="1" stroke-linecap="butt" stroke-linejoin="miter" stroke="rgb(50.196078%, 0%, 50.196078%)" stroke-opacity="1" stroke-miterlimit="10" d="M 406.507812 139.25 L 354.363281 170 "/>
<path fill="none" stroke-width="1" stroke-linecap="butt" stroke-linejoin="miter" stroke="rgb(50.196078%, 0%, 50.196078%)" stroke-opacity="1" stroke-miterlimit="10" d="M 378.328125 236.191406 L 355.238281 182.808594 "/>
<path fill="none" stroke-width="1" stroke-linecap="butt" stroke-linejoin="miter" stroke="rgb(50.196078%, 0%, 50.196078%)" stroke-opacity="1" stroke-miterlimit="10" d="M 378.328125 236.191406 L 354.363281 170 "/>
<path fill="none" stroke-width="1" stroke-linecap="butt" stroke-linejoin="miter" stroke="rgb(50.196078%, 0%, 50.196078%)" stroke-opacity="1" stroke-miterlimit="10" d="M 404.328125 198.453125 L 355.238281 182.808594 "/>
<path fill="none" stroke-width="1" stroke-linecap="butt" stroke-linejoin="miter" stroke="rgb(50.196078%, 0%, 50.196078%)" stroke-opacity="1" stroke-miterlimit="10" d="M 404.328125 198.453125 L 354.363281 170 "/>
<path fill="none" stroke-width="1" stroke-linecap="butt" stroke-linejoin="miter" stroke="rgb(50.196078%, 0%, 50.196078%)" stroke-opacity="1" stroke-miterlimit="10" d="M 286.703125 169.695312 L 354.363281 170 "/>
<path fill="none" stroke-width="1" stroke-linecap="butt" stroke-linejoin="miter" stroke="rgb(50.196078%, 0%, 50.196078%)" stroke-opacity="1" stroke-miterlimit="10" d="M 410.867188 160.597656 L 355.238281 182.808594 "/>
<path fill="none" stroke-width="1" stroke-linecap="butt" stroke-linejoin="miter" stroke="rgb(50.196078%, 0%, 50.196078%)" stroke-opacity="1" stroke-miterlimit="10" d="M 410.867188 160.597656 L 354.363281 170 "/>
<path fill="none" stroke-width="1" stroke-linecap="butt" stroke-linejoin="miter" stroke="rgb(50.196078%, 0%, 50.196078%)" stroke-opacity="1" stroke-miterlimit="10" d="M 395.226562 121.617188 L 355.238281 182.808594 "/>
<path fill="none" stroke-width="1" stroke-linecap="butt" stroke-linejoin="miter" stroke="rgb(50.196078%, 0%, 50.196078%)" stroke-opacity="1" stroke-miterlimit="10" d="M 395.226562 121.617188 L 354.363281 170 "/>
<path fill="none" stroke-width="1" stroke-linecap="butt" stroke-linejoin="miter" stroke="rgb(50.196078%, 0%, 50.196078%)" stroke-opacity="1" stroke-miterlimit="10" d="M 349.507812 243.425781 L 292.792969 270 "/>
<path fill="none" stroke-width="1" stroke-linecap="butt" stroke-linejoin="miter" stroke="rgb(50.196078%, 0%, 50.196078%)" stroke-opacity="1" stroke-miterlimit="10" d="M 349.507812 243.425781 L 309.296875 222.351562 "/>
<path fill="none" stroke-width="1" stroke-linecap="butt" stroke-linejoin="miter" stroke="rgb(50.196078%, 0%, 50.196078%)" stroke-opacity="1" stroke-miterlimit="10" d="M 349.507812 243.425781 L 391.375 221.53125 "/>
<path fill="none" stroke-width="1" stroke-linecap="butt" stroke-linejoin="miter" stroke="rgb(50.196078%, 0%, 50.196078%)" stroke-opacity="1" stroke-miterlimit="10" d="M 349.507812 243.425781 L 355.238281 182.808594 "/>
<path fill="none" stroke-width="1" stroke-linecap="butt" stroke-linejoin="miter" stroke="rgb(50.196078%, 0%, 50.196078%)" stroke-opacity="1" stroke-miterlimit="10" d="M 349.507812 243.425781 L 354.363281 170 "/>
<path fill="none" stroke-width="1" stroke-linecap="butt" stroke-linejoin="miter" stroke="rgb(50.196078%, 0%, 50.196078%)" stroke-opacity="1" stroke-miterlimit="10" d="M 258.144531 255.726562 L 292.792969 270 "/>
<path fill="none" stroke-width="1" stroke-linecap="butt" stroke-linejoin="miter" stroke="rgb(50.196078%, 0%, 50.196078%)" stroke-opacity="1" stroke-miterlimit="10" d="M 258.144531 255.726562 L 309.296875 222.351562 "/>
<path fill="none" stroke-width="1" stroke-linecap="butt" stroke-linejoin="miter" stroke="rgb(50.196078%, 0%, 50.196078%)" stroke-opacity="1" stroke-miterlimit="10" d="M 258.144531 255.726562 L 285.699219 198.691406 "/>
<path fill="none" stroke-width="1" stroke-linecap="butt" stroke-linejoin="miter" stroke="rgb(50.196078%, 0%, 50.196078%)" stroke-opacity="1" stroke-miterlimit="10" d="M 292.792969 270 L 285.699219 198.691406 "/>
<path fill="none" stroke-width="1" stroke-linecap="butt" stroke-linejoin="miter" stroke="rgb(50.196078%, 0%, 50.196078%)" stroke-opacity="1" stroke-miterlimit="10" d="M 425.148438 188.808594 L 391.375 221.53125 "/>
<path fill="none" stroke-width="1" stroke-linecap="butt" stroke-linejoin="miter" stroke="rgb(50.196078%, 0%, 50.196078%)" stroke-opacity="1" stroke-miterlimit="10" d="M 425.148438 188.808594 L 354.363281 170 "/>
<path fill="none" stroke-width="1" stroke-linecap="butt" stroke-linejoin="miter" stroke="rgb(50.196078%, 0%, 50.196078%)" stroke-opacity="1" stroke-miterlimit="10" d="M 309.296875 222.351562 L 354.363281 170 "/>
<path fill="none" stroke-width="1" stroke-linecap="butt" stroke-linejoin="miter" stroke="rgb(50.196078%, 0%, 50.196078%)" stroke-opacity="1" stroke-miterlimit="10" d="M 324.148438 205.394531 L 285.699219 198.691406 "/>
<path fill="none" stroke-width="1" stroke-linecap="butt" stroke-linejoin="miter" stroke="rgb(50.196078%, 0%, 50.196078%)" stroke-opacity="1" stroke-miterlimit="10" d="M 324.148438 205.394531 L 354.363281 170 "/>
<path fill="none" stroke-width="1" stroke-linecap="butt" stroke-linejoin="miter" stroke="rgb(50.196078%, 0%, 50.196078%)" stroke-opacity="1" stroke-miterlimit="10" d="M 391.375 221.53125 L 355.238281 182.808594 "/>
<path fill="none" stroke-width="1" stroke-linecap="butt" stroke-linejoin="miter" stroke="rgb(50.196078%, 0%, 50.196078%)" stroke-opacity="1" stroke-miterlimit="10" d="M 391.375 221.53125 L 354.363281 170 "/>
<path fill="none" stroke-width="1" stroke-linecap="butt" stroke-linejoin="miter" stroke="rgb(50.196078%, 0%, 50.196078%)" stroke-opacity="1" stroke-miterlimit="10" d="M 339.941406 127.769531 L 355.238281 182.808594 "/>
<path fill="none" stroke-width="1" stroke-linecap="butt" stroke-linejoin="miter" stroke="rgb(50.196078%, 0%, 50.196078%)" stroke-opacity="1" stroke-miterlimit="10" d="M 339.941406 127.769531 L 354.363281 170 "/>
<path fill="none" stroke-width="1" stroke-linecap="butt" stroke-linejoin="miter" stroke="rgb(50.196078%, 0%, 50.196078%)" stroke-opacity="1" stroke-miterlimit="10" d="M 285.699219 198.691406 L 355.238281 182.808594 "/>
<path fill="none" stroke-width="1" stroke-linecap="butt" stroke-linejoin="miter" stroke="rgb(50.196078%, 0%, 50.196078%)" stroke-opacity="1" stroke-miterlimit="10" d="M 285.699219 198.691406 L 354.363281 170 "/>
<path fill="none" stroke-width="1" stroke-linecap="butt" stroke-linejoin="miter" stroke="rgb(50.196078%, 0%, 50.196078%)" stroke-opacity="1" stroke-miterlimit="10" d="M 355.238281 182.808594 L 354.363281 170 "/>
<path fill-rule="nonzero" fill="rgb(100%, 0%, 0%)" fill-opacity="1" stroke-width="0.5" stroke-linecap="butt" stroke-linejoin="miter" stroke="rgb(100%, 64.705882%, 0%)" stroke-opacity="1" stroke-miterlimit="10" d="M 208.652344 164.078125 L 208.652344 100.078125 L 272.652344 100.078125 L 272.652344 164.078125 Z M 208.652344 164.078125 "/>
<g fill="rgb(0%, 0%, 0%)" fill-opacity="1">
<use xlink:href="#glyph-962068-0-0" x="228.166215" y="138.965609"/>
</g>
<path fill-rule="nonzero" fill="rgb(40%, 40%, 40%)" fill-opacity="1" stroke-width="0.606061" stroke-linecap="butt" stroke-linejoin="miter" stroke="rgb(100%, 64.705882%, 0%)" stroke-opacity="1" stroke-miterlimit="10" d="M 279.78125 137.667969 C 279.78125 147.609375 271.722656 155.667969 261.78125 155.667969 C 251.839844 155.667969 243.78125 147.609375 243.78125 137.667969 C 243.78125 127.726562 251.839844 119.667969 261.78125 119.667969 C 271.722656 119.667969 279.78125 127.726562 279.78125 137.667969 Z M 279.78125 137.667969 "/>
<g fill="rgb(100%, 100%, 45.490196%)" fill-opacity="1">
<use xlink:href="#glyph-962068-1-0" x="254.741611" y="141.585737"/>
</g>
<path fill-rule="nonzero" fill="rgb(100%, 0%, 0%)" fill-opacity="1" stroke-width="0.712121" stroke-linecap="butt" stroke-linejoin="miter" stroke="rgb(100%, 64.705882%, 0%)" stroke-opacity="1" stroke-miterlimit="10" d="M 277.125 175.746094 L 277.125 135.746094 L 317.125 135.746094 L 317.125 175.746094 Z M 277.125 175.746094 "/>
<g fill="rgb(100%, 60.784314%, 100%)" fill-opacity="1">
<use xlink:href="#glyph-962068-2-0" x="289.306644" y="160.087494"/>
</g>
<path fill-rule="nonzero" fill="rgb(40%, 40%, 40%)" fill-opacity="1" stroke-width="0.818182" stroke-linecap="butt" stroke-linejoin="miter" stroke="rgb(100%, 64.705882%, 0%)" stroke-opacity="1" stroke-miterlimit="10" d="M 283.277344 101.105469 C 283.277344 107.734375 277.90625 113.105469 271.277344 113.105469 C 264.652344 113.105469 259.277344 107.734375 259.277344 101.105469 C 259.277344 94.480469 264.652344 89.105469 271.277344 89.105469 C 277.90625 89.105469 283.277344 94.480469 283.277344 101.105469 Z M 283.277344 101.105469 "/>
<g fill="rgb(0%, 82.745098%, 100%)" fill-opacity="1">
<use xlink:href="#glyph-962068-3-0" x="266.586273" y="103.716574"/>
</g>
<path fill-rule="nonzero" fill="rgb(40%, 40%, 40%)" fill-opacity="1" stroke-width="0.924242" stroke-linecap="butt" stroke-linejoin="miter" stroke="rgb(100%, 64.705882%, 0%)" stroke-opacity="1" stroke-miterlimit="10" d="M 190.242188 108.535156 L 190.242188 96.535156 L 202.242188 96.535156 L 202.242188 108.535156 Z M 190.242188 108.535156 "/>
<g fill="rgb(88.627451%, 38.823529%, 5.098039%)" fill-opacity="1">
<use xlink:href="#glyph-962068-4-0" x="193.913081" y="103.803665"/>
</g>
<path fill-rule="nonzero" fill="rgb(100%, 0%, 0%)" fill-opacity="1" stroke-width="1.030303" stroke-linecap="butt" stroke-linejoin="miter" stroke="rgb(100%, 64.705882%, 0%)" stroke-opacity="1" stroke-miterlimit="10" d="M 203.839844 84.101562 C 203.839844 88.519531 200.257812 92.101562 195.839844 92.101562 C 191.421875 92.101562 187.839844 88.519531 187.839844 84.101562 C 187.839844 79.683594 191.421875 76.101562 195.839844 76.101562 C 200.257812 76.101562 203.839844 79.683594 203.839844 84.101562 Z M 203.839844 84.101562 "/>
<g fill="rgb(0%, 49.411765%, 0%)" fill-opacity="1">
<use xlink:href="#glyph-962068-5-0" x="192.711008" y="85.845326"/>
</g>
<path fill-rule="nonzero" fill="rgb(40%, 40%, 40%)" fill-opacity="1" stroke-width="1.136364" stroke-linecap="butt" stroke-linejoin="miter" stroke="rgb(100%, 64.705882%, 0%)" stroke-opacity="1" stroke-miterlimit="10" d="M 215.011719 74.089844 L 215.011719 58.089844 L 231.011719 58.089844 L 231.011719 74.089844 Z M 215.011719 74.089844 "/>
<g fill="rgb(0%, 31.372549%, 90.196078%)" fill-opacity="1">
<use xlink:href="#glyph-962068-5-1" x="219.903593" y="67.777653"/>
</g>
<path fill-rule="nonzero" fill="rgb(40%, 40%, 40%)" fill-opacity="1" stroke-width="1.242424" stroke-linecap="butt" stroke-linejoin="miter" stroke="rgb(100%, 64.705882%, 0%)" stroke-opacity="1" stroke-miterlimit="10" d="M 250.011719 168.289062 C 250.011719 172.707031 246.429688 176.289062 242.011719 176.289062 C 237.59375 176.289062 234.011719 172.707031 234.011719 168.289062 C 234.011719 163.871094 237.59375 160.289062 242.011719 160.289062 C 246.429688 160.289062 250.011719 163.871094 250.011719 168.289062 Z M 250.011719 168.289062 "/>
<g fill="rgb(67.45098%, 0%, 27.843137%)" fill-opacity="1">
<use xlink:href="#glyph-962068-5-2" x="238.884743" y="170.02947"/>
</g>
<path fill-rule="nonzero" fill="rgb(40%, 40%, 40%)" fill-opacity="1" stroke-width="1.348485" stroke-linecap="butt" stroke-linejoin="miter" stroke="rgb(100%, 64.705882%, 0%)" stroke-opacity="1" stroke-miterlimit="10" d="M 301.03125 142.949219 L 301.03125 122.949219 L 321.03125 122.949219 L 321.03125 142.949219 Z M 301.03125 142.949219 "/>
<g fill="rgb(0%, 100%, 78.431373%)" fill-opacity="1">
<use xlink:href="#glyph-962068-6-0" x="307.120952" y="135.120125"/>
</g>
<path fill-rule="nonzero" fill="rgb(40%, 40%, 40%)" fill-opacity="1" stroke-width="1.454545" stroke-linecap="butt" stroke-linejoin="miter" stroke="rgb(100%, 64.705882%, 0%)" stroke-opacity="1" stroke-miterlimit="10" d="M 357.933594 106.703125 C 357.933594 108.914062 356.140625 110.703125 353.933594 110.703125 C 351.722656 110.703125 349.933594 108.914062 349.933594 106.703125 C 349.933594 104.496094 351.722656 102.703125 353.933594 102.703125 C 356.140625 102.703125 357.933594 104.496094 357.933594 106.703125 Z M 357.933594 106.703125 "/>
<g fill="rgb(0%, 39.215686%, 40.784314%)" fill-opacity="1">
<use xlink:href="#glyph-962068-7-0" x="351.341386" y="107.145482"/>
<use xlink:href="#glyph-962068-7-1" x="353.396657" y="107.996803"/>
</g>
<path fill-rule="nonzero" fill="rgb(40%, 40%, 40%)" fill-opacity="1" stroke-width="1.560606" stroke-linecap="butt" stroke-linejoin="miter" stroke="rgb(100%, 64.705882%, 0%)" stroke-opacity="1" stroke-miterlimit="10" d="M 169.195312 133.546875 L 169.195312 121.546875 L 181.195312 121.546875 L 181.195312 133.546875 Z M 169.195312 133.546875 "/>
<g fill="rgb(0%, 0%, 0%)" fill-opacity="1">
<use xlink:href="#glyph-962068-4-1" x="171.311935" y="128.199305"/>
<use xlink:href="#glyph-962068-4-1" x="174.394841" y="129.476287"/>
</g>
<path fill-rule="nonzero" fill="rgb(40%, 40%, 40%)" fill-opacity="1" stroke-width="1.666667" stroke-linecap="butt" stroke-linejoin="miter" stroke="rgb(100%, 64.705882%, 0%)" stroke-opacity="1" stroke-miterlimit="10" d="M 181.507812 178.933594 C 181.507812 180.039062 180.613281 180.933594 179.507812 180.933594 C 178.402344 180.933594 177.507812 180.039062 177.507812 178.933594 C 177.507812 177.828125 178.402344 176.933594 179.507812 176.933594 C 180.613281 176.933594 181.507812 177.828125 181.507812 178.933594 Z M 181.507812 178.933594 "/>
<g fill="rgb(100%, 100%, 45.490196%)" fill-opacity="1">
<use xlink:href="#glyph-962068-8-0" x="178.210812" y="179.15601"/>
<use xlink:href="#glyph-962068-8-1" x="179.238447" y="179.581671"/>
</g>
<path fill-rule="nonzero" fill="rgb(40%, 40%, 40%)" fill-opacity="1" stroke-width="1.772727" stroke-linecap="butt" stroke-linejoin="miter" stroke="rgb(100%, 64.705882%, 0%)" stroke-opacity="1" stroke-miterlimit="10" d="M 253.335938 64.402344 L 253.335938 56.402344 L 261.335938 56.402344 L 261.335938 64.402344 Z M 253.335938 64.402344 "/>
<g fill="rgb(100%, 60.784314%, 100%)" fill-opacity="1">
<use xlink:href="#glyph-962068-7-0" x="254.744863" y="60.845964"/>
<use xlink:href="#glyph-962068-7-2" x="256.800134" y="61.697285"/>
</g>
<path fill-rule="nonzero" fill="rgb(40%, 40%, 40%)" fill-opacity="1" stroke-width="1.878788" stroke-linecap="butt" stroke-linejoin="miter" stroke="rgb(100%, 64.705882%, 0%)" stroke-opacity="1" stroke-miterlimit="10" d="M 315.65625 113.847656 C 315.65625 119.371094 311.175781 123.847656 305.65625 123.847656 C 300.132812 123.847656 295.65625 119.371094 295.65625 113.847656 C 295.65625 108.328125 300.132812 103.847656 305.65625 103.847656 C 311.175781 103.847656 315.65625 108.328125 315.65625 113.847656 Z M 315.65625 113.847656 "/>
<g fill="rgb(0%, 82.745098%, 100%)" fill-opacity="1">
<use xlink:href="#glyph-962068-6-1" x="299.174626" y="114.959995"/>
<use xlink:href="#glyph-962068-6-2" x="304.312804" y="117.088298"/>
</g>
<path fill-rule="nonzero" fill="rgb(40%, 40%, 40%)" fill-opacity="1" stroke-width="1.984848" stroke-linecap="butt" stroke-linejoin="miter" stroke="rgb(100%, 64.705882%, 0%)" stroke-opacity="1" stroke-miterlimit="10" d="M 402.507812 143.25 L 402.507812 135.25 L 410.507812 135.25 L 410.507812 143.25 Z M 402.507812 143.25 "/>
<g fill="rgb(88.627451%, 38.823529%, 5.098039%)" fill-opacity="1">
<use xlink:href="#glyph-962068-7-0" x="403.92083" y="139.686892"/>
<use xlink:href="#glyph-962068-7-3" x="405.976101" y="140.538213"/>
</g>
<path fill-rule="nonzero" fill="rgb(40%, 40%, 40%)" fill-opacity="1" stroke-width="2.090909" stroke-linecap="butt" stroke-linejoin="miter" stroke="rgb(100%, 64.705882%, 0%)" stroke-opacity="1" stroke-miterlimit="10" d="M 382.328125 236.191406 C 382.328125 238.402344 380.539062 240.191406 378.328125 240.191406 C 376.121094 240.191406 374.328125 238.402344 374.328125 236.191406 C 374.328125 233.980469 376.121094 232.191406 378.328125 232.191406 C 380.539062 232.191406 382.328125 233.980469 382.328125 236.191406 Z M 382.328125 236.191406 "/>
<g fill="rgb(0%, 49.411765%, 0%)" fill-opacity="1">
<use xlink:href="#glyph-962068-7-0" x="375.736618" y="236.637501"/>
<use xlink:href="#glyph-962068-7-4" x="377.791889" y="237.488823"/>
</g>
<path fill-rule="nonzero" fill="rgb(40%, 40%, 40%)" fill-opacity="1" stroke-width="2.19697" stroke-linecap="butt" stroke-linejoin="miter" stroke="rgb(100%, 64.705882%, 0%)" stroke-opacity="1" stroke-miterlimit="10" d="M 170.851562 34 L 170.851562 26 L 178.851562 26 L 178.851562 34 Z M 170.851562 34 "/>
<g fill="rgb(0%, 31.372549%, 90.196078%)" fill-opacity="1">
<use xlink:href="#glyph-962068-7-0" x="172.26425" y="30.435253"/>
<use xlink:href="#glyph-962068-7-5" x="174.319521" y="31.286574"/>
</g>
<path fill-rule="nonzero" fill="rgb(40%, 40%, 40%)" fill-opacity="1" stroke-width="2.30303" stroke-linecap="butt" stroke-linejoin="miter" stroke="rgb(100%, 64.705882%, 0%)" stroke-opacity="1" stroke-miterlimit="10" d="M 211.21875 183.527344 C 211.21875 185.734375 209.429688 187.527344 207.21875 187.527344 C 205.011719 187.527344 203.21875 185.734375 203.21875 183.527344 C 203.21875 181.316406 205.011719 179.527344 207.21875 179.527344 C 209.429688 179.527344 211.21875 181.316406 211.21875 183.527344 Z M 211.21875 183.527344 "/>
<g fill="rgb(67.45098%, 0%, 27.843137%)" fill-opacity="1">
<use xlink:href="#glyph-962068-7-0" x="204.627191" y="183.970092"/>
<use xlink:href="#glyph-962068-7-6" x="206.682462" y="184.821413"/>
</g>
<path fill-rule="nonzero" fill="rgb(40%, 40%, 40%)" fill-opacity="1" stroke-width="2.409091" stroke-linecap="butt" stroke-linejoin="miter" stroke="rgb(100%, 64.705882%, 0%)" stroke-opacity="1" stroke-miterlimit="10" d="M 400.328125 202.453125 L 400.328125 194.453125 L 408.328125 194.453125 L 408.328125 202.453125 Z M 400.328125 202.453125 "/>
<g fill="rgb(0%, 100%, 78.431373%)" fill-opacity="1">
<use xlink:href="#glyph-962068-7-0" x="401.736879" y="198.894033"/>
<use xlink:href="#glyph-962068-7-7" x="403.79215" y="199.745354"/>
</g>
<path fill-rule="nonzero" fill="rgb(40%, 40%, 40%)" fill-opacity="1" stroke-width="2.515152" stroke-linecap="butt" stroke-linejoin="miter" stroke="rgb(100%, 64.705882%, 0%)" stroke-opacity="1" stroke-miterlimit="10" d="M 292.703125 169.695312 C 292.703125 173.007812 290.015625 175.695312 286.703125 175.695312 C 283.390625 175.695312 280.703125 173.007812 280.703125 169.695312 C 280.703125 166.382812 283.390625 163.695312 286.703125 163.695312 C 290.015625 163.695312 292.703125 166.382812 292.703125 169.695312 Z M 292.703125 169.695312 "/>
<g fill="rgb(0%, 39.215686%, 40.784314%)" fill-opacity="1">
<use xlink:href="#glyph-962068-4-2" x="282.815044" y="170.362659"/>
<use xlink:href="#glyph-962068-4-3" x="285.89795" y="171.63964"/>
</g>
<path fill-rule="nonzero" fill="rgb(40%, 40%, 40%)" fill-opacity="1" stroke-width="2.621212" stroke-linecap="butt" stroke-linejoin="miter" stroke="rgb(100%, 64.705882%, 0%)" stroke-opacity="1" stroke-miterlimit="10" d="M 406.867188 164.597656 L 406.867188 156.597656 L 414.867188 156.597656 L 414.867188 164.597656 Z M 406.867188 164.597656 "/>
<g fill="rgb(0%, 0%, 0%)" fill-opacity="1">
<use xlink:href="#glyph-962068-7-8" x="408.274485" y="161.043197"/>
<use xlink:href="#glyph-962068-7-0" x="410.329756" y="161.894518"/>
</g>
<path fill-rule="nonzero" fill="rgb(40%, 40%, 40%)" fill-opacity="1" stroke-width="2.727273" stroke-linecap="butt" stroke-linejoin="miter" stroke="rgb(100%, 64.705882%, 0%)" stroke-opacity="1" stroke-miterlimit="10" d="M 200.707031 149.664062 C 200.707031 151.871094 198.917969 153.664062 196.707031 153.664062 C 194.5 153.664062 192.707031 151.871094 192.707031 149.664062 C 192.707031 147.453125 194.5 145.664062 196.707031 145.664062 C 198.917969 145.664062 200.707031 147.453125 200.707031 149.664062 Z M 200.707031 149.664062 "/>
<g fill="rgb(100%, 100%, 45.490196%)" fill-opacity="1">
<use xlink:href="#glyph-962068-7-8" x="194.114913" y="150.107493"/>
<use xlink:href="#glyph-962068-7-8" x="196.170184" y="150.958814"/>
</g>
<path fill-rule="nonzero" fill="rgb(40%, 40%, 40%)" fill-opacity="1" stroke-width="2.833333" stroke-linecap="butt" stroke-linejoin="miter" stroke="rgb(100%, 64.705882%, 0%)" stroke-opacity="1" stroke-miterlimit="10" d="M 391.226562 125.617188 L 391.226562 117.617188 L 399.226562 117.617188 L 399.226562 125.617188 Z M 391.226562 125.617188 "/>
<g fill="rgb(100%, 60.784314%, 100%)" fill-opacity="1">
<use xlink:href="#glyph-962068-7-8" x="392.635224" y="122.060671"/>
<use xlink:href="#glyph-962068-7-2" x="394.690495" y="122.911992"/>
</g>
<path fill-rule="nonzero" fill="rgb(40%, 40%, 40%)" fill-opacity="1" stroke-width="2.939394" stroke-linecap="butt" stroke-linejoin="miter" stroke="rgb(100%, 64.705882%, 0%)" stroke-opacity="1" stroke-miterlimit="10" d="M 359.507812 243.425781 C 359.507812 248.949219 355.03125 253.425781 349.507812 253.425781 C 343.988281 253.425781 339.507812 248.949219 339.507812 243.425781 C 339.507812 237.902344 343.988281 233.425781 349.507812 233.425781 C 355.03125 233.425781 359.507812 237.902344 359.507812 243.425781 Z M 359.507812 243.425781 "/>
<g fill="rgb(0%, 82.745098%, 100%)" fill-opacity="1">
<use xlink:href="#glyph-962068-6-3" x="343.028493" y="244.538121"/>
<use xlink:href="#glyph-962068-6-2" x="348.16667" y="246.666424"/>
</g>
<path fill-rule="nonzero" fill="rgb(40%, 40%, 40%)" fill-opacity="1" stroke-width="3.045455" stroke-linecap="butt" stroke-linejoin="miter" stroke="rgb(100%, 64.705882%, 0%)" stroke-opacity="1" stroke-miterlimit="10" d="M 252.144531 261.726562 L 252.144531 249.726562 L 264.144531 249.726562 L 264.144531 261.726562 Z M 252.144531 261.726562 "/>
<g fill="rgb(88.627451%, 38.823529%, 5.098039%)" fill-opacity="1">
<use xlink:href="#glyph-962068-4-2" x="254.254479" y="256.392889"/>
<use xlink:href="#glyph-962068-4-0" x="257.337386" y="257.669871"/>
</g>
<path fill-rule="nonzero" fill="rgb(40%, 40%, 40%)" fill-opacity="1" stroke-width="3.151515" stroke-linecap="butt" stroke-linejoin="miter" stroke="rgb(100%, 64.705882%, 0%)" stroke-opacity="1" stroke-miterlimit="10" d="M 298.792969 270 C 298.792969 273.3125 296.105469 276 292.792969 276 C 289.476562 276 286.792969 273.3125 286.792969 270 C 286.792969 266.6875 289.476562 264 292.792969 264 C 296.105469 264 298.792969 266.6875 298.792969 270 Z M 298.792969 270 "/>
<g fill="rgb(0%, 49.411765%, 0%)" fill-opacity="1">
<use xlink:href="#glyph-962068-4-2" x="288.902095" y="270.66912"/>
<use xlink:href="#glyph-962068-4-4" x="291.985002" y="271.946102"/>
</g>
<path fill-rule="nonzero" fill="rgb(40%, 40%, 40%)" fill-opacity="1" stroke-width="3.257576" stroke-linecap="butt" stroke-linejoin="miter" stroke="rgb(100%, 64.705882%, 0%)" stroke-opacity="1" stroke-miterlimit="10" d="M 421.148438 192.808594 L 421.148438 184.808594 L 429.148438 184.808594 L 429.148438 192.808594 Z M 421.148438 192.808594 "/>
<g fill="rgb(0%, 31.372549%, 90.196078%)" fill-opacity="1">
<use xlink:href="#glyph-962068-7-8" x="422.555264" y="189.255465"/>
<use xlink:href="#glyph-962068-7-5" x="424.610535" y="190.106786"/>
</g>
<path fill-rule="nonzero" fill="rgb(40%, 40%, 40%)" fill-opacity="1" stroke-width="3.363636" stroke-linecap="butt" stroke-linejoin="miter" stroke="rgb(100%, 64.705882%, 0%)" stroke-opacity="1" stroke-miterlimit="10" d="M 317.296875 222.351562 C 317.296875 226.769531 313.714844 230.351562 309.296875 230.351562 C 304.878906 230.351562 301.296875 226.769531 301.296875 222.351562 C 301.296875 217.933594 304.878906 214.351562 309.296875 214.351562 C 313.714844 214.351562 317.296875 217.933594 317.296875 222.351562 Z M 317.296875 222.351562 "/>
<g fill="rgb(67.45098%, 0%, 27.843137%)" fill-opacity="1">
<use xlink:href="#glyph-962068-5-3" x="304.113423" y="223.241565"/>
<use xlink:href="#glyph-962068-5-2" x="308.223965" y="224.944207"/>
</g>
<path fill-rule="nonzero" fill="rgb(40%, 40%, 40%)" fill-opacity="1" stroke-width="3.469697" stroke-linecap="butt" stroke-linejoin="miter" stroke="rgb(100%, 64.705882%, 0%)" stroke-opacity="1" stroke-miterlimit="10" d="M 318.148438 211.394531 L 318.148438 199.394531 L 330.148438 199.394531 L 330.148438 211.394531 Z M 318.148438 211.394531 "/>
<g fill="rgb(0%, 100%, 78.431373%)" fill-opacity="1">
<use xlink:href="#glyph-962068-4-2" x="320.259025" y="206.061808"/>
<use xlink:href="#glyph-962068-4-5" x="323.341932" y="207.338789"/>
</g>
<path fill-rule="nonzero" fill="rgb(40%, 40%, 40%)" fill-opacity="1" stroke-width="3.575758" stroke-linecap="butt" stroke-linejoin="miter" stroke="rgb(100%, 64.705882%, 0%)" stroke-opacity="1" stroke-miterlimit="10" d="M 399.375 221.53125 C 399.375 225.949219 395.792969 229.53125 391.375 229.53125 C 386.957031 229.53125 383.375 225.949219 383.375 221.53125 C 383.375 217.109375 386.957031 213.53125 391.375 213.53125 C 395.792969 213.53125 399.375 217.109375 399.375 221.53125 Z M 399.375 221.53125 "/>
<g fill="rgb(0%, 39.215686%, 40.784314%)" fill-opacity="1">
<use xlink:href="#glyph-962068-5-4" x="386.19331" y="222.414247"/>
<use xlink:href="#glyph-962068-5-5" x="390.303852" y="224.116889"/>
</g>
<path fill-rule="nonzero" fill="rgb(40%, 40%, 40%)" fill-opacity="1" stroke-width="3.681818" stroke-linecap="butt" stroke-linejoin="miter" stroke="rgb(100%, 64.705882%, 0%)" stroke-opacity="1" stroke-miterlimit="10" d="M 331.941406 135.769531 L 331.941406 119.769531 L 347.941406 119.769531 L 347.941406 135.769531 Z M 331.941406 135.769531 "/>
<g fill="rgb(0%, 0%, 0%)" fill-opacity="1">
<use xlink:href="#glyph-962068-5-4" x="334.75931" y="128.654952"/>
<use xlink:href="#glyph-962068-5-6" x="338.869852" y="130.357594"/>
</g>
<path fill-rule="nonzero" fill="rgb(40%, 40%, 40%)" fill-opacity="1" stroke-width="3.787879" stroke-linecap="butt" stroke-linejoin="miter" stroke="rgb(100%, 64.705882%, 0%)" stroke-opacity="1" stroke-miterlimit="10" d="M 297.699219 198.691406 C 297.699219 205.316406 292.328125 210.691406 285.699219 210.691406 C 279.074219 210.691406 273.699219 205.316406 273.699219 198.691406 C 273.699219 192.0625 279.074219 186.691406 285.699219 186.691406 C 292.328125 186.691406 297.699219 192.0625 297.699219 198.691406 Z M 297.699219 198.691406 "/>
<g fill="rgb(100%, 100%, 45.490196%)" fill-opacity="1">
<use xlink:href="#glyph-962068-3-1" x="277.923334" y="200.026028"/>
<use xlink:href="#glyph-962068-3-2" x="284.089147" y="202.579992"/>
</g>
<path fill-rule="nonzero" fill="rgb(40%, 40%, 40%)" fill-opacity="1" stroke-width="3.893939" stroke-linecap="butt" stroke-linejoin="miter" stroke="rgb(100%, 64.705882%, 0%)" stroke-opacity="1" stroke-miterlimit="10" d="M 331.238281 206.808594 L 331.238281 158.808594 L 379.238281 158.808594 L 379.238281 206.808594 Z M 331.238281 206.808594 "/>
<g fill="rgb(100%, 60.784314%, 100%)" fill-opacity="1">
<use xlink:href="#glyph-962068-9-0" x="339.690859" y="185.462687"/>
<use xlink:href="#glyph-962068-9-0" x="352.022485" y="190.570614"/>
</g>
<path fill-rule="nonzero" fill="rgb(40%, 40%, 40%)" fill-opacity="1" stroke-width="4" stroke-linecap="butt" stroke-linejoin="miter" stroke="rgb(100%, 64.705882%, 0%)" stroke-opacity="1" stroke-miterlimit="10" d="M 388.363281 170 C 388.363281 188.777344 373.140625 204 354.363281 204 C 335.585938 204 320.363281 188.777344 320.363281 170 C 320.363281 151.222656 335.585938 136 354.363281 136 C 373.140625 136 388.363281 151.222656 388.363281 170 Z M 388.363281 170 "/>
<g fill="rgb(0%, 82.745098%, 100%)" fill-opacity="1">
<use xlink:href="#glyph-962068-10-0" x="332.33145" y="173.775548"/>
<use xlink:href="#glyph-962068-10-1" x="349.801254" y="181.011777"/>
</g>
</svg>
