<?xml version="1.0" encoding="UTF-8"?>
<svg xmlns="http://www.w3.org/2000/svg" xmlns:xlink="http://www.w3.org/1999/xlink" width="600" height="600" viewBox="0 0 600 600">
<defs>
<g>
<g id="glyph-750629-0-0">
<path d="M 0.957031 -4.953125 L 0.957031 -5.625 C 1.59375 -5.6875 2.035156 -5.789062 2.285156 -5.933594 C 2.535156 -6.078125 2.722656 -6.421875 2.847656 -6.960938 L 3.539062 -6.960938 L 3.539062 0 L 2.601562 0 L 2.601562 -4.953125 Z M 0.957031 -4.953125 "/>
</g>
<g id="glyph-750629-0-1">
<path d="M 0.3125 0 C 0.34375 -0.601562 0.46875 -1.125 0.6875 -1.570312 C 0.902344 -2.015625 1.324219 -2.421875 1.953125 -2.789062 L 2.890625 -3.328125 C 3.3125 -3.574219 3.605469 -3.78125 3.773438 -3.953125 C 4.039062 -4.226562 4.175781 -4.535156 4.175781 -4.882812 C 4.175781 -5.289062 4.054688 -5.613281 3.808594 -5.851562 C 3.5625 -6.089844 3.238281 -6.210938 2.832031 -6.210938 C 2.230469 -6.210938 1.8125 -5.984375 1.582031 -5.527344 C 1.457031 -5.28125 1.390625 -4.945312 1.375 -4.511719 L 0.484375 -4.511719 C 0.492188 -5.121094 0.605469 -5.617188 0.820312 -6 C 1.203125 -6.679688 1.875 -7.015625 2.835938 -7.015625 C 3.636719 -7.015625 4.222656 -6.800781 4.59375 -6.367188 C 4.960938 -5.933594 5.148438 -5.453125 5.148438 -4.921875 C 5.148438 -4.363281 4.949219 -3.882812 4.554688 -3.484375 C 4.328125 -3.253906 3.917969 -2.976562 3.328125 -2.648438 L 2.660156 -2.273438 C 2.34375 -2.097656 2.089844 -1.933594 1.910156 -1.773438 C 1.585938 -1.488281 1.378906 -1.175781 1.292969 -0.828125 L 5.113281 -0.828125 L 5.113281 0 Z M 0.3125 0 "/>
</g>
<g id="glyph-750629-0-2">
<path d="M 2.597656 0.191406 C 1.769531 0.191406 1.171875 -0.0351562 0.796875 -0.492188 C 0.425781 -0.945312 0.238281 -1.496094 0.238281 -2.148438 L 1.15625 -2.148438 C 1.195312 -1.695312 1.28125 -1.367188 1.410156 -1.164062 C 1.640625 -0.796875 2.050781 -0.609375 2.648438 -0.609375 C 3.109375 -0.609375 3.480469 -0.734375 3.757812 -0.980469 C 4.039062 -1.226562 4.179688 -1.546875 4.179688 -1.9375 C 4.179688 -2.421875 4.03125 -2.757812 3.738281 -2.949219 C 3.445312 -3.140625 3.035156 -3.238281 2.507812 -3.238281 C 2.449219 -3.238281 2.390625 -3.238281 2.332031 -3.234375 C 2.273438 -3.234375 2.210938 -3.230469 2.148438 -3.226562 L 2.148438 -4.003906 C 2.238281 -3.992188 2.316406 -3.988281 2.378906 -3.984375 C 2.441406 -3.980469 2.507812 -3.980469 2.578125 -3.980469 C 2.90625 -3.980469 3.175781 -4.03125 3.390625 -4.136719 C 3.761719 -4.320312 3.945312 -4.644531 3.945312 -5.113281 C 3.945312 -5.460938 3.820312 -5.730469 3.574219 -5.917969 C 3.328125 -6.105469 3.039062 -6.203125 2.710938 -6.203125 C 2.125 -6.203125 1.71875 -6.007812 1.492188 -5.617188 C 1.371094 -5.402344 1.300781 -5.09375 1.285156 -4.695312 L 0.414062 -4.695312 C 0.414062 -5.21875 0.519531 -5.660156 0.726562 -6.023438 C 1.085938 -6.675781 1.714844 -7 2.617188 -7 C 3.328125 -7 3.882812 -6.84375 4.273438 -6.527344 C 4.664062 -6.210938 4.859375 -5.75 4.859375 -5.148438 C 4.859375 -4.71875 4.742188 -4.367188 4.511719 -4.101562 C 4.367188 -3.9375 4.183594 -3.804688 3.953125 -3.710938 C 4.320312 -3.609375 4.609375 -3.414062 4.816406 -3.128906 C 5.023438 -2.839844 5.125 -2.488281 5.125 -2.070312 C 5.125 -1.402344 4.90625 -0.859375 4.46875 -0.4375 C 4.027344 -0.0195312 3.40625 0.191406 2.597656 0.191406 Z M 2.597656 0.191406 "/>
</g>
<g id="glyph-750629-0-3">
<path d="M 3.304688 -2.476562 L 3.304688 -5.644531 L 1.0625 -2.476562 Z M 3.320312 0 L 3.320312 -1.710938 L 0.253906 -1.710938 L 0.253906 -2.570312 L 3.457031 -7.011719 L 4.199219 -7.011719 L 4.199219 -2.476562 L 5.230469 -2.476562 L 5.230469 -1.710938 L 4.199219 -1.710938 L 4.199219 0 Z M 3.320312 0 "/>
</g>
<g id="glyph-750629-0-4">
<path d="M 1.234375 -1.78125 C 1.292969 -1.28125 1.527344 -0.933594 1.933594 -0.742188 C 2.140625 -0.644531 2.382812 -0.59375 2.65625 -0.59375 C 3.175781 -0.59375 3.5625 -0.761719 3.8125 -1.09375 C 4.0625 -1.425781 4.1875 -1.792969 4.1875 -2.195312 C 4.1875 -2.683594 4.039062 -3.0625 3.742188 -3.328125 C 3.445312 -3.597656 3.085938 -3.730469 2.671875 -3.730469 C 2.367188 -3.730469 2.109375 -3.671875 1.890625 -3.554688 C 1.675781 -3.4375 1.492188 -3.273438 1.335938 -3.066406 L 0.578125 -3.109375 L 1.109375 -6.875 L 4.742188 -6.875 L 4.742188 -6.023438 L 1.765625 -6.023438 L 1.46875 -4.082031 C 1.632812 -4.207031 1.789062 -4.296875 1.933594 -4.359375 C 2.195312 -4.46875 2.496094 -4.523438 2.835938 -4.523438 C 3.476562 -4.523438 4.023438 -4.316406 4.46875 -3.902344 C 4.914062 -3.488281 5.136719 -2.964844 5.136719 -2.328125 C 5.136719 -1.667969 4.933594 -1.085938 4.523438 -0.582031 C 4.117188 -0.078125 3.464844 0.175781 2.570312 0.175781 C 2 0.175781 1.496094 0.015625 1.058594 -0.304688 C 0.621094 -0.625 0.375 -1.117188 0.320312 -1.78125 Z M 1.234375 -1.78125 "/>
</g>
<g id="glyph-750629-0-5">
<path d="M 2.925781 -7.023438 C 3.707031 -7.023438 4.25 -6.820312 4.558594 -6.414062 C 4.867188 -6.007812 5.019531 -5.589844 5.019531 -5.160156 L 4.148438 -5.160156 C 4.097656 -5.4375 4.015625 -5.65625 3.902344 -5.8125 C 3.691406 -6.105469 3.367188 -6.25 2.9375 -6.25 C 2.445312 -6.25 2.058594 -6.023438 1.765625 -5.570312 C 1.476562 -5.117188 1.316406 -4.464844 1.285156 -3.617188 C 1.484375 -3.914062 1.738281 -4.136719 2.046875 -4.28125 C 2.328125 -4.414062 2.636719 -4.476562 2.984375 -4.476562 C 3.570312 -4.476562 4.082031 -4.289062 4.515625 -3.914062 C 4.953125 -3.539062 5.171875 -2.984375 5.171875 -2.242188 C 5.171875 -1.605469 4.964844 -1.042969 4.550781 -0.554688 C 4.136719 -0.0625 3.546875 0.179688 2.78125 0.179688 C 2.128906 0.179688 1.5625 -0.0664062 1.089844 -0.5625 C 0.613281 -1.058594 0.375 -1.894531 0.375 -3.070312 C 0.375 -3.941406 0.480469 -4.679688 0.695312 -5.28125 C 1.101562 -6.441406 1.84375 -7.023438 2.925781 -7.023438 Z M 2.859375 -0.601562 C 3.324219 -0.601562 3.667969 -0.757812 3.898438 -1.066406 C 4.128906 -1.378906 4.242188 -1.746094 4.242188 -2.167969 C 4.242188 -2.527344 4.140625 -2.867188 3.9375 -3.191406 C 3.730469 -3.515625 3.359375 -3.675781 2.816406 -3.675781 C 2.4375 -3.675781 2.109375 -3.550781 1.824219 -3.300781 C 1.539062 -3.050781 1.398438 -2.671875 1.398438 -2.167969 C 1.398438 -1.726562 1.527344 -1.351562 1.785156 -1.050781 C 2.042969 -0.75 2.402344 -0.601562 2.859375 -0.601562 Z M 2.859375 -0.601562 "/>
</g>
<g id="glyph-750629-0-6">
<path d="M 5.230469 -6.875 L 5.230469 -6.109375 C 5.003906 -5.890625 4.707031 -5.511719 4.332031 -4.96875 C 3.960938 -4.429688 3.632812 -3.847656 3.34375 -3.222656 C 3.0625 -2.613281 2.847656 -2.058594 2.699219 -1.558594 C 2.605469 -1.234375 2.484375 -0.714844 2.335938 0 L 1.363281 0 C 1.585938 -1.335938 2.070312 -2.664062 2.828125 -3.984375 C 3.273438 -4.757812 3.742188 -5.429688 4.234375 -5.992188 L 0.367188 -5.992188 L 0.367188 -6.875 Z M 5.230469 -6.875 "/>
</g>
<g id="glyph-750629-0-7">
<path d="M 2.71875 -4.0625 C 3.105469 -4.0625 3.410156 -4.171875 3.628906 -4.386719 C 3.847656 -4.601562 3.953125 -4.863281 3.953125 -5.160156 C 3.953125 -5.421875 3.851562 -5.660156 3.640625 -5.878906 C 3.433594 -6.097656 3.117188 -6.207031 2.691406 -6.207031 C 2.265625 -6.207031 1.960938 -6.097656 1.773438 -5.878906 C 1.585938 -5.660156 1.488281 -5.40625 1.488281 -5.113281 C 1.488281 -4.785156 1.609375 -4.527344 1.855469 -4.339844 C 2.101562 -4.15625 2.386719 -4.0625 2.71875 -4.0625 Z M 2.773438 -0.601562 C 3.179688 -0.601562 3.519531 -0.710938 3.785156 -0.929688 C 4.054688 -1.148438 4.1875 -1.476562 4.1875 -1.914062 C 4.1875 -2.367188 4.050781 -2.710938 3.773438 -2.945312 C 3.496094 -3.179688 3.144531 -3.296875 2.710938 -3.296875 C 2.289062 -3.296875 1.949219 -3.175781 1.683594 -2.9375 C 1.417969 -2.699219 1.285156 -2.367188 1.285156 -1.945312 C 1.285156 -1.578125 1.40625 -1.265625 1.648438 -1 C 1.890625 -0.734375 2.265625 -0.601562 2.773438 -0.601562 Z M 1.523438 -3.726562 C 1.28125 -3.828125 1.089844 -3.953125 0.953125 -4.09375 C 0.695312 -4.351562 0.566406 -4.691406 0.566406 -5.109375 C 0.566406 -5.628906 0.753906 -6.074219 1.132812 -6.449219 C 1.511719 -6.824219 2.046875 -7.011719 2.738281 -7.011719 C 3.410156 -7.011719 3.9375 -6.835938 4.316406 -6.480469 C 4.695312 -6.128906 4.886719 -5.714844 4.886719 -5.242188 C 4.886719 -4.808594 4.777344 -4.453125 4.554688 -4.183594 C 4.429688 -4.03125 4.238281 -3.882812 3.980469 -3.734375 C 4.269531 -3.601562 4.496094 -3.449219 4.664062 -3.277344 C 4.972656 -2.953125 5.125 -2.527344 5.125 -2.007812 C 5.125 -1.390625 4.921875 -0.871094 4.507812 -0.441406 C 4.09375 -0.015625 3.507812 0.199219 2.753906 0.199219 C 2.074219 0.199219 1.5 0.015625 1.027344 -0.355469 C 0.558594 -0.722656 0.320312 -1.257812 0.320312 -1.960938 C 0.320312 -2.375 0.421875 -2.734375 0.625 -3.035156 C 0.828125 -3.335938 1.125 -3.566406 1.523438 -3.726562 Z M 1.523438 -3.726562 "/>
</g>
<g id="glyph-750629-0-8">
<path d="M 1.328125 -1.6875 C 1.355469 -1.203125 1.542969 -0.867188 1.890625 -0.683594 C 2.070312 -0.585938 2.269531 -0.539062 2.496094 -0.539062 C 2.914062 -0.539062 3.273438 -0.710938 3.570312 -1.0625 C 3.867188 -1.414062 4.074219 -2.121094 4.199219 -3.195312 C 4.003906 -2.882812 3.761719 -2.667969 3.472656 -2.542969 C 3.1875 -2.417969 2.875 -2.351562 2.542969 -2.351562 C 1.871094 -2.351562 1.335938 -2.5625 0.945312 -2.984375 C 0.554688 -3.402344 0.355469 -3.945312 0.355469 -4.605469 C 0.355469 -5.238281 0.550781 -5.796875 0.9375 -6.28125 C 1.324219 -6.761719 1.894531 -7 2.652344 -7 C 3.671875 -7 4.375 -6.542969 4.761719 -5.625 C 4.976562 -5.121094 5.082031 -4.488281 5.082031 -3.730469 C 5.082031 -2.875 4.953125 -2.117188 4.695312 -1.453125 C 4.269531 -0.355469 3.546875 0.195312 2.53125 0.195312 C 1.847656 0.195312 1.328125 0.015625 0.972656 -0.34375 C 0.617188 -0.699219 0.4375 -1.148438 0.4375 -1.6875 Z M 2.660156 -3.125 C 3.007812 -3.125 3.328125 -3.238281 3.617188 -3.46875 C 3.90625 -3.699219 4.046875 -4.101562 4.046875 -4.671875 C 4.046875 -5.1875 3.917969 -5.570312 3.660156 -5.824219 C 3.402344 -6.074219 3.070312 -6.203125 2.671875 -6.203125 C 2.242188 -6.203125 1.898438 -6.058594 1.648438 -5.769531 C 1.394531 -5.480469 1.269531 -5.097656 1.269531 -4.613281 C 1.269531 -4.15625 1.378906 -3.796875 1.601562 -3.527344 C 1.824219 -3.257812 2.175781 -3.125 2.660156 -3.125 Z M 2.660156 -3.125 "/>
</g>
<g id="glyph-750629-0-9">
<path d="M 2.703125 -6.992188 C 3.609375 -6.992188 4.265625 -6.621094 4.667969 -5.875 C 4.980469 -5.296875 5.136719 -4.507812 5.136719 -3.507812 C 5.136719 -2.554688 4.996094 -1.769531 4.710938 -1.148438 C 4.300781 -0.257812 3.632812 0.191406 2.699219 0.191406 C 1.859375 0.191406 1.234375 -0.175781 0.824219 -0.902344 C 0.484375 -1.511719 0.3125 -2.328125 0.3125 -3.355469 C 0.3125 -4.148438 0.414062 -4.832031 0.621094 -5.398438 C 1.003906 -6.460938 1.699219 -6.992188 2.703125 -6.992188 Z M 2.695312 -0.609375 C 3.152344 -0.609375 3.515625 -0.8125 3.785156 -1.214844 C 4.054688 -1.617188 4.1875 -2.371094 4.1875 -3.472656 C 4.1875 -4.265625 4.09375 -4.917969 3.898438 -5.433594 C 3.703125 -5.945312 3.320312 -6.203125 2.757812 -6.203125 C 2.242188 -6.203125 1.863281 -5.957031 1.625 -5.472656 C 1.382812 -4.984375 1.265625 -4.265625 1.265625 -3.320312 C 1.265625 -2.609375 1.339844 -2.035156 1.492188 -1.601562 C 1.726562 -0.941406 2.128906 -0.609375 2.695312 -0.609375 Z M 2.695312 -0.609375 "/>
</g>
</g>
</defs>
<rect x="-60" y="-60" width="720" height="720" fill="rgb(10.196078%, 10.196078%, 10.196078%)" fill-opacity="1"/>
<path fill="none" stroke-width="1" stroke-linecap="butt" stroke-linejoin="miter" stroke="rgb(41.568627%, 35.294118%, 80.392157%)" stroke-opacity="1" stroke-miterlimit="10" d="M 171.957031 261.335938 L 217.546875 273.390625 "/>
<path fill="none" stroke-width="1" stroke-linecap="butt" stroke-linejoin="miter" stroke="rgb(41.568627%, 35.294118%, 80.392157%)" stroke-opacity="1" stroke-miterlimit="10" d="M 171.957031 261.335938 L 293.796875 312.398438 "/>
<path fill="none" stroke-width="1" stroke-linecap="butt" stroke-linejoin="miter" stroke="rgb(41.568627%, 35.294118%, 80.392157%)" stroke-opacity="1" stroke-miterlimit="10" d="M 171.957031 261.335938 L 238.035156 194.515625 "/>
<path fill="none" stroke-width="1" stroke-linecap="butt" stroke-linejoin="miter" stroke="rgb(41.568627%, 35.294118%, 80.392157%)" stroke-opacity="1" stroke-miterlimit="10" d="M 171.957031 261.335938 L 76.152344 197.601562 "/>
<path fill="none" stroke-width="1" stroke-linecap="butt" stroke-linejoin="miter" stroke="rgb(41.568627%, 35.294118%, 80.392157%)" stroke-opacity="1" stroke-miterlimit="10" d="M 171.957031 261.335938 L 75.28125 157.828125 "/>
<path fill="none" stroke-width="1" stroke-linecap="butt" stroke-linejoin="miter" stroke="rgb(41.568627%, 35.294118%, 80.392157%)" stroke-opacity="1" stroke-miterlimit="10" d="M 171.957031 261.335938 L 133.898438 118.964844 "/>
<path fill="none" stroke-width="1" stroke-linecap="butt" stroke-linejoin="miter" stroke="rgb(41.568627%, 35.294118%, 80.392157%)" stroke-opacity="1" stroke-miterlimit="10" d="M 171.957031 261.335938 L 174.894531 339.457031 "/>
<path fill="none" stroke-width="1" stroke-linecap="butt" stroke-linejoin="miter" stroke="rgb(41.568627%, 35.294118%, 80.392157%)" stroke-opacity="1" stroke-miterlimit="10" d="M 171.957031 261.335938 L 323.796875 263.214844 "/>
<path fill="none" stroke-width="1" stroke-linecap="butt" stroke-linejoin="miter" stroke="rgb(41.568627%, 35.294118%, 80.392157%)" stroke-opacity="1" stroke-miterlimit="10" d="M 171.957031 261.335938 L 30.738281 251.558594 "/>
<path fill="none" stroke-width="1" stroke-linecap="butt" stroke-linejoin="miter" stroke="rgb(41.568627%, 35.294118%, 80.392157%)" stroke-opacity="1" stroke-miterlimit="10" d="M 171.957031 261.335938 L 40.042969 362.421875 "/>
<path fill="none" stroke-width="1" stroke-linecap="butt" stroke-linejoin="miter" stroke="rgb(41.568627%, 35.294118%, 80.392157%)" stroke-opacity="1" stroke-miterlimit="10" d="M 171.957031 261.335938 L 207.953125 106.699219 "/>
<path fill="none" stroke-width="1" stroke-linecap="butt" stroke-linejoin="miter" stroke="rgb(41.568627%, 35.294118%, 80.392157%)" stroke-opacity="1" stroke-miterlimit="10" d="M 171.957031 261.335938 L 312.199219 222.007812 "/>
<path fill="none" stroke-width="1" stroke-linecap="butt" stroke-linejoin="miter" stroke="rgb(41.568627%, 35.294118%, 80.392157%)" stroke-opacity="1" stroke-miterlimit="10" d="M 171.957031 261.335938 L 99.828125 372.332031 "/>
<path fill="none" stroke-width="1" stroke-linecap="butt" stroke-linejoin="miter" stroke="rgb(41.568627%, 35.294118%, 80.392157%)" stroke-opacity="1" stroke-miterlimit="10" d="M 171.957031 261.335938 L 271.3125 342.492188 "/>
<path fill="none" stroke-width="1" stroke-linecap="butt" stroke-linejoin="miter" stroke="rgb(41.568627%, 35.294118%, 80.392157%)" stroke-opacity="1" stroke-miterlimit="10" d="M 171.957031 261.335938 L 77.152344 299.269531 "/>
<path fill="none" stroke-width="1" stroke-linecap="butt" stroke-linejoin="miter" stroke="rgb(41.568627%, 35.294118%, 80.392157%)" stroke-opacity="1" stroke-miterlimit="10" d="M 171.957031 261.335938 L 269.148438 405.046875 "/>
<path fill="none" stroke-width="1" stroke-linecap="butt" stroke-linejoin="miter" stroke="rgb(41.568627%, 35.294118%, 80.392157%)" stroke-opacity="1" stroke-miterlimit="10" d="M 217.546875 273.390625 L 293.796875 312.398438 "/>
<path fill="none" stroke-width="1" stroke-linecap="butt" stroke-linejoin="miter" stroke="rgb(41.568627%, 35.294118%, 80.392157%)" stroke-opacity="1" stroke-miterlimit="10" d="M 217.546875 273.390625 L 238.035156 194.515625 "/>
<path fill="none" stroke-width="1" stroke-linecap="butt" stroke-linejoin="miter" stroke="rgb(41.568627%, 35.294118%, 80.392157%)" stroke-opacity="1" stroke-miterlimit="10" d="M 217.546875 273.390625 L 174.894531 339.457031 "/>
<path fill="none" stroke-width="1" stroke-linecap="butt" stroke-linejoin="miter" stroke="rgb(41.568627%, 35.294118%, 80.392157%)" stroke-opacity="1" stroke-miterlimit="10" d="M 217.546875 273.390625 L 312.199219 222.007812 "/>
<path fill="none" stroke-width="1" stroke-linecap="butt" stroke-linejoin="miter" stroke="rgb(41.568627%, 35.294118%, 80.392157%)" stroke-opacity="1" stroke-miterlimit="10" d="M 217.546875 273.390625 L 99.828125 372.332031 "/>
<path fill="none" stroke-width="1" stroke-linecap="butt" stroke-linejoin="miter" stroke="rgb(41.568627%, 35.294118%, 80.392157%)" stroke-opacity="1" stroke-miterlimit="10" d="M 217.546875 273.390625 L 271.3125 342.492188 "/>
<path fill="none" stroke-width="1" stroke-linecap="butt" stroke-linejoin="miter" stroke="rgb(41.568627%, 35.294118%, 80.392157%)" stroke-opacity="1" stroke-miterlimit="10" d="M 217.546875 273.390625 L 77.152344 299.269531 "/>
<path fill="none" stroke-width="1" stroke-linecap="butt" stroke-linejoin="miter" stroke="rgb(41.568627%, 35.294118%, 80.392157%)" stroke-opacity="1" stroke-miterlimit="10" d="M 217.546875 273.390625 L 386.171875 252.039062 "/>
<path fill="none" stroke-width="1" stroke-linecap="butt" stroke-linejoin="miter" stroke="rgb(41.568627%, 35.294118%, 80.392157%)" stroke-opacity="1" stroke-miterlimit="10" d="M 293.796875 312.398438 L 238.035156 194.515625 "/>
<path fill="none" stroke-width="1" stroke-linecap="butt" stroke-linejoin="miter" stroke="rgb(41.568627%, 35.294118%, 80.392157%)" stroke-opacity="1" stroke-miterlimit="10" d="M 293.796875 312.398438 L 174.894531 339.457031 "/>
<path fill="none" stroke-width="1" stroke-linecap="butt" stroke-linejoin="miter" stroke="rgb(41.568627%, 35.294118%, 80.392157%)" stroke-opacity="1" stroke-miterlimit="10" d="M 293.796875 312.398438 L 323.796875 263.214844 "/>
<path fill="none" stroke-width="1" stroke-linecap="butt" stroke-linejoin="miter" stroke="rgb(41.568627%, 35.294118%, 80.392157%)" stroke-opacity="1" stroke-miterlimit="10" d="M 293.796875 312.398438 L 416.355469 206.59375 "/>
<path fill="none" stroke-width="1" stroke-linecap="butt" stroke-linejoin="miter" stroke="rgb(41.568627%, 35.294118%, 80.392157%)" stroke-opacity="1" stroke-miterlimit="10" d="M 293.796875 312.398438 L 312.199219 222.007812 "/>
<path fill="none" stroke-width="1" stroke-linecap="butt" stroke-linejoin="miter" stroke="rgb(41.568627%, 35.294118%, 80.392157%)" stroke-opacity="1" stroke-miterlimit="10" d="M 293.796875 312.398438 L 320.058594 456.09375 "/>
<path fill="none" stroke-width="1" stroke-linecap="butt" stroke-linejoin="miter" stroke="rgb(41.568627%, 35.294118%, 80.392157%)" stroke-opacity="1" stroke-miterlimit="10" d="M 293.796875 312.398438 L 352.097656 419.511719 "/>
<path fill="none" stroke-width="1" stroke-linecap="butt" stroke-linejoin="miter" stroke="rgb(41.568627%, 35.294118%, 80.392157%)" stroke-opacity="1" stroke-miterlimit="10" d="M 293.796875 312.398438 L 419.171875 370.78125 "/>
<path fill="none" stroke-width="1" stroke-linecap="butt" stroke-linejoin="miter" stroke="rgb(41.568627%, 35.294118%, 80.392157%)" stroke-opacity="1" stroke-miterlimit="10" d="M 238.035156 194.515625 L 174.894531 339.457031 "/>
<path fill="none" stroke-width="1" stroke-linecap="butt" stroke-linejoin="miter" stroke="rgb(41.568627%, 35.294118%, 80.392157%)" stroke-opacity="1" stroke-miterlimit="10" d="M 238.035156 194.515625 L 207.953125 106.699219 "/>
<path fill="none" stroke-width="1" stroke-linecap="butt" stroke-linejoin="miter" stroke="rgb(41.568627%, 35.294118%, 80.392157%)" stroke-opacity="1" stroke-miterlimit="10" d="M 238.035156 194.515625 L 312.199219 222.007812 "/>
<path fill="none" stroke-width="1" stroke-linecap="butt" stroke-linejoin="miter" stroke="rgb(41.568627%, 35.294118%, 80.392157%)" stroke-opacity="1" stroke-miterlimit="10" d="M 76.152344 197.601562 L 133.898438 118.964844 "/>
<path fill="none" stroke-width="1" stroke-linecap="butt" stroke-linejoin="miter" stroke="rgb(41.568627%, 35.294118%, 80.392157%)" stroke-opacity="1" stroke-miterlimit="10" d="M 76.152344 197.601562 L 30.738281 251.558594 "/>
<path fill="none" stroke-width="1" stroke-linecap="butt" stroke-linejoin="miter" stroke="rgb(41.568627%, 35.294118%, 80.392157%)" stroke-opacity="1" stroke-miterlimit="10" d="M 75.28125 157.828125 L 133.898438 118.964844 "/>
<path fill="none" stroke-width="1" stroke-linecap="butt" stroke-linejoin="miter" stroke="rgb(41.568627%, 35.294118%, 80.392157%)" stroke-opacity="1" stroke-miterlimit="10" d="M 75.28125 157.828125 L 30.738281 251.558594 "/>
<path fill="none" stroke-width="1" stroke-linecap="butt" stroke-linejoin="miter" stroke="rgb(41.568627%, 35.294118%, 80.392157%)" stroke-opacity="1" stroke-miterlimit="10" d="M 75.28125 157.828125 L 30 41.105469 "/>
<path fill="none" stroke-width="1" stroke-linecap="butt" stroke-linejoin="miter" stroke="rgb(41.568627%, 35.294118%, 80.392157%)" stroke-opacity="1" stroke-miterlimit="10" d="M 133.898438 118.964844 L 30 41.105469 "/>
<path fill="none" stroke-width="1" stroke-linecap="butt" stroke-linejoin="miter" stroke="rgb(41.568627%, 35.294118%, 80.392157%)" stroke-opacity="1" stroke-miterlimit="10" d="M 323.796875 263.214844 L 386.171875 252.039062 "/>
<path fill="none" stroke-width="1" stroke-linecap="butt" stroke-linejoin="miter" stroke="rgb(41.568627%, 35.294118%, 80.392157%)" stroke-opacity="1" stroke-miterlimit="10" d="M 323.796875 263.214844 L 419.171875 370.78125 "/>
<path fill="none" stroke-width="1" stroke-linecap="butt" stroke-linejoin="miter" stroke="rgb(41.568627%, 35.294118%, 80.392157%)" stroke-opacity="1" stroke-miterlimit="10" d="M 323.796875 263.214844 L 417.285156 343.148438 "/>
<path fill="none" stroke-width="1" stroke-linecap="butt" stroke-linejoin="miter" stroke="rgb(41.568627%, 35.294118%, 80.392157%)" stroke-opacity="1" stroke-miterlimit="10" d="M 416.355469 206.59375 L 417.285156 343.148438 "/>
<path fill="none" stroke-width="1" stroke-linecap="butt" stroke-linejoin="miter" stroke="rgb(41.568627%, 35.294118%, 80.392157%)" stroke-opacity="1" stroke-miterlimit="10" d="M 312.199219 222.007812 L 417.285156 343.148438 "/>
<path fill="none" stroke-width="1" stroke-linecap="butt" stroke-linejoin="miter" stroke="rgb(41.568627%, 35.294118%, 80.392157%)" stroke-opacity="1" stroke-miterlimit="10" d="M 529.789062 276.8125 L 419.171875 370.78125 "/>
<path fill="none" stroke-width="1" stroke-linecap="butt" stroke-linejoin="miter" stroke="rgb(41.568627%, 35.294118%, 80.392157%)" stroke-opacity="1" stroke-miterlimit="10" d="M 529.789062 276.8125 L 417.285156 343.148438 "/>
<path fill="none" stroke-width="1" stroke-linecap="butt" stroke-linejoin="miter" stroke="rgb(41.568627%, 35.294118%, 80.392157%)" stroke-opacity="1" stroke-miterlimit="10" d="M 468.992188 485.953125 L 419.171875 370.78125 "/>
<path fill="none" stroke-width="1" stroke-linecap="butt" stroke-linejoin="miter" stroke="rgb(41.568627%, 35.294118%, 80.392157%)" stroke-opacity="1" stroke-miterlimit="10" d="M 468.992188 485.953125 L 417.285156 343.148438 "/>
<path fill="none" stroke-width="1" stroke-linecap="butt" stroke-linejoin="miter" stroke="rgb(41.568627%, 35.294118%, 80.392157%)" stroke-opacity="1" stroke-miterlimit="10" d="M 525.082031 404.53125 L 419.171875 370.78125 "/>
<path fill="none" stroke-width="1" stroke-linecap="butt" stroke-linejoin="miter" stroke="rgb(41.568627%, 35.294118%, 80.392157%)" stroke-opacity="1" stroke-miterlimit="10" d="M 525.082031 404.53125 L 417.285156 343.148438 "/>
<path fill="none" stroke-width="1" stroke-linecap="butt" stroke-linejoin="miter" stroke="rgb(41.568627%, 35.294118%, 80.392157%)" stroke-opacity="1" stroke-miterlimit="10" d="M 271.3125 342.492188 L 417.285156 343.148438 "/>
<path fill="none" stroke-width="1" stroke-linecap="butt" stroke-linejoin="miter" stroke="rgb(41.568627%, 35.294118%, 80.392157%)" stroke-opacity="1" stroke-miterlimit="10" d="M 539.191406 322.863281 L 419.171875 370.78125 "/>
<path fill="none" stroke-width="1" stroke-linecap="butt" stroke-linejoin="miter" stroke="rgb(41.568627%, 35.294118%, 80.392157%)" stroke-opacity="1" stroke-miterlimit="10" d="M 539.191406 322.863281 L 417.285156 343.148438 "/>
<path fill="none" stroke-width="1" stroke-linecap="butt" stroke-linejoin="miter" stroke="rgb(41.568627%, 35.294118%, 80.392157%)" stroke-opacity="1" stroke-miterlimit="10" d="M 505.449219 238.761719 L 419.171875 370.78125 "/>
<path fill="none" stroke-width="1" stroke-linecap="butt" stroke-linejoin="miter" stroke="rgb(41.568627%, 35.294118%, 80.392157%)" stroke-opacity="1" stroke-miterlimit="10" d="M 505.449219 238.761719 L 417.285156 343.148438 "/>
<path fill="none" stroke-width="1" stroke-linecap="butt" stroke-linejoin="miter" stroke="rgb(41.568627%, 35.294118%, 80.392157%)" stroke-opacity="1" stroke-miterlimit="10" d="M 406.8125 501.558594 L 284.445312 558.894531 "/>
<path fill="none" stroke-width="1" stroke-linecap="butt" stroke-linejoin="miter" stroke="rgb(41.568627%, 35.294118%, 80.392157%)" stroke-opacity="1" stroke-miterlimit="10" d="M 406.8125 501.558594 L 320.058594 456.09375 "/>
<path fill="none" stroke-width="1" stroke-linecap="butt" stroke-linejoin="miter" stroke="rgb(41.568627%, 35.294118%, 80.392157%)" stroke-opacity="1" stroke-miterlimit="10" d="M 406.8125 501.558594 L 497.140625 454.320312 "/>
<path fill="none" stroke-width="1" stroke-linecap="butt" stroke-linejoin="miter" stroke="rgb(41.568627%, 35.294118%, 80.392157%)" stroke-opacity="1" stroke-miterlimit="10" d="M 406.8125 501.558594 L 419.171875 370.78125 "/>
<path fill="none" stroke-width="1" stroke-linecap="butt" stroke-linejoin="miter" stroke="rgb(41.568627%, 35.294118%, 80.392157%)" stroke-opacity="1" stroke-miterlimit="10" d="M 406.8125 501.558594 L 417.285156 343.148438 "/>
<path fill="none" stroke-width="1" stroke-linecap="butt" stroke-linejoin="miter" stroke="rgb(41.568627%, 35.294118%, 80.392157%)" stroke-opacity="1" stroke-miterlimit="10" d="M 209.695312 528.097656 L 284.445312 558.894531 "/>
<path fill="none" stroke-width="1" stroke-linecap="butt" stroke-linejoin="miter" stroke="rgb(41.568627%, 35.294118%, 80.392157%)" stroke-opacity="1" stroke-miterlimit="10" d="M 209.695312 528.097656 L 320.058594 456.09375 "/>
<path fill="none" stroke-width="1" stroke-linecap="butt" stroke-linejoin="miter" stroke="rgb(41.568627%, 35.294118%, 80.392157%)" stroke-opacity="1" stroke-miterlimit="10" d="M 209.695312 528.097656 L 269.148438 405.046875 "/>
<path fill="none" stroke-width="1" stroke-linecap="butt" stroke-linejoin="miter" stroke="rgb(41.568627%, 35.294118%, 80.392157%)" stroke-opacity="1" stroke-miterlimit="10" d="M 284.445312 558.894531 L 269.148438 405.046875 "/>
<path fill="none" stroke-width="1" stroke-linecap="butt" stroke-linejoin="miter" stroke="rgb(41.568627%, 35.294118%, 80.392157%)" stroke-opacity="1" stroke-miterlimit="10" d="M 570 383.730469 L 497.140625 454.320312 "/>
<path fill="none" stroke-width="1" stroke-linecap="butt" stroke-linejoin="miter" stroke="rgb(41.568627%, 35.294118%, 80.392157%)" stroke-opacity="1" stroke-miterlimit="10" d="M 570 383.730469 L 417.285156 343.148438 "/>
<path fill="none" stroke-width="1" stroke-linecap="butt" stroke-linejoin="miter" stroke="rgb(41.568627%, 35.294118%, 80.392157%)" stroke-opacity="1" stroke-miterlimit="10" d="M 320.058594 456.09375 L 417.285156 343.148438 "/>
<path fill="none" stroke-width="1" stroke-linecap="butt" stroke-linejoin="miter" stroke="rgb(41.568627%, 35.294118%, 80.392157%)" stroke-opacity="1" stroke-miterlimit="10" d="M 352.097656 419.511719 L 269.148438 405.046875 "/>
<path fill="none" stroke-width="1" stroke-linecap="butt" stroke-linejoin="miter" stroke="rgb(41.568627%, 35.294118%, 80.392157%)" stroke-opacity="1" stroke-miterlimit="10" d="M 352.097656 419.511719 L 417.285156 343.148438 "/>
<path fill="none" stroke-width="1" stroke-linecap="butt" stroke-linejoin="miter" stroke="rgb(41.568627%, 35.294118%, 80.392157%)" stroke-opacity="1" stroke-miterlimit="10" d="M 497.140625 454.320312 L 419.171875 370.78125 "/>
<path fill="none" stroke-width="1" stroke-linecap="butt" stroke-linejoin="miter" stroke="rgb(41.568627%, 35.294118%, 80.392157%)" stroke-opacity="1" stroke-miterlimit="10" d="M 497.140625 454.320312 L 417.285156 343.148438 "/>
<path fill="none" stroke-width="1" stroke-linecap="butt" stroke-linejoin="miter" stroke="rgb(41.568627%, 35.294118%, 80.392157%)" stroke-opacity="1" stroke-miterlimit="10" d="M 386.171875 252.039062 L 419.171875 370.78125 "/>
<path fill="none" stroke-width="1" stroke-linecap="butt" stroke-linejoin="miter" stroke="rgb(41.568627%, 35.294118%, 80.392157%)" stroke-opacity="1" stroke-miterlimit="10" d="M 386.171875 252.039062 L 417.285156 343.148438 "/>
<path fill="none" stroke-width="1" stroke-linecap="butt" stroke-linejoin="miter" stroke="rgb(41.568627%, 35.294118%, 80.392157%)" stroke-opacity="1" stroke-miterlimit="10" d="M 269.148438 405.046875 L 419.171875 370.78125 "/>
<path fill="none" stroke-width="1" stroke-linecap="butt" stroke-linejoin="miter" stroke="rgb(41.568627%, 35.294118%, 80.392157%)" stroke-opacity="1" stroke-miterlimit="10" d="M 269.148438 405.046875 L 417.285156 343.148438 "/>
<path fill="none" stroke-width="1" stroke-linecap="butt" stroke-linejoin="miter" stroke="rgb(41.568627%, 35.294118%, 80.392157%)" stroke-opacity="1" stroke-miterlimit="10" d="M 419.171875 370.78125 L 417.285156 343.148438 "/>
<path fill-rule="nonzero" fill="rgb(41.568627%, 35.294118%, 80.392157%)" fill-opacity="1" stroke-width="1" stroke-linecap="butt" stroke-linejoin="miter" stroke="rgb(41.568627%, 35.294118%, 80.392157%)" stroke-opacity="1" stroke-miterlimit="10" d="M 181.957031 261.335938 C 181.957031 266.859375 177.480469 271.335938 171.957031 271.335938 C 166.433594 271.335938 161.957031 266.859375 161.957031 261.335938 C 161.957031 255.8125 166.433594 251.335938 171.957031 251.335938 C 177.480469 251.335938 181.957031 255.8125 181.957031 261.335938 Z M 181.957031 261.335938 "/>
<g fill="rgb(100%, 100%, 100%)" fill-opacity="1">
<use xlink:href="#glyph-750629-0-0" x="169.175758" y="264.816214"/>
</g>
<path fill-rule="nonzero" fill="rgb(41.568627%, 35.294118%, 80.392157%)" fill-opacity="1" stroke-width="1" stroke-linecap="butt" stroke-linejoin="miter" stroke="rgb(41.568627%, 35.294118%, 80.392157%)" stroke-opacity="1" stroke-miterlimit="10" d="M 227.546875 273.390625 C 227.546875 278.914062 223.070312 283.390625 217.546875 283.390625 C 212.023438 283.390625 207.546875 278.914062 207.546875 273.390625 C 207.546875 267.871094 212.023438 263.390625 217.546875 263.390625 C 223.070312 263.390625 227.546875 267.871094 227.546875 273.390625 Z M 227.546875 273.390625 "/>
<g fill="rgb(100%, 100%, 100%)" fill-opacity="1">
<use xlink:href="#glyph-750629-0-1" x="214.766976" y="276.900354"/>
</g>
<path fill-rule="nonzero" fill="rgb(41.568627%, 35.294118%, 80.392157%)" fill-opacity="1" stroke-width="1" stroke-linecap="butt" stroke-linejoin="miter" stroke="rgb(41.568627%, 35.294118%, 80.392157%)" stroke-opacity="1" stroke-miterlimit="10" d="M 303.796875 312.398438 C 303.796875 317.921875 299.320312 322.398438 293.796875 322.398438 C 288.273438 322.398438 283.796875 317.921875 283.796875 312.398438 C 283.796875 306.875 288.273438 302.398438 293.796875 302.398438 C 299.320312 302.398438 303.796875 306.875 303.796875 312.398438 Z M 303.796875 312.398438 "/>
<g fill="rgb(100%, 100%, 100%)" fill-opacity="1">
<use xlink:href="#glyph-750629-0-2" x="291.015166" y="315.899504"/>
</g>
<path fill-rule="nonzero" fill="rgb(41.568627%, 35.294118%, 80.392157%)" fill-opacity="1" stroke-width="1" stroke-linecap="butt" stroke-linejoin="miter" stroke="rgb(41.568627%, 35.294118%, 80.392157%)" stroke-opacity="1" stroke-miterlimit="10" d="M 248.035156 194.515625 C 248.035156 200.039062 243.558594 204.515625 238.035156 204.515625 C 232.511719 204.515625 228.035156 200.039062 228.035156 194.515625 C 228.035156 188.992188 232.511719 184.515625 238.035156 184.515625 C 243.558594 184.515625 248.035156 188.992188 248.035156 194.515625 Z M 248.035156 194.515625 "/>
<g fill="rgb(100%, 100%, 100%)" fill-opacity="1">
<use xlink:href="#glyph-750629-0-3" x="235.25533" y="198.020997"/>
</g>
<path fill-rule="nonzero" fill="rgb(41.568627%, 35.294118%, 80.392157%)" fill-opacity="1" stroke-width="1" stroke-linecap="butt" stroke-linejoin="miter" stroke="rgb(41.568627%, 35.294118%, 80.392157%)" stroke-opacity="1" stroke-miterlimit="10" d="M 86.152344 197.601562 C 86.152344 203.121094 81.671875 207.601562 76.152344 207.601562 C 70.628906 207.601562 66.152344 203.121094 66.152344 197.601562 C 66.152344 192.078125 70.628906 187.601562 76.152344 187.601562 C 81.671875 187.601562 86.152344 192.078125 86.152344 197.601562 Z M 86.152344 197.601562 "/>
<g fill="rgb(100%, 100%, 100%)" fill-opacity="1">
<use xlink:href="#glyph-750629-0-4" x="73.370141" y="201.037557"/>
</g>
<path fill-rule="nonzero" fill="rgb(41.568627%, 35.294118%, 80.392157%)" fill-opacity="1" stroke-width="1" stroke-linecap="butt" stroke-linejoin="miter" stroke="rgb(41.568627%, 35.294118%, 80.392157%)" stroke-opacity="1" stroke-miterlimit="10" d="M 85.28125 157.828125 C 85.28125 163.351562 80.804688 167.828125 75.28125 167.828125 C 69.757812 167.828125 65.28125 163.351562 65.28125 157.828125 C 65.28125 152.304688 69.757812 147.828125 75.28125 147.828125 C 80.804688 147.828125 85.28125 152.304688 85.28125 157.828125 Z M 85.28125 157.828125 "/>
<g fill="rgb(100%, 100%, 100%)" fill-opacity="1">
<use xlink:href="#glyph-750629-0-5" x="72.501252" y="161.338561"/>
</g>
<path fill-rule="nonzero" fill="rgb(41.568627%, 35.294118%, 80.392157%)" fill-opacity="1" stroke-width="1" stroke-linecap="butt" stroke-linejoin="miter" stroke="rgb(41.568627%, 35.294118%, 80.392157%)" stroke-opacity="1" stroke-miterlimit="10" d="M 143.898438 118.964844 C 143.898438 124.488281 139.421875 128.964844 133.898438 128.964844 C 128.378906 128.964844 123.898438 124.488281 123.898438 118.964844 C 123.898438 113.441406 128.378906 108.964844 133.898438 108.964844 C 139.421875 108.964844 143.898438 113.441406 143.898438 118.964844 Z M 143.898438 118.964844 "/>
<g fill="rgb(100%, 100%, 100%)" fill-opacity="1">
<use xlink:href="#glyph-750629-0-6" x="131.119605" y="122.401952"/>
</g>
<path fill-rule="nonzero" fill="rgb(41.568627%, 35.294118%, 80.392157%)" fill-opacity="1" stroke-width="1" stroke-linecap="butt" stroke-linejoin="miter" stroke="rgb(41.568627%, 35.294118%, 80.392157%)" stroke-opacity="1" stroke-miterlimit="10" d="M 184.894531 339.457031 C 184.894531 344.980469 180.417969 349.457031 174.894531 349.457031 C 169.375 349.457031 164.894531 344.980469 164.894531 339.457031 C 164.894531 333.9375 169.375 329.457031 174.894531 329.457031 C 180.417969 329.457031 184.894531 333.9375 184.894531 339.457031 Z M 184.894531 339.457031 "/>
<g fill="rgb(100%, 100%, 100%)" fill-opacity="1">
<use xlink:href="#glyph-750629-0-7" x="172.115698" y="342.964809"/>
</g>
<path fill-rule="nonzero" fill="rgb(41.568627%, 35.294118%, 80.392157%)" fill-opacity="1" stroke-width="1" stroke-linecap="butt" stroke-linejoin="miter" stroke="rgb(41.568627%, 35.294118%, 80.392157%)" stroke-opacity="1" stroke-miterlimit="10" d="M 333.796875 263.214844 C 333.796875 268.738281 329.320312 273.214844 323.796875 273.214844 C 318.273438 273.214844 313.796875 268.738281 313.796875 263.214844 C 313.796875 257.691406 318.273438 253.214844 323.796875 253.214844 C 329.320312 253.214844 333.796875 257.691406 333.796875 263.214844 Z M 333.796875 263.214844 "/>
<g fill="rgb(100%, 100%, 100%)" fill-opacity="1">
<use xlink:href="#glyph-750629-0-8" x="321.015529" y="266.71596"/>
</g>
<path fill-rule="nonzero" fill="rgb(41.568627%, 35.294118%, 80.392157%)" fill-opacity="1" stroke-width="1" stroke-linecap="butt" stroke-linejoin="miter" stroke="rgb(41.568627%, 35.294118%, 80.392157%)" stroke-opacity="1" stroke-miterlimit="10" d="M 426.355469 206.59375 C 426.355469 212.117188 421.878906 216.59375 416.355469 216.59375 C 410.832031 216.59375 406.355469 212.117188 406.355469 206.59375 C 406.355469 201.070312 410.832031 196.59375 416.355469 196.59375 C 421.878906 196.59375 426.355469 201.070312 426.355469 206.59375 Z M 426.355469 206.59375 "/>
<g fill="rgb(100%, 100%, 100%)" fill-opacity="1">
<use xlink:href="#glyph-750629-0-0" x="410.793841" y="210.088761"/>
<use xlink:href="#glyph-750629-0-9" x="416.355365" y="210.088761"/>
</g>
<path fill-rule="nonzero" fill="rgb(41.568627%, 35.294118%, 80.392157%)" fill-opacity="1" stroke-width="1" stroke-linecap="butt" stroke-linejoin="miter" stroke="rgb(41.568627%, 35.294118%, 80.392157%)" stroke-opacity="1" stroke-miterlimit="10" d="M 40.738281 251.558594 C 40.738281 257.082031 36.261719 261.558594 30.738281 261.558594 C 25.214844 261.558594 20.738281 257.082031 20.738281 251.558594 C 20.738281 246.035156 25.214844 241.558594 30.738281 241.558594 C 36.261719 241.558594 40.738281 246.035156 40.738281 251.558594 Z M 40.738281 251.558594 "/>
<g fill="rgb(100%, 100%, 100%)" fill-opacity="1">
<use xlink:href="#glyph-750629-0-0" x="25.175847" y="255.03891"/>
<use xlink:href="#glyph-750629-0-0" x="30.73737" y="255.03891"/>
</g>
<path fill-rule="nonzero" fill="rgb(41.568627%, 35.294118%, 80.392157%)" fill-opacity="1" stroke-width="1" stroke-linecap="butt" stroke-linejoin="miter" stroke="rgb(41.568627%, 35.294118%, 80.392157%)" stroke-opacity="1" stroke-miterlimit="10" d="M 50.042969 362.421875 C 50.042969 367.945312 45.566406 372.421875 40.042969 372.421875 C 34.519531 372.421875 30.042969 367.945312 30.042969 362.421875 C 30.042969 356.898438 34.519531 352.421875 40.042969 352.421875 C 45.566406 352.421875 50.042969 356.898438 50.042969 362.421875 Z M 50.042969 362.421875 "/>
<g fill="rgb(100%, 100%, 100%)" fill-opacity="1">
<use xlink:href="#glyph-750629-0-0" x="34.480392" y="365.930801"/>
<use xlink:href="#glyph-750629-0-1" x="40.041915" y="365.930801"/>
</g>
<path fill-rule="nonzero" fill="rgb(41.568627%, 35.294118%, 80.392157%)" fill-opacity="1" stroke-width="1" stroke-linecap="butt" stroke-linejoin="miter" stroke="rgb(41.568627%, 35.294118%, 80.392157%)" stroke-opacity="1" stroke-miterlimit="10" d="M 217.953125 106.699219 C 217.953125 112.222656 213.476562 116.699219 207.953125 116.699219 C 202.433594 116.699219 197.953125 112.222656 197.953125 106.699219 C 197.953125 101.175781 202.433594 96.699219 207.953125 96.699219 C 213.476562 96.699219 217.953125 101.175781 217.953125 106.699219 Z M 217.953125 106.699219 "/>
<g fill="rgb(100%, 100%, 100%)" fill-opacity="1">
<use xlink:href="#glyph-750629-0-0" x="202.392984" y="110.200712"/>
<use xlink:href="#glyph-750629-0-2" x="207.954507" y="110.200712"/>
</g>
<path fill-rule="nonzero" fill="rgb(41.568627%, 35.294118%, 80.392157%)" fill-opacity="1" stroke-width="1" stroke-linecap="butt" stroke-linejoin="miter" stroke="rgb(41.568627%, 35.294118%, 80.392157%)" stroke-opacity="1" stroke-miterlimit="10" d="M 322.199219 222.007812 C 322.199219 227.53125 317.722656 232.007812 312.199219 232.007812 C 306.675781 232.007812 302.199219 227.53125 302.199219 222.007812 C 302.199219 216.484375 306.675781 212.007812 312.199219 212.007812 C 317.722656 212.007812 322.199219 216.484375 322.199219 222.007812 Z M 322.199219 222.007812 "/>
<g fill="rgb(100%, 100%, 100%)" fill-opacity="1">
<use xlink:href="#glyph-750629-0-0" x="306.637662" y="225.512432"/>
<use xlink:href="#glyph-750629-0-3" x="312.199186" y="225.512432"/>
</g>
<path fill-rule="nonzero" fill="rgb(41.568627%, 35.294118%, 80.392157%)" fill-opacity="1" stroke-width="1" stroke-linecap="butt" stroke-linejoin="miter" stroke="rgb(41.568627%, 35.294118%, 80.392157%)" stroke-opacity="1" stroke-miterlimit="10" d="M 539.789062 276.8125 C 539.789062 282.332031 535.3125 286.8125 529.789062 286.8125 C 524.265625 286.8125 519.789062 282.332031 519.789062 276.8125 C 519.789062 271.289062 524.265625 266.8125 529.789062 266.8125 C 535.3125 266.8125 539.789062 271.289062 539.789062 276.8125 Z M 539.789062 276.8125 "/>
<g fill="rgb(100%, 100%, 100%)" fill-opacity="1">
<use xlink:href="#glyph-750629-0-0" x="524.22669" y="280.29236"/>
<use xlink:href="#glyph-750629-0-4" x="529.788213" y="280.29236"/>
</g>
<path fill-rule="nonzero" fill="rgb(41.568627%, 35.294118%, 80.392157%)" fill-opacity="1" stroke-width="1" stroke-linecap="butt" stroke-linejoin="miter" stroke="rgb(41.568627%, 35.294118%, 80.392157%)" stroke-opacity="1" stroke-miterlimit="10" d="M 478.992188 485.953125 C 478.992188 491.476562 474.515625 495.953125 468.992188 495.953125 C 463.46875 495.953125 458.992188 491.476562 458.992188 485.953125 C 458.992188 480.429688 463.46875 475.953125 468.992188 475.953125 C 474.515625 475.953125 478.992188 480.429688 478.992188 485.953125 Z M 478.992188 485.953125 "/>
<g fill="rgb(100%, 100%, 100%)" fill-opacity="1">
<use xlink:href="#glyph-750629-0-0" x="463.43025" y="489.464694"/>
<use xlink:href="#glyph-750629-0-5" x="468.991773" y="489.464694"/>
</g>
<path fill-rule="nonzero" fill="rgb(41.568627%, 35.294118%, 80.392157%)" fill-opacity="1" stroke-width="1" stroke-linecap="butt" stroke-linejoin="miter" stroke="rgb(41.568627%, 35.294118%, 80.392157%)" stroke-opacity="1" stroke-miterlimit="10" d="M 40 41.105469 C 40 46.628906 35.523438 51.105469 30 51.105469 C 24.476562 51.105469 20 46.628906 20 41.105469 C 20 35.582031 24.476562 31.105469 30 31.105469 C 35.523438 31.105469 40 35.582031 40 41.105469 Z M 40 41.105469 "/>
<g fill="rgb(100%, 100%, 100%)" fill-opacity="1">
<use xlink:href="#glyph-750629-0-0" x="24.438477" y="44.587069"/>
<use xlink:href="#glyph-750629-0-6" x="30" y="44.587069"/>
</g>
<path fill-rule="nonzero" fill="rgb(41.568627%, 35.294118%, 80.392157%)" fill-opacity="1" stroke-width="1" stroke-linecap="butt" stroke-linejoin="miter" stroke="rgb(41.568627%, 35.294118%, 80.392157%)" stroke-opacity="1" stroke-miterlimit="10" d="M 109.828125 372.332031 C 109.828125 377.851562 105.351562 382.332031 99.828125 382.332031 C 94.308594 382.332031 89.828125 377.851562 89.828125 372.332031 C 89.828125 366.808594 94.308594 362.332031 99.828125 362.332031 C 105.351562 362.332031 109.828125 366.808594 109.828125 372.332031 Z M 109.828125 372.332031 "/>
<g fill="rgb(100%, 100%, 100%)" fill-opacity="1">
<use xlink:href="#glyph-750629-0-0" x="94.268067" y="375.836236"/>
<use xlink:href="#glyph-750629-0-7" x="99.829591" y="375.836236"/>
</g>
<path fill-rule="nonzero" fill="rgb(41.568627%, 35.294118%, 80.392157%)" fill-opacity="1" stroke-width="1" stroke-linecap="butt" stroke-linejoin="miter" stroke="rgb(41.568627%, 35.294118%, 80.392157%)" stroke-opacity="1" stroke-miterlimit="10" d="M 535.082031 404.53125 C 535.082031 410.054688 530.605469 414.53125 525.082031 414.53125 C 519.558594 414.53125 515.082031 410.054688 515.082031 404.53125 C 515.082031 399.007812 519.558594 394.53125 525.082031 394.53125 C 530.605469 394.53125 535.082031 399.007812 535.082031 404.53125 Z M 535.082031 404.53125 "/>
<g fill="rgb(100%, 100%, 100%)" fill-opacity="1">
<use xlink:href="#glyph-750629-0-0" x="519.521369" y="408.032951"/>
<use xlink:href="#glyph-750629-0-8" x="525.082892" y="408.032951"/>
</g>
<path fill-rule="nonzero" fill="rgb(41.568627%, 35.294118%, 80.392157%)" fill-opacity="1" stroke-width="1" stroke-linecap="butt" stroke-linejoin="miter" stroke="rgb(41.568627%, 35.294118%, 80.392157%)" stroke-opacity="1" stroke-miterlimit="10" d="M 281.3125 342.492188 C 281.3125 348.011719 276.835938 352.492188 271.3125 352.492188 C 265.789062 352.492188 261.3125 348.011719 261.3125 342.492188 C 261.3125 336.96875 265.789062 332.492188 271.3125 332.492188 C 276.835938 332.492188 281.3125 336.96875 281.3125 342.492188 Z M 281.3125 342.492188 "/>
<g fill="rgb(100%, 100%, 100%)" fill-opacity="1">
<use xlink:href="#glyph-750629-0-1" x="265.751883" y="345.999107"/>
<use xlink:href="#glyph-750629-0-9" x="271.313406" y="345.999107"/>
</g>
<path fill-rule="nonzero" fill="rgb(41.568627%, 35.294118%, 80.392157%)" fill-opacity="1" stroke-width="1" stroke-linecap="butt" stroke-linejoin="miter" stroke="rgb(41.568627%, 35.294118%, 80.392157%)" stroke-opacity="1" stroke-miterlimit="10" d="M 549.191406 322.863281 C 549.191406 328.386719 544.710938 332.863281 539.191406 332.863281 C 533.667969 332.863281 529.191406 328.386719 529.191406 322.863281 C 529.191406 317.34375 533.667969 312.863281 539.191406 312.863281 C 544.710938 312.863281 549.191406 317.34375 549.191406 322.863281 Z M 549.191406 322.863281 "/>
<g fill="rgb(100%, 100%, 100%)" fill-opacity="1">
<use xlink:href="#glyph-750629-0-1" x="533.628367" y="326.37303"/>
<use xlink:href="#glyph-750629-0-0" x="539.18989" y="326.37303"/>
</g>
<path fill-rule="nonzero" fill="rgb(41.568627%, 35.294118%, 80.392157%)" fill-opacity="1" stroke-width="1" stroke-linecap="butt" stroke-linejoin="miter" stroke="rgb(41.568627%, 35.294118%, 80.392157%)" stroke-opacity="1" stroke-miterlimit="10" d="M 87.152344 299.269531 C 87.152344 304.792969 82.671875 309.269531 77.152344 309.269531 C 71.628906 309.269531 67.152344 304.792969 67.152344 299.269531 C 67.152344 293.75 71.628906 289.269531 77.152344 289.269531 C 82.671875 289.269531 87.152344 293.75 87.152344 299.269531 Z M 87.152344 299.269531 "/>
<g fill="rgb(100%, 100%, 100%)" fill-opacity="1">
<use xlink:href="#glyph-750629-0-1" x="71.589127" y="302.779761"/>
<use xlink:href="#glyph-750629-0-1" x="77.150651" y="302.779761"/>
</g>
<path fill-rule="nonzero" fill="rgb(41.568627%, 35.294118%, 80.392157%)" fill-opacity="1" stroke-width="1" stroke-linecap="butt" stroke-linejoin="miter" stroke="rgb(41.568627%, 35.294118%, 80.392157%)" stroke-opacity="1" stroke-miterlimit="10" d="M 515.449219 238.761719 C 515.449219 244.285156 510.972656 248.761719 505.449219 248.761719 C 499.925781 248.761719 495.449219 244.285156 495.449219 238.761719 C 495.449219 233.238281 499.925781 228.761719 505.449219 228.761719 C 510.972656 228.761719 515.449219 233.238281 515.449219 238.761719 Z M 515.449219 238.761719 "/>
<g fill="rgb(100%, 100%, 100%)" fill-opacity="1">
<use xlink:href="#glyph-750629-0-1" x="499.887392" y="242.270058"/>
<use xlink:href="#glyph-750629-0-2" x="505.448916" y="242.270058"/>
</g>
<path fill-rule="nonzero" fill="rgb(41.568627%, 35.294118%, 80.392157%)" fill-opacity="1" stroke-width="1" stroke-linecap="butt" stroke-linejoin="miter" stroke="rgb(41.568627%, 35.294118%, 80.392157%)" stroke-opacity="1" stroke-miterlimit="10" d="M 416.8125 501.558594 C 416.8125 507.082031 412.335938 511.558594 406.8125 511.558594 C 401.289062 511.558594 396.8125 507.082031 396.8125 501.558594 C 396.8125 496.039062 401.289062 491.558594 406.8125 491.558594 C 412.335938 491.558594 416.8125 496.039062 416.8125 501.558594 Z M 416.8125 501.558594 "/>
<g fill="rgb(100%, 100%, 100%)" fill-opacity="1">
<use xlink:href="#glyph-750629-0-1" x="401.252339" y="505.068741"/>
<use xlink:href="#glyph-750629-0-3" x="406.813863" y="505.068741"/>
</g>
<path fill-rule="nonzero" fill="rgb(41.568627%, 35.294118%, 80.392157%)" fill-opacity="1" stroke-width="1" stroke-linecap="butt" stroke-linejoin="miter" stroke="rgb(41.568627%, 35.294118%, 80.392157%)" stroke-opacity="1" stroke-miterlimit="10" d="M 219.695312 528.097656 C 219.695312 533.621094 215.21875 538.097656 209.695312 538.097656 C 204.171875 538.097656 199.695312 533.621094 199.695312 528.097656 C 199.695312 522.574219 204.171875 518.097656 209.695312 518.097656 C 215.21875 518.097656 219.695312 522.574219 219.695312 528.097656 Z M 219.695312 528.097656 "/>
<g fill="rgb(100%, 100%, 100%)" fill-opacity="1">
<use xlink:href="#glyph-750629-0-1" x="204.133804" y="531.605298"/>
<use xlink:href="#glyph-750629-0-4" x="209.695327" y="531.605298"/>
</g>
<path fill-rule="nonzero" fill="rgb(41.568627%, 35.294118%, 80.392157%)" fill-opacity="1" stroke-width="1" stroke-linecap="butt" stroke-linejoin="miter" stroke="rgb(41.568627%, 35.294118%, 80.392157%)" stroke-opacity="1" stroke-miterlimit="10" d="M 294.445312 558.894531 C 294.445312 564.417969 289.96875 568.894531 284.445312 568.894531 C 278.925781 568.894531 274.445312 564.417969 274.445312 558.894531 C 274.445312 553.371094 278.925781 548.894531 284.445312 548.894531 C 289.96875 548.894531 294.445312 553.371094 294.445312 558.894531 Z M 294.445312 558.894531 "/>
<g fill="rgb(100%, 100%, 100%)" fill-opacity="1">
<use xlink:href="#glyph-750629-0-1" x="278.88562" y="562.405118"/>
<use xlink:href="#glyph-750629-0-5" x="284.447144" y="562.405118"/>
</g>
<path fill-rule="nonzero" fill="rgb(41.568627%, 35.294118%, 80.392157%)" fill-opacity="1" stroke-width="1" stroke-linecap="butt" stroke-linejoin="miter" stroke="rgb(41.568627%, 35.294118%, 80.392157%)" stroke-opacity="1" stroke-miterlimit="10" d="M 580 383.730469 C 580 389.253906 575.523438 393.730469 570 393.730469 C 564.476562 393.730469 560 389.253906 560 383.730469 C 560 378.207031 564.476562 373.730469 570 373.730469 C 575.523438 373.730469 580 378.207031 580 383.730469 Z M 580 383.730469 "/>
<g fill="rgb(100%, 100%, 100%)" fill-opacity="1">
<use xlink:href="#glyph-750629-0-1" x="564.438477" y="387.239677"/>
<use xlink:href="#glyph-750629-0-6" x="570" y="387.239677"/>
</g>
<path fill-rule="nonzero" fill="rgb(41.568627%, 35.294118%, 80.392157%)" fill-opacity="1" stroke-width="1" stroke-linecap="butt" stroke-linejoin="miter" stroke="rgb(41.568627%, 35.294118%, 80.392157%)" stroke-opacity="1" stroke-miterlimit="10" d="M 330.058594 456.09375 C 330.058594 461.617188 325.582031 466.09375 320.058594 466.09375 C 314.539062 466.09375 310.058594 461.617188 310.058594 456.09375 C 310.058594 450.570312 314.539062 446.09375 320.058594 446.09375 C 325.582031 446.09375 330.058594 450.570312 330.058594 456.09375 Z M 330.058594 456.09375 "/>
<g fill="rgb(100%, 100%, 100%)" fill-opacity="1">
<use xlink:href="#glyph-750629-0-1" x="314.498519" y="459.602644"/>
<use xlink:href="#glyph-750629-0-7" x="320.060043" y="459.602644"/>
</g>
<path fill-rule="nonzero" fill="rgb(41.568627%, 35.294118%, 80.392157%)" fill-opacity="1" stroke-width="1" stroke-linecap="butt" stroke-linejoin="miter" stroke="rgb(41.568627%, 35.294118%, 80.392157%)" stroke-opacity="1" stroke-miterlimit="10" d="M 362.097656 419.511719 C 362.097656 425.03125 357.621094 429.511719 352.097656 429.511719 C 346.574219 429.511719 342.097656 425.03125 342.097656 419.511719 C 342.097656 413.988281 346.574219 409.511719 352.097656 409.511719 C 357.621094 409.511719 362.097656 413.988281 362.097656 419.511719 Z M 362.097656 419.511719 "/>
<g fill="rgb(100%, 100%, 100%)" fill-opacity="1">
<use xlink:href="#glyph-750629-0-1" x="346.535518" y="423.018348"/>
<use xlink:href="#glyph-750629-0-8" x="352.097041" y="423.018348"/>
</g>
<path fill-rule="nonzero" fill="rgb(41.568627%, 35.294118%, 80.392157%)" fill-opacity="1" stroke-width="1" stroke-linecap="butt" stroke-linejoin="miter" stroke="rgb(41.568627%, 35.294118%, 80.392157%)" stroke-opacity="1" stroke-miterlimit="10" d="M 507.140625 454.320312 C 507.140625 459.84375 502.660156 464.320312 497.140625 464.320312 C 491.617188 464.320312 487.140625 459.84375 487.140625 454.320312 C 487.140625 448.796875 491.617188 444.320312 497.140625 444.320312 C 502.660156 444.320312 507.140625 448.796875 507.140625 454.320312 Z M 507.140625 454.320312 "/>
<g fill="rgb(100%, 100%, 100%)" fill-opacity="1">
<use xlink:href="#glyph-750629-0-2" x="491.57719" y="457.822098"/>
<use xlink:href="#glyph-750629-0-9" x="497.138713" y="457.822098"/>
</g>
<path fill-rule="nonzero" fill="rgb(41.568627%, 35.294118%, 80.392157%)" fill-opacity="1" stroke-width="1" stroke-linecap="butt" stroke-linejoin="miter" stroke="rgb(41.568627%, 35.294118%, 80.392157%)" stroke-opacity="1" stroke-miterlimit="10" d="M 396.171875 252.039062 C 396.171875 257.5625 391.695312 262.039062 386.171875 262.039062 C 380.648438 262.039062 376.171875 257.5625 376.171875 252.039062 C 376.171875 246.515625 380.648438 242.039062 386.171875 242.039062 C 391.695312 242.039062 396.171875 246.515625 396.171875 252.039062 Z M 396.171875 252.039062 "/>
<g fill="rgb(100%, 100%, 100%)" fill-opacity="1">
<use xlink:href="#glyph-750629-0-2" x="380.610745" y="255.540814"/>
<use xlink:href="#glyph-750629-0-0" x="386.172269" y="255.540814"/>
</g>
<path fill-rule="nonzero" fill="rgb(41.568627%, 35.294118%, 80.392157%)" fill-opacity="1" stroke-width="1" stroke-linecap="butt" stroke-linejoin="miter" stroke="rgb(41.568627%, 35.294118%, 80.392157%)" stroke-opacity="1" stroke-miterlimit="10" d="M 279.148438 405.046875 C 279.148438 410.570312 274.671875 415.046875 269.148438 415.046875 C 263.625 415.046875 259.148438 410.570312 259.148438 405.046875 C 259.148438 399.523438 263.625 395.046875 269.148438 395.046875 C 274.671875 395.046875 279.148438 399.523438 279.148438 405.046875 Z M 279.148438 405.046875 "/>
<g fill="rgb(100%, 100%, 100%)" fill-opacity="1">
<use xlink:href="#glyph-750629-0-2" x="263.587392" y="408.555761"/>
<use xlink:href="#glyph-750629-0-1" x="269.148915" y="408.555761"/>
</g>
<path fill-rule="nonzero" fill="rgb(41.568627%, 35.294118%, 80.392157%)" fill-opacity="1" stroke-width="1" stroke-linecap="butt" stroke-linejoin="miter" stroke="rgb(41.568627%, 35.294118%, 80.392157%)" stroke-opacity="1" stroke-miterlimit="10" d="M 429.171875 370.78125 C 429.171875 376.304688 424.695312 380.78125 419.171875 380.78125 C 413.648438 380.78125 409.171875 376.304688 409.171875 370.78125 C 409.171875 365.257812 413.648438 360.78125 419.171875 360.78125 C 424.695312 360.78125 429.171875 365.257812 429.171875 370.78125 Z M 429.171875 370.78125 "/>
<g fill="rgb(100%, 100%, 100%)" fill-opacity="1">
<use xlink:href="#glyph-750629-0-2" x="413.611707" y="374.282398"/>
<use xlink:href="#glyph-750629-0-2" x="419.17323" y="374.282398"/>
</g>
<path fill-rule="nonzero" fill="rgb(41.568627%, 35.294118%, 80.392157%)" fill-opacity="1" stroke-width="1" stroke-linecap="butt" stroke-linejoin="miter" stroke="rgb(41.568627%, 35.294118%, 80.392157%)" stroke-opacity="1" stroke-miterlimit="10" d="M 427.285156 343.148438 C 427.285156 348.671875 422.808594 353.148438 417.285156 353.148438 C 411.761719 353.148438 407.285156 348.671875 407.285156 343.148438 C 407.285156 337.625 411.761719 333.148438 417.285156 333.148438 C 422.808594 333.148438 427.285156 337.625 427.285156 343.148438 Z M 427.285156 343.148438 "/>
<g fill="rgb(100%, 100%, 100%)" fill-opacity="1">
<use xlink:href="#glyph-750629-0-2" x="411.723692" y="346.653208"/>
<use xlink:href="#glyph-750629-0-3" x="417.285215" y="346.653208"/>
</g>
<path fill="none" stroke-width="10" stroke-linecap="butt" stroke-linejoin="miter" stroke="rgb(100%, 100%, 0%)" stroke-opacity="0.5" stroke-miterlimit="10" d="M 529.789062 276.8125 L 419.171875 370.78125 "/>
<path fill="none" stroke-width="10" stroke-linecap="butt" stroke-linejoin="miter" stroke="rgb(100%, 100%, 0%)" stroke-opacity="0.5" stroke-miterlimit="10" d="M 419.171875 370.78125 L 269.148438 405.046875 "/>
<path fill="none" stroke-width="10" stroke-linecap="butt" stroke-linejoin="miter" stroke="rgb(100%, 100%, 0%)" stroke-opacity="0.5" stroke-miterlimit="10" d="M 269.148438 405.046875 L 171.957031 261.335938 "/>
<path fill="none" stroke-width="10" stroke-linecap="butt" stroke-linejoin="miter" stroke="rgb(100%, 100%, 0%)" stroke-opacity="0.5" stroke-miterlimit="10" d="M 171.957031 261.335938 L 133.898438 118.964844 "/>
<path fill="none" stroke-width="10" stroke-linecap="butt" stroke-linejoin="miter" stroke="rgb(100%, 100%, 0%)" stroke-opacity="0.5" stroke-miterlimit="10" d="M 133.898438 118.964844 L 30 41.105469 "/>
<path fill-rule="nonzero" fill="rgb(0%, 100%, 100%)" fill-opacity="1" d="M 171.957031 271.335938 L 163.726562 279.5625 L 153.726562 269.5625 L 161.957031 261.335938 L 153.726562 253.105469 L 163.726562 243.105469 L 171.957031 251.335938 L 180.183594 243.105469 L 190.183594 253.105469 L 181.957031 261.335938 L 190.183594 269.5625 L 180.183594 279.5625 Z M 171.957031 271.335938 "/>
<path fill-rule="nonzero" fill="rgb(0%, 100%, 100%)" fill-opacity="1" d="M 133.898438 128.964844 L 125.671875 137.191406 L 115.671875 127.191406 L 123.898438 118.964844 L 115.671875 110.734375 L 125.671875 100.734375 L 133.898438 108.964844 L 142.128906 100.734375 L 152.128906 110.734375 L 143.898438 118.964844 L 152.128906 127.191406 L 142.128906 137.191406 Z M 133.898438 128.964844 "/>
<path fill-rule="nonzero" fill="rgb(0%, 100%, 100%)" fill-opacity="1" d="M 529.789062 286.8125 L 521.558594 295.039062 L 511.558594 285.039062 L 519.789062 276.8125 L 511.558594 268.582031 L 521.558594 258.582031 L 529.789062 266.8125 L 538.015625 258.582031 L 548.015625 268.582031 L 539.789062 276.8125 L 548.015625 285.039062 L 538.015625 295.039062 Z M 529.789062 286.8125 "/>
<path fill-rule="nonzero" fill="rgb(0%, 100%, 100%)" fill-opacity="1" d="M 269.148438 415.046875 L 260.921875 423.277344 L 250.921875 413.277344 L 259.148438 405.046875 L 250.921875 396.820312 L 260.921875 386.820312 L 269.148438 395.046875 L 277.378906 386.820312 L 287.378906 396.820312 L 279.148438 405.046875 L 287.378906 413.277344 L 277.378906 423.277344 Z M 269.148438 415.046875 "/>
<path fill-rule="nonzero" fill="rgb(0%, 100%, 100%)" fill-opacity="1" d="M 419.171875 380.78125 L 410.945312 389.011719 L 400.945312 379.011719 L 409.171875 370.78125 L 400.945312 362.550781 L 410.945312 352.550781 L 419.171875 360.78125 L 427.402344 352.550781 L 437.402344 362.550781 L 429.171875 370.78125 L 437.402344 379.011719 L 427.402344 389.011719 Z M 419.171875 380.78125 "/>
</svg>
