<?xml version="1.0" encoding="UTF-8"?>
<svg xmlns="http://www.w3.org/2000/svg" xmlns:xlink="http://www.w3.org/1999/xlink" width="600" height="300" viewBox="0 0 600 300">
<rect x="-60" y="-30" width="720" height="360" fill="rgb(10.196078%, 10.196078%, 10.196078%)" fill-opacity="1"/>
<path fill="none" stroke-width="1" stroke-linecap="butt" stroke-linejoin="miter" stroke="rgb(100%, 41.176471%, 70.588235%)" stroke-opacity="1" stroke-miterlimit="10" d="M 420 150 L 410.867188 104.078125 "/>
<path fill="none" stroke-width="1" stroke-linecap="butt" stroke-linejoin="miter" stroke="rgb(100%, 41.176471%, 70.588235%)" stroke-opacity="1" stroke-miterlimit="10" d="M 420 150 L 254.078125 39.132812 "/>
<path fill="none" stroke-width="1" stroke-linecap="butt" stroke-linejoin="miter" stroke="rgb(100%, 41.176471%, 70.588235%)" stroke-opacity="1" stroke-miterlimit="10" d="M 420 150 L 410.867188 195.921875 "/>
<path fill="none" stroke-width="1" stroke-linecap="butt" stroke-linejoin="miter" stroke="rgb(100%, 41.176471%, 70.588235%)" stroke-opacity="1" stroke-miterlimit="10" d="M 410.867188 104.078125 L 384.851562 65.148438 "/>
<path fill="none" stroke-width="1" stroke-linecap="butt" stroke-linejoin="miter" stroke="rgb(100%, 41.176471%, 70.588235%)" stroke-opacity="1" stroke-miterlimit="10" d="M 410.867188 104.078125 L 300 270 "/>
<path fill="none" stroke-width="1" stroke-linecap="butt" stroke-linejoin="miter" stroke="rgb(100%, 41.176471%, 70.588235%)" stroke-opacity="1" stroke-miterlimit="10" d="M 384.851562 65.148438 L 345.921875 39.132812 "/>
<path fill="none" stroke-width="1" stroke-linecap="butt" stroke-linejoin="miter" stroke="rgb(100%, 41.176471%, 70.588235%)" stroke-opacity="1" stroke-miterlimit="10" d="M 384.851562 65.148438 L 189.132812 104.078125 "/>
<path fill="none" stroke-width="1" stroke-linecap="butt" stroke-linejoin="miter" stroke="rgb(100%, 41.176471%, 70.588235%)" stroke-opacity="1" stroke-miterlimit="10" d="M 345.921875 39.132812 L 300 30 "/>
<path fill="none" stroke-width="1" stroke-linecap="butt" stroke-linejoin="miter" stroke="rgb(100%, 41.176471%, 70.588235%)" stroke-opacity="1" stroke-miterlimit="10" d="M 345.921875 39.132812 L 384.851562 234.851562 "/>
<path fill="none" stroke-width="1" stroke-linecap="butt" stroke-linejoin="miter" stroke="rgb(100%, 41.176471%, 70.588235%)" stroke-opacity="1" stroke-miterlimit="10" d="M 300 30 L 254.078125 39.132812 "/>
<path fill="none" stroke-width="1" stroke-linecap="butt" stroke-linejoin="miter" stroke="rgb(100%, 41.176471%, 70.588235%)" stroke-opacity="1" stroke-miterlimit="10" d="M 300 30 L 189.132812 195.921875 "/>
<path fill="none" stroke-width="1" stroke-linecap="butt" stroke-linejoin="miter" stroke="rgb(100%, 41.176471%, 70.588235%)" stroke-opacity="1" stroke-miterlimit="10" d="M 254.078125 39.132812 L 215.148438 65.148438 "/>
<path fill="none" stroke-width="1" stroke-linecap="butt" stroke-linejoin="miter" stroke="rgb(100%, 41.176471%, 70.588235%)" stroke-opacity="1" stroke-miterlimit="10" d="M 215.148438 65.148438 L 189.132812 104.078125 "/>
<path fill="none" stroke-width="1" stroke-linecap="butt" stroke-linejoin="miter" stroke="rgb(100%, 41.176471%, 70.588235%)" stroke-opacity="1" stroke-miterlimit="10" d="M 215.148438 65.148438 L 254.078125 260.867188 "/>
<path fill="none" stroke-width="1" stroke-linecap="butt" stroke-linejoin="miter" stroke="rgb(100%, 41.176471%, 70.588235%)" stroke-opacity="1" stroke-miterlimit="10" d="M 189.132812 104.078125 L 180 150 "/>
<path fill="none" stroke-width="1" stroke-linecap="butt" stroke-linejoin="miter" stroke="rgb(100%, 41.176471%, 70.588235%)" stroke-opacity="1" stroke-miterlimit="10" d="M 180 150 L 189.132812 195.921875 "/>
<path fill="none" stroke-width="1" stroke-linecap="butt" stroke-linejoin="miter" stroke="rgb(100%, 41.176471%, 70.588235%)" stroke-opacity="1" stroke-miterlimit="10" d="M 180 150 L 345.921875 260.867188 "/>
<path fill="none" stroke-width="1" stroke-linecap="butt" stroke-linejoin="miter" stroke="rgb(100%, 41.176471%, 70.588235%)" stroke-opacity="1" stroke-miterlimit="10" d="M 189.132812 195.921875 L 215.148438 234.851562 "/>
<path fill="none" stroke-width="1" stroke-linecap="butt" stroke-linejoin="miter" stroke="rgb(100%, 41.176471%, 70.588235%)" stroke-opacity="1" stroke-miterlimit="10" d="M 215.148438 234.851562 L 254.078125 260.867188 "/>
<path fill="none" stroke-width="1" stroke-linecap="butt" stroke-linejoin="miter" stroke="rgb(100%, 41.176471%, 70.588235%)" stroke-opacity="1" stroke-miterlimit="10" d="M 215.148438 234.851562 L 410.867188 195.921875 "/>
<path fill="none" stroke-width="1" stroke-linecap="butt" stroke-linejoin="miter" stroke="rgb(100%, 41.176471%, 70.588235%)" stroke-opacity="1" stroke-miterlimit="10" d="M 254.078125 260.867188 L 300 270 "/>
<path fill="none" stroke-width="1" stroke-linecap="butt" stroke-linejoin="miter" stroke="rgb(100%, 41.176471%, 70.588235%)" stroke-opacity="1" stroke-miterlimit="10" d="M 300 270 L 345.921875 260.867188 "/>
<path fill="none" stroke-width="1" stroke-linecap="butt" stroke-linejoin="miter" stroke="rgb(100%, 41.176471%, 70.588235%)" stroke-opacity="1" stroke-miterlimit="10" d="M 345.921875 260.867188 L 384.851562 234.851562 "/>
<path fill="none" stroke-width="1" stroke-linecap="butt" stroke-linejoin="miter" stroke="rgb(100%, 41.176471%, 70.588235%)" stroke-opacity="1" stroke-miterlimit="10" d="M 384.851562 234.851562 L 410.867188 195.921875 "/>
<path fill-rule="nonzero" fill="rgb(100%, 41.176471%, 70.588235%)" fill-opacity="1" d="M 412.5 162.992188 L 412.5 137.007812 L 435 150 Z M 412.5 162.992188 "/>
<path fill-rule="nonzero" fill="rgb(100%, 41.176471%, 70.588235%)" fill-opacity="1" d="M 410.867188 119.078125 L 405.5625 109.382812 L 395.867188 104.078125 L 405.5625 98.773438 L 410.867188 89.078125 L 416.167969 98.773438 L 425.867188 104.078125 L 416.167969 109.382812 Z M 410.867188 119.078125 "/>
<path fill-rule="nonzero" fill="rgb(100%, 41.176471%, 70.588235%)" fill-opacity="1" d="M 389.488281 79.414062 L 382.535156 72.28125 L 372.71875 73.964844 L 377.351562 65.148438 L 372.71875 56.332031 L 382.535156 58.015625 L 389.488281 50.882812 L 390.921875 60.738281 L 399.851562 65.148438 L 390.921875 69.554688 Z M 389.488281 79.414062 "/>
<path fill-rule="nonzero" fill="rgb(100%, 41.176471%, 70.588235%)" fill-opacity="1" d="M 353.421875 52.125 L 345.921875 46.632812 L 338.421875 52.125 L 339.425781 42.882812 L 330.921875 39.132812 L 339.425781 35.382812 L 338.421875 26.144531 L 345.921875 31.632812 L 353.421875 26.144531 L 352.417969 35.382812 L 360.921875 39.132812 L 352.417969 42.882812 Z M 353.421875 52.125 "/>
<path fill-rule="nonzero" fill="rgb(100%, 41.176471%, 70.588235%)" fill-opacity="1" d="M 309.351562 41.726562 L 301.667969 37.3125 L 296.664062 44.625 L 295.324219 35.863281 L 286.484375 36.507812 L 292.5 30 L 286.484375 23.492188 L 295.324219 24.136719 L 296.664062 15.375 L 301.667969 22.6875 L 309.351562 18.273438 L 306.757812 26.746094 L 315 30 L 306.757812 33.253906 Z M 309.351562 41.726562 "/>
<path fill-rule="nonzero" fill="rgb(100%, 41.176471%, 70.588235%)" fill-opacity="1" d="M 264.683594 49.742188 L 256.949219 46.0625 L 254.078125 54.132812 L 251.207031 46.0625 L 243.472656 49.742188 L 247.148438 42.003906 L 239.078125 39.132812 L 247.148438 36.265625 L 243.472656 28.527344 L 251.207031 32.207031 L 254.078125 24.132812 L 256.949219 32.207031 L 264.683594 28.527344 L 261.007812 36.265625 L 269.078125 39.132812 L 261.007812 42.003906 Z M 264.683594 49.742188 "/>
<path fill-rule="nonzero" fill="rgb(100%, 41.176471%, 70.588235%)" fill-opacity="1" d="M 226.636719 74.789062 L 218.898438 71.640625 L 217.75 79.917969 L 213.84375 72.535156 L 207.648438 78.136719 L 209.402344 69.96875 L 201.050781 70.277344 L 207.648438 65.148438 L 201.050781 60.015625 L 209.402344 60.328125 L 207.648438 52.15625 L 213.84375 57.761719 L 217.75 50.375 L 218.898438 58.652344 L 226.636719 55.503906 L 222.195312 62.582031 L 230.148438 65.148438 L 222.195312 67.710938 Z M 226.636719 74.789062 "/>
<path fill-rule="nonzero" fill="rgb(100%, 41.176471%, 70.588235%)" fill-opacity="1" d="M 201.269531 112.894531 L 193.542969 110.144531 L 193.769531 118.34375 L 189.132812 111.578125 L 184.5 118.34375 L 184.726562 110.144531 L 177 112.894531 L 182 106.394531 L 174.132812 104.078125 L 182 101.761719 L 177 95.261719 L 184.726562 98.011719 L 184.5 89.8125 L 189.132812 96.578125 L 193.769531 89.8125 L 193.542969 98.011719 L 201.269531 95.261719 L 196.265625 101.761719 L 204.132812 104.078125 L 196.265625 106.394531 Z M 201.269531 112.894531 "/>
<path fill-rule="nonzero" fill="rgb(100%, 41.176471%, 70.588235%)" fill-opacity="1" d="M 192.617188 158.109375 L 184.910156 155.667969 L 186.230469 163.644531 L 181.066406 157.421875 L 177.867188 164.847656 L 176.882812 156.820312 L 170.175781 161.335938 L 173.691406 154.054688 L 165.609375 154.226562 L 172.5 150 L 165.609375 145.773438 L 173.691406 145.945312 L 170.175781 138.664062 L 176.882812 143.179688 L 177.867188 135.152344 L 181.066406 142.578125 L 186.230469 136.355469 L 184.910156 144.332031 L 192.617188 141.890625 L 187.195312 147.886719 L 195 150 L 187.195312 152.113281 Z M 192.617188 158.109375 "/>
<path fill-rule="nonzero" fill="rgb(100%, 41.176471%, 70.588235%)" fill-opacity="1" d="M 202.125 203.421875 L 194.4375 201.226562 L 196.632812 208.914062 L 191.074219 203.167969 L 189.132812 210.921875 L 187.191406 203.167969 L 181.632812 208.914062 L 183.832031 201.226562 L 176.144531 203.421875 L 181.890625 197.863281 L 174.132812 195.921875 L 181.890625 193.980469 L 176.144531 188.421875 L 183.832031 190.617188 L 181.632812 182.929688 L 187.191406 188.675781 L 189.132812 180.921875 L 191.074219 188.675781 L 196.632812 182.929688 L 194.4375 190.617188 L 202.125 188.421875 L 196.378906 193.980469 L 204.132812 195.921875 L 196.378906 197.863281 Z M 202.125 203.421875 "/>
<path fill-rule="nonzero" fill="rgb(100%, 41.176471%, 70.588235%)" fill-opacity="1" d="M 228.429688 241.824219 L 220.761719 239.828125 L 223.667969 247.199219 L 217.808594 241.867188 L 216.957031 249.742188 L 214.242188 242.296875 L 209.828125 248.878906 L 210.886719 241.023438 L 203.917969 244.800781 L 208.507812 238.339844 L 200.582031 238.441406 L 207.648438 234.851562 L 200.582031 231.261719 L 208.507812 231.367188 L 203.917969 224.90625 L 210.886719 228.679688 L 209.828125 220.828125 L 214.242188 227.40625 L 216.957031 219.960938 L 217.808594 227.839844 L 223.667969 222.507812 L 220.761719 229.878906 L 228.429688 227.882812 L 222.429688 233.058594 L 230.148438 234.851562 L 222.429688 236.648438 Z M 228.429688 241.824219 "/>
<path fill-rule="nonzero" fill="rgb(100%, 41.176471%, 70.588235%)" fill-opacity="1" d="M 267.59375 267.375 L 259.941406 265.542969 L 263.429688 272.59375 L 257.332031 267.621094 L 257.414062 275.488281 L 254.078125 268.367188 L 250.738281 275.488281 L 250.824219 267.621094 L 244.726562 272.59375 L 248.214844 265.542969 L 240.5625 267.375 L 246.765625 262.535156 L 239.078125 260.867188 L 246.765625 259.195312 L 240.5625 254.355469 L 248.214844 256.1875 L 244.726562 249.136719 L 250.824219 254.109375 L 250.738281 246.242188 L 254.078125 253.367188 L 257.414062 246.242188 L 257.332031 254.109375 L 263.429688 249.136719 L 259.941406 256.1875 L 267.59375 254.355469 L 261.390625 259.195312 L 269.078125 260.867188 L 261.390625 262.535156 Z M 267.59375 267.375 "/>
<path fill-rule="nonzero" fill="rgb(100%, 41.176471%, 70.588235%)" fill-opacity="1" d="M 313.703125 276.101562 L 306.066406 274.410156 L 310.035156 281.148438 L 303.75 276.496094 L 304.636719 284.265625 L 300.785156 277.457031 L 298.433594 284.917969 L 297.683594 277.132812 L 292.5 282.992188 L 294.980469 275.574219 L 287.863281 278.816406 L 293.148438 273.050781 L 285.328125 273.117188 L 292.5 270 L 285.328125 266.882812 L 293.148438 266.949219 L 287.863281 261.183594 L 294.980469 264.425781 L 292.5 257.007812 L 297.683594 262.867188 L 298.433594 255.082031 L 300.785156 262.542969 L 304.636719 255.734375 L 303.75 263.503906 L 310.035156 258.851562 L 306.066406 265.589844 L 313.703125 263.898438 L 307.335938 268.441406 L 315 270 L 307.335938 271.558594 Z M 313.703125 276.101562 "/>
<path fill-rule="nonzero" fill="rgb(100%, 41.176471%, 70.588235%)" fill-opacity="1" d="M 359.78125 266.605469 L 352.15625 265.03125 L 356.527344 271.472656 L 350.089844 267.101562 L 351.664062 274.722656 L 347.386719 268.222656 L 345.921875 275.867188 L 344.457031 268.222656 L 340.183594 274.722656 L 341.753906 267.101562 L 335.316406 271.472656 L 339.6875 265.03125 L 332.0625 266.605469 L 338.566406 262.328125 L 330.921875 260.867188 L 338.566406 259.402344 L 332.0625 255.125 L 339.6875 256.699219 L 335.316406 250.257812 L 341.753906 254.628906 L 340.183594 247.007812 L 344.457031 253.507812 L 345.921875 245.867188 L 347.386719 253.507812 L 351.664062 247.007812 L 350.089844 254.628906 L 356.527344 250.257812 L 352.15625 256.699219 L 359.78125 255.125 L 353.277344 259.402344 L 360.921875 260.867188 L 353.277344 262.328125 Z M 359.78125 266.605469 "/>
<path fill-rule="nonzero" fill="rgb(100%, 41.176471%, 70.588235%)" fill-opacity="1" d="M 398.839844 240.269531 L 391.230469 238.800781 L 395.9375 244.957031 L 389.371094 240.839844 L 391.539062 248.28125 L 386.90625 242.066406 L 386.238281 249.789062 L 384.160156 242.320312 L 380.746094 249.28125 L 381.511719 241.566406 L 375.8125 246.824219 L 379.308594 239.90625 L 372.097656 242.75 L 377.859375 237.5625 L 370.109375 237.609375 L 377.351562 234.851562 L 370.109375 232.097656 L 377.859375 232.144531 L 372.097656 226.957031 L 379.308594 229.800781 L 375.8125 222.882812 L 381.511719 228.140625 L 380.746094 220.425781 L 384.160156 227.386719 L 386.238281 219.917969 L 386.90625 227.640625 L 391.539062 221.425781 L 389.371094 228.867188 L 395.9375 224.746094 L 391.230469 230.90625 L 398.839844 229.433594 L 392.226562 233.476562 L 399.851562 234.851562 L 392.226562 236.230469 Z M 398.839844 240.269531 "/>
<path fill-rule="nonzero" fill="rgb(100%, 41.176471%, 70.588235%)" fill-opacity="1" d="M 424.960938 201.050781 L 417.359375 199.671875 L 422.355469 205.5625 L 415.6875 201.667969 L 418.367188 208.914062 L 413.429688 202.96875 L 413.46875 210.695312 L 410.867188 203.421875 L 408.261719 210.695312 L 408.300781 202.96875 L 403.367188 208.914062 L 406.042969 201.667969 L 399.375 205.5625 L 404.371094 199.671875 L 396.769531 201.050781 L 403.480469 197.222656 L 395.867188 195.921875 L 403.480469 194.621094 L 396.769531 190.792969 L 404.371094 192.171875 L 399.375 186.28125 L 406.042969 190.175781 L 403.367188 182.929688 L 408.300781 188.875 L 408.261719 181.148438 L 410.867188 188.421875 L 413.46875 181.148438 L 413.429688 188.875 L 418.367188 182.929688 L 415.6875 190.175781 L 422.355469 186.28125 L 417.359375 192.171875 L 424.960938 190.792969 L 418.25 194.621094 L 425.867188 195.921875 L 418.25 197.222656 Z M 424.960938 201.050781 "/>
</svg>
