<?xml version="1.0" encoding="UTF-8"?>
<svg xmlns="http://www.w3.org/2000/svg" xmlns:xlink="http://www.w3.org/1999/xlink" width="600pt" height="300pt" viewBox="0 0 600 300" version="1.1">
<g id="surface96">
<rect x="0" y="0" width="600" height="300" style="fill:rgb(10.196078%,10.196078%,10.196078%);fill-opacity:1;stroke:none;"/>
<path style="fill:none;stroke-width:1;stroke-linecap:butt;stroke-linejoin:miter;stroke:rgb(100%,64.705882%,0%);stroke-opacity:1;stroke-miterlimit:10;" d="M 236.234375 156.683594 L 178.121094 161.769531 "/>
<path style="fill:none;stroke-width:1;stroke-linecap:butt;stroke-linejoin:miter;stroke:rgb(100%,64.705882%,0%);stroke-opacity:1;stroke-miterlimit:10;" d="M 236.234375 156.683594 L 274.855469 91.277344 "/>
<path style="fill:none;stroke-width:1;stroke-linecap:butt;stroke-linejoin:miter;stroke:rgb(100%,64.705882%,0%);stroke-opacity:1;stroke-miterlimit:10;" d="M 236.234375 156.683594 L 286.488281 214.207031 "/>
<path style="fill:none;stroke-width:1;stroke-linecap:butt;stroke-linejoin:miter;stroke:rgb(100%,64.705882%,0%);stroke-opacity:1;stroke-miterlimit:10;" d="M 178.121094 161.769531 L 193.941406 87.527344 "/>
<path style="fill:none;stroke-width:1;stroke-linecap:butt;stroke-linejoin:miter;stroke:rgb(100%,64.705882%,0%);stroke-opacity:1;stroke-miterlimit:10;" d="M 178.121094 161.769531 L 208 231.347656 "/>
<path style="fill:none;stroke-width:1;stroke-linecap:butt;stroke-linejoin:miter;stroke:rgb(100%,64.705882%,0%);stroke-opacity:1;stroke-miterlimit:10;" d="M 193.941406 87.527344 L 251.21875 37.769531 "/>
<path style="fill:none;stroke-width:1;stroke-linecap:butt;stroke-linejoin:miter;stroke:rgb(100%,64.705882%,0%);stroke-opacity:1;stroke-miterlimit:10;" d="M 193.941406 87.527344 L 242.992188 116.285156 "/>
<path style="fill:none;stroke-width:1;stroke-linecap:butt;stroke-linejoin:miter;stroke:rgb(100%,64.705882%,0%);stroke-opacity:1;stroke-miterlimit:10;" d="M 251.21875 37.769531 L 274.855469 91.277344 "/>
<path style="fill:none;stroke-width:1;stroke-linecap:butt;stroke-linejoin:miter;stroke:rgb(100%,64.705882%,0%);stroke-opacity:1;stroke-miterlimit:10;" d="M 251.21875 37.769531 L 326.566406 30 "/>
<path style="fill:none;stroke-width:1;stroke-linecap:butt;stroke-linejoin:miter;stroke:rgb(100%,64.705882%,0%);stroke-opacity:1;stroke-miterlimit:10;" d="M 274.855469 91.277344 L 349.390625 107.328125 "/>
<path style="fill:none;stroke-width:1;stroke-linecap:butt;stroke-linejoin:miter;stroke:rgb(100%,64.705882%,0%);stroke-opacity:1;stroke-miterlimit:10;" d="M 357.003906 183.710938 L 286.488281 214.207031 "/>
<path style="fill:none;stroke-width:1;stroke-linecap:butt;stroke-linejoin:miter;stroke:rgb(100%,64.705882%,0%);stroke-opacity:1;stroke-miterlimit:10;" d="M 357.003906 183.710938 L 349.390625 107.328125 "/>
<path style="fill:none;stroke-width:1;stroke-linecap:butt;stroke-linejoin:miter;stroke:rgb(100%,64.705882%,0%);stroke-opacity:1;stroke-miterlimit:10;" d="M 357.003906 183.710938 L 406.054688 212.472656 "/>
<path style="fill:none;stroke-width:1;stroke-linecap:butt;stroke-linejoin:miter;stroke:rgb(100%,64.705882%,0%);stroke-opacity:1;stroke-miterlimit:10;" d="M 286.488281 214.207031 L 273.429688 270 "/>
<path style="fill:none;stroke-width:1;stroke-linecap:butt;stroke-linejoin:miter;stroke:rgb(100%,64.705882%,0%);stroke-opacity:1;stroke-miterlimit:10;" d="M 273.429688 270 L 208 231.347656 "/>
<path style="fill:none;stroke-width:1;stroke-linecap:butt;stroke-linejoin:miter;stroke:rgb(100%,64.705882%,0%);stroke-opacity:1;stroke-miterlimit:10;" d="M 273.429688 270 L 348.777344 262.226562 "/>
<path style="fill:none;stroke-width:1;stroke-linecap:butt;stroke-linejoin:miter;stroke:rgb(100%,64.705882%,0%);stroke-opacity:1;stroke-miterlimit:10;" d="M 208 231.347656 L 250.601562 192.671875 "/>
<path style="fill:none;stroke-width:1;stroke-linecap:butt;stroke-linejoin:miter;stroke:rgb(100%,64.705882%,0%);stroke-opacity:1;stroke-miterlimit:10;" d="M 250.601562 192.671875 L 242.992188 116.285156 "/>
<path style="fill:none;stroke-width:1;stroke-linecap:butt;stroke-linejoin:miter;stroke:rgb(100%,64.705882%,0%);stroke-opacity:1;stroke-miterlimit:10;" d="M 250.601562 192.671875 L 325.140625 208.714844 "/>
<path style="fill:none;stroke-width:1;stroke-linecap:butt;stroke-linejoin:miter;stroke:rgb(100%,64.705882%,0%);stroke-opacity:1;stroke-miterlimit:10;" d="M 242.992188 116.285156 L 313.511719 85.792969 "/>
<path style="fill:none;stroke-width:1;stroke-linecap:butt;stroke-linejoin:miter;stroke:rgb(100%,64.705882%,0%);stroke-opacity:1;stroke-miterlimit:10;" d="M 313.511719 85.792969 L 326.566406 30 "/>
<path style="fill:none;stroke-width:1;stroke-linecap:butt;stroke-linejoin:miter;stroke:rgb(100%,64.705882%,0%);stroke-opacity:1;stroke-miterlimit:10;" d="M 313.511719 85.792969 L 363.769531 143.3125 "/>
<path style="fill:none;stroke-width:1;stroke-linecap:butt;stroke-linejoin:miter;stroke:rgb(100%,64.705882%,0%);stroke-opacity:1;stroke-miterlimit:10;" d="M 326.566406 30 L 391.996094 68.652344 "/>
<path style="fill:none;stroke-width:1;stroke-linecap:butt;stroke-linejoin:miter;stroke:rgb(100%,64.705882%,0%);stroke-opacity:1;stroke-miterlimit:10;" d="M 391.996094 68.652344 L 349.390625 107.328125 "/>
<path style="fill:none;stroke-width:1;stroke-linecap:butt;stroke-linejoin:miter;stroke:rgb(100%,64.705882%,0%);stroke-opacity:1;stroke-miterlimit:10;" d="M 391.996094 68.652344 L 421.878906 138.230469 "/>
<path style="fill:none;stroke-width:1;stroke-linecap:butt;stroke-linejoin:miter;stroke:rgb(100%,64.705882%,0%);stroke-opacity:1;stroke-miterlimit:10;" d="M 348.777344 262.226562 L 325.140625 208.714844 "/>
<path style="fill:none;stroke-width:1;stroke-linecap:butt;stroke-linejoin:miter;stroke:rgb(100%,64.705882%,0%);stroke-opacity:1;stroke-miterlimit:10;" d="M 348.777344 262.226562 L 406.054688 212.472656 "/>
<path style="fill:none;stroke-width:1;stroke-linecap:butt;stroke-linejoin:miter;stroke:rgb(100%,64.705882%,0%);stroke-opacity:1;stroke-miterlimit:10;" d="M 325.140625 208.714844 L 363.769531 143.3125 "/>
<path style="fill:none;stroke-width:1;stroke-linecap:butt;stroke-linejoin:miter;stroke:rgb(100%,64.705882%,0%);stroke-opacity:1;stroke-miterlimit:10;" d="M 363.769531 143.3125 L 421.878906 138.230469 "/>
<path style="fill:none;stroke-width:1;stroke-linecap:butt;stroke-linejoin:miter;stroke:rgb(100%,64.705882%,0%);stroke-opacity:1;stroke-miterlimit:10;" d="M 421.878906 138.230469 L 406.054688 212.472656 "/>
<path style="fill-rule:nonzero;fill:rgb(100%,64.705882%,0%);fill-opacity:1;stroke-width:1;stroke-linecap:butt;stroke-linejoin:miter;stroke:rgb(100%,64.705882%,0%);stroke-opacity:1;stroke-miterlimit:10;" d="M 242.234375 156.683594 C 242.234375 159.996094 239.546875 162.683594 236.234375 162.683594 C 232.917969 162.683594 230.234375 159.996094 230.234375 156.683594 C 230.234375 153.367188 232.917969 150.683594 236.234375 150.683594 C 239.546875 150.683594 242.234375 153.367188 242.234375 156.683594 Z M 242.234375 156.683594 "/>
<path style="fill-rule:nonzero;fill:rgb(100%,64.705882%,0%);fill-opacity:1;stroke-width:1;stroke-linecap:butt;stroke-linejoin:miter;stroke:rgb(100%,64.705882%,0%);stroke-opacity:1;stroke-miterlimit:10;" d="M 184.121094 161.769531 C 184.121094 165.082031 181.433594 167.769531 178.121094 167.769531 C 174.804688 167.769531 172.121094 165.082031 172.121094 161.769531 C 172.121094 158.457031 174.804688 155.769531 178.121094 155.769531 C 181.433594 155.769531 184.121094 158.457031 184.121094 161.769531 Z M 184.121094 161.769531 "/>
<path style="fill-rule:nonzero;fill:rgb(100%,64.705882%,0%);fill-opacity:1;stroke-width:1;stroke-linecap:butt;stroke-linejoin:miter;stroke:rgb(100%,64.705882%,0%);stroke-opacity:1;stroke-miterlimit:10;" d="M 199.941406 87.527344 C 199.941406 90.839844 197.257812 93.527344 193.941406 93.527344 C 190.628906 93.527344 187.941406 90.839844 187.941406 87.527344 C 187.941406 84.214844 190.628906 81.527344 193.941406 81.527344 C 197.257812 81.527344 199.941406 84.214844 199.941406 87.527344 Z M 199.941406 87.527344 "/>
<path style="fill-rule:nonzero;fill:rgb(100%,64.705882%,0%);fill-opacity:1;stroke-width:1;stroke-linecap:butt;stroke-linejoin:miter;stroke:rgb(100%,64.705882%,0%);stroke-opacity:1;stroke-miterlimit:10;" d="M 257.21875 37.769531 C 257.21875 41.082031 254.53125 43.769531 251.21875 43.769531 C 247.902344 43.769531 245.21875 41.082031 245.21875 37.769531 C 245.21875 34.457031 247.902344 31.769531 251.21875 31.769531 C 254.53125 31.769531 257.21875 34.457031 257.21875 37.769531 Z M 257.21875 37.769531 "/>
<path style="fill-rule:nonzero;fill:rgb(100%,64.705882%,0%);fill-opacity:1;stroke-width:1;stroke-linecap:butt;stroke-linejoin:miter;stroke:rgb(100%,64.705882%,0%);stroke-opacity:1;stroke-miterlimit:10;" d="M 280.855469 91.277344 C 280.855469 94.589844 278.167969 97.277344 274.855469 97.277344 C 271.539062 97.277344 268.855469 94.589844 268.855469 91.277344 C 268.855469 87.960938 271.539062 85.277344 274.855469 85.277344 C 278.167969 85.277344 280.855469 87.960938 280.855469 91.277344 Z M 280.855469 91.277344 "/>
<path style="fill-rule:nonzero;fill:rgb(100%,64.705882%,0%);fill-opacity:1;stroke-width:1;stroke-linecap:butt;stroke-linejoin:miter;stroke:rgb(100%,64.705882%,0%);stroke-opacity:1;stroke-miterlimit:10;" d="M 363.003906 183.710938 C 363.003906 187.027344 360.320312 189.710938 357.003906 189.710938 C 353.691406 189.710938 351.003906 187.027344 351.003906 183.710938 C 351.003906 180.398438 353.691406 177.710938 357.003906 177.710938 C 360.320312 177.710938 363.003906 180.398438 363.003906 183.710938 Z M 363.003906 183.710938 "/>
<path style="fill-rule:nonzero;fill:rgb(100%,64.705882%,0%);fill-opacity:1;stroke-width:1;stroke-linecap:butt;stroke-linejoin:miter;stroke:rgb(100%,64.705882%,0%);stroke-opacity:1;stroke-miterlimit:10;" d="M 292.488281 214.207031 C 292.488281 217.519531 289.800781 220.207031 286.488281 220.207031 C 283.171875 220.207031 280.488281 217.519531 280.488281 214.207031 C 280.488281 210.894531 283.171875 208.207031 286.488281 208.207031 C 289.800781 208.207031 292.488281 210.894531 292.488281 214.207031 Z M 292.488281 214.207031 "/>
<path style="fill-rule:nonzero;fill:rgb(100%,64.705882%,0%);fill-opacity:1;stroke-width:1;stroke-linecap:butt;stroke-linejoin:miter;stroke:rgb(100%,64.705882%,0%);stroke-opacity:1;stroke-miterlimit:10;" d="M 279.429688 270 C 279.429688 273.3125 276.746094 276 273.429688 276 C 270.117188 276 267.429688 273.3125 267.429688 270 C 267.429688 266.6875 270.117188 264 273.429688 264 C 276.746094 264 279.429688 266.6875 279.429688 270 Z M 279.429688 270 "/>
<path style="fill-rule:nonzero;fill:rgb(100%,64.705882%,0%);fill-opacity:1;stroke-width:1;stroke-linecap:butt;stroke-linejoin:miter;stroke:rgb(100%,64.705882%,0%);stroke-opacity:1;stroke-miterlimit:10;" d="M 214 231.347656 C 214 234.660156 211.3125 237.347656 208 237.347656 C 204.6875 237.347656 202 234.660156 202 231.347656 C 202 228.03125 204.6875 225.347656 208 225.347656 C 211.3125 225.347656 214 228.03125 214 231.347656 Z M 214 231.347656 "/>
<path style="fill-rule:nonzero;fill:rgb(100%,64.705882%,0%);fill-opacity:1;stroke-width:1;stroke-linecap:butt;stroke-linejoin:miter;stroke:rgb(100%,64.705882%,0%);stroke-opacity:1;stroke-miterlimit:10;" d="M 256.601562 192.671875 C 256.601562 195.988281 253.914062 198.671875 250.601562 198.671875 C 247.289062 198.671875 244.601562 195.988281 244.601562 192.671875 C 244.601562 189.359375 247.289062 186.671875 250.601562 186.671875 C 253.914062 186.671875 256.601562 189.359375 256.601562 192.671875 Z M 256.601562 192.671875 "/>
<path style="fill-rule:nonzero;fill:rgb(100%,64.705882%,0%);fill-opacity:1;stroke-width:1;stroke-linecap:butt;stroke-linejoin:miter;stroke:rgb(100%,64.705882%,0%);stroke-opacity:1;stroke-miterlimit:10;" d="M 248.992188 116.285156 C 248.992188 119.601562 246.304688 122.285156 242.992188 122.285156 C 239.679688 122.285156 236.992188 119.601562 236.992188 116.285156 C 236.992188 112.972656 239.679688 110.285156 242.992188 110.285156 C 246.304688 110.285156 248.992188 112.972656 248.992188 116.285156 Z M 248.992188 116.285156 "/>
<path style="fill-rule:nonzero;fill:rgb(100%,64.705882%,0%);fill-opacity:1;stroke-width:1;stroke-linecap:butt;stroke-linejoin:miter;stroke:rgb(100%,64.705882%,0%);stroke-opacity:1;stroke-miterlimit:10;" d="M 319.511719 85.792969 C 319.511719 89.109375 316.824219 91.792969 313.511719 91.792969 C 310.199219 91.792969 307.511719 89.109375 307.511719 85.792969 C 307.511719 82.480469 310.199219 79.792969 313.511719 79.792969 C 316.824219 79.792969 319.511719 82.480469 319.511719 85.792969 Z M 319.511719 85.792969 "/>
<path style="fill-rule:nonzero;fill:rgb(100%,64.705882%,0%);fill-opacity:1;stroke-width:1;stroke-linecap:butt;stroke-linejoin:miter;stroke:rgb(100%,64.705882%,0%);stroke-opacity:1;stroke-miterlimit:10;" d="M 332.566406 30 C 332.566406 33.3125 329.878906 36 326.566406 36 C 323.25 36 320.566406 33.3125 320.566406 30 C 320.566406 26.6875 323.25 24 326.566406 24 C 329.878906 24 332.566406 26.6875 332.566406 30 Z M 332.566406 30 "/>
<path style="fill-rule:nonzero;fill:rgb(100%,64.705882%,0%);fill-opacity:1;stroke-width:1;stroke-linecap:butt;stroke-linejoin:miter;stroke:rgb(100%,64.705882%,0%);stroke-opacity:1;stroke-miterlimit:10;" d="M 397.996094 68.652344 C 397.996094 71.96875 395.308594 74.652344 391.996094 74.652344 C 388.683594 74.652344 385.996094 71.96875 385.996094 68.652344 C 385.996094 65.339844 388.683594 62.652344 391.996094 62.652344 C 395.308594 62.652344 397.996094 65.339844 397.996094 68.652344 Z M 397.996094 68.652344 "/>
<path style="fill-rule:nonzero;fill:rgb(100%,64.705882%,0%);fill-opacity:1;stroke-width:1;stroke-linecap:butt;stroke-linejoin:miter;stroke:rgb(100%,64.705882%,0%);stroke-opacity:1;stroke-miterlimit:10;" d="M 355.390625 107.328125 C 355.390625 110.640625 352.707031 113.328125 349.390625 113.328125 C 346.078125 113.328125 343.390625 110.640625 343.390625 107.328125 C 343.390625 104.011719 346.078125 101.328125 349.390625 101.328125 C 352.707031 101.328125 355.390625 104.011719 355.390625 107.328125 Z M 355.390625 107.328125 "/>
<path style="fill-rule:nonzero;fill:rgb(100%,64.705882%,0%);fill-opacity:1;stroke-width:1;stroke-linecap:butt;stroke-linejoin:miter;stroke:rgb(100%,64.705882%,0%);stroke-opacity:1;stroke-miterlimit:10;" d="M 354.777344 262.226562 C 354.777344 265.542969 352.089844 268.226562 348.777344 268.226562 C 345.460938 268.226562 342.777344 265.542969 342.777344 262.226562 C 342.777344 258.914062 345.460938 256.226562 348.777344 256.226562 C 352.089844 256.226562 354.777344 258.914062 354.777344 262.226562 Z M 354.777344 262.226562 "/>
<path style="fill-rule:nonzero;fill:rgb(100%,64.705882%,0%);fill-opacity:1;stroke-width:1;stroke-linecap:butt;stroke-linejoin:miter;stroke:rgb(100%,64.705882%,0%);stroke-opacity:1;stroke-miterlimit:10;" d="M 331.140625 208.714844 C 331.140625 212.03125 328.457031 214.714844 325.140625 214.714844 C 321.828125 214.714844 319.140625 212.03125 319.140625 208.714844 C 319.140625 205.402344 321.828125 202.714844 325.140625 202.714844 C 328.457031 202.714844 331.140625 205.402344 331.140625 208.714844 Z M 331.140625 208.714844 "/>
<path style="fill-rule:nonzero;fill:rgb(100%,64.705882%,0%);fill-opacity:1;stroke-width:1;stroke-linecap:butt;stroke-linejoin:miter;stroke:rgb(100%,64.705882%,0%);stroke-opacity:1;stroke-miterlimit:10;" d="M 369.769531 143.3125 C 369.769531 146.628906 367.085938 149.3125 363.769531 149.3125 C 360.457031 149.3125 357.769531 146.628906 357.769531 143.3125 C 357.769531 140 360.457031 137.3125 363.769531 137.3125 C 367.085938 137.3125 369.769531 140 369.769531 143.3125 Z M 369.769531 143.3125 "/>
<path style="fill-rule:nonzero;fill:rgb(100%,64.705882%,0%);fill-opacity:1;stroke-width:1;stroke-linecap:butt;stroke-linejoin:miter;stroke:rgb(100%,64.705882%,0%);stroke-opacity:1;stroke-miterlimit:10;" d="M 427.878906 138.230469 C 427.878906 141.542969 425.195312 144.230469 421.878906 144.230469 C 418.566406 144.230469 415.878906 141.542969 415.878906 138.230469 C 415.878906 134.917969 418.566406 132.230469 421.878906 132.230469 C 425.195312 132.230469 427.878906 134.917969 427.878906 138.230469 Z M 427.878906 138.230469 "/>
<path style="fill-rule:nonzero;fill:rgb(100%,64.705882%,0%);fill-opacity:1;stroke-width:1;stroke-linecap:butt;stroke-linejoin:miter;stroke:rgb(100%,64.705882%,0%);stroke-opacity:1;stroke-miterlimit:10;" d="M 412.054688 212.472656 C 412.054688 215.789062 409.367188 218.472656 406.054688 218.472656 C 402.738281 218.472656 400.054688 215.789062 400.054688 212.472656 C 400.054688 209.160156 402.738281 206.472656 406.054688 206.472656 C 409.367188 206.472656 412.054688 209.160156 412.054688 212.472656 Z M 412.054688 212.472656 "/>
</g>
</svg>
