<?xml version="1.0" encoding="UTF-8"?>
<svg xmlns="http://www.w3.org/2000/svg" xmlns:xlink="http://www.w3.org/1999/xlink" width="800pt" height="300pt" viewBox="0 0 800 300" version="1.1">
<g id="surface26">
<path style=" stroke:none;fill-rule:nonzero;fill:rgb(10.196079%,10.196079%,10.196079%);fill-opacity:1;" d="M 0 0 L 400 0 L 400 300 L 0 300 Z M 0 0 "/>
<path style="fill:none;stroke-width:1;stroke-linecap:butt;stroke-linejoin:miter;stroke:rgb(100%,84.313726%,0%);stroke-opacity:1;stroke-miterlimit:10;" d="M 320 150 L 237.082031 35.875 "/>
<path style="fill:none;stroke-width:1;stroke-linecap:butt;stroke-linejoin:miter;stroke:rgb(100%,84.313726%,0%);stroke-opacity:1;stroke-miterlimit:10;" d="M 237.082031 264.125 L 102.917969 220.535156 "/>
<path style="fill:none;stroke-width:1;stroke-linecap:butt;stroke-linejoin:miter;stroke:rgb(100%,84.313726%,0%);stroke-opacity:1;stroke-miterlimit:10;" d="M 162.917969 264.125 L 297.082031 79.464844 "/>
<path style="fill:none;stroke-width:1;stroke-linecap:butt;stroke-linejoin:miter;stroke:rgb(100%,84.313726%,0%);stroke-opacity:1;stroke-miterlimit:10;" d="M 102.917969 220.535156 L 102.917969 79.464844 "/>
<path style="fill:none;stroke-width:1;stroke-linecap:butt;stroke-linejoin:miter;stroke:rgb(100%,84.313726%,0%);stroke-opacity:1;stroke-miterlimit:10;" d="M 102.917969 220.535156 L 162.917969 35.875 "/>
<path style="fill-rule:nonzero;fill:rgb(100%,84.313726%,0%);fill-opacity:1;stroke-width:1;stroke-linecap:butt;stroke-linejoin:miter;stroke:rgb(100%,84.313726%,0%);stroke-opacity:1;stroke-miterlimit:10;" d="M 326 150 C 326 153.3125 323.3125 156 320 156 C 316.6875 156 314 153.3125 314 150 C 314 146.6875 316.6875 144 320 144 C 323.3125 144 326 146.6875 326 150 Z M 326 150 "/>
<path style=" stroke:none;fill-rule:nonzero;fill:rgb(0%,0%,0%);fill-opacity:1;" d="M 318.335938 152.875 L 319.867188 152.875 L 319.867188 148.109375 C 319.867188 147.964844 319.871094 147.8125 319.882812 147.65625 L 318.648438 148.703125 C 318.59375 148.746094 318.542969 148.773438 318.492188 148.78125 C 318.449219 148.78125 318.40625 148.78125 318.367188 148.78125 C 318.335938 148.773438 318.296875 148.757812 318.257812 148.734375 C 318.226562 148.714844 318.203125 148.695312 318.195312 148.671875 L 317.898438 148.25 L 320.039062 146.40625 L 320.804688 146.40625 L 320.804688 152.875 L 322.210938 152.875 L 322.210938 153.59375 L 318.335938 153.59375 Z M 318.335938 152.875 "/>
<path style="fill-rule:nonzero;fill:rgb(100%,84.313726%,0%);fill-opacity:1;stroke-width:1;stroke-linecap:butt;stroke-linejoin:miter;stroke:rgb(100%,84.313726%,0%);stroke-opacity:1;stroke-miterlimit:10;" d="M 303.082031 220.535156 C 303.082031 223.847656 300.394531 226.535156 297.082031 226.535156 C 293.769531 226.535156 291.082031 223.847656 291.082031 220.535156 C 291.082031 217.21875 293.769531 214.535156 297.082031 214.535156 C 300.394531 214.535156 303.082031 217.21875 303.082031 220.535156 Z M 303.082031 220.535156 "/>
<path style=" stroke:none;fill-rule:nonzero;fill:rgb(0%,0%,0%);fill-opacity:1;" d="M 297.136719 216.910156 C 297.449219 216.910156 297.734375 216.957031 297.996094 217.050781 C 298.265625 217.136719 298.496094 217.265625 298.683594 217.441406 C 298.878906 217.609375 299.03125 217.816406 299.136719 218.066406 C 299.25 218.316406 299.308594 218.597656 299.308594 218.910156 C 299.308594 219.183594 299.265625 219.433594 299.183594 219.660156 C 299.109375 219.878906 299.003906 220.09375 298.871094 220.300781 C 298.734375 220.511719 298.578125 220.714844 298.402344 220.910156 C 298.222656 221.109375 298.035156 221.308594 297.839844 221.503906 L 295.996094 223.378906 C 296.128906 223.347656 296.265625 223.324219 296.402344 223.300781 C 296.546875 223.269531 296.683594 223.253906 296.808594 223.253906 L 299.121094 223.253906 C 299.214844 223.253906 299.292969 223.285156 299.355469 223.347656 C 299.417969 223.410156 299.449219 223.488281 299.449219 223.582031 L 299.449219 224.160156 L 294.636719 224.160156 L 294.636719 223.832031 C 294.636719 223.769531 294.652344 223.703125 294.683594 223.628906 C 294.714844 223.558594 294.753906 223.496094 294.808594 223.441406 L 297.089844 221.144531 C 297.277344 220.949219 297.449219 220.765625 297.605469 220.597656 C 297.761719 220.421875 297.890625 220.246094 297.996094 220.066406 C 298.109375 219.890625 298.191406 219.714844 298.246094 219.535156 C 298.308594 219.347656 298.339844 219.152344 298.339844 218.941406 C 298.339844 218.734375 298.308594 218.558594 298.246094 218.410156 C 298.183594 218.253906 298.09375 218.125 297.980469 218.019531 C 297.863281 217.917969 297.730469 217.84375 297.574219 217.800781 C 297.425781 217.75 297.265625 217.722656 297.089844 217.722656 C 296.910156 217.722656 296.75 217.75 296.605469 217.800781 C 296.457031 217.84375 296.328125 217.910156 296.214844 218.003906 C 296.097656 218.097656 296 218.207031 295.917969 218.332031 C 295.84375 218.457031 295.785156 218.59375 295.746094 218.738281 C 295.703125 218.863281 295.644531 218.949219 295.574219 218.988281 C 295.511719 219.03125 295.410156 219.042969 295.277344 219.019531 L 294.777344 218.941406 C 294.828125 218.609375 294.921875 218.316406 295.058594 218.066406 C 295.191406 217.808594 295.359375 217.59375 295.558594 217.425781 C 295.765625 217.25 296.003906 217.121094 296.277344 217.035156 C 296.546875 216.953125 296.832031 216.910156 297.136719 216.910156 Z M 297.136719 216.910156 "/>
<path style="fill-rule:nonzero;fill:rgb(100%,84.313726%,0%);fill-opacity:1;stroke-width:1;stroke-linecap:butt;stroke-linejoin:miter;stroke:rgb(100%,84.313726%,0%);stroke-opacity:1;stroke-miterlimit:10;" d="M 243.082031 264.125 C 243.082031 267.441406 240.394531 270.125 237.082031 270.125 C 233.769531 270.125 231.082031 267.441406 231.082031 264.125 C 231.082031 260.8125 233.769531 258.125 237.082031 258.125 C 240.394531 258.125 243.082031 260.8125 243.082031 264.125 Z M 243.082031 264.125 "/>
<path style=" stroke:none;fill-rule:nonzero;fill:rgb(0%,0%,0%);fill-opacity:1;" d="M 237.183594 260.503906 C 237.484375 260.503906 237.765625 260.550781 238.027344 260.644531 C 238.285156 260.730469 238.503906 260.855469 238.683594 261.019531 C 238.871094 261.175781 239.015625 261.371094 239.121094 261.597656 C 239.222656 261.816406 239.277344 262.0625 239.277344 262.332031 C 239.277344 262.5625 239.246094 262.765625 239.183594 262.941406 C 239.128906 263.121094 239.050781 263.277344 238.949219 263.410156 C 238.84375 263.546875 238.714844 263.660156 238.558594 263.753906 C 238.410156 263.847656 238.238281 263.921875 238.042969 263.972656 C 238.511719 264.109375 238.859375 264.324219 239.089844 264.613281 C 239.316406 264.894531 239.433594 265.253906 239.433594 265.691406 C 239.433594 266.027344 239.371094 266.328125 239.246094 266.597656 C 239.121094 266.859375 238.949219 267.082031 238.730469 267.269531 C 238.511719 267.449219 238.253906 267.589844 237.964844 267.691406 C 237.671875 267.785156 237.363281 267.832031 237.042969 267.832031 C 236.667969 267.832031 236.34375 267.785156 236.074219 267.691406 C 235.800781 267.597656 235.566406 267.472656 235.371094 267.316406 C 235.183594 267.152344 235.027344 266.953125 234.902344 266.722656 C 234.785156 266.484375 234.6875 266.230469 234.605469 265.957031 L 235.011719 265.785156 C 235.113281 265.734375 235.214844 265.71875 235.308594 265.738281 C 235.410156 265.761719 235.488281 265.824219 235.542969 265.925781 C 235.582031 266.019531 235.636719 266.128906 235.699219 266.253906 C 235.769531 266.378906 235.859375 266.5 235.964844 266.613281 C 236.078125 266.730469 236.21875 266.828125 236.386719 266.910156 C 236.550781 266.984375 236.765625 267.019531 237.027344 267.019531 C 237.265625 267.019531 237.480469 266.984375 237.667969 266.910156 C 237.855469 266.828125 238.003906 266.722656 238.121094 266.597656 C 238.246094 266.472656 238.339844 266.332031 238.402344 266.175781 C 238.464844 266.019531 238.496094 265.863281 238.496094 265.707031 C 238.496094 265.519531 238.46875 265.347656 238.417969 265.191406 C 238.363281 265.035156 238.269531 264.902344 238.136719 264.785156 C 238.011719 264.671875 237.828125 264.582031 237.589844 264.519531 C 237.359375 264.457031 237.058594 264.425781 236.683594 264.425781 L 236.683594 263.738281 C 236.984375 263.730469 237.238281 263.699219 237.449219 263.644531 C 237.667969 263.582031 237.84375 263.5 237.980469 263.394531 C 238.113281 263.28125 238.207031 263.152344 238.261719 263.003906 C 238.324219 262.847656 238.355469 262.683594 238.355469 262.503906 C 238.355469 262.296875 238.324219 262.121094 238.261719 261.972656 C 238.199219 261.828125 238.109375 261.707031 237.996094 261.613281 C 237.890625 261.511719 237.761719 261.4375 237.605469 261.394531 C 237.457031 261.34375 237.296875 261.316406 237.121094 261.316406 C 236.941406 261.316406 236.78125 261.34375 236.636719 261.394531 C 236.488281 261.4375 236.359375 261.503906 236.246094 261.597656 C 236.128906 261.691406 236.03125 261.800781 235.949219 261.925781 C 235.875 262.050781 235.816406 262.1875 235.777344 262.332031 C 235.734375 262.457031 235.675781 262.542969 235.605469 262.582031 C 235.542969 262.625 235.441406 262.636719 235.308594 262.613281 L 234.808594 262.535156 C 234.859375 262.203125 234.953125 261.910156 235.089844 261.660156 C 235.222656 261.402344 235.394531 261.1875 235.605469 261.019531 C 235.8125 260.84375 236.046875 260.714844 236.308594 260.628906 C 236.578125 260.546875 236.871094 260.503906 237.183594 260.503906 Z M 237.183594 260.503906 "/>
<path style="fill-rule:nonzero;fill:rgb(100%,84.313726%,0%);fill-opacity:1;stroke-width:1;stroke-linecap:butt;stroke-linejoin:miter;stroke:rgb(100%,84.313726%,0%);stroke-opacity:1;stroke-miterlimit:10;" d="M 168.917969 264.125 C 168.917969 267.441406 166.230469 270.125 162.917969 270.125 C 159.605469 270.125 156.917969 267.441406 156.917969 264.125 C 156.917969 260.8125 159.605469 258.125 162.917969 258.125 C 166.230469 258.125 168.917969 260.8125 168.917969 264.125 Z M 168.917969 264.125 "/>
<path style=" stroke:none;fill-rule:nonzero;fill:rgb(0%,0%,0%);fill-opacity:1;" d="M 164.488281 265.109375 L 165.535156 265.109375 L 165.535156 265.65625 C 165.535156 265.71875 165.519531 265.773438 165.488281 265.8125 C 165.457031 265.84375 165.402344 265.859375 165.332031 265.859375 L 164.488281 265.859375 L 164.488281 267.71875 L 163.660156 267.71875 L 163.660156 265.859375 L 160.488281 265.859375 C 160.425781 265.859375 160.367188 265.839844 160.316406 265.796875 C 160.261719 265.753906 160.230469 265.703125 160.222656 265.640625 L 160.128906 265.15625 L 163.597656 260.53125 L 164.488281 260.53125 Z M 163.660156 262.265625 C 163.660156 262.171875 163.660156 262.074219 163.660156 261.96875 C 163.667969 261.855469 163.683594 261.746094 163.707031 261.640625 L 161.144531 265.109375 L 163.660156 265.109375 Z M 163.660156 262.265625 "/>
<path style="fill-rule:nonzero;fill:rgb(100%,84.313726%,0%);fill-opacity:1;stroke-width:1;stroke-linecap:butt;stroke-linejoin:miter;stroke:rgb(100%,84.313726%,0%);stroke-opacity:1;stroke-miterlimit:10;" d="M 108.917969 220.535156 C 108.917969 223.847656 106.230469 226.535156 102.917969 226.535156 C 99.605469 226.535156 96.917969 223.847656 96.917969 220.535156 C 96.917969 217.21875 99.605469 214.535156 102.917969 214.535156 C 106.230469 214.535156 108.917969 217.21875 108.917969 220.535156 Z M 108.917969 220.535156 "/>
<path style=" stroke:none;fill-rule:nonzero;fill:rgb(0%,0%,0%);fill-opacity:1;" d="M 104.941406 217.355469 C 104.941406 217.492188 104.898438 217.605469 104.816406 217.699219 C 104.730469 217.785156 104.589844 217.824219 104.394531 217.824219 L 102.175781 217.824219 L 101.863281 219.636719 C 102.226562 219.554688 102.566406 219.511719 102.878906 219.511719 C 103.253906 219.511719 103.582031 219.570312 103.863281 219.683594 C 104.152344 219.800781 104.394531 219.957031 104.582031 220.152344 C 104.777344 220.339844 104.925781 220.570312 105.019531 220.839844 C 105.121094 221.101562 105.175781 221.382812 105.175781 221.683594 C 105.175781 222.070312 105.105469 222.417969 104.972656 222.730469 C 104.835938 223.035156 104.652344 223.292969 104.425781 223.511719 C 104.195312 223.730469 103.917969 223.902344 103.597656 224.027344 C 103.285156 224.140625 102.945312 224.199219 102.582031 224.199219 C 102.363281 224.199219 102.152344 224.175781 101.957031 224.136719 C 101.769531 224.097656 101.585938 224.039062 101.410156 223.964844 C 101.242188 223.894531 101.085938 223.808594 100.941406 223.714844 C 100.792969 223.621094 100.667969 223.527344 100.566406 223.433594 L 100.847656 223.027344 C 100.910156 222.933594 100.992188 222.886719 101.097656 222.886719 C 101.167969 222.886719 101.246094 222.914062 101.332031 222.964844 C 101.414062 223.019531 101.511719 223.074219 101.628906 223.136719 C 101.753906 223.199219 101.894531 223.257812 102.050781 223.308594 C 102.214844 223.363281 102.410156 223.386719 102.628906 223.386719 C 102.867188 223.386719 103.085938 223.351562 103.285156 223.277344 C 103.480469 223.195312 103.648438 223.082031 103.785156 222.933594 C 103.917969 222.789062 104.023438 222.617188 104.097656 222.417969 C 104.167969 222.210938 104.207031 221.980469 104.207031 221.730469 C 104.207031 221.511719 104.175781 221.320312 104.113281 221.152344 C 104.050781 220.976562 103.957031 220.824219 103.832031 220.699219 C 103.707031 220.574219 103.542969 220.480469 103.347656 220.417969 C 103.160156 220.347656 102.933594 220.308594 102.675781 220.308594 C 102.320312 220.308594 101.941406 220.371094 101.535156 220.496094 L 100.941406 220.324219 L 101.519531 216.949219 L 104.941406 216.949219 Z M 104.941406 217.355469 "/>
<path style="fill-rule:nonzero;fill:rgb(100%,84.313726%,0%);fill-opacity:1;stroke-width:1;stroke-linecap:butt;stroke-linejoin:miter;stroke:rgb(100%,84.313726%,0%);stroke-opacity:1;stroke-miterlimit:10;" d="M 86 150 C 86 153.3125 83.3125 156 80 156 C 76.6875 156 74 153.3125 74 150 C 74 146.6875 76.6875 144 80 144 C 83.3125 144 86 146.6875 86 150 Z M 86 150 "/>
<path style=" stroke:none;fill-rule:nonzero;fill:rgb(0%,0%,0%);fill-opacity:1;" d="M 79.507812 149.085938 C 79.445312 149.160156 79.386719 149.234375 79.335938 149.304688 C 79.28125 149.378906 79.230469 149.453125 79.179688 149.523438 C 79.335938 149.410156 79.511719 149.328125 79.710938 149.273438 C 79.917969 149.210938 80.136719 149.179688 80.367188 149.179688 C 80.648438 149.179688 80.914062 149.226562 81.164062 149.320312 C 81.421875 149.414062 81.652344 149.554688 81.851562 149.742188 C 82.046875 149.921875 82.203125 150.144531 82.320312 150.414062 C 82.433594 150.675781 82.492188 150.976562 82.492188 151.320312 C 82.492188 151.644531 82.429688 151.953125 82.304688 152.242188 C 82.1875 152.523438 82.023438 152.773438 81.804688 152.992188 C 81.585938 153.203125 81.320312 153.367188 81.007812 153.492188 C 80.703125 153.605469 80.371094 153.664062 80.007812 153.664062 C 79.640625 153.664062 79.3125 153.605469 79.023438 153.492188 C 78.730469 153.378906 78.480469 153.210938 78.273438 152.992188 C 78.0625 152.773438 77.902344 152.515625 77.789062 152.210938 C 77.671875 151.910156 77.617188 151.570312 77.617188 151.195312 C 77.617188 150.882812 77.683594 150.550781 77.820312 150.195312 C 77.964844 149.84375 78.1875 149.460938 78.492188 149.054688 L 80.289062 146.648438 C 80.339844 146.578125 80.40625 146.519531 80.492188 146.476562 C 80.585938 146.4375 80.683594 146.414062 80.789062 146.414062 L 81.648438 146.414062 Z M 78.539062 151.367188 C 78.539062 151.585938 78.570312 151.789062 78.632812 151.976562 C 78.695312 152.164062 78.789062 152.328125 78.914062 152.460938 C 79.039062 152.585938 79.1875 152.691406 79.367188 152.773438 C 79.554688 152.847656 79.761719 152.882812 79.992188 152.882812 C 80.21875 152.882812 80.429688 152.847656 80.617188 152.773438 C 80.8125 152.691406 80.980469 152.585938 81.117188 152.460938 C 81.25 152.328125 81.355469 152.171875 81.429688 151.992188 C 81.5 151.804688 81.539062 151.601562 81.539062 151.382812 C 81.539062 151.15625 81.5 150.953125 81.429688 150.773438 C 81.355469 150.585938 81.25 150.429688 81.117188 150.304688 C 80.992188 150.171875 80.835938 150.070312 80.648438 150.007812 C 80.46875 149.9375 80.273438 149.898438 80.054688 149.898438 C 79.8125 149.898438 79.601562 149.941406 79.414062 150.023438 C 79.226562 150.097656 79.0625 150.203125 78.929688 150.335938 C 78.804688 150.472656 78.703125 150.628906 78.632812 150.804688 C 78.570312 150.984375 78.539062 151.171875 78.539062 151.367188 Z M 78.539062 151.367188 "/>
<path style="fill-rule:nonzero;fill:rgb(100%,84.313726%,0%);fill-opacity:1;stroke-width:1;stroke-linecap:butt;stroke-linejoin:miter;stroke:rgb(100%,84.313726%,0%);stroke-opacity:1;stroke-miterlimit:10;" d="M 108.917969 79.464844 C 108.917969 82.78125 106.230469 85.464844 102.917969 85.464844 C 99.605469 85.464844 96.917969 82.78125 96.917969 79.464844 C 96.917969 76.152344 99.605469 73.464844 102.917969 73.464844 C 106.230469 73.464844 108.917969 76.152344 108.917969 79.464844 Z M 108.917969 79.464844 "/>
<path style=" stroke:none;fill-rule:nonzero;fill:rgb(0%,0%,0%);fill-opacity:1;" d="M 105.441406 75.882812 L 105.441406 76.304688 C 105.441406 76.429688 105.425781 76.53125 105.394531 76.601562 C 105.363281 76.675781 105.335938 76.742188 105.316406 76.804688 L 102.378906 82.726562 C 102.335938 82.820312 102.273438 82.898438 102.191406 82.960938 C 102.117188 83.023438 102.007812 83.054688 101.863281 83.054688 L 101.191406 83.054688 L 104.160156 77.210938 C 104.253906 77.046875 104.351562 76.894531 104.457031 76.757812 L 100.769531 76.757812 C 100.707031 76.757812 100.652344 76.738281 100.613281 76.695312 C 100.570312 76.644531 100.550781 76.585938 100.550781 76.523438 L 100.550781 75.882812 Z M 105.441406 75.882812 "/>
<path style="fill-rule:nonzero;fill:rgb(100%,84.313726%,0%);fill-opacity:1;stroke-width:1;stroke-linecap:butt;stroke-linejoin:miter;stroke:rgb(100%,84.313726%,0%);stroke-opacity:1;stroke-miterlimit:10;" d="M 168.917969 35.875 C 168.917969 39.1875 166.230469 41.875 162.917969 41.875 C 159.605469 41.875 156.917969 39.1875 156.917969 35.875 C 156.917969 32.558594 159.605469 29.875 162.917969 29.875 C 166.230469 29.875 168.917969 32.558594 168.917969 35.875 Z M 168.917969 35.875 "/>
<path style=" stroke:none;fill-rule:nonzero;fill:rgb(0%,0%,0%);fill-opacity:1;" d="M 162.925781 39.578125 C 162.558594 39.578125 162.226562 39.53125 161.925781 39.4375 C 161.632812 39.34375 161.378906 39.210938 161.160156 39.03125 C 160.949219 38.84375 160.785156 38.625 160.660156 38.375 C 160.542969 38.125 160.488281 37.84375 160.488281 37.53125 C 160.488281 37.074219 160.601562 36.699219 160.832031 36.40625 C 161.070312 36.105469 161.414062 35.890625 161.863281 35.765625 C 161.488281 35.621094 161.207031 35.414062 161.019531 35.140625 C 160.832031 34.859375 160.738281 34.527344 160.738281 34.140625 C 160.738281 33.871094 160.789062 33.621094 160.894531 33.390625 C 160.996094 33.164062 161.144531 32.964844 161.332031 32.796875 C 161.527344 32.621094 161.757812 32.484375 162.019531 32.390625 C 162.289062 32.296875 162.589844 32.25 162.925781 32.25 C 163.246094 32.25 163.539062 32.296875 163.800781 32.390625 C 164.070312 32.484375 164.300781 32.621094 164.488281 32.796875 C 164.683594 32.964844 164.835938 33.164062 164.941406 33.390625 C 165.042969 33.621094 165.097656 33.871094 165.097656 34.140625 C 165.097656 34.527344 165.003906 34.859375 164.816406 35.140625 C 164.628906 35.414062 164.347656 35.621094 163.972656 35.765625 C 164.417969 35.890625 164.757812 36.105469 164.988281 36.40625 C 165.226562 36.699219 165.347656 37.074219 165.347656 37.53125 C 165.347656 37.84375 165.285156 38.125 165.160156 38.375 C 165.042969 38.625 164.878906 38.84375 164.660156 39.03125 C 164.449219 39.210938 164.195312 39.34375 163.894531 39.4375 C 163.601562 39.53125 163.277344 39.578125 162.925781 39.578125 Z M 162.925781 38.828125 C 163.152344 38.828125 163.355469 38.796875 163.535156 38.734375 C 163.710938 38.664062 163.863281 38.570312 163.988281 38.453125 C 164.113281 38.339844 164.207031 38.203125 164.269531 38.046875 C 164.339844 37.882812 164.378906 37.703125 164.378906 37.515625 C 164.378906 37.277344 164.335938 37.074219 164.253906 36.90625 C 164.179688 36.730469 164.074219 36.589844 163.941406 36.484375 C 163.804688 36.371094 163.648438 36.292969 163.472656 36.25 C 163.292969 36.199219 163.113281 36.171875 162.925781 36.171875 C 162.726562 36.171875 162.539062 36.199219 162.363281 36.25 C 162.183594 36.292969 162.027344 36.371094 161.894531 36.484375 C 161.769531 36.589844 161.664062 36.730469 161.582031 36.90625 C 161.496094 37.074219 161.457031 37.277344 161.457031 37.515625 C 161.457031 37.703125 161.488281 37.882812 161.550781 38.046875 C 161.621094 38.203125 161.722656 38.339844 161.847656 38.453125 C 161.972656 38.570312 162.121094 38.664062 162.300781 38.734375 C 162.488281 38.796875 162.695312 38.828125 162.925781 38.828125 Z M 162.925781 35.40625 C 163.152344 35.40625 163.347656 35.371094 163.503906 35.296875 C 163.660156 35.226562 163.785156 35.132812 163.878906 35.015625 C 163.980469 34.902344 164.054688 34.773438 164.097656 34.625 C 164.148438 34.46875 164.175781 34.3125 164.175781 34.15625 C 164.175781 34 164.148438 33.851562 164.097656 33.703125 C 164.042969 33.558594 163.964844 33.433594 163.863281 33.328125 C 163.757812 33.214844 163.628906 33.125 163.472656 33.0625 C 163.316406 33 163.132812 32.96875 162.925781 32.96875 C 162.707031 32.96875 162.519531 33 162.363281 33.0625 C 162.207031 33.125 162.074219 33.214844 161.972656 33.328125 C 161.867188 33.433594 161.789062 33.558594 161.738281 33.703125 C 161.683594 33.851562 161.660156 34 161.660156 34.15625 C 161.660156 34.3125 161.679688 34.46875 161.722656 34.625 C 161.773438 34.773438 161.847656 34.902344 161.941406 35.015625 C 162.042969 35.132812 162.175781 35.226562 162.332031 35.296875 C 162.496094 35.371094 162.695312 35.40625 162.925781 35.40625 Z M 162.925781 35.40625 "/>
<path style="fill-rule:nonzero;fill:rgb(100%,84.313726%,0%);fill-opacity:1;stroke-width:1;stroke-linecap:butt;stroke-linejoin:miter;stroke:rgb(100%,84.313726%,0%);stroke-opacity:1;stroke-miterlimit:10;" d="M 243.082031 35.875 C 243.082031 39.1875 240.394531 41.875 237.082031 41.875 C 233.769531 41.875 231.082031 39.1875 231.082031 35.875 C 231.082031 32.558594 233.769531 29.875 237.082031 29.875 C 240.394531 29.875 243.082031 32.558594 243.082031 35.875 Z M 243.082031 35.875 "/>
<path style=" stroke:none;fill-rule:nonzero;fill:rgb(0%,0%,0%);fill-opacity:1;" d="M 237.636719 36.65625 C 237.707031 36.5625 237.777344 36.476562 237.839844 36.390625 C 237.902344 36.308594 237.957031 36.230469 238.011719 36.15625 C 237.832031 36.292969 237.628906 36.398438 237.402344 36.46875 C 237.183594 36.53125 236.949219 36.5625 236.699219 36.5625 C 236.425781 36.5625 236.171875 36.523438 235.933594 36.4375 C 235.691406 36.34375 235.480469 36.214844 235.292969 36.046875 C 235.105469 35.871094 234.953125 35.652344 234.839844 35.390625 C 234.734375 35.132812 234.683594 34.839844 234.683594 34.515625 C 234.683594 34.203125 234.738281 33.90625 234.855469 33.625 C 234.980469 33.34375 235.144531 33.105469 235.355469 32.90625 C 235.5625 32.699219 235.8125 32.539062 236.105469 32.421875 C 236.40625 32.308594 236.730469 32.25 237.074219 32.25 C 237.425781 32.25 237.746094 32.308594 238.027344 32.421875 C 238.308594 32.527344 238.546875 32.683594 238.746094 32.890625 C 238.941406 33.101562 239.09375 33.351562 239.199219 33.640625 C 239.3125 33.921875 239.371094 34.230469 239.371094 34.5625 C 239.371094 34.78125 239.347656 34.984375 239.308594 35.171875 C 239.277344 35.359375 239.222656 35.542969 239.152344 35.71875 C 239.078125 35.898438 238.988281 36.074219 238.886719 36.25 C 238.792969 36.429688 238.675781 36.605469 238.542969 36.78125 L 236.808594 39.28125 C 236.765625 39.34375 236.703125 39.398438 236.621094 39.4375 C 236.535156 39.480469 236.4375 39.5 236.324219 39.5 L 235.449219 39.5 Z M 238.464844 34.453125 C 238.464844 34.234375 238.425781 34.042969 238.355469 33.875 C 238.292969 33.699219 238.199219 33.546875 238.074219 33.421875 C 237.949219 33.296875 237.796875 33.203125 237.621094 33.140625 C 237.453125 33.070312 237.265625 33.03125 237.058594 33.03125 C 236.847656 33.03125 236.65625 33.070312 236.480469 33.140625 C 236.300781 33.214844 236.152344 33.3125 236.027344 33.4375 C 235.902344 33.554688 235.800781 33.699219 235.730469 33.875 C 235.667969 34.054688 235.636719 34.242188 235.636719 34.4375 C 235.636719 34.886719 235.753906 35.234375 235.996094 35.484375 C 236.246094 35.726562 236.582031 35.84375 237.011719 35.84375 C 237.25 35.84375 237.457031 35.808594 237.636719 35.734375 C 237.8125 35.652344 237.964844 35.546875 238.089844 35.421875 C 238.214844 35.296875 238.308594 35.152344 238.371094 34.984375 C 238.433594 34.820312 238.464844 34.640625 238.464844 34.453125 Z M 238.464844 34.453125 "/>
<path style="fill-rule:nonzero;fill:rgb(100%,84.313726%,0%);fill-opacity:1;stroke-width:1;stroke-linecap:butt;stroke-linejoin:miter;stroke:rgb(100%,84.313726%,0%);stroke-opacity:1;stroke-miterlimit:10;" d="M 303.082031 79.464844 C 303.082031 82.78125 300.394531 85.464844 297.082031 85.464844 C 293.769531 85.464844 291.082031 82.78125 291.082031 79.464844 C 291.082031 76.152344 293.769531 73.464844 297.082031 73.464844 C 300.394531 73.464844 303.082031 76.152344 303.082031 79.464844 Z M 303.082031 79.464844 "/>
<path style=" stroke:none;fill-rule:nonzero;fill:rgb(0%,0%,0%);fill-opacity:1;" d="M 292.515625 82.375 L 294.046875 82.375 L 294.046875 77.609375 C 294.046875 77.464844 294.050781 77.3125 294.0625 77.15625 L 292.828125 78.203125 C 292.773438 78.246094 292.722656 78.273438 292.671875 78.28125 C 292.628906 78.28125 292.585938 78.28125 292.546875 78.28125 C 292.515625 78.273438 292.476562 78.257812 292.4375 78.234375 C 292.40625 78.214844 292.382812 78.195312 292.375 78.171875 L 292.078125 77.75 L 294.21875 75.90625 L 294.984375 75.90625 L 294.984375 82.375 L 296.390625 82.375 L 296.390625 83.09375 L 292.515625 83.09375 Z M 292.515625 82.375 "/>
<path style=" stroke:none;fill-rule:nonzero;fill:rgb(0%,0%,0%);fill-opacity:1;" d="M 302.597656 79.5 C 302.597656 80.125 302.527344 80.671875 302.394531 81.140625 C 302.257812 81.601562 302.070312 81.980469 301.832031 82.28125 C 301.601562 82.585938 301.324219 82.808594 301.003906 82.953125 C 300.679688 83.097656 300.335938 83.171875 299.972656 83.171875 C 299.605469 83.171875 299.261719 83.097656 298.941406 82.953125 C 298.628906 82.808594 298.351562 82.585938 298.113281 82.28125 C 297.882812 81.980469 297.699219 81.601562 297.566406 81.140625 C 297.441406 80.671875 297.378906 80.125 297.378906 79.5 C 297.378906 78.875 297.441406 78.335938 297.566406 77.875 C 297.699219 77.417969 297.882812 77.039062 298.113281 76.734375 C 298.351562 76.433594 298.628906 76.210938 298.941406 76.0625 C 299.261719 75.917969 299.605469 75.84375 299.972656 75.84375 C 300.335938 75.84375 300.679688 75.917969 301.003906 76.0625 C 301.324219 76.210938 301.601562 76.433594 301.832031 76.734375 C 302.070312 77.039062 302.257812 77.417969 302.394531 77.875 C 302.527344 78.335938 302.597656 78.875 302.597656 79.5 Z M 301.613281 79.5 C 301.613281 78.960938 301.566406 78.507812 301.472656 78.140625 C 301.378906 77.777344 301.257812 77.484375 301.113281 77.265625 C 300.964844 77.039062 300.792969 76.875 300.597656 76.78125 C 300.398438 76.6875 300.191406 76.640625 299.972656 76.640625 C 299.761719 76.640625 299.558594 76.6875 299.363281 76.78125 C 299.164062 76.875 298.988281 77.039062 298.832031 77.265625 C 298.683594 77.484375 298.566406 77.777344 298.472656 78.140625 C 298.386719 78.507812 298.347656 78.960938 298.347656 79.5 C 298.347656 80.042969 298.386719 80.5 298.472656 80.875 C 298.566406 81.242188 298.683594 81.53125 298.832031 81.75 C 298.988281 81.96875 299.164062 82.132812 299.363281 82.234375 C 299.558594 82.328125 299.761719 82.375 299.972656 82.375 C 300.191406 82.375 300.398438 82.328125 300.597656 82.234375 C 300.792969 82.132812 300.964844 81.96875 301.113281 81.75 C 301.257812 81.53125 301.378906 81.242188 301.472656 80.875 C 301.566406 80.5 301.613281 80.042969 301.613281 79.5 Z M 301.613281 79.5 "/>
<path style=" stroke:none;fill-rule:nonzero;fill:rgb(10.196079%,10.196079%,10.196079%);fill-opacity:1;" d="M 400 0 L 800 0 L 800 300 L 400 300 Z M 400 0 "/>
<path style="fill:none;stroke-width:1;stroke-linecap:butt;stroke-linejoin:miter;stroke:rgb(69.803923%,13.333334%,13.333334%);stroke-opacity:1;stroke-miterlimit:10;" d="M 314.292969 148.144531 C 249.164062 126.984375 184.035156 105.824219 118.90625 84.660156 " transform="matrix(1,0,0,1,400,0)"/>
<path style=" stroke:none;fill-rule:nonzero;fill:rgb(69.803923%,13.333334%,13.333334%);fill-opacity:1;" d="M 517.75 89.113281 L 508.625 81.320312 L 520.585938 80.378906 "/>
<path style="fill:none;stroke-width:1;stroke-linecap:butt;stroke-linejoin:miter;stroke:rgb(69.803923%,13.333334%,13.333334%);stroke-opacity:1;stroke-miterlimit:10;" d="M 237.082031 258.125 C 237.082031 189.648438 237.082031 121.167969 237.082031 52.6875 " transform="matrix(1,0,0,1,400,0)"/>
<path style=" stroke:none;fill-rule:nonzero;fill:rgb(69.803923%,13.333334%,13.333334%);fill-opacity:1;" d="M 632.488281 52.960938 L 637.082031 41.875 L 641.675781 52.960938 "/>
<path style="fill:none;stroke-width:1;stroke-linecap:butt;stroke-linejoin:miter;stroke:rgb(69.803923%,13.333334%,13.333334%);stroke-opacity:1;stroke-miterlimit:10;" d="M 108.625 218.679688 C 173.753906 197.519531 238.882812 176.355469 304.011719 155.195312 " transform="matrix(1,0,0,1,400,0)"/>
<path style=" stroke:none;fill-rule:nonzero;fill:rgb(69.803923%,13.333334%,13.333334%);fill-opacity:1;" d="M 702.332031 150.914062 L 714.292969 151.855469 L 705.167969 159.648438 "/>
<path style="fill-rule:nonzero;fill:rgb(69.803923%,13.333334%,13.333334%);fill-opacity:1;stroke-width:1;stroke-linecap:butt;stroke-linejoin:miter;stroke:rgb(69.803923%,13.333334%,13.333334%);stroke-opacity:1;stroke-miterlimit:10;" d="M 326 150 C 326 153.3125 323.3125 156 320 156 C 316.6875 156 314 153.3125 314 150 C 314 146.6875 316.6875 144 320 144 C 323.3125 144 326 146.6875 326 150 Z M 326 150 " transform="matrix(1,0,0,1,400,0)"/>
<path style=" stroke:none;fill-rule:nonzero;fill:rgb(100%,100%,100%);fill-opacity:1;" d="M 718.335938 152.875 L 719.867188 152.875 L 719.867188 148.109375 C 719.867188 147.964844 719.871094 147.8125 719.882812 147.65625 L 718.648438 148.703125 C 718.59375 148.746094 718.542969 148.773438 718.492188 148.78125 C 718.449219 148.78125 718.40625 148.78125 718.367188 148.78125 C 718.335938 148.773438 718.296875 148.757812 718.257812 148.734375 C 718.226562 148.714844 718.203125 148.695312 718.195312 148.671875 L 717.898438 148.25 L 720.039062 146.40625 L 720.804688 146.40625 L 720.804688 152.875 L 722.210938 152.875 L 722.210938 153.59375 L 718.335938 153.59375 Z M 718.335938 152.875 "/>
<path style="fill-rule:nonzero;fill:rgb(69.803923%,13.333334%,13.333334%);fill-opacity:1;stroke-width:1;stroke-linecap:butt;stroke-linejoin:miter;stroke:rgb(69.803923%,13.333334%,13.333334%);stroke-opacity:1;stroke-miterlimit:10;" d="M 243.082031 264.125 C 243.082031 267.441406 240.394531 270.125 237.082031 270.125 C 233.769531 270.125 231.082031 267.441406 231.082031 264.125 C 231.082031 260.8125 233.769531 258.125 237.082031 258.125 C 240.394531 258.125 243.082031 260.8125 243.082031 264.125 Z M 243.082031 264.125 " transform="matrix(1,0,0,1,400,0)"/>
<path style=" stroke:none;fill-rule:nonzero;fill:rgb(100%,100%,100%);fill-opacity:1;" d="M 637.136719 260.503906 C 637.449219 260.503906 637.734375 260.550781 637.996094 260.644531 C 638.265625 260.730469 638.496094 260.859375 638.683594 261.035156 C 638.878906 261.203125 639.03125 261.410156 639.136719 261.660156 C 639.25 261.910156 639.308594 262.191406 639.308594 262.503906 C 639.308594 262.777344 639.265625 263.027344 639.183594 263.253906 C 639.109375 263.472656 639.003906 263.6875 638.871094 263.894531 C 638.734375 264.105469 638.578125 264.308594 638.402344 264.503906 C 638.222656 264.703125 638.035156 264.902344 637.839844 265.097656 L 635.996094 266.972656 C 636.128906 266.941406 636.265625 266.917969 636.402344 266.894531 C 636.546875 266.863281 636.683594 266.847656 636.808594 266.847656 L 639.121094 266.847656 C 639.214844 266.847656 639.292969 266.878906 639.355469 266.941406 C 639.417969 267.003906 639.449219 267.082031 639.449219 267.175781 L 639.449219 267.753906 L 634.636719 267.753906 L 634.636719 267.425781 C 634.636719 267.363281 634.652344 267.296875 634.683594 267.222656 C 634.714844 267.152344 634.753906 267.089844 634.808594 267.035156 L 637.089844 264.738281 C 637.277344 264.542969 637.449219 264.359375 637.605469 264.191406 C 637.761719 264.015625 637.890625 263.839844 637.996094 263.660156 C 638.109375 263.484375 638.191406 263.308594 638.246094 263.128906 C 638.308594 262.941406 638.339844 262.746094 638.339844 262.535156 C 638.339844 262.328125 638.308594 262.152344 638.246094 262.003906 C 638.183594 261.847656 638.09375 261.71875 637.980469 261.613281 C 637.863281 261.511719 637.730469 261.4375 637.574219 261.394531 C 637.425781 261.34375 637.265625 261.316406 637.089844 261.316406 C 636.910156 261.316406 636.75 261.34375 636.605469 261.394531 C 636.457031 261.4375 636.328125 261.503906 636.214844 261.597656 C 636.097656 261.691406 636 261.800781 635.917969 261.925781 C 635.84375 262.050781 635.785156 262.1875 635.746094 262.332031 C 635.703125 262.457031 635.644531 262.542969 635.574219 262.582031 C 635.511719 262.625 635.410156 262.636719 635.277344 262.613281 L 634.777344 262.535156 C 634.828125 262.203125 634.921875 261.910156 635.058594 261.660156 C 635.191406 261.402344 635.359375 261.1875 635.558594 261.019531 C 635.765625 260.84375 636.003906 260.714844 636.277344 260.628906 C 636.546875 260.546875 636.832031 260.503906 637.136719 260.503906 Z M 637.136719 260.503906 "/>
<path style="fill-rule:nonzero;fill:rgb(69.803923%,13.333334%,13.333334%);fill-opacity:1;stroke-width:1;stroke-linecap:butt;stroke-linejoin:miter;stroke:rgb(69.803923%,13.333334%,13.333334%);stroke-opacity:1;stroke-miterlimit:10;" d="M 108.917969 220.535156 C 108.917969 223.847656 106.230469 226.535156 102.917969 226.535156 C 99.605469 226.535156 96.917969 223.847656 96.917969 220.535156 C 96.917969 217.21875 99.605469 214.535156 102.917969 214.535156 C 106.230469 214.535156 108.917969 217.21875 108.917969 220.535156 Z M 108.917969 220.535156 " transform="matrix(1,0,0,1,400,0)"/>
<path style=" stroke:none;fill-rule:nonzero;fill:rgb(100%,100%,100%);fill-opacity:1;" d="M 503.019531 216.910156 C 503.320312 216.910156 503.601562 216.957031 503.863281 217.050781 C 504.121094 217.136719 504.339844 217.261719 504.519531 217.425781 C 504.707031 217.582031 504.851562 217.777344 504.957031 218.003906 C 505.058594 218.222656 505.113281 218.46875 505.113281 218.738281 C 505.113281 218.96875 505.082031 219.171875 505.019531 219.347656 C 504.964844 219.527344 504.886719 219.683594 504.785156 219.816406 C 504.679688 219.953125 504.550781 220.066406 504.394531 220.160156 C 504.246094 220.253906 504.074219 220.328125 503.878906 220.378906 C 504.347656 220.515625 504.695312 220.730469 504.925781 221.019531 C 505.152344 221.300781 505.269531 221.660156 505.269531 222.097656 C 505.269531 222.433594 505.207031 222.734375 505.082031 223.003906 C 504.957031 223.265625 504.785156 223.488281 504.566406 223.675781 C 504.347656 223.855469 504.089844 223.996094 503.800781 224.097656 C 503.507812 224.191406 503.199219 224.238281 502.878906 224.238281 C 502.503906 224.238281 502.179688 224.191406 501.910156 224.097656 C 501.636719 224.003906 501.402344 223.878906 501.207031 223.722656 C 501.019531 223.558594 500.863281 223.359375 500.738281 223.128906 C 500.621094 222.890625 500.523438 222.636719 500.441406 222.363281 L 500.847656 222.191406 C 500.949219 222.140625 501.050781 222.125 501.144531 222.144531 C 501.246094 222.167969 501.324219 222.230469 501.378906 222.332031 C 501.417969 222.425781 501.472656 222.535156 501.535156 222.660156 C 501.605469 222.785156 501.695312 222.90625 501.800781 223.019531 C 501.914062 223.136719 502.054688 223.234375 502.222656 223.316406 C 502.386719 223.390625 502.601562 223.425781 502.863281 223.425781 C 503.101562 223.425781 503.316406 223.390625 503.503906 223.316406 C 503.691406 223.234375 503.839844 223.128906 503.957031 223.003906 C 504.082031 222.878906 504.175781 222.738281 504.238281 222.582031 C 504.300781 222.425781 504.332031 222.269531 504.332031 222.113281 C 504.332031 221.925781 504.304688 221.753906 504.253906 221.597656 C 504.199219 221.441406 504.105469 221.308594 503.972656 221.191406 C 503.847656 221.078125 503.664062 220.988281 503.425781 220.925781 C 503.195312 220.863281 502.894531 220.832031 502.519531 220.832031 L 502.519531 220.144531 C 502.820312 220.136719 503.074219 220.105469 503.285156 220.050781 C 503.503906 219.988281 503.679688 219.90625 503.816406 219.800781 C 503.949219 219.6875 504.042969 219.558594 504.097656 219.410156 C 504.160156 219.253906 504.191406 219.089844 504.191406 218.910156 C 504.191406 218.703125 504.160156 218.527344 504.097656 218.378906 C 504.035156 218.234375 503.945312 218.113281 503.832031 218.019531 C 503.726562 217.917969 503.597656 217.84375 503.441406 217.800781 C 503.292969 217.75 503.132812 217.722656 502.957031 217.722656 C 502.777344 217.722656 502.617188 217.75 502.472656 217.800781 C 502.324219 217.84375 502.195312 217.910156 502.082031 218.003906 C 501.964844 218.097656 501.867188 218.207031 501.785156 218.332031 C 501.710938 218.457031 501.652344 218.59375 501.613281 218.738281 C 501.570312 218.863281 501.511719 218.949219 501.441406 218.988281 C 501.378906 219.03125 501.277344 219.042969 501.144531 219.019531 L 500.644531 218.941406 C 500.695312 218.609375 500.789062 218.316406 500.925781 218.066406 C 501.058594 217.808594 501.230469 217.59375 501.441406 217.425781 C 501.648438 217.25 501.882812 217.121094 502.144531 217.035156 C 502.414062 216.953125 502.707031 216.910156 503.019531 216.910156 Z M 503.019531 216.910156 "/>
<path style="fill-rule:nonzero;fill:rgb(69.803923%,13.333334%,13.333334%);fill-opacity:1;stroke-width:1;stroke-linecap:butt;stroke-linejoin:miter;stroke:rgb(69.803923%,13.333334%,13.333334%);stroke-opacity:1;stroke-miterlimit:10;" d="M 108.917969 79.464844 C 108.917969 82.78125 106.230469 85.464844 102.917969 85.464844 C 99.605469 85.464844 96.917969 82.78125 96.917969 79.464844 C 96.917969 76.152344 99.605469 73.464844 102.917969 73.464844 C 106.230469 73.464844 108.917969 76.152344 108.917969 79.464844 Z M 108.917969 79.464844 " transform="matrix(1,0,0,1,400,0)"/>
<path style=" stroke:none;fill-rule:nonzero;fill:rgb(100%,100%,100%);fill-opacity:1;" d="M 504.488281 80.445312 L 505.535156 80.445312 L 505.535156 80.992188 C 505.535156 81.054688 505.519531 81.109375 505.488281 81.148438 C 505.457031 81.179688 505.402344 81.195312 505.332031 81.195312 L 504.488281 81.195312 L 504.488281 83.054688 L 503.660156 83.054688 L 503.660156 81.195312 L 500.488281 81.195312 C 500.425781 81.195312 500.367188 81.175781 500.316406 81.132812 C 500.261719 81.09375 500.230469 81.039062 500.222656 80.976562 L 500.128906 80.492188 L 503.597656 75.867188 L 504.488281 75.867188 Z M 503.660156 77.601562 C 503.660156 77.507812 503.660156 77.410156 503.660156 77.304688 C 503.667969 77.191406 503.683594 77.082031 503.707031 76.976562 L 501.144531 80.445312 L 503.660156 80.445312 Z M 503.660156 77.601562 "/>
<path style="fill-rule:nonzero;fill:rgb(69.803923%,13.333334%,13.333334%);fill-opacity:1;stroke-width:1;stroke-linecap:butt;stroke-linejoin:miter;stroke:rgb(69.803923%,13.333334%,13.333334%);stroke-opacity:1;stroke-miterlimit:10;" d="M 243.082031 35.875 C 243.082031 39.1875 240.394531 41.875 237.082031 41.875 C 233.769531 41.875 231.082031 39.1875 231.082031 35.875 C 231.082031 32.558594 233.769531 29.875 237.082031 29.875 C 240.394531 29.875 243.082031 32.558594 243.082031 35.875 Z M 243.082031 35.875 " transform="matrix(1,0,0,1,400,0)"/>
<path style=" stroke:none;fill-rule:nonzero;fill:rgb(100%,100%,100%);fill-opacity:1;" d="M 639.105469 32.695312 C 639.105469 32.832031 639.0625 32.945312 638.980469 33.039062 C 638.894531 33.125 638.753906 33.164062 638.558594 33.164062 L 636.339844 33.164062 L 636.027344 34.976562 C 636.390625 34.894531 636.730469 34.851562 637.042969 34.851562 C 637.417969 34.851562 637.746094 34.910156 638.027344 35.023438 C 638.316406 35.140625 638.558594 35.296875 638.746094 35.492188 C 638.941406 35.679688 639.089844 35.910156 639.183594 36.179688 C 639.285156 36.441406 639.339844 36.722656 639.339844 37.023438 C 639.339844 37.410156 639.269531 37.757812 639.136719 38.070312 C 639 38.375 638.816406 38.632812 638.589844 38.851562 C 638.359375 39.070312 638.082031 39.242188 637.761719 39.367188 C 637.449219 39.480469 637.109375 39.539062 636.746094 39.539062 C 636.527344 39.539062 636.316406 39.515625 636.121094 39.476562 C 635.933594 39.4375 635.75 39.378906 635.574219 39.304688 C 635.40625 39.234375 635.25 39.148438 635.105469 39.054688 C 634.957031 38.960938 634.832031 38.867188 634.730469 38.773438 L 635.011719 38.367188 C 635.074219 38.273438 635.15625 38.226562 635.261719 38.226562 C 635.332031 38.226562 635.410156 38.253906 635.496094 38.304688 C 635.578125 38.359375 635.675781 38.414062 635.792969 38.476562 C 635.917969 38.539062 636.058594 38.597656 636.214844 38.648438 C 636.378906 38.703125 636.574219 38.726562 636.792969 38.726562 C 637.03125 38.726562 637.25 38.691406 637.449219 38.617188 C 637.644531 38.535156 637.8125 38.421875 637.949219 38.273438 C 638.082031 38.128906 638.1875 37.957031 638.261719 37.757812 C 638.332031 37.550781 638.371094 37.320312 638.371094 37.070312 C 638.371094 36.851562 638.339844 36.660156 638.277344 36.492188 C 638.214844 36.316406 638.121094 36.164062 637.996094 36.039062 C 637.871094 35.914062 637.707031 35.820312 637.511719 35.757812 C 637.324219 35.6875 637.097656 35.648438 636.839844 35.648438 C 636.484375 35.648438 636.105469 35.710938 635.699219 35.835938 L 635.105469 35.664062 L 635.683594 32.289062 L 639.105469 32.289062 Z M 639.105469 32.695312 "/>
</g>
</svg>
