<?xml version="1.0" encoding="UTF-8"?>
<svg xmlns="http://www.w3.org/2000/svg" xmlns:xlink="http://www.w3.org/1999/xlink" width="500pt" height="600pt" viewBox="0 0 500 600" version="1.1">
<defs>
<radialGradient id="radial0" gradientUnits="userSpaceOnUse" cx="0" cy="0" fx="0" fy="0" r="250" gradientTransform="matrix(1,0,0,1,250,300)">
<stop offset="0" style="stop-color:rgb(93.333333%,78.823529%,0%);stop-opacity:1;"/>
<stop offset="1" style="stop-color:rgb(80.392157%,67.843137%,0%);stop-opacity:1;"/>
</radialGradient>
</defs>
<g id="surface226">
<path style="fill-rule:nonzero;fill:rgb(0%,10%,20%);fill-opacity:1;stroke-width:20;stroke-linecap:butt;stroke-linejoin:round;stroke:url(#radial0);stroke-miterlimit:10;" d="M 450 300 L 449.753906 399.355469 L 449.011719 430.9375 L 447.769531 453.675781 L 446.027344 471.917969 L 443.765625 487.269531 L 440.976562 500.515625 L 437.644531 512.113281 L 433.742188 522.339844 L 429.246094 531.394531 L 424.109375 539.402344 L 418.285156 546.460938 L 411.703125 552.648438 L 404.265625 558.011719 L 395.832031 562.59375 L 386.195312 566.425781 L 375.03125 569.535156 L 361.765625 571.933594 L 345.226562 573.640625 L 322.257812 574.660156 L 250 575 L 177.742188 574.660156 L 154.773438 573.640625 L 138.234375 571.933594 L 124.96875 569.535156 L 113.804688 566.425781 L 104.167969 562.59375 L 95.734375 558.011719 L 88.296875 552.648438 L 81.714844 546.460938 L 75.890625 539.402344 L 70.753906 531.394531 L 66.257812 522.339844 L 62.355469 512.113281 L 59.023438 500.515625 L 56.234375 487.269531 L 53.972656 471.917969 L 52.230469 453.675781 L 50.988281 430.9375 L 50.246094 399.355469 L 50 300 L 50.246094 200.644531 L 50.988281 169.0625 L 52.230469 146.324219 L 53.972656 128.082031 L 56.234375 112.730469 L 59.023438 99.484375 L 62.355469 87.886719 L 66.257812 77.660156 L 70.753906 68.605469 L 75.890625 60.597656 L 81.714844 53.539062 L 88.296875 47.351562 L 95.734375 41.988281 L 104.167969 37.40625 L 113.804688 33.574219 L 124.96875 30.464844 L 138.234375 28.066406 L 154.773438 26.359375 L 177.742188 25.339844 L 250 25 L 322.257812 25.339844 L 345.226562 26.359375 L 361.765625 28.066406 L 375.03125 30.464844 L 386.195312 33.574219 L 395.832031 37.40625 L 404.265625 41.988281 L 411.703125 47.351562 L 418.285156 53.539062 L 424.109375 60.597656 L 429.246094 68.605469 L 433.742188 77.660156 L 437.644531 87.886719 L 440.976562 99.484375 L 443.765625 112.730469 L 446.027344 128.082031 L 447.769531 146.324219 L 449.011719 169.0625 L 449.753906 200.644531 Z M 450 300 "/>
<path style="fill:none;stroke-width:25;stroke-linecap:round;stroke-linejoin:round;stroke:rgb(100%,84.313725%,0%);stroke-opacity:1;stroke-miterlimit:10;" d="M 170 140 L 170 300 "/>
<path style="fill:none;stroke-width:25;stroke-linecap:round;stroke-linejoin:round;stroke:rgb(100%,84.313725%,0%);stroke-opacity:1;stroke-miterlimit:10;" d="M 170 300 L 170 460 "/>
<path style="fill:none;stroke-width:25;stroke-linecap:round;stroke-linejoin:round;stroke:rgb(100%,84.313725%,0%);stroke-opacity:1;stroke-miterlimit:10;" d="M 170 300 L 335 140 "/>
<path style="fill:none;stroke-width:25;stroke-linecap:round;stroke-linejoin:round;stroke:rgb(100%,84.313725%,0%);stroke-opacity:1;stroke-miterlimit:10;" d="M 170 300 L 335 460 "/>
<path style="fill-rule:nonzero;fill:rgb(100%,84.313725%,0%);fill-opacity:1;stroke-width:2;stroke-linecap:butt;stroke-linejoin:round;stroke:rgb(100%,84.313725%,0%);stroke-opacity:1;stroke-miterlimit:10;" d="M 120 190 L 120 90 L 220 90 L 220 190 Z M 120 190 "/>
<path style="fill-rule:nonzero;fill:rgb(100%,84.313725%,0%);fill-opacity:1;stroke-width:2;stroke-linecap:butt;stroke-linejoin:round;stroke:rgb(100%,84.313725%,0%);stroke-opacity:1;stroke-miterlimit:10;" d="M 120 350 L 120 250 L 220 250 L 220 350 Z M 120 350 "/>
<path style="fill-rule:nonzero;fill:rgb(100%,84.313725%,0%);fill-opacity:1;stroke-width:2;stroke-linecap:butt;stroke-linejoin:round;stroke:rgb(100%,84.313725%,0%);stroke-opacity:1;stroke-miterlimit:10;" d="M 120 510 L 120 410 L 220 410 L 220 510 Z M 120 510 "/>
<path style="fill-rule:nonzero;fill:rgb(100%,84.313725%,0%);fill-opacity:1;stroke-width:2;stroke-linecap:butt;stroke-linejoin:round;stroke:rgb(100%,84.313725%,0%);stroke-opacity:1;stroke-miterlimit:10;" d="M 285 190 L 285 90 L 385 90 L 385 190 Z M 285 190 "/>
<path style="fill-rule:nonzero;fill:rgb(100%,84.313725%,0%);fill-opacity:1;stroke-width:2;stroke-linecap:butt;stroke-linejoin:round;stroke:rgb(100%,84.313725%,0%);stroke-opacity:1;stroke-miterlimit:10;" d="M 285 510 L 285 410 L 385 410 L 385 510 Z M 285 510 "/>
<path style="fill:none;stroke-width:2;stroke-linecap:round;stroke-linejoin:round;stroke:rgb(100%,84.313725%,0%);stroke-opacity:1;stroke-miterlimit:10;" d="M 170 140 L 170 300 "/>
<path style="fill:none;stroke-width:2;stroke-linecap:round;stroke-linejoin:round;stroke:rgb(100%,84.313725%,0%);stroke-opacity:1;stroke-miterlimit:10;" d="M 170 300 L 170 460 "/>
<path style="fill:none;stroke-width:2;stroke-linecap:round;stroke-linejoin:round;stroke:rgb(100%,84.313725%,0%);stroke-opacity:1;stroke-miterlimit:10;" d="M 170 300 L 335 140 "/>
<path style="fill:none;stroke-width:2;stroke-linecap:round;stroke-linejoin:round;stroke:rgb(100%,84.313725%,0%);stroke-opacity:1;stroke-miterlimit:10;" d="M 170 300 L 335 460 "/>
<path style="fill-rule:nonzero;fill:rgb(0%,0%,0%);fill-opacity:1;stroke-width:2;stroke-linecap:butt;stroke-linejoin:round;stroke:rgb(100%,84.313725%,0%);stroke-opacity:1;stroke-miterlimit:10;" d="M 125 185 L 125 95 L 215 95 L 215 185 Z M 125 185 "/>
<path style="fill-rule:nonzero;fill:rgb(0%,0%,0%);fill-opacity:1;stroke-width:2;stroke-linecap:butt;stroke-linejoin:round;stroke:rgb(100%,84.313725%,0%);stroke-opacity:1;stroke-miterlimit:10;" d="M 125 345 L 125 255 L 215 255 L 215 345 Z M 125 345 "/>
<path style="fill-rule:nonzero;fill:rgb(0%,0%,0%);fill-opacity:1;stroke-width:2;stroke-linecap:butt;stroke-linejoin:round;stroke:rgb(100%,84.313725%,0%);stroke-opacity:1;stroke-miterlimit:10;" d="M 125 505 L 125 415 L 215 415 L 215 505 Z M 125 505 "/>
<path style="fill-rule:nonzero;fill:rgb(0%,0%,0%);fill-opacity:1;stroke-width:2;stroke-linecap:butt;stroke-linejoin:round;stroke:rgb(100%,84.313725%,0%);stroke-opacity:1;stroke-miterlimit:10;" d="M 290 185 L 290 95 L 380 95 L 380 185 Z M 290 185 "/>
<path style="fill-rule:nonzero;fill:rgb(0%,0%,0%);fill-opacity:1;stroke-width:2;stroke-linecap:butt;stroke-linejoin:round;stroke:rgb(100%,84.313725%,0%);stroke-opacity:1;stroke-miterlimit:10;" d="M 290 505 L 290 415 L 380 415 L 380 505 Z M 290 505 "/>
<path style="fill:none;stroke-width:2;stroke-linecap:round;stroke-linejoin:round;stroke:rgb(100%,84.313725%,0%);stroke-opacity:1;stroke-miterlimit:10;" d="M 169.992188 140 L 140.5 132.917969 "/>
<path style="fill:none;stroke-width:2;stroke-linecap:round;stroke-linejoin:round;stroke:rgb(100%,84.313725%,0%);stroke-opacity:1;stroke-miterlimit:10;" d="M 169.992188 140 L 141.496094 149.945312 "/>
<path style="fill:none;stroke-width:2;stroke-linecap:round;stroke-linejoin:round;stroke:rgb(100%,84.313725%,0%);stroke-opacity:1;stroke-miterlimit:10;" d="M 169.992188 140 L 194.789062 122.339844 "/>
<path style="fill:none;stroke-width:2;stroke-linecap:round;stroke-linejoin:round;stroke:rgb(100%,84.313725%,0%);stroke-opacity:1;stroke-miterlimit:10;" d="M 169.992188 140 L 183.820312 166.675781 "/>
<path style="fill:none;stroke-width:2;stroke-linecap:round;stroke-linejoin:round;stroke:rgb(100%,84.313725%,0%);stroke-opacity:1;stroke-miterlimit:10;" d="M 169.992188 140 L 167.214844 170.261719 "/>
<path style="fill:none;stroke-width:2;stroke-linecap:round;stroke-linejoin:round;stroke:rgb(100%,84.313725%,0%);stroke-opacity:1;stroke-miterlimit:10;" d="M 169.992188 140 L 181.191406 111.953125 "/>
<path style="fill:none;stroke-width:2;stroke-linecap:round;stroke-linejoin:round;stroke:rgb(100%,84.313725%,0%);stroke-opacity:1;stroke-miterlimit:10;" d="M 169.992188 140 L 199.980469 138.535156 "/>
<path style="fill:none;stroke-width:2;stroke-linecap:round;stroke-linejoin:round;stroke:rgb(100%,84.313725%,0%);stroke-opacity:1;stroke-miterlimit:10;" d="M 169.992188 140 L 149.09375 118.140625 "/>
<path style="fill:none;stroke-width:2;stroke-linecap:round;stroke-linejoin:round;stroke:rgb(100%,84.313725%,0%);stroke-opacity:1;stroke-miterlimit:10;" d="M 169.992188 140 L 164.234375 110.261719 "/>
<path style="fill:none;stroke-width:2;stroke-linecap:round;stroke-linejoin:round;stroke:rgb(100%,84.313725%,0%);stroke-opacity:1;stroke-miterlimit:10;" d="M 169.992188 140 L 151.320312 163.859375 "/>
<path style="fill:none;stroke-width:2;stroke-linecap:round;stroke-linejoin:round;stroke:rgb(100%,84.313725%,0%);stroke-opacity:1;stroke-miterlimit:10;" d="M 169.992188 140 L 196.472656 155.222656 "/>
<path style="fill-rule:nonzero;fill:rgb(58.4%,34.5%,69.8%);fill-opacity:1;stroke-width:2;stroke-linecap:butt;stroke-linejoin:round;stroke:rgb(100%,84.313725%,0%);stroke-opacity:1;stroke-miterlimit:10;" d="M 175.992188 140 C 175.992188 143.316406 173.308594 146 169.992188 146 C 166.679688 146 163.992188 143.316406 163.992188 140 C 163.992188 136.6875 166.679688 134 169.992188 134 C 173.308594 134 175.992188 136.6875 175.992188 140 "/>
<path style="fill-rule:nonzero;fill:rgb(22%,59.6%,14.9%);fill-opacity:1;stroke-width:2;stroke-linecap:butt;stroke-linejoin:round;stroke:rgb(100%,84.313725%,0%);stroke-opacity:1;stroke-miterlimit:10;" d="M 146.5 132.917969 C 146.5 136.234375 143.8125 138.917969 140.5 138.917969 C 137.1875 138.917969 134.5 136.234375 134.5 132.917969 C 134.5 129.605469 137.1875 126.917969 140.5 126.917969 C 143.8125 126.917969 146.5 129.605469 146.5 132.917969 "/>
<path style="fill-rule:nonzero;fill:rgb(79.6%,23.5%,20%);fill-opacity:1;stroke-width:2;stroke-linecap:butt;stroke-linejoin:round;stroke:rgb(100%,84.313725%,0%);stroke-opacity:1;stroke-miterlimit:10;" d="M 147.496094 149.945312 C 147.496094 153.257812 144.808594 155.945312 141.496094 155.945312 C 138.179688 155.945312 135.496094 153.257812 135.496094 149.945312 C 135.496094 146.632812 138.179688 143.945312 141.496094 143.945312 C 144.808594 143.945312 147.496094 146.632812 147.496094 149.945312 "/>
<path style="fill-rule:nonzero;fill:rgb(58.4%,34.5%,69.8%);fill-opacity:1;stroke-width:2;stroke-linecap:butt;stroke-linejoin:round;stroke:rgb(100%,84.313725%,0%);stroke-opacity:1;stroke-miterlimit:10;" d="M 200.789062 122.339844 C 200.789062 125.65625 198.105469 128.339844 194.789062 128.339844 C 191.476562 128.339844 188.789062 125.65625 188.789062 122.339844 C 188.789062 119.027344 191.476562 116.339844 194.789062 116.339844 C 198.105469 116.339844 200.789062 119.027344 200.789062 122.339844 "/>
<path style="fill-rule:nonzero;fill:rgb(22%,59.6%,14.9%);fill-opacity:1;stroke-width:2;stroke-linecap:butt;stroke-linejoin:round;stroke:rgb(100%,84.313725%,0%);stroke-opacity:1;stroke-miterlimit:10;" d="M 189.820312 166.675781 C 189.820312 169.988281 187.136719 172.675781 183.820312 172.675781 C 180.507812 172.675781 177.820312 169.988281 177.820312 166.675781 C 177.820312 163.363281 180.507812 160.675781 183.820312 160.675781 C 187.136719 160.675781 189.820312 163.363281 189.820312 166.675781 "/>
<path style="fill-rule:nonzero;fill:rgb(79.6%,23.5%,20%);fill-opacity:1;stroke-width:2;stroke-linecap:butt;stroke-linejoin:round;stroke:rgb(100%,84.313725%,0%);stroke-opacity:1;stroke-miterlimit:10;" d="M 173.214844 170.261719 C 173.214844 173.574219 170.527344 176.261719 167.214844 176.261719 C 163.902344 176.261719 161.214844 173.574219 161.214844 170.261719 C 161.214844 166.949219 163.902344 164.261719 167.214844 164.261719 C 170.527344 164.261719 173.214844 166.949219 173.214844 170.261719 "/>
<path style="fill-rule:nonzero;fill:rgb(58.4%,34.5%,69.8%);fill-opacity:1;stroke-width:2;stroke-linecap:butt;stroke-linejoin:round;stroke:rgb(100%,84.313725%,0%);stroke-opacity:1;stroke-miterlimit:10;" d="M 187.191406 111.953125 C 187.191406 115.265625 184.507812 117.953125 181.191406 117.953125 C 177.878906 117.953125 175.191406 115.265625 175.191406 111.953125 C 175.191406 108.640625 177.878906 105.953125 181.191406 105.953125 C 184.507812 105.953125 187.191406 108.640625 187.191406 111.953125 "/>
<path style="fill-rule:nonzero;fill:rgb(22%,59.6%,14.9%);fill-opacity:1;stroke-width:2;stroke-linecap:butt;stroke-linejoin:round;stroke:rgb(100%,84.313725%,0%);stroke-opacity:1;stroke-miterlimit:10;" d="M 205.980469 138.535156 C 205.980469 141.847656 203.292969 144.535156 199.980469 144.535156 C 196.667969 144.535156 193.980469 141.847656 193.980469 138.535156 C 193.980469 135.222656 196.667969 132.535156 199.980469 132.535156 C 203.292969 132.535156 205.980469 135.222656 205.980469 138.535156 "/>
<path style="fill-rule:nonzero;fill:rgb(79.6%,23.5%,20%);fill-opacity:1;stroke-width:2;stroke-linecap:butt;stroke-linejoin:round;stroke:rgb(100%,84.313725%,0%);stroke-opacity:1;stroke-miterlimit:10;" d="M 155.09375 118.140625 C 155.09375 121.457031 152.410156 124.140625 149.09375 124.140625 C 145.78125 124.140625 143.09375 121.457031 143.09375 118.140625 C 143.09375 114.828125 145.78125 112.140625 149.09375 112.140625 C 152.410156 112.140625 155.09375 114.828125 155.09375 118.140625 "/>
<path style="fill-rule:nonzero;fill:rgb(58.4%,34.5%,69.8%);fill-opacity:1;stroke-width:2;stroke-linecap:butt;stroke-linejoin:round;stroke:rgb(100%,84.313725%,0%);stroke-opacity:1;stroke-miterlimit:10;" d="M 170.234375 110.261719 C 170.234375 113.574219 167.546875 116.261719 164.234375 116.261719 C 160.921875 116.261719 158.234375 113.574219 158.234375 110.261719 C 158.234375 106.949219 160.921875 104.261719 164.234375 104.261719 C 167.546875 104.261719 170.234375 106.949219 170.234375 110.261719 "/>
<path style="fill-rule:nonzero;fill:rgb(22%,59.6%,14.9%);fill-opacity:1;stroke-width:2;stroke-linecap:butt;stroke-linejoin:round;stroke:rgb(100%,84.313725%,0%);stroke-opacity:1;stroke-miterlimit:10;" d="M 157.320312 163.859375 C 157.320312 167.171875 154.636719 169.859375 151.320312 169.859375 C 148.007812 169.859375 145.320312 167.171875 145.320312 163.859375 C 145.320312 160.542969 148.007812 157.859375 151.320312 157.859375 C 154.636719 157.859375 157.320312 160.542969 157.320312 163.859375 "/>
<path style="fill-rule:nonzero;fill:rgb(79.6%,23.5%,20%);fill-opacity:1;stroke-width:2;stroke-linecap:butt;stroke-linejoin:round;stroke:rgb(100%,84.313725%,0%);stroke-opacity:1;stroke-miterlimit:10;" d="M 202.472656 155.222656 C 202.472656 158.539062 199.785156 161.222656 196.472656 161.222656 C 193.15625 161.222656 190.472656 158.539062 190.472656 155.222656 C 190.472656 151.910156 193.15625 149.222656 196.472656 149.222656 C 199.785156 149.222656 202.472656 151.910156 202.472656 155.222656 "/>
<path style="fill:none;stroke-width:2;stroke-linecap:round;stroke-linejoin:round;stroke:rgb(100%,84.313725%,0%);stroke-opacity:1;stroke-miterlimit:10;" d="M 169.992188 300 L 140.5 292.917969 "/>
<path style="fill:none;stroke-width:2;stroke-linecap:round;stroke-linejoin:round;stroke:rgb(100%,84.313725%,0%);stroke-opacity:1;stroke-miterlimit:10;" d="M 169.992188 300 L 141.496094 309.945312 "/>
<path style="fill:none;stroke-width:2;stroke-linecap:round;stroke-linejoin:round;stroke:rgb(100%,84.313725%,0%);stroke-opacity:1;stroke-miterlimit:10;" d="M 169.992188 300 L 194.789062 282.339844 "/>
<path style="fill:none;stroke-width:2;stroke-linecap:round;stroke-linejoin:round;stroke:rgb(100%,84.313725%,0%);stroke-opacity:1;stroke-miterlimit:10;" d="M 169.992188 300 L 183.820312 326.675781 "/>
<path style="fill:none;stroke-width:2;stroke-linecap:round;stroke-linejoin:round;stroke:rgb(100%,84.313725%,0%);stroke-opacity:1;stroke-miterlimit:10;" d="M 169.992188 300 L 167.214844 330.261719 "/>
<path style="fill:none;stroke-width:2;stroke-linecap:round;stroke-linejoin:round;stroke:rgb(100%,84.313725%,0%);stroke-opacity:1;stroke-miterlimit:10;" d="M 169.992188 300 L 181.191406 271.953125 "/>
<path style="fill:none;stroke-width:2;stroke-linecap:round;stroke-linejoin:round;stroke:rgb(100%,84.313725%,0%);stroke-opacity:1;stroke-miterlimit:10;" d="M 169.992188 300 L 199.980469 298.535156 "/>
<path style="fill:none;stroke-width:2;stroke-linecap:round;stroke-linejoin:round;stroke:rgb(100%,84.313725%,0%);stroke-opacity:1;stroke-miterlimit:10;" d="M 169.992188 300 L 149.09375 278.140625 "/>
<path style="fill:none;stroke-width:2;stroke-linecap:round;stroke-linejoin:round;stroke:rgb(100%,84.313725%,0%);stroke-opacity:1;stroke-miterlimit:10;" d="M 169.992188 300 L 164.234375 270.261719 "/>
<path style="fill:none;stroke-width:2;stroke-linecap:round;stroke-linejoin:round;stroke:rgb(100%,84.313725%,0%);stroke-opacity:1;stroke-miterlimit:10;" d="M 169.992188 300 L 151.320312 323.859375 "/>
<path style="fill:none;stroke-width:2;stroke-linecap:round;stroke-linejoin:round;stroke:rgb(100%,84.313725%,0%);stroke-opacity:1;stroke-miterlimit:10;" d="M 169.992188 300 L 196.472656 315.222656 "/>
<path style="fill-rule:nonzero;fill:rgb(58.4%,34.5%,69.8%);fill-opacity:1;stroke-width:2;stroke-linecap:butt;stroke-linejoin:round;stroke:rgb(100%,84.313725%,0%);stroke-opacity:1;stroke-miterlimit:10;" d="M 175.992188 300 C 175.992188 303.316406 173.308594 306 169.992188 306 C 166.679688 306 163.992188 303.316406 163.992188 300 C 163.992188 296.6875 166.679688 294 169.992188 294 C 173.308594 294 175.992188 296.6875 175.992188 300 "/>
<path style="fill-rule:nonzero;fill:rgb(22%,59.6%,14.9%);fill-opacity:1;stroke-width:2;stroke-linecap:butt;stroke-linejoin:round;stroke:rgb(100%,84.313725%,0%);stroke-opacity:1;stroke-miterlimit:10;" d="M 146.5 292.917969 C 146.5 296.234375 143.8125 298.917969 140.5 298.917969 C 137.1875 298.917969 134.5 296.234375 134.5 292.917969 C 134.5 289.605469 137.1875 286.917969 140.5 286.917969 C 143.8125 286.917969 146.5 289.605469 146.5 292.917969 "/>
<path style="fill-rule:nonzero;fill:rgb(79.6%,23.5%,20%);fill-opacity:1;stroke-width:2;stroke-linecap:butt;stroke-linejoin:round;stroke:rgb(100%,84.313725%,0%);stroke-opacity:1;stroke-miterlimit:10;" d="M 147.496094 309.945312 C 147.496094 313.257812 144.808594 315.945312 141.496094 315.945312 C 138.179688 315.945312 135.496094 313.257812 135.496094 309.945312 C 135.496094 306.632812 138.179688 303.945312 141.496094 303.945312 C 144.808594 303.945312 147.496094 306.632812 147.496094 309.945312 "/>
<path style="fill-rule:nonzero;fill:rgb(58.4%,34.5%,69.8%);fill-opacity:1;stroke-width:2;stroke-linecap:butt;stroke-linejoin:round;stroke:rgb(100%,84.313725%,0%);stroke-opacity:1;stroke-miterlimit:10;" d="M 200.789062 282.339844 C 200.789062 285.65625 198.105469 288.339844 194.789062 288.339844 C 191.476562 288.339844 188.789062 285.65625 188.789062 282.339844 C 188.789062 279.027344 191.476562 276.339844 194.789062 276.339844 C 198.105469 276.339844 200.789062 279.027344 200.789062 282.339844 "/>
<path style="fill-rule:nonzero;fill:rgb(22%,59.6%,14.9%);fill-opacity:1;stroke-width:2;stroke-linecap:butt;stroke-linejoin:round;stroke:rgb(100%,84.313725%,0%);stroke-opacity:1;stroke-miterlimit:10;" d="M 189.820312 326.675781 C 189.820312 329.988281 187.136719 332.675781 183.820312 332.675781 C 180.507812 332.675781 177.820312 329.988281 177.820312 326.675781 C 177.820312 323.363281 180.507812 320.675781 183.820312 320.675781 C 187.136719 320.675781 189.820312 323.363281 189.820312 326.675781 "/>
<path style="fill-rule:nonzero;fill:rgb(79.6%,23.5%,20%);fill-opacity:1;stroke-width:2;stroke-linecap:butt;stroke-linejoin:round;stroke:rgb(100%,84.313725%,0%);stroke-opacity:1;stroke-miterlimit:10;" d="M 173.214844 330.261719 C 173.214844 333.574219 170.527344 336.261719 167.214844 336.261719 C 163.902344 336.261719 161.214844 333.574219 161.214844 330.261719 C 161.214844 326.949219 163.902344 324.261719 167.214844 324.261719 C 170.527344 324.261719 173.214844 326.949219 173.214844 330.261719 "/>
<path style="fill-rule:nonzero;fill:rgb(58.4%,34.5%,69.8%);fill-opacity:1;stroke-width:2;stroke-linecap:butt;stroke-linejoin:round;stroke:rgb(100%,84.313725%,0%);stroke-opacity:1;stroke-miterlimit:10;" d="M 187.191406 271.953125 C 187.191406 275.265625 184.507812 277.953125 181.191406 277.953125 C 177.878906 277.953125 175.191406 275.265625 175.191406 271.953125 C 175.191406 268.640625 177.878906 265.953125 181.191406 265.953125 C 184.507812 265.953125 187.191406 268.640625 187.191406 271.953125 "/>
<path style="fill-rule:nonzero;fill:rgb(22%,59.6%,14.9%);fill-opacity:1;stroke-width:2;stroke-linecap:butt;stroke-linejoin:round;stroke:rgb(100%,84.313725%,0%);stroke-opacity:1;stroke-miterlimit:10;" d="M 205.980469 298.535156 C 205.980469 301.847656 203.292969 304.535156 199.980469 304.535156 C 196.667969 304.535156 193.980469 301.847656 193.980469 298.535156 C 193.980469 295.222656 196.667969 292.535156 199.980469 292.535156 C 203.292969 292.535156 205.980469 295.222656 205.980469 298.535156 "/>
<path style="fill-rule:nonzero;fill:rgb(79.6%,23.5%,20%);fill-opacity:1;stroke-width:2;stroke-linecap:butt;stroke-linejoin:round;stroke:rgb(100%,84.313725%,0%);stroke-opacity:1;stroke-miterlimit:10;" d="M 155.09375 278.140625 C 155.09375 281.457031 152.410156 284.140625 149.09375 284.140625 C 145.78125 284.140625 143.09375 281.457031 143.09375 278.140625 C 143.09375 274.828125 145.78125 272.140625 149.09375 272.140625 C 152.410156 272.140625 155.09375 274.828125 155.09375 278.140625 "/>
<path style="fill-rule:nonzero;fill:rgb(58.4%,34.5%,69.8%);fill-opacity:1;stroke-width:2;stroke-linecap:butt;stroke-linejoin:round;stroke:rgb(100%,84.313725%,0%);stroke-opacity:1;stroke-miterlimit:10;" d="M 170.234375 270.261719 C 170.234375 273.574219 167.546875 276.261719 164.234375 276.261719 C 160.921875 276.261719 158.234375 273.574219 158.234375 270.261719 C 158.234375 266.949219 160.921875 264.261719 164.234375 264.261719 C 167.546875 264.261719 170.234375 266.949219 170.234375 270.261719 "/>
<path style="fill-rule:nonzero;fill:rgb(22%,59.6%,14.9%);fill-opacity:1;stroke-width:2;stroke-linecap:butt;stroke-linejoin:round;stroke:rgb(100%,84.313725%,0%);stroke-opacity:1;stroke-miterlimit:10;" d="M 157.320312 323.859375 C 157.320312 327.171875 154.636719 329.859375 151.320312 329.859375 C 148.007812 329.859375 145.320312 327.171875 145.320312 323.859375 C 145.320312 320.542969 148.007812 317.859375 151.320312 317.859375 C 154.636719 317.859375 157.320312 320.542969 157.320312 323.859375 "/>
<path style="fill-rule:nonzero;fill:rgb(79.6%,23.5%,20%);fill-opacity:1;stroke-width:2;stroke-linecap:butt;stroke-linejoin:round;stroke:rgb(100%,84.313725%,0%);stroke-opacity:1;stroke-miterlimit:10;" d="M 202.472656 315.222656 C 202.472656 318.539062 199.785156 321.222656 196.472656 321.222656 C 193.15625 321.222656 190.472656 318.539062 190.472656 315.222656 C 190.472656 311.910156 193.15625 309.222656 196.472656 309.222656 C 199.785156 309.222656 202.472656 311.910156 202.472656 315.222656 "/>
<path style="fill:none;stroke-width:2;stroke-linecap:round;stroke-linejoin:round;stroke:rgb(100%,84.313725%,0%);stroke-opacity:1;stroke-miterlimit:10;" d="M 169.992188 460 L 140.5 452.917969 "/>
<path style="fill:none;stroke-width:2;stroke-linecap:round;stroke-linejoin:round;stroke:rgb(100%,84.313725%,0%);stroke-opacity:1;stroke-miterlimit:10;" d="M 169.992188 460 L 141.496094 469.945312 "/>
<path style="fill:none;stroke-width:2;stroke-linecap:round;stroke-linejoin:round;stroke:rgb(100%,84.313725%,0%);stroke-opacity:1;stroke-miterlimit:10;" d="M 169.992188 460 L 194.789062 442.339844 "/>
<path style="fill:none;stroke-width:2;stroke-linecap:round;stroke-linejoin:round;stroke:rgb(100%,84.313725%,0%);stroke-opacity:1;stroke-miterlimit:10;" d="M 169.992188 460 L 183.820312 486.675781 "/>
<path style="fill:none;stroke-width:2;stroke-linecap:round;stroke-linejoin:round;stroke:rgb(100%,84.313725%,0%);stroke-opacity:1;stroke-miterlimit:10;" d="M 169.992188 460 L 167.214844 490.261719 "/>
<path style="fill:none;stroke-width:2;stroke-linecap:round;stroke-linejoin:round;stroke:rgb(100%,84.313725%,0%);stroke-opacity:1;stroke-miterlimit:10;" d="M 169.992188 460 L 181.191406 431.953125 "/>
<path style="fill:none;stroke-width:2;stroke-linecap:round;stroke-linejoin:round;stroke:rgb(100%,84.313725%,0%);stroke-opacity:1;stroke-miterlimit:10;" d="M 169.992188 460 L 199.980469 458.535156 "/>
<path style="fill:none;stroke-width:2;stroke-linecap:round;stroke-linejoin:round;stroke:rgb(100%,84.313725%,0%);stroke-opacity:1;stroke-miterlimit:10;" d="M 169.992188 460 L 149.09375 438.140625 "/>
<path style="fill:none;stroke-width:2;stroke-linecap:round;stroke-linejoin:round;stroke:rgb(100%,84.313725%,0%);stroke-opacity:1;stroke-miterlimit:10;" d="M 169.992188 460 L 164.234375 430.261719 "/>
<path style="fill:none;stroke-width:2;stroke-linecap:round;stroke-linejoin:round;stroke:rgb(100%,84.313725%,0%);stroke-opacity:1;stroke-miterlimit:10;" d="M 169.992188 460 L 151.320312 483.859375 "/>
<path style="fill:none;stroke-width:2;stroke-linecap:round;stroke-linejoin:round;stroke:rgb(100%,84.313725%,0%);stroke-opacity:1;stroke-miterlimit:10;" d="M 169.992188 460 L 196.472656 475.222656 "/>
<path style="fill-rule:nonzero;fill:rgb(58.4%,34.5%,69.8%);fill-opacity:1;stroke-width:2;stroke-linecap:butt;stroke-linejoin:round;stroke:rgb(100%,84.313725%,0%);stroke-opacity:1;stroke-miterlimit:10;" d="M 175.992188 460 C 175.992188 463.316406 173.308594 466 169.992188 466 C 166.679688 466 163.992188 463.316406 163.992188 460 C 163.992188 456.6875 166.679688 454 169.992188 454 C 173.308594 454 175.992188 456.6875 175.992188 460 "/>
<path style="fill-rule:nonzero;fill:rgb(22%,59.6%,14.9%);fill-opacity:1;stroke-width:2;stroke-linecap:butt;stroke-linejoin:round;stroke:rgb(100%,84.313725%,0%);stroke-opacity:1;stroke-miterlimit:10;" d="M 146.5 452.917969 C 146.5 456.234375 143.8125 458.917969 140.5 458.917969 C 137.1875 458.917969 134.5 456.234375 134.5 452.917969 C 134.5 449.605469 137.1875 446.917969 140.5 446.917969 C 143.8125 446.917969 146.5 449.605469 146.5 452.917969 "/>
<path style="fill-rule:nonzero;fill:rgb(79.6%,23.5%,20%);fill-opacity:1;stroke-width:2;stroke-linecap:butt;stroke-linejoin:round;stroke:rgb(100%,84.313725%,0%);stroke-opacity:1;stroke-miterlimit:10;" d="M 147.496094 469.945312 C 147.496094 473.257812 144.808594 475.945312 141.496094 475.945312 C 138.179688 475.945312 135.496094 473.257812 135.496094 469.945312 C 135.496094 466.632812 138.179688 463.945312 141.496094 463.945312 C 144.808594 463.945312 147.496094 466.632812 147.496094 469.945312 "/>
<path style="fill-rule:nonzero;fill:rgb(58.4%,34.5%,69.8%);fill-opacity:1;stroke-width:2;stroke-linecap:butt;stroke-linejoin:round;stroke:rgb(100%,84.313725%,0%);stroke-opacity:1;stroke-miterlimit:10;" d="M 200.789062 442.339844 C 200.789062 445.65625 198.105469 448.339844 194.789062 448.339844 C 191.476562 448.339844 188.789062 445.65625 188.789062 442.339844 C 188.789062 439.027344 191.476562 436.339844 194.789062 436.339844 C 198.105469 436.339844 200.789062 439.027344 200.789062 442.339844 "/>
<path style="fill-rule:nonzero;fill:rgb(22%,59.6%,14.9%);fill-opacity:1;stroke-width:2;stroke-linecap:butt;stroke-linejoin:round;stroke:rgb(100%,84.313725%,0%);stroke-opacity:1;stroke-miterlimit:10;" d="M 189.820312 486.675781 C 189.820312 489.988281 187.136719 492.675781 183.820312 492.675781 C 180.507812 492.675781 177.820312 489.988281 177.820312 486.675781 C 177.820312 483.363281 180.507812 480.675781 183.820312 480.675781 C 187.136719 480.675781 189.820312 483.363281 189.820312 486.675781 "/>
<path style="fill-rule:nonzero;fill:rgb(79.6%,23.5%,20%);fill-opacity:1;stroke-width:2;stroke-linecap:butt;stroke-linejoin:round;stroke:rgb(100%,84.313725%,0%);stroke-opacity:1;stroke-miterlimit:10;" d="M 173.214844 490.261719 C 173.214844 493.574219 170.527344 496.261719 167.214844 496.261719 C 163.902344 496.261719 161.214844 493.574219 161.214844 490.261719 C 161.214844 486.949219 163.902344 484.261719 167.214844 484.261719 C 170.527344 484.261719 173.214844 486.949219 173.214844 490.261719 "/>
<path style="fill-rule:nonzero;fill:rgb(58.4%,34.5%,69.8%);fill-opacity:1;stroke-width:2;stroke-linecap:butt;stroke-linejoin:round;stroke:rgb(100%,84.313725%,0%);stroke-opacity:1;stroke-miterlimit:10;" d="M 187.191406 431.953125 C 187.191406 435.265625 184.507812 437.953125 181.191406 437.953125 C 177.878906 437.953125 175.191406 435.265625 175.191406 431.953125 C 175.191406 428.640625 177.878906 425.953125 181.191406 425.953125 C 184.507812 425.953125 187.191406 428.640625 187.191406 431.953125 "/>
<path style="fill-rule:nonzero;fill:rgb(22%,59.6%,14.9%);fill-opacity:1;stroke-width:2;stroke-linecap:butt;stroke-linejoin:round;stroke:rgb(100%,84.313725%,0%);stroke-opacity:1;stroke-miterlimit:10;" d="M 205.980469 458.535156 C 205.980469 461.847656 203.292969 464.535156 199.980469 464.535156 C 196.667969 464.535156 193.980469 461.847656 193.980469 458.535156 C 193.980469 455.222656 196.667969 452.535156 199.980469 452.535156 C 203.292969 452.535156 205.980469 455.222656 205.980469 458.535156 "/>
<path style="fill-rule:nonzero;fill:rgb(79.6%,23.5%,20%);fill-opacity:1;stroke-width:2;stroke-linecap:butt;stroke-linejoin:round;stroke:rgb(100%,84.313725%,0%);stroke-opacity:1;stroke-miterlimit:10;" d="M 155.09375 438.140625 C 155.09375 441.457031 152.410156 444.140625 149.09375 444.140625 C 145.78125 444.140625 143.09375 441.457031 143.09375 438.140625 C 143.09375 434.828125 145.78125 432.140625 149.09375 432.140625 C 152.410156 432.140625 155.09375 434.828125 155.09375 438.140625 "/>
<path style="fill-rule:nonzero;fill:rgb(58.4%,34.5%,69.8%);fill-opacity:1;stroke-width:2;stroke-linecap:butt;stroke-linejoin:round;stroke:rgb(100%,84.313725%,0%);stroke-opacity:1;stroke-miterlimit:10;" d="M 170.234375 430.261719 C 170.234375 433.574219 167.546875 436.261719 164.234375 436.261719 C 160.921875 436.261719 158.234375 433.574219 158.234375 430.261719 C 158.234375 426.949219 160.921875 424.261719 164.234375 424.261719 C 167.546875 424.261719 170.234375 426.949219 170.234375 430.261719 "/>
<path style="fill-rule:nonzero;fill:rgb(22%,59.6%,14.9%);fill-opacity:1;stroke-width:2;stroke-linecap:butt;stroke-linejoin:round;stroke:rgb(100%,84.313725%,0%);stroke-opacity:1;stroke-miterlimit:10;" d="M 157.320312 483.859375 C 157.320312 487.171875 154.636719 489.859375 151.320312 489.859375 C 148.007812 489.859375 145.320312 487.171875 145.320312 483.859375 C 145.320312 480.542969 148.007812 477.859375 151.320312 477.859375 C 154.636719 477.859375 157.320312 480.542969 157.320312 483.859375 "/>
<path style="fill-rule:nonzero;fill:rgb(79.6%,23.5%,20%);fill-opacity:1;stroke-width:2;stroke-linecap:butt;stroke-linejoin:round;stroke:rgb(100%,84.313725%,0%);stroke-opacity:1;stroke-miterlimit:10;" d="M 202.472656 475.222656 C 202.472656 478.539062 199.785156 481.222656 196.472656 481.222656 C 193.15625 481.222656 190.472656 478.539062 190.472656 475.222656 C 190.472656 471.910156 193.15625 469.222656 196.472656 469.222656 C 199.785156 469.222656 202.472656 471.910156 202.472656 475.222656 "/>
<path style="fill:none;stroke-width:2;stroke-linecap:round;stroke-linejoin:round;stroke:rgb(100%,84.313725%,0%);stroke-opacity:1;stroke-miterlimit:10;" d="M 334.992188 140 L 305.5 132.917969 "/>
<path style="fill:none;stroke-width:2;stroke-linecap:round;stroke-linejoin:round;stroke:rgb(100%,84.313725%,0%);stroke-opacity:1;stroke-miterlimit:10;" d="M 334.992188 140 L 306.496094 149.945312 "/>
<path style="fill:none;stroke-width:2;stroke-linecap:round;stroke-linejoin:round;stroke:rgb(100%,84.313725%,0%);stroke-opacity:1;stroke-miterlimit:10;" d="M 334.992188 140 L 359.789062 122.339844 "/>
<path style="fill:none;stroke-width:2;stroke-linecap:round;stroke-linejoin:round;stroke:rgb(100%,84.313725%,0%);stroke-opacity:1;stroke-miterlimit:10;" d="M 334.992188 140 L 348.820312 166.675781 "/>
<path style="fill:none;stroke-width:2;stroke-linecap:round;stroke-linejoin:round;stroke:rgb(100%,84.313725%,0%);stroke-opacity:1;stroke-miterlimit:10;" d="M 334.992188 140 L 332.214844 170.261719 "/>
<path style="fill:none;stroke-width:2;stroke-linecap:round;stroke-linejoin:round;stroke:rgb(100%,84.313725%,0%);stroke-opacity:1;stroke-miterlimit:10;" d="M 334.992188 140 L 346.191406 111.953125 "/>
<path style="fill:none;stroke-width:2;stroke-linecap:round;stroke-linejoin:round;stroke:rgb(100%,84.313725%,0%);stroke-opacity:1;stroke-miterlimit:10;" d="M 334.992188 140 L 364.980469 138.535156 "/>
<path style="fill:none;stroke-width:2;stroke-linecap:round;stroke-linejoin:round;stroke:rgb(100%,84.313725%,0%);stroke-opacity:1;stroke-miterlimit:10;" d="M 334.992188 140 L 314.09375 118.140625 "/>
<path style="fill:none;stroke-width:2;stroke-linecap:round;stroke-linejoin:round;stroke:rgb(100%,84.313725%,0%);stroke-opacity:1;stroke-miterlimit:10;" d="M 334.992188 140 L 329.234375 110.261719 "/>
<path style="fill:none;stroke-width:2;stroke-linecap:round;stroke-linejoin:round;stroke:rgb(100%,84.313725%,0%);stroke-opacity:1;stroke-miterlimit:10;" d="M 334.992188 140 L 316.320312 163.859375 "/>
<path style="fill:none;stroke-width:2;stroke-linecap:round;stroke-linejoin:round;stroke:rgb(100%,84.313725%,0%);stroke-opacity:1;stroke-miterlimit:10;" d="M 334.992188 140 L 361.472656 155.222656 "/>
<path style="fill-rule:nonzero;fill:rgb(58.4%,34.5%,69.8%);fill-opacity:1;stroke-width:2;stroke-linecap:butt;stroke-linejoin:round;stroke:rgb(100%,84.313725%,0%);stroke-opacity:1;stroke-miterlimit:10;" d="M 340.992188 140 C 340.992188 143.316406 338.308594 146 334.992188 146 C 331.679688 146 328.992188 143.316406 328.992188 140 C 328.992188 136.6875 331.679688 134 334.992188 134 C 338.308594 134 340.992188 136.6875 340.992188 140 "/>
<path style="fill-rule:nonzero;fill:rgb(22%,59.6%,14.9%);fill-opacity:1;stroke-width:2;stroke-linecap:butt;stroke-linejoin:round;stroke:rgb(100%,84.313725%,0%);stroke-opacity:1;stroke-miterlimit:10;" d="M 311.5 132.917969 C 311.5 136.234375 308.8125 138.917969 305.5 138.917969 C 302.1875 138.917969 299.5 136.234375 299.5 132.917969 C 299.5 129.605469 302.1875 126.917969 305.5 126.917969 C 308.8125 126.917969 311.5 129.605469 311.5 132.917969 "/>
<path style="fill-rule:nonzero;fill:rgb(79.6%,23.5%,20%);fill-opacity:1;stroke-width:2;stroke-linecap:butt;stroke-linejoin:round;stroke:rgb(100%,84.313725%,0%);stroke-opacity:1;stroke-miterlimit:10;" d="M 312.496094 149.945312 C 312.496094 153.257812 309.808594 155.945312 306.496094 155.945312 C 303.179688 155.945312 300.496094 153.257812 300.496094 149.945312 C 300.496094 146.632812 303.179688 143.945312 306.496094 143.945312 C 309.808594 143.945312 312.496094 146.632812 312.496094 149.945312 "/>
<path style="fill-rule:nonzero;fill:rgb(58.4%,34.5%,69.8%);fill-opacity:1;stroke-width:2;stroke-linecap:butt;stroke-linejoin:round;stroke:rgb(100%,84.313725%,0%);stroke-opacity:1;stroke-miterlimit:10;" d="M 365.789062 122.339844 C 365.789062 125.65625 363.105469 128.339844 359.789062 128.339844 C 356.476562 128.339844 353.789062 125.65625 353.789062 122.339844 C 353.789062 119.027344 356.476562 116.339844 359.789062 116.339844 C 363.105469 116.339844 365.789062 119.027344 365.789062 122.339844 "/>
<path style="fill-rule:nonzero;fill:rgb(22%,59.6%,14.9%);fill-opacity:1;stroke-width:2;stroke-linecap:butt;stroke-linejoin:round;stroke:rgb(100%,84.313725%,0%);stroke-opacity:1;stroke-miterlimit:10;" d="M 354.820312 166.675781 C 354.820312 169.988281 352.136719 172.675781 348.820312 172.675781 C 345.507812 172.675781 342.820312 169.988281 342.820312 166.675781 C 342.820312 163.363281 345.507812 160.675781 348.820312 160.675781 C 352.136719 160.675781 354.820312 163.363281 354.820312 166.675781 "/>
<path style="fill-rule:nonzero;fill:rgb(79.6%,23.5%,20%);fill-opacity:1;stroke-width:2;stroke-linecap:butt;stroke-linejoin:round;stroke:rgb(100%,84.313725%,0%);stroke-opacity:1;stroke-miterlimit:10;" d="M 338.214844 170.261719 C 338.214844 173.574219 335.527344 176.261719 332.214844 176.261719 C 328.902344 176.261719 326.214844 173.574219 326.214844 170.261719 C 326.214844 166.949219 328.902344 164.261719 332.214844 164.261719 C 335.527344 164.261719 338.214844 166.949219 338.214844 170.261719 "/>
<path style="fill-rule:nonzero;fill:rgb(58.4%,34.5%,69.8%);fill-opacity:1;stroke-width:2;stroke-linecap:butt;stroke-linejoin:round;stroke:rgb(100%,84.313725%,0%);stroke-opacity:1;stroke-miterlimit:10;" d="M 352.191406 111.953125 C 352.191406 115.265625 349.507812 117.953125 346.191406 117.953125 C 342.878906 117.953125 340.191406 115.265625 340.191406 111.953125 C 340.191406 108.640625 342.878906 105.953125 346.191406 105.953125 C 349.507812 105.953125 352.191406 108.640625 352.191406 111.953125 "/>
<path style="fill-rule:nonzero;fill:rgb(22%,59.6%,14.9%);fill-opacity:1;stroke-width:2;stroke-linecap:butt;stroke-linejoin:round;stroke:rgb(100%,84.313725%,0%);stroke-opacity:1;stroke-miterlimit:10;" d="M 370.980469 138.535156 C 370.980469 141.847656 368.292969 144.535156 364.980469 144.535156 C 361.667969 144.535156 358.980469 141.847656 358.980469 138.535156 C 358.980469 135.222656 361.667969 132.535156 364.980469 132.535156 C 368.292969 132.535156 370.980469 135.222656 370.980469 138.535156 "/>
<path style="fill-rule:nonzero;fill:rgb(79.6%,23.5%,20%);fill-opacity:1;stroke-width:2;stroke-linecap:butt;stroke-linejoin:round;stroke:rgb(100%,84.313725%,0%);stroke-opacity:1;stroke-miterlimit:10;" d="M 320.09375 118.140625 C 320.09375 121.457031 317.410156 124.140625 314.09375 124.140625 C 310.78125 124.140625 308.09375 121.457031 308.09375 118.140625 C 308.09375 114.828125 310.78125 112.140625 314.09375 112.140625 C 317.410156 112.140625 320.09375 114.828125 320.09375 118.140625 "/>
<path style="fill-rule:nonzero;fill:rgb(58.4%,34.5%,69.8%);fill-opacity:1;stroke-width:2;stroke-linecap:butt;stroke-linejoin:round;stroke:rgb(100%,84.313725%,0%);stroke-opacity:1;stroke-miterlimit:10;" d="M 335.234375 110.261719 C 335.234375 113.574219 332.546875 116.261719 329.234375 116.261719 C 325.921875 116.261719 323.234375 113.574219 323.234375 110.261719 C 323.234375 106.949219 325.921875 104.261719 329.234375 104.261719 C 332.546875 104.261719 335.234375 106.949219 335.234375 110.261719 "/>
<path style="fill-rule:nonzero;fill:rgb(22%,59.6%,14.9%);fill-opacity:1;stroke-width:2;stroke-linecap:butt;stroke-linejoin:round;stroke:rgb(100%,84.313725%,0%);stroke-opacity:1;stroke-miterlimit:10;" d="M 322.320312 163.859375 C 322.320312 167.171875 319.636719 169.859375 316.320312 169.859375 C 313.007812 169.859375 310.320312 167.171875 310.320312 163.859375 C 310.320312 160.542969 313.007812 157.859375 316.320312 157.859375 C 319.636719 157.859375 322.320312 160.542969 322.320312 163.859375 "/>
<path style="fill-rule:nonzero;fill:rgb(79.6%,23.5%,20%);fill-opacity:1;stroke-width:2;stroke-linecap:butt;stroke-linejoin:round;stroke:rgb(100%,84.313725%,0%);stroke-opacity:1;stroke-miterlimit:10;" d="M 367.472656 155.222656 C 367.472656 158.539062 364.785156 161.222656 361.472656 161.222656 C 358.15625 161.222656 355.472656 158.539062 355.472656 155.222656 C 355.472656 151.910156 358.15625 149.222656 361.472656 149.222656 C 364.785156 149.222656 367.472656 151.910156 367.472656 155.222656 "/>
<path style="fill:none;stroke-width:2;stroke-linecap:round;stroke-linejoin:round;stroke:rgb(100%,84.313725%,0%);stroke-opacity:1;stroke-miterlimit:10;" d="M 334.992188 460 L 305.5 452.917969 "/>
<path style="fill:none;stroke-width:2;stroke-linecap:round;stroke-linejoin:round;stroke:rgb(100%,84.313725%,0%);stroke-opacity:1;stroke-miterlimit:10;" d="M 334.992188 460 L 306.496094 469.945312 "/>
<path style="fill:none;stroke-width:2;stroke-linecap:round;stroke-linejoin:round;stroke:rgb(100%,84.313725%,0%);stroke-opacity:1;stroke-miterlimit:10;" d="M 334.992188 460 L 359.789062 442.339844 "/>
<path style="fill:none;stroke-width:2;stroke-linecap:round;stroke-linejoin:round;stroke:rgb(100%,84.313725%,0%);stroke-opacity:1;stroke-miterlimit:10;" d="M 334.992188 460 L 348.820312 486.675781 "/>
<path style="fill:none;stroke-width:2;stroke-linecap:round;stroke-linejoin:round;stroke:rgb(100%,84.313725%,0%);stroke-opacity:1;stroke-miterlimit:10;" d="M 334.992188 460 L 332.214844 490.261719 "/>
<path style="fill:none;stroke-width:2;stroke-linecap:round;stroke-linejoin:round;stroke:rgb(100%,84.313725%,0%);stroke-opacity:1;stroke-miterlimit:10;" d="M 334.992188 460 L 346.191406 431.953125 "/>
<path style="fill:none;stroke-width:2;stroke-linecap:round;stroke-linejoin:round;stroke:rgb(100%,84.313725%,0%);stroke-opacity:1;stroke-miterlimit:10;" d="M 334.992188 460 L 364.980469 458.535156 "/>
<path style="fill:none;stroke-width:2;stroke-linecap:round;stroke-linejoin:round;stroke:rgb(100%,84.313725%,0%);stroke-opacity:1;stroke-miterlimit:10;" d="M 334.992188 460 L 314.09375 438.140625 "/>
<path style="fill:none;stroke-width:2;stroke-linecap:round;stroke-linejoin:round;stroke:rgb(100%,84.313725%,0%);stroke-opacity:1;stroke-miterlimit:10;" d="M 334.992188 460 L 329.234375 430.261719 "/>
<path style="fill:none;stroke-width:2;stroke-linecap:round;stroke-linejoin:round;stroke:rgb(100%,84.313725%,0%);stroke-opacity:1;stroke-miterlimit:10;" d="M 334.992188 460 L 316.320312 483.859375 "/>
<path style="fill:none;stroke-width:2;stroke-linecap:round;stroke-linejoin:round;stroke:rgb(100%,84.313725%,0%);stroke-opacity:1;stroke-miterlimit:10;" d="M 334.992188 460 L 361.472656 475.222656 "/>
<path style="fill-rule:nonzero;fill:rgb(58.4%,34.5%,69.8%);fill-opacity:1;stroke-width:2;stroke-linecap:butt;stroke-linejoin:round;stroke:rgb(100%,84.313725%,0%);stroke-opacity:1;stroke-miterlimit:10;" d="M 340.992188 460 C 340.992188 463.316406 338.308594 466 334.992188 466 C 331.679688 466 328.992188 463.316406 328.992188 460 C 328.992188 456.6875 331.679688 454 334.992188 454 C 338.308594 454 340.992188 456.6875 340.992188 460 "/>
<path style="fill-rule:nonzero;fill:rgb(22%,59.6%,14.9%);fill-opacity:1;stroke-width:2;stroke-linecap:butt;stroke-linejoin:round;stroke:rgb(100%,84.313725%,0%);stroke-opacity:1;stroke-miterlimit:10;" d="M 311.5 452.917969 C 311.5 456.234375 308.8125 458.917969 305.5 458.917969 C 302.1875 458.917969 299.5 456.234375 299.5 452.917969 C 299.5 449.605469 302.1875 446.917969 305.5 446.917969 C 308.8125 446.917969 311.5 449.605469 311.5 452.917969 "/>
<path style="fill-rule:nonzero;fill:rgb(79.6%,23.5%,20%);fill-opacity:1;stroke-width:2;stroke-linecap:butt;stroke-linejoin:round;stroke:rgb(100%,84.313725%,0%);stroke-opacity:1;stroke-miterlimit:10;" d="M 312.496094 469.945312 C 312.496094 473.257812 309.808594 475.945312 306.496094 475.945312 C 303.179688 475.945312 300.496094 473.257812 300.496094 469.945312 C 300.496094 466.632812 303.179688 463.945312 306.496094 463.945312 C 309.808594 463.945312 312.496094 466.632812 312.496094 469.945312 "/>
<path style="fill-rule:nonzero;fill:rgb(58.4%,34.5%,69.8%);fill-opacity:1;stroke-width:2;stroke-linecap:butt;stroke-linejoin:round;stroke:rgb(100%,84.313725%,0%);stroke-opacity:1;stroke-miterlimit:10;" d="M 365.789062 442.339844 C 365.789062 445.65625 363.105469 448.339844 359.789062 448.339844 C 356.476562 448.339844 353.789062 445.65625 353.789062 442.339844 C 353.789062 439.027344 356.476562 436.339844 359.789062 436.339844 C 363.105469 436.339844 365.789062 439.027344 365.789062 442.339844 "/>
<path style="fill-rule:nonzero;fill:rgb(22%,59.6%,14.9%);fill-opacity:1;stroke-width:2;stroke-linecap:butt;stroke-linejoin:round;stroke:rgb(100%,84.313725%,0%);stroke-opacity:1;stroke-miterlimit:10;" d="M 354.820312 486.675781 C 354.820312 489.988281 352.136719 492.675781 348.820312 492.675781 C 345.507812 492.675781 342.820312 489.988281 342.820312 486.675781 C 342.820312 483.363281 345.507812 480.675781 348.820312 480.675781 C 352.136719 480.675781 354.820312 483.363281 354.820312 486.675781 "/>
<path style="fill-rule:nonzero;fill:rgb(79.6%,23.5%,20%);fill-opacity:1;stroke-width:2;stroke-linecap:butt;stroke-linejoin:round;stroke:rgb(100%,84.313725%,0%);stroke-opacity:1;stroke-miterlimit:10;" d="M 338.214844 490.261719 C 338.214844 493.574219 335.527344 496.261719 332.214844 496.261719 C 328.902344 496.261719 326.214844 493.574219 326.214844 490.261719 C 326.214844 486.949219 328.902344 484.261719 332.214844 484.261719 C 335.527344 484.261719 338.214844 486.949219 338.214844 490.261719 "/>
<path style="fill-rule:nonzero;fill:rgb(58.4%,34.5%,69.8%);fill-opacity:1;stroke-width:2;stroke-linecap:butt;stroke-linejoin:round;stroke:rgb(100%,84.313725%,0%);stroke-opacity:1;stroke-miterlimit:10;" d="M 352.191406 431.953125 C 352.191406 435.265625 349.507812 437.953125 346.191406 437.953125 C 342.878906 437.953125 340.191406 435.265625 340.191406 431.953125 C 340.191406 428.640625 342.878906 425.953125 346.191406 425.953125 C 349.507812 425.953125 352.191406 428.640625 352.191406 431.953125 "/>
<path style="fill-rule:nonzero;fill:rgb(22%,59.6%,14.9%);fill-opacity:1;stroke-width:2;stroke-linecap:butt;stroke-linejoin:round;stroke:rgb(100%,84.313725%,0%);stroke-opacity:1;stroke-miterlimit:10;" d="M 370.980469 458.535156 C 370.980469 461.847656 368.292969 464.535156 364.980469 464.535156 C 361.667969 464.535156 358.980469 461.847656 358.980469 458.535156 C 358.980469 455.222656 361.667969 452.535156 364.980469 452.535156 C 368.292969 452.535156 370.980469 455.222656 370.980469 458.535156 "/>
<path style="fill-rule:nonzero;fill:rgb(79.6%,23.5%,20%);fill-opacity:1;stroke-width:2;stroke-linecap:butt;stroke-linejoin:round;stroke:rgb(100%,84.313725%,0%);stroke-opacity:1;stroke-miterlimit:10;" d="M 320.09375 438.140625 C 320.09375 441.457031 317.410156 444.140625 314.09375 444.140625 C 310.78125 444.140625 308.09375 441.457031 308.09375 438.140625 C 308.09375 434.828125 310.78125 432.140625 314.09375 432.140625 C 317.410156 432.140625 320.09375 434.828125 320.09375 438.140625 "/>
<path style="fill-rule:nonzero;fill:rgb(58.4%,34.5%,69.8%);fill-opacity:1;stroke-width:2;stroke-linecap:butt;stroke-linejoin:round;stroke:rgb(100%,84.313725%,0%);stroke-opacity:1;stroke-miterlimit:10;" d="M 335.234375 430.261719 C 335.234375 433.574219 332.546875 436.261719 329.234375 436.261719 C 325.921875 436.261719 323.234375 433.574219 323.234375 430.261719 C 323.234375 426.949219 325.921875 424.261719 329.234375 424.261719 C 332.546875 424.261719 335.234375 426.949219 335.234375 430.261719 "/>
<path style="fill-rule:nonzero;fill:rgb(22%,59.6%,14.9%);fill-opacity:1;stroke-width:2;stroke-linecap:butt;stroke-linejoin:round;stroke:rgb(100%,84.313725%,0%);stroke-opacity:1;stroke-miterlimit:10;" d="M 322.320312 483.859375 C 322.320312 487.171875 319.636719 489.859375 316.320312 489.859375 C 313.007812 489.859375 310.320312 487.171875 310.320312 483.859375 C 310.320312 480.542969 313.007812 477.859375 316.320312 477.859375 C 319.636719 477.859375 322.320312 480.542969 322.320312 483.859375 "/>
<path style="fill-rule:nonzero;fill:rgb(79.6%,23.5%,20%);fill-opacity:1;stroke-width:2;stroke-linecap:butt;stroke-linejoin:round;stroke:rgb(100%,84.313725%,0%);stroke-opacity:1;stroke-miterlimit:10;" d="M 367.472656 475.222656 C 367.472656 478.539062 364.785156 481.222656 361.472656 481.222656 C 358.15625 481.222656 355.472656 478.539062 355.472656 475.222656 C 355.472656 471.910156 358.15625 469.222656 361.472656 469.222656 C 364.785156 469.222656 367.472656 471.910156 367.472656 475.222656 "/>
</g>
</svg>
