<?xml version="1.0" encoding="UTF-8"?>
<svg xmlns="http://www.w3.org/2000/svg" xmlns:xlink="http://www.w3.org/1999/xlink" width="800" height="300" viewBox="0 0 800 300">
<defs>
<clipPath id="clip-0">
<path clip-rule="nonzero" d="M 0 0 L 400 0 L 400 300 L 0 300 Z M 0 0 "/>
</clipPath>
<clipPath id="clip-1">
<path clip-rule="nonzero" d="M 400 0 L 800 0 L 800 300 L 400 300 Z M 400 0 "/>
</clipPath>
</defs>
<g clip-path="url(#clip-0)">
<path fill-rule="nonzero" fill="rgb(10.196079%, 10.196079%, 10.196079%)" fill-opacity="1" d="M -40 -30 L 440 -30 L 440 330 L -40 330 Z M -40 -30 "/>
</g>
<path fill="none" stroke-width="1" stroke-linecap="butt" stroke-linejoin="miter" stroke="rgb(100%, 84.313726%, 0%)" stroke-opacity="1" stroke-miterlimit="10" d="M 162.917969 264.125 L 80 150 "/>
<path fill="none" stroke-width="1" stroke-linecap="butt" stroke-linejoin="miter" stroke="rgb(100%, 84.313726%, 0%)" stroke-opacity="1" stroke-miterlimit="10" d="M 102.917969 220.535156 L 237.082031 35.875 "/>
<path fill="none" stroke-width="1" stroke-linecap="butt" stroke-linejoin="miter" stroke="rgb(100%, 84.313726%, 0%)" stroke-opacity="1" stroke-miterlimit="10" d="M 80 150 L 237.082031 35.875 "/>
<path fill="none" stroke-width="1" stroke-linecap="butt" stroke-linejoin="miter" stroke="rgb(100%, 84.313726%, 0%)" stroke-opacity="1" stroke-miterlimit="10" d="M 102.917969 79.464844 L 237.082031 35.875 "/>
<path fill="none" stroke-width="1" stroke-linecap="butt" stroke-linejoin="miter" stroke="rgb(100%, 84.313726%, 0%)" stroke-opacity="1" stroke-miterlimit="10" d="M 162.917969 35.875 L 237.082031 35.875 "/>
<path fill-rule="nonzero" fill="rgb(100%, 84.313726%, 0%)" fill-opacity="1" stroke-width="1" stroke-linecap="butt" stroke-linejoin="miter" stroke="rgb(100%, 84.313726%, 0%)" stroke-opacity="1" stroke-miterlimit="10" d="M 326 150 C 326 153.3125 323.3125 156 320 156 C 316.6875 156 314 153.3125 314 150 C 314 146.6875 316.6875 144 320 144 C 323.3125 144 326 146.6875 326 150 Z M 326 150 "/>
<path fill-rule="nonzero" fill="rgb(0%, 0%, 0%)" fill-opacity="1" d="M 318.054688 152.816406 L 319.679688 152.816406 L 319.679688 147.253906 L 317.914062 147.597656 L 317.914062 146.707031 L 319.664062 146.347656 L 320.648438 146.347656 L 320.648438 152.816406 L 322.257812 152.816406 L 322.257812 153.644531 L 318.054688 153.644531 Z M 318.054688 152.816406 "/>
<path fill-rule="nonzero" fill="rgb(100%, 84.313726%, 0%)" fill-opacity="1" stroke-width="1" stroke-linecap="butt" stroke-linejoin="miter" stroke="rgb(100%, 84.313726%, 0%)" stroke-opacity="1" stroke-miterlimit="10" d="M 303.082031 220.535156 C 303.082031 223.847656 300.394531 226.535156 297.082031 226.535156 C 293.769531 226.535156 291.082031 223.847656 291.082031 220.535156 C 291.082031 217.21875 293.769531 214.535156 297.082031 214.535156 C 300.394531 214.535156 303.082031 217.21875 303.082031 220.535156 Z M 303.082031 220.535156 "/>
<path fill-rule="nonzero" fill="rgb(0%, 0%, 0%)" fill-opacity="1" d="M 295.824219 223.417969 L 299.261719 223.417969 L 299.261719 224.246094 L 294.636719 224.246094 L 294.636719 223.417969 C 295.011719 223.035156 295.519531 222.511719 296.167969 221.855469 C 296.8125 221.199219 297.21875 220.777344 297.386719 220.589844 C 297.699219 220.238281 297.917969 219.941406 298.042969 219.699219 C 298.167969 219.449219 298.230469 219.207031 298.230469 218.964844 C 298.230469 218.582031 298.09375 218.269531 297.824219 218.027344 C 297.550781 217.777344 297.199219 217.652344 296.761719 217.652344 C 296.449219 217.652344 296.121094 217.710938 295.777344 217.824219 C 295.441406 217.929688 295.078125 218.089844 294.683594 218.308594 L 294.683594 217.308594 C 295.078125 217.152344 295.449219 217.035156 295.792969 216.949219 C 296.136719 216.867188 296.453125 216.824219 296.746094 216.824219 C 297.496094 216.824219 298.09375 217.011719 298.542969 217.386719 C 299 217.761719 299.230469 218.269531 299.230469 218.902344 C 299.230469 219.207031 299.171875 219.492188 299.058594 219.761719 C 298.941406 220.023438 298.738281 220.335938 298.449219 220.699219 C 298.363281 220.792969 298.105469 221.070312 297.667969 221.527344 C 297.230469 221.976562 296.613281 222.605469 295.824219 223.417969 Z M 295.824219 223.417969 "/>
<path fill-rule="nonzero" fill="rgb(100%, 84.313726%, 0%)" fill-opacity="1" stroke-width="1" stroke-linecap="butt" stroke-linejoin="miter" stroke="rgb(100%, 84.313726%, 0%)" stroke-opacity="1" stroke-miterlimit="10" d="M 243.082031 264.125 C 243.082031 267.441406 240.394531 270.125 237.082031 270.125 C 233.769531 270.125 231.082031 267.441406 231.082031 264.125 C 231.082031 260.8125 233.769531 258.125 237.082031 258.125 C 240.394531 258.125 243.082031 260.8125 243.082031 264.125 Z M 243.082031 264.125 "/>
<path fill-rule="nonzero" fill="rgb(0%, 0%, 0%)" fill-opacity="1" d="M 237.964844 263.898438 C 238.433594 264.003906 238.796875 264.21875 239.058594 264.539062 C 239.328125 264.851562 239.464844 265.242188 239.464844 265.710938 C 239.464844 266.429688 239.214844 266.988281 238.714844 267.382812 C 238.222656 267.78125 237.519531 267.976562 236.605469 267.976562 C 236.300781 267.976562 235.988281 267.945312 235.667969 267.882812 C 235.34375 267.820312 235.011719 267.734375 234.667969 267.617188 L 234.667969 266.664062 C 234.9375 266.820312 235.234375 266.941406 235.558594 267.023438 C 235.890625 267.109375 236.234375 267.148438 236.589844 267.148438 C 237.203125 267.148438 237.671875 267.03125 237.996094 266.789062 C 238.316406 266.539062 238.480469 266.179688 238.480469 265.710938 C 238.480469 265.285156 238.328125 264.953125 238.027344 264.710938 C 237.722656 264.472656 237.308594 264.351562 236.777344 264.351562 L 235.917969 264.351562 L 235.917969 263.539062 L 236.808594 263.539062 C 237.296875 263.539062 237.667969 263.441406 237.917969 263.242188 C 238.175781 263.046875 238.308594 262.765625 238.308594 262.398438 C 238.308594 262.035156 238.171875 261.753906 237.902344 261.554688 C 237.640625 261.347656 237.265625 261.242188 236.777344 261.242188 C 236.503906 261.242188 236.214844 261.273438 235.902344 261.335938 C 235.589844 261.390625 235.25 261.476562 234.886719 261.601562 L 234.886719 260.726562 C 235.261719 260.625 235.609375 260.546875 235.933594 260.492188 C 236.265625 260.441406 236.574219 260.414062 236.855469 260.414062 C 237.605469 260.414062 238.199219 260.585938 238.636719 260.929688 C 239.074219 261.265625 239.292969 261.722656 239.292969 262.304688 C 239.292969 262.710938 239.175781 263.054688 238.949219 263.335938 C 238.71875 263.609375 238.390625 263.796875 237.964844 263.898438 Z M 237.964844 263.898438 "/>
<path fill-rule="nonzero" fill="rgb(100%, 84.313726%, 0%)" fill-opacity="1" stroke-width="1" stroke-linecap="butt" stroke-linejoin="miter" stroke="rgb(100%, 84.313726%, 0%)" stroke-opacity="1" stroke-miterlimit="10" d="M 168.917969 264.125 C 168.917969 267.441406 166.230469 270.125 162.917969 270.125 C 159.605469 270.125 156.917969 267.441406 156.917969 264.125 C 156.917969 260.8125 159.605469 258.125 162.917969 258.125 C 166.230469 258.125 168.917969 260.8125 168.917969 264.125 Z M 168.917969 264.125 "/>
<path fill-rule="nonzero" fill="rgb(0%, 0%, 0%)" fill-opacity="1" d="M 163.519531 261.335938 L 161.035156 265.226562 L 163.519531 265.226562 Z M 163.253906 260.476562 L 164.503906 260.476562 L 164.503906 265.226562 L 165.535156 265.226562 L 165.535156 266.054688 L 164.503906 266.054688 L 164.503906 267.773438 L 163.519531 267.773438 L 163.519531 266.054688 L 160.222656 266.054688 L 160.222656 265.101562 Z M 163.253906 260.476562 "/>
<path fill-rule="nonzero" fill="rgb(100%, 84.313726%, 0%)" fill-opacity="1" stroke-width="1" stroke-linecap="butt" stroke-linejoin="miter" stroke="rgb(100%, 84.313726%, 0%)" stroke-opacity="1" stroke-miterlimit="10" d="M 108.917969 220.535156 C 108.917969 223.847656 106.230469 226.535156 102.917969 226.535156 C 99.605469 226.535156 96.917969 223.847656 96.917969 220.535156 C 96.917969 217.21875 99.605469 214.535156 102.917969 214.535156 C 106.230469 214.535156 108.917969 217.21875 108.917969 220.535156 Z M 108.917969 220.535156 "/>
<path fill-rule="nonzero" fill="rgb(0%, 0%, 0%)" fill-opacity="1" d="M 100.816406 216.882812 L 104.691406 216.882812 L 104.691406 217.726562 L 101.722656 217.726562 L 101.722656 219.507812 C 101.867188 219.457031 102.007812 219.421875 102.144531 219.398438 C 102.289062 219.378906 102.433594 219.367188 102.582031 219.367188 C 103.394531 219.367188 104.035156 219.59375 104.503906 220.039062 C 104.980469 220.476562 105.222656 221.078125 105.222656 221.835938 C 105.222656 222.628906 104.976562 223.242188 104.488281 223.679688 C 104.007812 224.109375 103.320312 224.320312 102.425781 224.320312 C 102.121094 224.320312 101.808594 224.292969 101.488281 224.242188 C 101.175781 224.1875 100.847656 224.113281 100.503906 224.007812 L 100.503906 223.023438 C 100.804688 223.179688 101.113281 223.300781 101.425781 223.382812 C 101.738281 223.457031 102.066406 223.492188 102.410156 223.492188 C 102.972656 223.492188 103.414062 223.347656 103.738281 223.054688 C 104.070312 222.753906 104.238281 222.347656 104.238281 221.835938 C 104.238281 221.335938 104.070312 220.941406 103.738281 220.648438 C 103.414062 220.347656 102.972656 220.195312 102.410156 220.195312 C 102.148438 220.195312 101.882812 220.226562 101.613281 220.289062 C 101.351562 220.34375 101.085938 220.429688 100.816406 220.554688 Z M 100.816406 216.882812 "/>
<path fill-rule="nonzero" fill="rgb(100%, 84.313726%, 0%)" fill-opacity="1" stroke-width="1" stroke-linecap="butt" stroke-linejoin="miter" stroke="rgb(100%, 84.313726%, 0%)" stroke-opacity="1" stroke-miterlimit="10" d="M 86 150 C 86 153.3125 83.3125 156 80 156 C 76.6875 156 74 153.3125 74 150 C 74 146.6875 76.6875 144 80 144 C 83.3125 144 86 146.6875 86 150 Z M 86 150 "/>
<path fill-rule="nonzero" fill="rgb(0%, 0%, 0%)" fill-opacity="1" d="M 80.117188 149.679688 C 79.679688 149.679688 79.328125 149.832031 79.070312 150.132812 C 78.808594 150.4375 78.679688 150.847656 78.679688 151.367188 C 78.679688 151.898438 78.808594 152.316406 79.070312 152.617188 C 79.328125 152.921875 79.679688 153.070312 80.117188 153.070312 C 80.5625 153.070312 80.914062 152.921875 81.164062 152.617188 C 81.421875 152.316406 81.554688 151.898438 81.554688 151.367188 C 81.554688 150.847656 81.421875 150.4375 81.164062 150.132812 C 80.914062 149.832031 80.5625 149.679688 80.117188 149.679688 Z M 82.085938 146.585938 L 82.085938 147.476562 C 81.835938 147.363281 81.578125 147.273438 81.320312 147.210938 C 81.070312 147.148438 80.824219 147.117188 80.585938 147.117188 C 79.929688 147.117188 79.429688 147.335938 79.085938 147.773438 C 78.742188 148.210938 78.546875 148.878906 78.507812 149.773438 C 78.695312 149.492188 78.933594 149.28125 79.226562 149.132812 C 79.515625 148.976562 79.835938 148.898438 80.179688 148.898438 C 80.90625 148.898438 81.484375 149.125 81.914062 149.570312 C 82.339844 150.007812 82.554688 150.609375 82.554688 151.367188 C 82.554688 152.117188 82.328125 152.722656 81.882812 153.179688 C 81.445312 153.628906 80.855469 153.851562 80.117188 153.851562 C 79.273438 153.851562 78.625 153.53125 78.179688 152.882812 C 77.742188 152.238281 77.523438 151.300781 77.523438 150.070312 C 77.523438 148.925781 77.792969 148.007812 78.335938 147.320312 C 78.886719 146.632812 79.621094 146.289062 80.539062 146.289062 C 80.789062 146.289062 81.039062 146.316406 81.289062 146.367188 C 81.539062 146.410156 81.804688 146.484375 82.085938 146.585938 Z M 82.085938 146.585938 "/>
<path fill-rule="nonzero" fill="rgb(100%, 84.313726%, 0%)" fill-opacity="1" stroke-width="1" stroke-linecap="butt" stroke-linejoin="miter" stroke="rgb(100%, 84.313726%, 0%)" stroke-opacity="1" stroke-miterlimit="10" d="M 108.917969 79.464844 C 108.917969 82.78125 106.230469 85.464844 102.917969 85.464844 C 99.605469 85.464844 96.917969 82.78125 96.917969 79.464844 C 96.917969 76.152344 99.605469 73.464844 102.917969 73.464844 C 106.230469 73.464844 108.917969 76.152344 108.917969 79.464844 Z M 108.917969 79.464844 "/>
<path fill-rule="nonzero" fill="rgb(0%, 0%, 0%)" fill-opacity="1" d="M 100.566406 75.8125 L 105.253906 75.8125 L 105.253906 76.234375 L 102.597656 83.109375 L 101.566406 83.109375 L 104.066406 76.65625 L 100.566406 76.65625 Z M 100.566406 75.8125 "/>
<path fill-rule="nonzero" fill="rgb(100%, 84.313726%, 0%)" fill-opacity="1" stroke-width="1" stroke-linecap="butt" stroke-linejoin="miter" stroke="rgb(100%, 84.313726%, 0%)" stroke-opacity="1" stroke-miterlimit="10" d="M 168.917969 35.875 C 168.917969 39.1875 166.230469 41.875 162.917969 41.875 C 159.605469 41.875 156.917969 39.1875 156.917969 35.875 C 156.917969 32.558594 159.605469 29.875 162.917969 29.875 C 166.230469 29.875 168.917969 32.558594 168.917969 35.875 Z M 168.917969 35.875 "/>
<path fill-rule="nonzero" fill="rgb(0%, 0%, 0%)" fill-opacity="1" d="M 162.910156 36.117188 C 162.441406 36.117188 162.070312 36.25 161.800781 36.507812 C 161.539062 36.757812 161.410156 37.101562 161.410156 37.539062 C 161.410156 37.976562 161.539062 38.320312 161.800781 38.570312 C 162.070312 38.820312 162.441406 38.945312 162.910156 38.945312 C 163.378906 38.945312 163.746094 38.820312 164.019531 38.570312 C 164.289062 38.320312 164.425781 37.976562 164.425781 37.539062 C 164.425781 37.101562 164.289062 36.757812 164.019531 36.507812 C 163.757812 36.25 163.386719 36.117188 162.910156 36.117188 Z M 161.925781 35.710938 C 161.507812 35.609375 161.179688 35.410156 160.941406 35.117188 C 160.699219 34.828125 160.582031 34.472656 160.582031 34.054688 C 160.582031 33.472656 160.789062 33.015625 161.207031 32.679688 C 161.621094 32.335938 162.191406 32.164062 162.910156 32.164062 C 163.636719 32.164062 164.210938 32.335938 164.628906 32.679688 C 165.042969 33.015625 165.253906 33.472656 165.253906 34.054688 C 165.253906 34.472656 165.132812 34.828125 164.894531 35.117188 C 164.652344 35.410156 164.324219 35.609375 163.910156 35.710938 C 164.386719 35.816406 164.757812 36.03125 165.019531 36.351562 C 165.277344 36.675781 165.410156 37.070312 165.410156 37.539062 C 165.410156 38.25 165.195312 38.789062 164.769531 39.164062 C 164.339844 39.539062 163.722656 39.726562 162.910156 39.726562 C 162.105469 39.726562 161.488281 39.539062 161.050781 39.164062 C 160.621094 38.789062 160.410156 38.25 160.410156 37.539062 C 160.410156 37.070312 160.542969 36.675781 160.816406 36.351562 C 161.085938 36.03125 161.457031 35.816406 161.925781 35.710938 Z M 161.566406 34.148438 C 161.566406 34.523438 161.683594 34.820312 161.925781 35.039062 C 162.164062 35.25 162.492188 35.351562 162.910156 35.351562 C 163.335938 35.351562 163.667969 35.25 163.910156 35.039062 C 164.148438 34.820312 164.269531 34.523438 164.269531 34.148438 C 164.269531 33.773438 164.148438 33.484375 163.910156 33.273438 C 163.667969 33.054688 163.335938 32.945312 162.910156 32.945312 C 162.492188 32.945312 162.164062 33.054688 161.925781 33.273438 C 161.683594 33.484375 161.566406 33.773438 161.566406 34.148438 Z M 161.566406 34.148438 "/>
<path fill-rule="nonzero" fill="rgb(100%, 84.313726%, 0%)" fill-opacity="1" stroke-width="1" stroke-linecap="butt" stroke-linejoin="miter" stroke="rgb(100%, 84.313726%, 0%)" stroke-opacity="1" stroke-miterlimit="10" d="M 243.082031 35.875 C 243.082031 39.1875 240.394531 41.875 237.082031 41.875 C 233.769531 41.875 231.082031 39.1875 231.082031 35.875 C 231.082031 32.558594 233.769531 29.875 237.082031 29.875 C 240.394531 29.875 243.082031 32.558594 243.082031 35.875 Z M 243.082031 35.875 "/>
<path fill-rule="nonzero" fill="rgb(0%, 0%, 0%)" fill-opacity="1" d="M 234.996094 39.429688 L 234.996094 38.539062 C 235.246094 38.65625 235.496094 38.742188 235.746094 38.804688 C 236.003906 38.867188 236.253906 38.898438 236.496094 38.898438 C 237.152344 38.898438 237.652344 38.679688 237.996094 38.242188 C 238.339844 37.804688 238.53125 37.140625 238.574219 36.242188 C 238.386719 36.523438 238.144531 36.742188 237.855469 36.898438 C 237.574219 37.046875 237.253906 37.117188 236.902344 37.117188 C 236.171875 37.117188 235.59375 36.898438 235.167969 36.460938 C 234.738281 36.015625 234.527344 35.410156 234.527344 34.648438 C 234.527344 33.898438 234.746094 33.300781 235.183594 32.851562 C 235.628906 32.394531 236.222656 32.164062 236.964844 32.164062 C 237.808594 32.164062 238.449219 32.488281 238.886719 33.132812 C 239.332031 33.78125 239.558594 34.71875 239.558594 35.945312 C 239.558594 37.09375 239.285156 38.007812 238.746094 38.695312 C 238.203125 39.382812 237.46875 39.726562 236.542969 39.726562 C 236.292969 39.726562 236.042969 39.699219 235.792969 39.648438 C 235.542969 39.605469 235.277344 39.535156 234.996094 39.429688 Z M 236.964844 36.335938 C 237.402344 36.335938 237.75 36.1875 238.011719 35.882812 C 238.269531 35.582031 238.402344 35.171875 238.402344 34.648438 C 238.402344 34.117188 238.269531 33.703125 238.011719 33.398438 C 237.75 33.097656 237.402344 32.945312 236.964844 32.945312 C 236.515625 32.945312 236.160156 33.097656 235.902344 33.398438 C 235.652344 33.703125 235.527344 34.117188 235.527344 34.648438 C 235.527344 35.171875 235.652344 35.582031 235.902344 35.882812 C 236.160156 36.1875 236.515625 36.335938 236.964844 36.335938 Z M 236.964844 36.335938 "/>
<path fill-rule="nonzero" fill="rgb(100%, 84.313726%, 0%)" fill-opacity="1" stroke-width="1" stroke-linecap="butt" stroke-linejoin="miter" stroke="rgb(100%, 84.313726%, 0%)" stroke-opacity="1" stroke-miterlimit="10" d="M 303.082031 79.464844 C 303.082031 82.78125 300.394531 85.464844 297.082031 85.464844 C 293.769531 85.464844 291.082031 82.78125 291.082031 79.464844 C 291.082031 76.152344 293.769531 73.464844 297.082031 73.464844 C 300.394531 73.464844 303.082031 76.152344 303.082031 79.464844 Z M 303.082031 79.464844 "/>
<path fill-rule="nonzero" fill="rgb(0%, 0%, 0%)" fill-opacity="1" d="M 291.953125 82.347656 L 293.578125 82.347656 L 293.578125 76.785156 L 291.8125 77.128906 L 291.8125 76.238281 L 293.5625 75.878906 L 294.546875 75.878906 L 294.546875 82.347656 L 296.15625 82.347656 L 296.15625 83.175781 L 291.953125 83.175781 Z M 291.953125 82.347656 "/>
<path fill-rule="nonzero" fill="rgb(0%, 0%, 0%)" fill-opacity="1" d="M 300.253906 76.535156 C 299.753906 76.535156 299.371094 76.785156 299.113281 77.285156 C 298.863281 77.785156 298.738281 78.535156 298.738281 79.535156 C 298.738281 80.535156 298.863281 81.285156 299.113281 81.785156 C 299.371094 82.285156 299.753906 82.535156 300.253906 82.535156 C 300.773438 82.535156 301.160156 82.285156 301.410156 81.785156 C 301.667969 81.285156 301.800781 80.535156 301.800781 79.535156 C 301.800781 78.535156 301.667969 77.785156 301.410156 77.285156 C 301.160156 76.785156 300.773438 76.535156 300.253906 76.535156 Z M 300.253906 75.753906 C 301.074219 75.753906 301.699219 76.078125 302.128906 76.722656 C 302.566406 77.371094 302.785156 78.308594 302.785156 79.535156 C 302.785156 80.765625 302.566406 81.703125 302.128906 82.347656 C 301.699219 82.996094 301.074219 83.316406 300.253906 83.316406 C 299.441406 83.316406 298.816406 82.996094 298.378906 82.347656 C 297.949219 81.703125 297.738281 80.765625 297.738281 79.535156 C 297.738281 78.308594 297.949219 77.371094 298.378906 76.722656 C 298.816406 76.078125 299.441406 75.753906 300.253906 75.753906 Z M 300.253906 75.753906 "/>
<g clip-path="url(#clip-1)">
<path fill-rule="nonzero" fill="rgb(10.196079%, 10.196079%, 10.196079%)" fill-opacity="1" d="M 360 -30 L 840 -30 L 840 330 L 360 330 Z M 360 -30 "/>
</g>
<path fill="none" stroke-width="1" stroke-linecap="butt" stroke-linejoin="miter" stroke="rgb(69.803923%, 13.333334%, 13.333334%)" stroke-opacity="1" stroke-miterlimit="10" d="M 316.472656 145.144531 C 293.207031 113.125 269.941406 81.101562 246.679688 49.082031 " transform="matrix(1, 0, 0, 1, 400, 0)"/>
<path fill-rule="nonzero" fill="rgb(69.803923%, 13.333334%, 13.333334%)" fill-opacity="1" d="M 643.410156 52.394531 L 640.609375 40.726562 L 650.839844 46.996094 "/>
<path fill="none" stroke-width="1" stroke-linecap="butt" stroke-linejoin="miter" stroke="rgb(69.803923%, 13.333334%, 13.333334%)" stroke-opacity="1" stroke-miterlimit="10" d="M 233.554688 259.273438 C 193.304688 203.871094 153.050781 148.46875 112.800781 93.066406 " transform="matrix(1, 0, 0, 1, 400, 0)"/>
<path fill-rule="nonzero" fill="rgb(69.803923%, 13.333334%, 13.333334%)" fill-opacity="1" d="M 509.246094 95.988281 L 506.445312 84.320312 L 516.675781 90.589844 "/>
<path fill="none" stroke-width="1" stroke-linecap="butt" stroke-linejoin="miter" stroke="rgb(69.803923%, 13.333334%, 13.333334%)" stroke-opacity="1" stroke-miterlimit="10" d="M 108.625 222.386719 C 146.269531 234.621094 183.910156 246.851562 221.554688 259.082031 " transform="matrix(1, 0, 0, 1, 400, 0)"/>
<path fill-rule="nonzero" fill="rgb(69.803923%, 13.333334%, 13.333334%)" fill-opacity="1" d="M 622.25 254.480469 L 631.375 262.273438 L 619.414062 263.214844 "/>
<path fill-rule="nonzero" fill="rgb(69.803923%, 13.333334%, 13.333334%)" fill-opacity="1" stroke-width="1" stroke-linecap="butt" stroke-linejoin="miter" stroke="rgb(69.803923%, 13.333334%, 13.333334%)" stroke-opacity="1" stroke-miterlimit="10" d="M 326 150 C 326 153.3125 323.3125 156 320 156 C 316.6875 156 314 153.3125 314 150 C 314 146.6875 316.6875 144 320 144 C 323.3125 144 326 146.6875 326 150 Z M 326 150 " transform="matrix(1, 0, 0, 1, 400, 0)"/>
<path fill-rule="nonzero" fill="rgb(100%, 100%, 100%)" fill-opacity="1" d="M 718.054688 152.816406 L 719.679688 152.816406 L 719.679688 147.253906 L 717.914062 147.597656 L 717.914062 146.707031 L 719.664062 146.347656 L 720.648438 146.347656 L 720.648438 152.816406 L 722.257812 152.816406 L 722.257812 153.644531 L 718.054688 153.644531 Z M 718.054688 152.816406 "/>
<path fill-rule="nonzero" fill="rgb(69.803923%, 13.333334%, 13.333334%)" fill-opacity="1" stroke-width="1" stroke-linecap="butt" stroke-linejoin="miter" stroke="rgb(69.803923%, 13.333334%, 13.333334%)" stroke-opacity="1" stroke-miterlimit="10" d="M 243.082031 264.125 C 243.082031 267.441406 240.394531 270.125 237.082031 270.125 C 233.769531 270.125 231.082031 267.441406 231.082031 264.125 C 231.082031 260.8125 233.769531 258.125 237.082031 258.125 C 240.394531 258.125 243.082031 260.8125 243.082031 264.125 Z M 243.082031 264.125 " transform="matrix(1, 0, 0, 1, 400, 0)"/>
<path fill-rule="nonzero" fill="rgb(100%, 100%, 100%)" fill-opacity="1" d="M 635.824219 267.007812 L 639.261719 267.007812 L 639.261719 267.835938 L 634.636719 267.835938 L 634.636719 267.007812 C 635.011719 266.625 635.519531 266.101562 636.167969 265.445312 C 636.8125 264.789062 637.21875 264.367188 637.386719 264.179688 C 637.699219 263.828125 637.917969 263.53125 638.042969 263.289062 C 638.167969 263.039062 638.230469 262.796875 638.230469 262.554688 C 638.230469 262.171875 638.09375 261.859375 637.824219 261.617188 C 637.550781 261.367188 637.199219 261.242188 636.761719 261.242188 C 636.449219 261.242188 636.121094 261.300781 635.777344 261.414062 C 635.441406 261.519531 635.078125 261.679688 634.683594 261.898438 L 634.683594 260.898438 C 635.078125 260.742188 635.449219 260.625 635.792969 260.539062 C 636.136719 260.457031 636.453125 260.414062 636.746094 260.414062 C 637.496094 260.414062 638.09375 260.601562 638.542969 260.976562 C 639 261.351562 639.230469 261.859375 639.230469 262.492188 C 639.230469 262.796875 639.171875 263.082031 639.058594 263.351562 C 638.941406 263.613281 638.738281 263.925781 638.449219 264.289062 C 638.363281 264.382812 638.105469 264.660156 637.667969 265.117188 C 637.230469 265.566406 636.613281 266.195312 635.824219 267.007812 Z M 635.824219 267.007812 "/>
<path fill-rule="nonzero" fill="rgb(69.803923%, 13.333334%, 13.333334%)" fill-opacity="1" stroke-width="1" stroke-linecap="butt" stroke-linejoin="miter" stroke="rgb(69.803923%, 13.333334%, 13.333334%)" stroke-opacity="1" stroke-miterlimit="10" d="M 108.917969 220.535156 C 108.917969 223.847656 106.230469 226.535156 102.917969 226.535156 C 99.605469 226.535156 96.917969 223.847656 96.917969 220.535156 C 96.917969 217.21875 99.605469 214.535156 102.917969 214.535156 C 106.230469 214.535156 108.917969 217.21875 108.917969 220.535156 Z M 108.917969 220.535156 " transform="matrix(1, 0, 0, 1, 400, 0)"/>
<path fill-rule="nonzero" fill="rgb(100%, 100%, 100%)" fill-opacity="1" d="M 503.800781 220.308594 C 504.269531 220.414062 504.632812 220.628906 504.894531 220.949219 C 505.164062 221.261719 505.300781 221.652344 505.300781 222.121094 C 505.300781 222.839844 505.050781 223.398438 504.550781 223.792969 C 504.058594 224.191406 503.355469 224.386719 502.441406 224.386719 C 502.136719 224.386719 501.824219 224.355469 501.503906 224.292969 C 501.179688 224.230469 500.847656 224.144531 500.503906 224.027344 L 500.503906 223.074219 C 500.773438 223.230469 501.070312 223.351562 501.394531 223.433594 C 501.726562 223.519531 502.070312 223.558594 502.425781 223.558594 C 503.039062 223.558594 503.507812 223.441406 503.832031 223.199219 C 504.152344 222.949219 504.316406 222.589844 504.316406 222.121094 C 504.316406 221.695312 504.164062 221.363281 503.863281 221.121094 C 503.558594 220.882812 503.144531 220.761719 502.613281 220.761719 L 501.753906 220.761719 L 501.753906 219.949219 L 502.644531 219.949219 C 503.132812 219.949219 503.503906 219.851562 503.753906 219.652344 C 504.011719 219.457031 504.144531 219.175781 504.144531 218.808594 C 504.144531 218.445312 504.007812 218.164062 503.738281 217.964844 C 503.476562 217.757812 503.101562 217.652344 502.613281 217.652344 C 502.339844 217.652344 502.050781 217.683594 501.738281 217.746094 C 501.425781 217.800781 501.085938 217.886719 500.722656 218.011719 L 500.722656 217.136719 C 501.097656 217.035156 501.445312 216.957031 501.769531 216.902344 C 502.101562 216.851562 502.410156 216.824219 502.691406 216.824219 C 503.441406 216.824219 504.035156 216.996094 504.472656 217.339844 C 504.910156 217.675781 505.128906 218.132812 505.128906 218.714844 C 505.128906 219.121094 505.011719 219.464844 504.785156 219.746094 C 504.554688 220.019531 504.226562 220.207031 503.800781 220.308594 Z M 503.800781 220.308594 "/>
<path fill-rule="nonzero" fill="rgb(69.803923%, 13.333334%, 13.333334%)" fill-opacity="1" stroke-width="1" stroke-linecap="butt" stroke-linejoin="miter" stroke="rgb(69.803923%, 13.333334%, 13.333334%)" stroke-opacity="1" stroke-miterlimit="10" d="M 108.917969 79.464844 C 108.917969 82.78125 106.230469 85.464844 102.917969 85.464844 C 99.605469 85.464844 96.917969 82.78125 96.917969 79.464844 C 96.917969 76.152344 99.605469 73.464844 102.917969 73.464844 C 106.230469 73.464844 108.917969 76.152344 108.917969 79.464844 Z M 108.917969 79.464844 " transform="matrix(1, 0, 0, 1, 400, 0)"/>
<path fill-rule="nonzero" fill="rgb(100%, 100%, 100%)" fill-opacity="1" d="M 503.519531 76.671875 L 501.035156 80.5625 L 503.519531 80.5625 Z M 503.253906 75.8125 L 504.503906 75.8125 L 504.503906 80.5625 L 505.535156 80.5625 L 505.535156 81.390625 L 504.503906 81.390625 L 504.503906 83.109375 L 503.519531 83.109375 L 503.519531 81.390625 L 500.222656 81.390625 L 500.222656 80.4375 Z M 503.253906 75.8125 "/>
<path fill-rule="nonzero" fill="rgb(69.803923%, 13.333334%, 13.333334%)" fill-opacity="1" stroke-width="1" stroke-linecap="butt" stroke-linejoin="miter" stroke="rgb(69.803923%, 13.333334%, 13.333334%)" stroke-opacity="1" stroke-miterlimit="10" d="M 243.082031 35.875 C 243.082031 39.1875 240.394531 41.875 237.082031 41.875 C 233.769531 41.875 231.082031 39.1875 231.082031 35.875 C 231.082031 32.558594 233.769531 29.875 237.082031 29.875 C 240.394531 29.875 243.082031 32.558594 243.082031 35.875 Z M 243.082031 35.875 " transform="matrix(1, 0, 0, 1, 400, 0)"/>
<path fill-rule="nonzero" fill="rgb(100%, 100%, 100%)" fill-opacity="1" d="M 634.980469 32.222656 L 638.855469 32.222656 L 638.855469 33.066406 L 635.886719 33.066406 L 635.886719 34.847656 C 636.03125 34.796875 636.171875 34.761719 636.308594 34.738281 C 636.453125 34.71875 636.597656 34.707031 636.746094 34.707031 C 637.558594 34.707031 638.199219 34.933594 638.667969 35.378906 C 639.144531 35.816406 639.386719 36.417969 639.386719 37.175781 C 639.386719 37.96875 639.140625 38.582031 638.652344 39.019531 C 638.171875 39.449219 637.484375 39.660156 636.589844 39.660156 C 636.285156 39.660156 635.972656 39.632812 635.652344 39.582031 C 635.339844 39.527344 635.011719 39.453125 634.667969 39.347656 L 634.667969 38.363281 C 634.96875 38.519531 635.277344 38.640625 635.589844 38.722656 C 635.902344 38.796875 636.230469 38.832031 636.574219 38.832031 C 637.136719 38.832031 637.578125 38.6875 637.902344 38.394531 C 638.234375 38.09375 638.402344 37.6875 638.402344 37.175781 C 638.402344 36.675781 638.234375 36.28125 637.902344 35.988281 C 637.578125 35.6875 637.136719 35.535156 636.574219 35.535156 C 636.3125 35.535156 636.046875 35.566406 635.777344 35.628906 C 635.515625 35.683594 635.25 35.769531 634.980469 35.894531 Z M 634.980469 32.222656 "/>
</svg>
