<?xml version="1.0" encoding="UTF-8"?>
<svg xmlns="http://www.w3.org/2000/svg" xmlns:xlink="http://www.w3.org/1999/xlink" width="600pt" height="300pt" viewBox="0 0 600 300" version="1.1">
<g id="surface279">
<rect x="0" y="0" width="600" height="300" style="fill:rgb(10.196078%,10.196078%,10.196078%);fill-opacity:1;stroke:none;"/>
<path style="fill:none;stroke-width:1;stroke-linecap:butt;stroke-linejoin:miter;stroke:rgb(100%,84.313725%,0%);stroke-opacity:1;stroke-miterlimit:10;" d="M 420 150 L 410.867188 104.078125 "/>
<path style="fill:none;stroke-width:1;stroke-linecap:butt;stroke-linejoin:miter;stroke:rgb(100%,84.313725%,0%);stroke-opacity:1;stroke-miterlimit:10;" d="M 420 150 L 254.078125 39.132812 "/>
<path style="fill:none;stroke-width:1;stroke-linecap:butt;stroke-linejoin:miter;stroke:rgb(100%,84.313725%,0%);stroke-opacity:1;stroke-miterlimit:10;" d="M 420 150 L 410.867188 195.921875 "/>
<path style="fill:none;stroke-width:1;stroke-linecap:butt;stroke-linejoin:miter;stroke:rgb(100%,84.313725%,0%);stroke-opacity:1;stroke-miterlimit:10;" d="M 410.867188 104.078125 L 384.851562 65.148438 "/>
<path style="fill:none;stroke-width:1;stroke-linecap:butt;stroke-linejoin:miter;stroke:rgb(100%,84.313725%,0%);stroke-opacity:1;stroke-miterlimit:10;" d="M 410.867188 104.078125 L 300 270 "/>
<path style="fill:none;stroke-width:1;stroke-linecap:butt;stroke-linejoin:miter;stroke:rgb(100%,84.313725%,0%);stroke-opacity:1;stroke-miterlimit:10;" d="M 384.851562 65.148438 L 345.921875 39.132812 "/>
<path style="fill:none;stroke-width:1;stroke-linecap:butt;stroke-linejoin:miter;stroke:rgb(100%,84.313725%,0%);stroke-opacity:1;stroke-miterlimit:10;" d="M 384.851562 65.148438 L 189.132812 104.078125 "/>
<path style="fill:none;stroke-width:1;stroke-linecap:butt;stroke-linejoin:miter;stroke:rgb(100%,84.313725%,0%);stroke-opacity:1;stroke-miterlimit:10;" d="M 345.921875 39.132812 L 300 30 "/>
<path style="fill:none;stroke-width:1;stroke-linecap:butt;stroke-linejoin:miter;stroke:rgb(100%,84.313725%,0%);stroke-opacity:1;stroke-miterlimit:10;" d="M 345.921875 39.132812 L 384.851562 234.851562 "/>
<path style="fill:none;stroke-width:1;stroke-linecap:butt;stroke-linejoin:miter;stroke:rgb(100%,84.313725%,0%);stroke-opacity:1;stroke-miterlimit:10;" d="M 300 30 L 254.078125 39.132812 "/>
<path style="fill:none;stroke-width:1;stroke-linecap:butt;stroke-linejoin:miter;stroke:rgb(100%,84.313725%,0%);stroke-opacity:1;stroke-miterlimit:10;" d="M 300 30 L 189.132812 195.921875 "/>
<path style="fill:none;stroke-width:1;stroke-linecap:butt;stroke-linejoin:miter;stroke:rgb(100%,84.313725%,0%);stroke-opacity:1;stroke-miterlimit:10;" d="M 254.078125 39.132812 L 215.148438 65.148438 "/>
<path style="fill:none;stroke-width:1;stroke-linecap:butt;stroke-linejoin:miter;stroke:rgb(100%,84.313725%,0%);stroke-opacity:1;stroke-miterlimit:10;" d="M 215.148438 65.148438 L 189.132812 104.078125 "/>
<path style="fill:none;stroke-width:1;stroke-linecap:butt;stroke-linejoin:miter;stroke:rgb(100%,84.313725%,0%);stroke-opacity:1;stroke-miterlimit:10;" d="M 215.148438 65.148438 L 254.078125 260.867188 "/>
<path style="fill:none;stroke-width:1;stroke-linecap:butt;stroke-linejoin:miter;stroke:rgb(100%,84.313725%,0%);stroke-opacity:1;stroke-miterlimit:10;" d="M 189.132812 104.078125 L 180 150 "/>
<path style="fill:none;stroke-width:1;stroke-linecap:butt;stroke-linejoin:miter;stroke:rgb(100%,84.313725%,0%);stroke-opacity:1;stroke-miterlimit:10;" d="M 180 150 L 189.132812 195.921875 "/>
<path style="fill:none;stroke-width:1;stroke-linecap:butt;stroke-linejoin:miter;stroke:rgb(100%,84.313725%,0%);stroke-opacity:1;stroke-miterlimit:10;" d="M 180 150 L 345.921875 260.867188 "/>
<path style="fill:none;stroke-width:1;stroke-linecap:butt;stroke-linejoin:miter;stroke:rgb(100%,84.313725%,0%);stroke-opacity:1;stroke-miterlimit:10;" d="M 189.132812 195.921875 L 215.148438 234.851562 "/>
<path style="fill:none;stroke-width:1;stroke-linecap:butt;stroke-linejoin:miter;stroke:rgb(100%,84.313725%,0%);stroke-opacity:1;stroke-miterlimit:10;" d="M 215.148438 234.851562 L 254.078125 260.867188 "/>
<path style="fill:none;stroke-width:1;stroke-linecap:butt;stroke-linejoin:miter;stroke:rgb(100%,84.313725%,0%);stroke-opacity:1;stroke-miterlimit:10;" d="M 215.148438 234.851562 L 410.867188 195.921875 "/>
<path style="fill:none;stroke-width:1;stroke-linecap:butt;stroke-linejoin:miter;stroke:rgb(100%,84.313725%,0%);stroke-opacity:1;stroke-miterlimit:10;" d="M 254.078125 260.867188 L 300 270 "/>
<path style="fill:none;stroke-width:1;stroke-linecap:butt;stroke-linejoin:miter;stroke:rgb(100%,84.313725%,0%);stroke-opacity:1;stroke-miterlimit:10;" d="M 300 270 L 345.921875 260.867188 "/>
<path style="fill:none;stroke-width:1;stroke-linecap:butt;stroke-linejoin:miter;stroke:rgb(100%,84.313725%,0%);stroke-opacity:1;stroke-miterlimit:10;" d="M 345.921875 260.867188 L 384.851562 234.851562 "/>
<path style="fill:none;stroke-width:1;stroke-linecap:butt;stroke-linejoin:miter;stroke:rgb(100%,84.313725%,0%);stroke-opacity:1;stroke-miterlimit:10;" d="M 384.851562 234.851562 L 410.867188 195.921875 "/>
<path style="fill-rule:nonzero;fill:rgb(100%,84.313725%,0%);fill-opacity:1;stroke-width:1;stroke-linecap:butt;stroke-linejoin:miter;stroke:rgb(100%,84.313725%,0%);stroke-opacity:1;stroke-miterlimit:10;" d="M 405 165 L 405 135 L 435 135 L 435 165 Z M 405 165 "/>
<path style="fill-rule:nonzero;fill:rgb(100%,84.313725%,0%);fill-opacity:1;stroke-width:1;stroke-linecap:butt;stroke-linejoin:miter;stroke:rgb(100%,84.313725%,0%);stroke-opacity:1;stroke-miterlimit:10;" d="M 415.867188 104.078125 C 415.867188 106.839844 413.628906 109.078125 410.867188 109.078125 C 408.105469 109.078125 405.867188 106.839844 405.867188 104.078125 C 405.867188 101.316406 408.105469 99.078125 410.867188 99.078125 C 413.628906 99.078125 415.867188 101.316406 415.867188 104.078125 Z M 415.867188 104.078125 "/>
<path style="fill-rule:nonzero;fill:rgb(100%,84.313725%,0%);fill-opacity:1;stroke-width:1;stroke-linecap:butt;stroke-linejoin:miter;stroke:rgb(100%,84.313725%,0%);stroke-opacity:1;stroke-miterlimit:10;" d="M 369.851562 80.148438 L 369.851562 50.148438 L 399.851562 50.148438 L 399.851562 80.148438 Z M 369.851562 80.148438 "/>
<path style="fill-rule:nonzero;fill:rgb(100%,84.313725%,0%);fill-opacity:1;stroke-width:1;stroke-linecap:butt;stroke-linejoin:miter;stroke:rgb(100%,84.313725%,0%);stroke-opacity:1;stroke-miterlimit:10;" d="M 350.921875 39.132812 C 350.921875 41.894531 348.683594 44.132812 345.921875 44.132812 C 343.160156 44.132812 340.921875 41.894531 340.921875 39.132812 C 340.921875 36.371094 343.160156 34.132812 345.921875 34.132812 C 348.683594 34.132812 350.921875 36.371094 350.921875 39.132812 Z M 350.921875 39.132812 "/>
<path style="fill-rule:nonzero;fill:rgb(100%,84.313725%,0%);fill-opacity:1;stroke-width:1;stroke-linecap:butt;stroke-linejoin:miter;stroke:rgb(100%,84.313725%,0%);stroke-opacity:1;stroke-miterlimit:10;" d="M 285 45 L 285 15 L 315 15 L 315 45 Z M 285 45 "/>
<path style="fill-rule:nonzero;fill:rgb(100%,84.313725%,0%);fill-opacity:1;stroke-width:1;stroke-linecap:butt;stroke-linejoin:miter;stroke:rgb(100%,84.313725%,0%);stroke-opacity:1;stroke-miterlimit:10;" d="M 259.078125 39.132812 C 259.078125 41.894531 256.839844 44.132812 254.078125 44.132812 C 251.316406 44.132812 249.078125 41.894531 249.078125 39.132812 C 249.078125 36.371094 251.316406 34.132812 254.078125 34.132812 C 256.839844 34.132812 259.078125 36.371094 259.078125 39.132812 Z M 259.078125 39.132812 "/>
<path style="fill-rule:nonzero;fill:rgb(100%,84.313725%,0%);fill-opacity:1;stroke-width:1;stroke-linecap:butt;stroke-linejoin:miter;stroke:rgb(100%,84.313725%,0%);stroke-opacity:1;stroke-miterlimit:10;" d="M 200.148438 80.148438 L 200.148438 50.148438 L 230.148438 50.148438 L 230.148438 80.148438 Z M 200.148438 80.148438 "/>
<path style="fill-rule:nonzero;fill:rgb(100%,84.313725%,0%);fill-opacity:1;stroke-width:1;stroke-linecap:butt;stroke-linejoin:miter;stroke:rgb(100%,84.313725%,0%);stroke-opacity:1;stroke-miterlimit:10;" d="M 194.132812 104.078125 C 194.132812 106.839844 191.894531 109.078125 189.132812 109.078125 C 186.371094 109.078125 184.132812 106.839844 184.132812 104.078125 C 184.132812 101.316406 186.371094 99.078125 189.132812 99.078125 C 191.894531 99.078125 194.132812 101.316406 194.132812 104.078125 Z M 194.132812 104.078125 "/>
<path style="fill-rule:nonzero;fill:rgb(100%,84.313725%,0%);fill-opacity:1;stroke-width:1;stroke-linecap:butt;stroke-linejoin:miter;stroke:rgb(100%,84.313725%,0%);stroke-opacity:1;stroke-miterlimit:10;" d="M 165 165 L 165 135 L 195 135 L 195 165 Z M 165 165 "/>
<path style="fill-rule:nonzero;fill:rgb(100%,84.313725%,0%);fill-opacity:1;stroke-width:1;stroke-linecap:butt;stroke-linejoin:miter;stroke:rgb(100%,84.313725%,0%);stroke-opacity:1;stroke-miterlimit:10;" d="M 194.132812 195.921875 C 194.132812 198.683594 191.894531 200.921875 189.132812 200.921875 C 186.371094 200.921875 184.132812 198.683594 184.132812 195.921875 C 184.132812 193.160156 186.371094 190.921875 189.132812 190.921875 C 191.894531 190.921875 194.132812 193.160156 194.132812 195.921875 Z M 194.132812 195.921875 "/>
<path style="fill-rule:nonzero;fill:rgb(100%,84.313725%,0%);fill-opacity:1;stroke-width:1;stroke-linecap:butt;stroke-linejoin:miter;stroke:rgb(100%,84.313725%,0%);stroke-opacity:1;stroke-miterlimit:10;" d="M 200.148438 249.851562 L 200.148438 219.851562 L 230.148438 219.851562 L 230.148438 249.851562 Z M 200.148438 249.851562 "/>
<path style="fill-rule:nonzero;fill:rgb(100%,84.313725%,0%);fill-opacity:1;stroke-width:1;stroke-linecap:butt;stroke-linejoin:miter;stroke:rgb(100%,84.313725%,0%);stroke-opacity:1;stroke-miterlimit:10;" d="M 259.078125 260.867188 C 259.078125 263.628906 256.839844 265.867188 254.078125 265.867188 C 251.316406 265.867188 249.078125 263.628906 249.078125 260.867188 C 249.078125 258.105469 251.316406 255.867188 254.078125 255.867188 C 256.839844 255.867188 259.078125 258.105469 259.078125 260.867188 Z M 259.078125 260.867188 "/>
<path style="fill-rule:nonzero;fill:rgb(100%,84.313725%,0%);fill-opacity:1;stroke-width:1;stroke-linecap:butt;stroke-linejoin:miter;stroke:rgb(100%,84.313725%,0%);stroke-opacity:1;stroke-miterlimit:10;" d="M 285 285 L 285 255 L 315 255 L 315 285 Z M 285 285 "/>
<path style="fill-rule:nonzero;fill:rgb(100%,84.313725%,0%);fill-opacity:1;stroke-width:1;stroke-linecap:butt;stroke-linejoin:miter;stroke:rgb(100%,84.313725%,0%);stroke-opacity:1;stroke-miterlimit:10;" d="M 350.921875 260.867188 C 350.921875 263.628906 348.683594 265.867188 345.921875 265.867188 C 343.160156 265.867188 340.921875 263.628906 340.921875 260.867188 C 340.921875 258.105469 343.160156 255.867188 345.921875 255.867188 C 348.683594 255.867188 350.921875 258.105469 350.921875 260.867188 Z M 350.921875 260.867188 "/>
<path style="fill-rule:nonzero;fill:rgb(100%,84.313725%,0%);fill-opacity:1;stroke-width:1;stroke-linecap:butt;stroke-linejoin:miter;stroke:rgb(100%,84.313725%,0%);stroke-opacity:1;stroke-miterlimit:10;" d="M 369.851562 249.851562 L 369.851562 219.851562 L 399.851562 219.851562 L 399.851562 249.851562 Z M 369.851562 249.851562 "/>
<path style="fill-rule:nonzero;fill:rgb(100%,84.313725%,0%);fill-opacity:1;stroke-width:1;stroke-linecap:butt;stroke-linejoin:miter;stroke:rgb(100%,84.313725%,0%);stroke-opacity:1;stroke-miterlimit:10;" d="M 415.867188 195.921875 C 415.867188 198.683594 413.628906 200.921875 410.867188 200.921875 C 408.105469 200.921875 405.867188 198.683594 405.867188 195.921875 C 405.867188 193.160156 408.105469 190.921875 410.867188 190.921875 C 413.628906 190.921875 415.867188 193.160156 415.867188 195.921875 Z M 415.867188 195.921875 "/>
</g>
</svg>
