<?xml version="1.0" encoding="UTF-8"?>
<svg xmlns="http://www.w3.org/2000/svg" xmlns:xlink="http://www.w3.org/1999/xlink" width="600pt" height="300pt" viewBox="0 0 600 300" version="1.1">
<g id="surface244">
<rect x="0" y="0" width="600" height="300" style="fill:rgb(10.196078%,10.196078%,10.196078%);fill-opacity:1;stroke:none;"/>
<path style="fill:none;stroke-width:1;stroke-linecap:butt;stroke-linejoin:miter;stroke:rgb(0%,54.509804%,54.509804%);stroke-opacity:1;stroke-miterlimit:10;" d="M 420 150 L 397.082031 220.535156 "/>
<path style="fill:none;stroke-width:1;stroke-linecap:butt;stroke-linejoin:miter;stroke:rgb(0%,54.509804%,54.509804%);stroke-opacity:1;stroke-miterlimit:10;" d="M 420 150 L 337.082031 264.125 "/>
<path style="fill:none;stroke-width:1;stroke-linecap:butt;stroke-linejoin:miter;stroke:rgb(0%,54.509804%,54.509804%);stroke-opacity:1;stroke-miterlimit:10;" d="M 420 150 L 262.917969 264.125 "/>
<path style="fill:none;stroke-width:1;stroke-linecap:butt;stroke-linejoin:miter;stroke:rgb(0%,54.509804%,54.509804%);stroke-opacity:1;stroke-miterlimit:10;" d="M 420 150 L 202.917969 220.535156 "/>
<path style="fill:none;stroke-width:1;stroke-linecap:butt;stroke-linejoin:miter;stroke:rgb(0%,54.509804%,54.509804%);stroke-opacity:1;stroke-miterlimit:10;" d="M 420 150 L 180 150 "/>
<path style="fill:none;stroke-width:1;stroke-linecap:butt;stroke-linejoin:miter;stroke:rgb(0%,54.509804%,54.509804%);stroke-opacity:1;stroke-miterlimit:10;" d="M 420 150 L 202.917969 79.464844 "/>
<path style="fill:none;stroke-width:1;stroke-linecap:butt;stroke-linejoin:miter;stroke:rgb(0%,54.509804%,54.509804%);stroke-opacity:1;stroke-miterlimit:10;" d="M 420 150 L 262.917969 35.875 "/>
<path style="fill:none;stroke-width:1;stroke-linecap:butt;stroke-linejoin:miter;stroke:rgb(0%,54.509804%,54.509804%);stroke-opacity:1;stroke-miterlimit:10;" d="M 420 150 L 337.082031 35.875 "/>
<path style="fill:none;stroke-width:1;stroke-linecap:butt;stroke-linejoin:miter;stroke:rgb(0%,54.509804%,54.509804%);stroke-opacity:1;stroke-miterlimit:10;" d="M 420 150 L 397.082031 79.464844 "/>
<path style="fill:none;stroke-width:1;stroke-linecap:butt;stroke-linejoin:miter;stroke:rgb(0%,54.509804%,54.509804%);stroke-opacity:1;stroke-miterlimit:10;" d="M 397.082031 220.535156 L 337.082031 264.125 "/>
<path style="fill:none;stroke-width:1;stroke-linecap:butt;stroke-linejoin:miter;stroke:rgb(0%,54.509804%,54.509804%);stroke-opacity:1;stroke-miterlimit:10;" d="M 397.082031 220.535156 L 262.917969 264.125 "/>
<path style="fill:none;stroke-width:1;stroke-linecap:butt;stroke-linejoin:miter;stroke:rgb(0%,54.509804%,54.509804%);stroke-opacity:1;stroke-miterlimit:10;" d="M 397.082031 220.535156 L 202.917969 220.535156 "/>
<path style="fill:none;stroke-width:1;stroke-linecap:butt;stroke-linejoin:miter;stroke:rgb(0%,54.509804%,54.509804%);stroke-opacity:1;stroke-miterlimit:10;" d="M 397.082031 220.535156 L 180 150 "/>
<path style="fill:none;stroke-width:1;stroke-linecap:butt;stroke-linejoin:miter;stroke:rgb(0%,54.509804%,54.509804%);stroke-opacity:1;stroke-miterlimit:10;" d="M 397.082031 220.535156 L 202.917969 79.464844 "/>
<path style="fill:none;stroke-width:1;stroke-linecap:butt;stroke-linejoin:miter;stroke:rgb(0%,54.509804%,54.509804%);stroke-opacity:1;stroke-miterlimit:10;" d="M 397.082031 220.535156 L 262.917969 35.875 "/>
<path style="fill:none;stroke-width:1;stroke-linecap:butt;stroke-linejoin:miter;stroke:rgb(0%,54.509804%,54.509804%);stroke-opacity:1;stroke-miterlimit:10;" d="M 397.082031 220.535156 L 337.082031 35.875 "/>
<path style="fill:none;stroke-width:1;stroke-linecap:butt;stroke-linejoin:miter;stroke:rgb(0%,54.509804%,54.509804%);stroke-opacity:1;stroke-miterlimit:10;" d="M 397.082031 220.535156 L 397.082031 79.464844 "/>
<path style="fill:none;stroke-width:1;stroke-linecap:butt;stroke-linejoin:miter;stroke:rgb(0%,54.509804%,54.509804%);stroke-opacity:1;stroke-miterlimit:10;" d="M 337.082031 264.125 L 262.917969 264.125 "/>
<path style="fill:none;stroke-width:1;stroke-linecap:butt;stroke-linejoin:miter;stroke:rgb(0%,54.509804%,54.509804%);stroke-opacity:1;stroke-miterlimit:10;" d="M 337.082031 264.125 L 202.917969 220.535156 "/>
<path style="fill:none;stroke-width:1;stroke-linecap:butt;stroke-linejoin:miter;stroke:rgb(0%,54.509804%,54.509804%);stroke-opacity:1;stroke-miterlimit:10;" d="M 337.082031 264.125 L 180 150 "/>
<path style="fill:none;stroke-width:1;stroke-linecap:butt;stroke-linejoin:miter;stroke:rgb(0%,54.509804%,54.509804%);stroke-opacity:1;stroke-miterlimit:10;" d="M 337.082031 264.125 L 202.917969 79.464844 "/>
<path style="fill:none;stroke-width:1;stroke-linecap:butt;stroke-linejoin:miter;stroke:rgb(0%,54.509804%,54.509804%);stroke-opacity:1;stroke-miterlimit:10;" d="M 337.082031 264.125 L 262.917969 35.875 "/>
<path style="fill:none;stroke-width:1;stroke-linecap:butt;stroke-linejoin:miter;stroke:rgb(0%,54.509804%,54.509804%);stroke-opacity:1;stroke-miterlimit:10;" d="M 337.082031 264.125 L 337.082031 35.875 "/>
<path style="fill:none;stroke-width:1;stroke-linecap:butt;stroke-linejoin:miter;stroke:rgb(0%,54.509804%,54.509804%);stroke-opacity:1;stroke-miterlimit:10;" d="M 337.082031 264.125 L 397.082031 79.464844 "/>
<path style="fill:none;stroke-width:1;stroke-linecap:butt;stroke-linejoin:miter;stroke:rgb(0%,54.509804%,54.509804%);stroke-opacity:1;stroke-miterlimit:10;" d="M 262.917969 264.125 L 202.917969 220.535156 "/>
<path style="fill:none;stroke-width:1;stroke-linecap:butt;stroke-linejoin:miter;stroke:rgb(0%,54.509804%,54.509804%);stroke-opacity:1;stroke-miterlimit:10;" d="M 262.917969 264.125 L 180 150 "/>
<path style="fill:none;stroke-width:1;stroke-linecap:butt;stroke-linejoin:miter;stroke:rgb(0%,54.509804%,54.509804%);stroke-opacity:1;stroke-miterlimit:10;" d="M 262.917969 264.125 L 202.917969 79.464844 "/>
<path style="fill:none;stroke-width:1;stroke-linecap:butt;stroke-linejoin:miter;stroke:rgb(0%,54.509804%,54.509804%);stroke-opacity:1;stroke-miterlimit:10;" d="M 262.917969 264.125 L 262.917969 35.875 "/>
<path style="fill:none;stroke-width:1;stroke-linecap:butt;stroke-linejoin:miter;stroke:rgb(0%,54.509804%,54.509804%);stroke-opacity:1;stroke-miterlimit:10;" d="M 262.917969 264.125 L 337.082031 35.875 "/>
<path style="fill:none;stroke-width:1;stroke-linecap:butt;stroke-linejoin:miter;stroke:rgb(0%,54.509804%,54.509804%);stroke-opacity:1;stroke-miterlimit:10;" d="M 262.917969 264.125 L 397.082031 79.464844 "/>
<path style="fill:none;stroke-width:1;stroke-linecap:butt;stroke-linejoin:miter;stroke:rgb(0%,54.509804%,54.509804%);stroke-opacity:1;stroke-miterlimit:10;" d="M 202.917969 220.535156 L 180 150 "/>
<path style="fill:none;stroke-width:1;stroke-linecap:butt;stroke-linejoin:miter;stroke:rgb(0%,54.509804%,54.509804%);stroke-opacity:1;stroke-miterlimit:10;" d="M 202.917969 220.535156 L 202.917969 79.464844 "/>
<path style="fill:none;stroke-width:1;stroke-linecap:butt;stroke-linejoin:miter;stroke:rgb(0%,54.509804%,54.509804%);stroke-opacity:1;stroke-miterlimit:10;" d="M 202.917969 220.535156 L 262.917969 35.875 "/>
<path style="fill:none;stroke-width:1;stroke-linecap:butt;stroke-linejoin:miter;stroke:rgb(0%,54.509804%,54.509804%);stroke-opacity:1;stroke-miterlimit:10;" d="M 202.917969 220.535156 L 337.082031 35.875 "/>
<path style="fill:none;stroke-width:1;stroke-linecap:butt;stroke-linejoin:miter;stroke:rgb(0%,54.509804%,54.509804%);stroke-opacity:1;stroke-miterlimit:10;" d="M 202.917969 220.535156 L 397.082031 79.464844 "/>
<path style="fill:none;stroke-width:1;stroke-linecap:butt;stroke-linejoin:miter;stroke:rgb(0%,54.509804%,54.509804%);stroke-opacity:1;stroke-miterlimit:10;" d="M 180 150 L 202.917969 79.464844 "/>
<path style="fill:none;stroke-width:1;stroke-linecap:butt;stroke-linejoin:miter;stroke:rgb(0%,54.509804%,54.509804%);stroke-opacity:1;stroke-miterlimit:10;" d="M 180 150 L 262.917969 35.875 "/>
<path style="fill:none;stroke-width:1;stroke-linecap:butt;stroke-linejoin:miter;stroke:rgb(0%,54.509804%,54.509804%);stroke-opacity:1;stroke-miterlimit:10;" d="M 180 150 L 337.082031 35.875 "/>
<path style="fill:none;stroke-width:1;stroke-linecap:butt;stroke-linejoin:miter;stroke:rgb(0%,54.509804%,54.509804%);stroke-opacity:1;stroke-miterlimit:10;" d="M 180 150 L 397.082031 79.464844 "/>
<path style="fill:none;stroke-width:1;stroke-linecap:butt;stroke-linejoin:miter;stroke:rgb(0%,54.509804%,54.509804%);stroke-opacity:1;stroke-miterlimit:10;" d="M 202.917969 79.464844 L 262.917969 35.875 "/>
<path style="fill:none;stroke-width:1;stroke-linecap:butt;stroke-linejoin:miter;stroke:rgb(0%,54.509804%,54.509804%);stroke-opacity:1;stroke-miterlimit:10;" d="M 202.917969 79.464844 L 337.082031 35.875 "/>
<path style="fill:none;stroke-width:1;stroke-linecap:butt;stroke-linejoin:miter;stroke:rgb(0%,54.509804%,54.509804%);stroke-opacity:1;stroke-miterlimit:10;" d="M 202.917969 79.464844 L 397.082031 79.464844 "/>
<path style="fill:none;stroke-width:1;stroke-linecap:butt;stroke-linejoin:miter;stroke:rgb(0%,54.509804%,54.509804%);stroke-opacity:1;stroke-miterlimit:10;" d="M 262.917969 35.875 L 337.082031 35.875 "/>
<path style="fill:none;stroke-width:1;stroke-linecap:butt;stroke-linejoin:miter;stroke:rgb(0%,54.509804%,54.509804%);stroke-opacity:1;stroke-miterlimit:10;" d="M 262.917969 35.875 L 397.082031 79.464844 "/>
<path style="fill:none;stroke-width:1;stroke-linecap:butt;stroke-linejoin:miter;stroke:rgb(0%,54.509804%,54.509804%);stroke-opacity:1;stroke-miterlimit:10;" d="M 337.082031 35.875 L 397.082031 79.464844 "/>
<path style="fill-rule:nonzero;fill:rgb(0%,54.509804%,54.509804%);fill-opacity:1;stroke-width:1;stroke-linecap:butt;stroke-linejoin:miter;stroke:rgb(0%,54.509804%,54.509804%);stroke-opacity:1;stroke-miterlimit:10;" d="M 426 150 C 426 153.3125 423.3125 156 420 156 C 416.6875 156 414 153.3125 414 150 C 414 146.6875 416.6875 144 420 144 C 423.3125 144 426 146.6875 426 150 Z M 426 150 "/>
<path style="fill-rule:nonzero;fill:rgb(0%,54.509804%,54.509804%);fill-opacity:1;stroke-width:1;stroke-linecap:butt;stroke-linejoin:miter;stroke:rgb(0%,54.509804%,54.509804%);stroke-opacity:1;stroke-miterlimit:10;" d="M 403.082031 220.535156 C 403.082031 223.847656 400.394531 226.535156 397.082031 226.535156 C 393.769531 226.535156 391.082031 223.847656 391.082031 220.535156 C 391.082031 217.21875 393.769531 214.535156 397.082031 214.535156 C 400.394531 214.535156 403.082031 217.21875 403.082031 220.535156 Z M 403.082031 220.535156 "/>
<path style="fill-rule:nonzero;fill:rgb(0%,54.509804%,54.509804%);fill-opacity:1;stroke-width:1;stroke-linecap:butt;stroke-linejoin:miter;stroke:rgb(0%,54.509804%,54.509804%);stroke-opacity:1;stroke-miterlimit:10;" d="M 343.082031 264.125 C 343.082031 267.441406 340.394531 270.125 337.082031 270.125 C 333.769531 270.125 331.082031 267.441406 331.082031 264.125 C 331.082031 260.8125 333.769531 258.125 337.082031 258.125 C 340.394531 258.125 343.082031 260.8125 343.082031 264.125 Z M 343.082031 264.125 "/>
<path style="fill-rule:nonzero;fill:rgb(0%,54.509804%,54.509804%);fill-opacity:1;stroke-width:1;stroke-linecap:butt;stroke-linejoin:miter;stroke:rgb(0%,54.509804%,54.509804%);stroke-opacity:1;stroke-miterlimit:10;" d="M 268.917969 264.125 C 268.917969 267.441406 266.230469 270.125 262.917969 270.125 C 259.605469 270.125 256.917969 267.441406 256.917969 264.125 C 256.917969 260.8125 259.605469 258.125 262.917969 258.125 C 266.230469 258.125 268.917969 260.8125 268.917969 264.125 Z M 268.917969 264.125 "/>
<path style="fill-rule:nonzero;fill:rgb(0%,54.509804%,54.509804%);fill-opacity:1;stroke-width:1;stroke-linecap:butt;stroke-linejoin:miter;stroke:rgb(0%,54.509804%,54.509804%);stroke-opacity:1;stroke-miterlimit:10;" d="M 208.917969 220.535156 C 208.917969 223.847656 206.230469 226.535156 202.917969 226.535156 C 199.605469 226.535156 196.917969 223.847656 196.917969 220.535156 C 196.917969 217.21875 199.605469 214.535156 202.917969 214.535156 C 206.230469 214.535156 208.917969 217.21875 208.917969 220.535156 Z M 208.917969 220.535156 "/>
<path style="fill-rule:nonzero;fill:rgb(0%,54.509804%,54.509804%);fill-opacity:1;stroke-width:1;stroke-linecap:butt;stroke-linejoin:miter;stroke:rgb(0%,54.509804%,54.509804%);stroke-opacity:1;stroke-miterlimit:10;" d="M 186 150 C 186 153.3125 183.3125 156 180 156 C 176.6875 156 174 153.3125 174 150 C 174 146.6875 176.6875 144 180 144 C 183.3125 144 186 146.6875 186 150 Z M 186 150 "/>
<path style="fill-rule:nonzero;fill:rgb(0%,54.509804%,54.509804%);fill-opacity:1;stroke-width:1;stroke-linecap:butt;stroke-linejoin:miter;stroke:rgb(0%,54.509804%,54.509804%);stroke-opacity:1;stroke-miterlimit:10;" d="M 208.917969 79.464844 C 208.917969 82.78125 206.230469 85.464844 202.917969 85.464844 C 199.605469 85.464844 196.917969 82.78125 196.917969 79.464844 C 196.917969 76.152344 199.605469 73.464844 202.917969 73.464844 C 206.230469 73.464844 208.917969 76.152344 208.917969 79.464844 Z M 208.917969 79.464844 "/>
<path style="fill-rule:nonzero;fill:rgb(0%,54.509804%,54.509804%);fill-opacity:1;stroke-width:1;stroke-linecap:butt;stroke-linejoin:miter;stroke:rgb(0%,54.509804%,54.509804%);stroke-opacity:1;stroke-miterlimit:10;" d="M 268.917969 35.875 C 268.917969 39.1875 266.230469 41.875 262.917969 41.875 C 259.605469 41.875 256.917969 39.1875 256.917969 35.875 C 256.917969 32.558594 259.605469 29.875 262.917969 29.875 C 266.230469 29.875 268.917969 32.558594 268.917969 35.875 Z M 268.917969 35.875 "/>
<path style="fill-rule:nonzero;fill:rgb(0%,54.509804%,54.509804%);fill-opacity:1;stroke-width:1;stroke-linecap:butt;stroke-linejoin:miter;stroke:rgb(0%,54.509804%,54.509804%);stroke-opacity:1;stroke-miterlimit:10;" d="M 343.082031 35.875 C 343.082031 39.1875 340.394531 41.875 337.082031 41.875 C 333.769531 41.875 331.082031 39.1875 331.082031 35.875 C 331.082031 32.558594 333.769531 29.875 337.082031 29.875 C 340.394531 29.875 343.082031 32.558594 343.082031 35.875 Z M 343.082031 35.875 "/>
<path style="fill-rule:nonzero;fill:rgb(0%,54.509804%,54.509804%);fill-opacity:1;stroke-width:1;stroke-linecap:butt;stroke-linejoin:miter;stroke:rgb(0%,54.509804%,54.509804%);stroke-opacity:1;stroke-miterlimit:10;" d="M 403.082031 79.464844 C 403.082031 82.78125 400.394531 85.464844 397.082031 85.464844 C 393.769531 85.464844 391.082031 82.78125 391.082031 79.464844 C 391.082031 76.152344 393.769531 73.464844 397.082031 73.464844 C 400.394531 73.464844 403.082031 76.152344 403.082031 79.464844 Z M 403.082031 79.464844 "/>
</g>
</svg>
