<?xml version="1.0" encoding="UTF-8"?>
<svg xmlns="http://www.w3.org/2000/svg" xmlns:xlink="http://www.w3.org/1999/xlink" width="600" height="350" viewBox="0 0 600 350">
<defs>
<g>
<g id="glyph-521983-0-0">
<path d="M -3.261719 -5.097656 L -3.816406 -5.683594 C -3.316406 -6.261719 -3.015625 -6.71875 -2.917969 -7.050781 C -2.820312 -7.382812 -2.941406 -7.835938 -3.28125 -8.410156 L -2.675781 -8.984375 L 3.078125 -2.925781 L 2.265625 -2.152344 L -1.828125 -6.457031 Z M -3.261719 -5.097656 "/>
</g>
<g id="glyph-521983-0-1">
<rect x="0" y="0" width="0" height="0" mask="url(#mask-0)"/>
</g>
<g id="glyph-521983-0-2">
<path d="M -0.00390625 -2.300781 C 0.207031 -2.078125 0.453125 -1.980469 0.734375 -2.007812 C 1.015625 -2.035156 1.269531 -2.152344 1.488281 -2.363281 C 1.757812 -2.617188 1.960938 -2.925781 2.09375 -3.292969 C 2.320312 -3.902344 2.214844 -4.441406 1.765625 -4.910156 L 1.179688 -5.527344 C 1.144531 -5.378906 1.070312 -5.214844 0.960938 -5.035156 C 0.851562 -4.855469 0.734375 -4.691406 0.609375 -4.539062 L 0.203125 -4.039062 C -0.0390625 -3.738281 -0.191406 -3.484375 -0.257812 -3.273438 C -0.367188 -2.917969 -0.28125 -2.59375 -0.00390625 -2.300781 Z M 0.378906 -5.605469 C 0.53125 -5.796875 0.582031 -5.980469 0.523438 -6.160156 C 0.492188 -6.261719 0.414062 -6.375 0.292969 -6.503906 C 0.046875 -6.765625 -0.226562 -6.863281 -0.523438 -6.804688 C -0.820312 -6.746094 -1.140625 -6.554688 -1.488281 -6.226562 C -1.886719 -5.847656 -2.066406 -5.46875 -2.03125 -5.09375 C -2.011719 -4.886719 -1.902344 -4.652344 -1.707031 -4.390625 L -2.421875 -3.714844 C -2.941406 -4.289062 -3.128906 -4.851562 -2.988281 -5.402344 C -2.847656 -5.953125 -2.546875 -6.449219 -2.082031 -6.886719 C -1.546875 -7.394531 -1.015625 -7.707031 -0.488281 -7.820312 C 0.0351562 -7.929688 0.503906 -7.773438 0.914062 -7.339844 L 3.402344 -4.722656 C 3.476562 -4.640625 3.554688 -4.59375 3.632812 -4.578125 C 3.710938 -4.558594 3.804688 -4.601562 3.90625 -4.699219 C 3.941406 -4.730469 3.976562 -4.769531 4.015625 -4.816406 C 4.054688 -4.859375 4.09375 -4.910156 4.132812 -4.964844 L 4.671875 -4.398438 C 4.585938 -4.25 4.515625 -4.144531 4.460938 -4.078125 C 4.40625 -4.007812 4.324219 -3.925781 4.21875 -3.820312 C 3.953125 -3.570312 3.671875 -3.484375 3.378906 -3.558594 C 3.222656 -3.597656 3.042969 -3.695312 2.847656 -3.851562 C 2.882812 -3.5 2.828125 -3.109375 2.679688 -2.683594 C 2.53125 -2.257812 2.28125 -1.875 1.929688 -1.542969 C 1.507812 -1.140625 1.039062 -0.941406 0.53125 -0.945312 C 0.0195312 -0.945312 -0.421875 -1.140625 -0.785156 -1.523438 C -1.1875 -1.945312 -1.367188 -2.398438 -1.324219 -2.882812 C -1.28125 -3.363281 -1.070312 -3.835938 -0.695312 -4.292969 Z M 0.378906 -5.605469 "/>
</g>
<g id="glyph-521983-0-3">
<path d="M -3.761719 -5.082031 L -3.035156 -5.773438 L -2.421875 -5.125 C -2.460938 -5.597656 -2.414062 -6.003906 -2.285156 -6.347656 C -2.152344 -6.695312 -1.941406 -7.007812 -1.644531 -7.285156 C -1 -7.898438 -0.351562 -8.089844 0.304688 -7.855469 C 0.664062 -7.726562 1.058594 -7.433594 1.496094 -6.972656 L 4.269531 -4.054688 L 3.492188 -3.316406 L 0.765625 -6.183594 C 0.503906 -6.460938 0.25 -6.648438 0.00390625 -6.738281 C -0.398438 -6.894531 -0.78125 -6.800781 -1.136719 -6.460938 C -1.316406 -6.289062 -1.449219 -6.128906 -1.53125 -5.980469 C -1.679688 -5.71875 -1.746094 -5.421875 -1.726562 -5.082031 C -1.710938 -4.8125 -1.648438 -4.578125 -1.535156 -4.382812 C -1.421875 -4.1875 -1.222656 -3.9375 -0.9375 -3.640625 L 1.324219 -1.257812 L 0.5625 -0.53125 Z M -3.761719 -5.082031 "/>
</g>
<g id="glyph-521983-0-4">
<path d="M -1.066406 -3.214844 C -0.601562 -2.726562 -0.113281 -2.417969 0.40625 -2.285156 C 0.925781 -2.152344 1.414062 -2.304688 1.867188 -2.738281 C 2.222656 -3.074219 2.367188 -3.503906 2.308594 -4.023438 C 2.246094 -4.542969 1.945312 -5.089844 1.402344 -5.660156 C 0.855469 -6.234375 0.335938 -6.546875 -0.160156 -6.601562 C -0.660156 -6.652344 -1.082031 -6.515625 -1.425781 -6.1875 C -1.8125 -5.820312 -1.984375 -5.375 -1.941406 -4.855469 C -1.902344 -4.332031 -1.609375 -3.785156 -1.066406 -3.214844 Z M -2.203125 -6.714844 C -1.855469 -7.046875 -1.492188 -7.25 -1.117188 -7.328125 C -0.902344 -7.371094 -0.605469 -7.371094 -0.230469 -7.320312 L -2.414062 -9.617188 L -1.679688 -10.316406 L 4.269531 -4.054688 L 3.582031 -3.402344 L 2.980469 -4.035156 C 3.066406 -3.585938 3.046875 -3.183594 2.921875 -2.828125 C 2.796875 -2.472656 2.578125 -2.144531 2.265625 -1.84375 C 1.757812 -1.363281 1.117188 -1.160156 0.339844 -1.234375 C -0.4375 -1.308594 -1.160156 -1.695312 -1.832031 -2.40625 C -2.460938 -3.066406 -2.839844 -3.800781 -2.960938 -4.609375 C -3.085938 -5.417969 -2.832031 -6.117188 -2.203125 -6.714844 Z M -2.203125 -6.714844 "/>
</g>
<g id="glyph-521983-0-5">
<path d="M 0.273438 -0.257812 C -0.195312 -0.808594 -0.523438 -1.367188 -0.703125 -1.933594 C -0.882812 -2.5 -0.851562 -3.203125 -0.605469 -4.039062 L -0.238281 -5.285156 C -0.0742188 -5.84375 0.0078125 -6.269531 0.015625 -6.558594 C 0.0234375 -7.015625 -0.117188 -7.394531 -0.40625 -7.699219 C -0.742188 -8.050781 -1.113281 -8.234375 -1.523438 -8.238281 C -1.933594 -8.246094 -2.316406 -8.078125 -2.671875 -7.742188 C -3.195312 -7.246094 -3.367188 -6.703125 -3.191406 -6.117188 C -3.097656 -5.800781 -2.878906 -5.449219 -2.53125 -5.0625 L -3.308594 -4.324219 C -3.804688 -4.863281 -4.117188 -5.386719 -4.246094 -5.898438 C -4.476562 -6.800781 -4.171875 -7.652344 -3.332031 -8.449219 C -2.636719 -9.109375 -1.949219 -9.40625 -1.269531 -9.335938 C -0.589844 -9.265625 -0.03125 -8.996094 0.40625 -8.535156 C 0.871094 -8.046875 1.09375 -7.46875 1.082031 -6.796875 C 1.074219 -6.410156 0.949219 -5.828125 0.707031 -5.054688 L 0.433594 -4.179688 C 0.300781 -3.761719 0.222656 -3.410156 0.195312 -3.121094 C 0.144531 -2.605469 0.226562 -2.160156 0.4375 -1.792969 L 3.761719 -4.949219 L 4.445312 -4.226562 Z M 0.273438 -0.257812 "/>
</g>
<g id="glyph-521983-0-6">
<path d="M -1.964844 -6.984375 C -1.640625 -7.289062 -1.257812 -7.511719 -0.808594 -7.648438 C -0.363281 -7.785156 0.0546875 -7.808594 0.441406 -7.71875 C 0.8125 -7.632812 1.167969 -7.464844 1.507812 -7.207031 C 1.753906 -7.039062 2.09375 -6.726562 2.53125 -6.269531 L -0.804688 -3.101562 C -0.351562 -2.652344 0.109375 -2.386719 0.578125 -2.300781 C 1.046875 -2.214844 1.496094 -2.375 1.921875 -2.78125 C 2.320312 -3.160156 2.515625 -3.59375 2.503906 -4.085938 C 2.496094 -4.367188 2.421875 -4.636719 2.289062 -4.890625 L 3.039062 -5.605469 C 3.179688 -5.417969 3.289062 -5.171875 3.371094 -4.859375 C 3.457031 -4.546875 3.492188 -4.261719 3.476562 -3.996094 C 3.457031 -3.550781 3.316406 -3.125 3.050781 -2.71875 C 2.910156 -2.5 2.722656 -2.277344 2.488281 -2.058594 C 1.921875 -1.519531 1.246094 -1.269531 0.460938 -1.308594 C -0.324219 -1.347656 -1.066406 -1.734375 -1.773438 -2.476562 C -2.46875 -3.207031 -2.832031 -3.988281 -2.871094 -4.824219 C -2.90625 -5.65625 -2.605469 -6.375 -1.964844 -6.984375 Z M 1.167969 -6.128906 C 0.820312 -6.429688 0.496094 -6.625 0.195312 -6.71875 C -0.363281 -6.886719 -0.886719 -6.738281 -1.378906 -6.273438 C -1.730469 -5.9375 -1.902344 -5.53125 -1.898438 -5.054688 C -1.898438 -4.574219 -1.71875 -4.132812 -1.359375 -3.726562 Z M 1.167969 -6.128906 "/>
</g>
<g id="glyph-521983-0-7">
<path d="M -2.234375 -6.6875 C -1.878906 -7.027344 -1.480469 -7.234375 -1.050781 -7.3125 C -0.8125 -7.351562 -0.527344 -7.347656 -0.195312 -7.300781 L -0.742188 -7.871094 L -0.0351562 -8.542969 L 3.894531 -4.40625 C 4.445312 -3.828125 4.792969 -3.292969 4.941406 -2.796875 C 5.210938 -1.878906 4.90625 -1 4.023438 -0.164062 C 3.535156 0.300781 3.019531 0.585938 2.476562 0.683594 C 1.933594 0.78125 1.417969 0.613281 0.9375 0.183594 L 1.714844 -0.554688 C 1.945312 -0.386719 2.167969 -0.296875 2.382812 -0.292969 C 2.714844 -0.285156 3.070312 -0.460938 3.441406 -0.8125 C 4.027344 -1.367188 4.214844 -1.941406 4 -2.527344 C 3.878906 -2.871094 3.515625 -3.351562 2.910156 -3.972656 C 2.980469 -3.59375 2.957031 -3.246094 2.851562 -2.929688 C 2.742188 -2.609375 2.511719 -2.285156 2.160156 -1.945312 C 1.667969 -1.476562 1.070312 -1.242188 0.367188 -1.242188 C -0.335938 -1.242188 -1.070312 -1.644531 -1.835938 -2.449219 C -2.558594 -3.210938 -2.9375 -3.984375 -2.972656 -4.765625 C -3.007812 -5.546875 -2.761719 -6.1875 -2.234375 -6.6875 Z M 1.363281 -5.660156 C 0.828125 -6.222656 0.3125 -6.53125 -0.175781 -6.582031 C -0.667969 -6.632812 -1.09375 -6.488281 -1.453125 -6.144531 C -1.988281 -5.632812 -2.117188 -5.03125 -1.835938 -4.339844 C -1.6875 -3.972656 -1.402344 -3.570312 -0.988281 -3.132812 C -0.503906 -2.621094 -0.0273438 -2.328125 0.433594 -2.261719 C 0.898438 -2.191406 1.304688 -2.324219 1.65625 -2.65625 C 2.203125 -3.179688 2.355469 -3.792969 2.109375 -4.5 C 1.964844 -4.898438 1.71875 -5.285156 1.363281 -5.660156 Z M 1.363281 -5.660156 "/>
</g>
<g id="glyph-521983-1-0">
<path d="M 3.261719 -5.097656 L 3.5625 -5.847656 C 4.296875 -5.636719 4.835938 -5.554688 5.179688 -5.605469 C 5.523438 -5.65625 5.882812 -5.953125 6.261719 -6.503906 L 7.035156 -6.195312 L 3.949219 1.570312 L 2.902344 1.152344 L 5.097656 -4.367188 Z M 3.261719 -5.097656 "/>
</g>
<g id="glyph-521983-1-1">
<rect x="0" y="0" width="0" height="0" mask="url(#mask-1)"/>
</g>
<g id="glyph-521983-1-2">
<path d="M 2.085938 -0.96875 C 1.972656 -0.683594 1.988281 -0.417969 2.132812 -0.175781 C 2.273438 0.0703125 2.484375 0.25 2.769531 0.363281 C 3.113281 0.5 3.480469 0.554688 3.867188 0.523438 C 4.515625 0.472656 4.960938 0.148438 5.199219 -0.453125 L 5.515625 -1.246094 C 5.363281 -1.214844 5.183594 -1.214844 4.976562 -1.238281 C 4.765625 -1.261719 4.566406 -1.300781 4.375 -1.347656 L 3.753906 -1.507812 C 3.378906 -1.601562 3.082031 -1.636719 2.863281 -1.605469 C 2.496094 -1.554688 2.234375 -1.339844 2.085938 -0.96875 Z M 5.25 -2.003906 C 5.484375 -1.945312 5.671875 -1.980469 5.8125 -2.109375 C 5.890625 -2.179688 5.964844 -2.296875 6.027344 -2.457031 C 6.160156 -2.792969 6.136719 -3.082031 5.960938 -3.328125 C 5.78125 -3.574219 5.472656 -3.78125 5.03125 -3.960938 C 4.519531 -4.164062 4.101562 -4.167969 3.777344 -3.976562 C 3.597656 -3.871094 3.425781 -3.675781 3.269531 -3.390625 L 2.355469 -3.753906 C 2.660156 -4.464844 3.09375 -4.875 3.652344 -4.976562 C 4.210938 -5.078125 4.789062 -5.011719 5.378906 -4.777344 C 6.066406 -4.503906 6.570312 -4.152344 6.894531 -3.722656 C 7.214844 -3.292969 7.265625 -2.800781 7.046875 -2.25 L 5.710938 1.109375 C 5.671875 1.210938 5.660156 1.300781 5.675781 1.382812 C 5.695312 1.460938 5.769531 1.523438 5.90625 1.578125 C 5.949219 1.59375 6 1.613281 6.054688 1.628906 C 6.113281 1.644531 6.171875 1.660156 6.238281 1.671875 L 5.953125 2.398438 C 5.78125 2.382812 5.65625 2.363281 5.570312 2.339844 C 5.484375 2.320312 5.375 2.28125 5.238281 2.226562 C 4.898438 2.09375 4.703125 1.875 4.644531 1.574219 C 4.617188 1.417969 4.628906 1.214844 4.691406 0.96875 C 4.386719 1.152344 4.011719 1.265625 3.558594 1.308594 C 3.109375 1.351562 2.660156 1.285156 2.207031 1.105469 C 1.667969 0.890625 1.292969 0.550781 1.078125 0.0859375 C 0.867188 -0.378906 0.859375 -0.859375 1.054688 -1.351562 C 1.269531 -1.894531 1.605469 -2.246094 2.0625 -2.410156 C 2.515625 -2.574219 3.03125 -2.578125 3.609375 -2.429688 Z M 5.25 -2.003906 "/>
</g>
<g id="glyph-521983-1-3">
<path d="M 3.039062 -5.546875 L 3.96875 -5.175781 L 3.640625 -4.347656 C 4.050781 -4.578125 4.441406 -4.707031 4.808594 -4.734375 C 5.175781 -4.761719 5.546875 -4.699219 5.925781 -4.546875 C 6.753906 -4.21875 7.199219 -3.707031 7.257812 -3.015625 C 7.292969 -2.636719 7.191406 -2.152344 6.960938 -1.566406 L 5.472656 2.175781 L 4.476562 1.78125 L 5.9375 -1.894531 C 6.078125 -2.25 6.140625 -2.558594 6.121094 -2.820312 C 6.089844 -3.25 5.847656 -3.558594 5.390625 -3.738281 C 5.15625 -3.832031 4.957031 -3.882812 4.789062 -3.894531 C 4.488281 -3.921875 4.191406 -3.859375 3.890625 -3.699219 C 3.652344 -3.570312 3.46875 -3.414062 3.335938 -3.230469 C 3.207031 -3.042969 3.066406 -2.761719 2.914062 -2.378906 L 1.699219 0.675781 L 0.71875 0.285156 Z M 3.039062 -5.546875 "/>
</g>
<g id="glyph-521983-1-4">
<path d="M 2.472656 -2.316406 C 2.222656 -1.691406 2.148438 -1.117188 2.246094 -0.589844 C 2.34375 -0.0625 2.683594 0.316406 3.269531 0.550781 C 3.722656 0.730469 4.171875 0.683594 4.621094 0.410156 C 5.066406 0.136719 5.4375 -0.367188 5.726562 -1.097656 C 6.019531 -1.832031 6.085938 -2.4375 5.925781 -2.914062 C 5.765625 -3.386719 5.460938 -3.710938 5.019531 -3.886719 C 4.527344 -4.082031 4.050781 -4.054688 3.59375 -3.796875 C 3.136719 -3.542969 2.761719 -3.046875 2.472656 -2.316406 Z M 5.175781 -4.816406 C 5.621094 -4.636719 5.957031 -4.394531 6.183594 -4.085938 C 6.316406 -3.90625 6.4375 -3.640625 6.550781 -3.277344 L 7.722656 -6.222656 L 8.664062 -5.851562 L 5.472656 2.175781 L 4.589844 1.824219 L 4.914062 1.015625 C 4.542969 1.28125 4.167969 1.433594 3.792969 1.46875 C 3.417969 1.503906 3.027344 1.441406 2.625 1.28125 C 1.972656 1.023438 1.519531 0.527344 1.261719 -0.207031 C 1.003906 -0.941406 1.054688 -1.765625 1.414062 -2.671875 C 1.753906 -3.519531 2.261719 -4.171875 2.945312 -4.621094 C 3.625 -5.070312 4.367188 -5.136719 5.175781 -4.816406 Z M 5.175781 -4.816406 "/>
</g>
<g id="glyph-521983-1-5">
<path d="M 2.8125 1.363281 C 1.890625 0.996094 1.320312 0.476562 1.109375 -0.191406 C 0.894531 -0.863281 0.929688 -1.5625 1.21875 -2.289062 L 2.242188 -1.882812 C 2.085938 -1.359375 2.035156 -0.957031 2.089844 -0.671875 C 2.179688 -0.160156 2.558594 0.230469 3.222656 0.492188 C 3.738281 0.699219 4.207031 0.722656 4.628906 0.574219 C 5.050781 0.421875 5.347656 0.128906 5.519531 -0.308594 C 5.734375 -0.847656 5.71875 -1.285156 5.476562 -1.632812 C 5.234375 -1.976562 4.816406 -2.265625 4.234375 -2.496094 C 4.167969 -2.523438 4.101562 -2.546875 4.035156 -2.574219 C 3.964844 -2.597656 3.898438 -2.621094 3.828125 -2.644531 L 4.171875 -3.511719 C 4.269531 -3.460938 4.351562 -3.417969 4.417969 -3.390625 C 4.484375 -3.359375 4.558594 -3.328125 4.640625 -3.292969 C 5.007812 -3.148438 5.332031 -3.085938 5.613281 -3.109375 C 6.105469 -3.148438 6.457031 -3.429688 6.664062 -3.953125 C 6.820312 -4.339844 6.800781 -4.695312 6.609375 -5.015625 C 6.417969 -5.335938 6.136719 -5.566406 5.769531 -5.714844 C 5.117188 -5.972656 4.578125 -5.933594 4.15625 -5.597656 C 3.921875 -5.414062 3.707031 -5.105469 3.515625 -4.667969 L 2.546875 -5.054688 C 2.777344 -5.636719 3.089844 -6.082031 3.484375 -6.394531 C 4.171875 -6.964844 5.015625 -7.046875 6.023438 -6.648438 C 6.816406 -6.332031 7.363281 -5.910156 7.65625 -5.382812 C 7.953125 -4.855469 7.964844 -4.257812 7.699219 -3.585938 C 7.507812 -3.105469 7.226562 -2.769531 6.847656 -2.574219 C 6.617188 -2.453125 6.351562 -2.390625 6.054688 -2.382812 C 6.421875 -2.109375 6.65625 -1.765625 6.757812 -1.351562 C 6.859375 -0.9375 6.820312 -0.5 6.636719 -0.0351562 C 6.339844 0.707031 5.851562 1.21875 5.175781 1.492188 C 4.5 1.765625 3.710938 1.722656 2.8125 1.363281 Z M 2.8125 1.363281 "/>
</g>
<g id="glyph-521983-1-6">
<path d="M 5.519531 -4.710938 C 5.933594 -4.546875 6.292969 -4.289062 6.605469 -3.941406 C 6.917969 -3.59375 7.113281 -3.222656 7.191406 -2.835938 C 7.269531 -2.460938 7.265625 -2.066406 7.175781 -1.648438 C 7.125 -1.355469 6.984375 -0.917969 6.75 -0.328125 L 2.476562 -2.027344 C 2.261719 -1.429688 2.210938 -0.898438 2.332031 -0.4375 C 2.449219 0.0234375 2.785156 0.363281 3.332031 0.582031 C 3.84375 0.785156 4.320312 0.777344 4.757812 0.5625 C 5.011719 0.433594 5.222656 0.257812 5.398438 0.0273438 L 6.363281 0.410156 C 6.253906 0.613281 6.074219 0.820312 5.824219 1.027344 C 5.578125 1.234375 5.332031 1.382812 5.085938 1.480469 C 4.671875 1.652344 4.226562 1.703125 3.746094 1.628906 C 3.488281 1.59375 3.210938 1.515625 2.914062 1.398438 C 2.1875 1.109375 1.675781 0.601562 1.382812 -0.128906 C 1.085938 -0.855469 1.128906 -1.695312 1.507812 -2.648438 C 1.878906 -3.585938 2.4375 -4.242188 3.175781 -4.625 C 3.917969 -5.007812 4.695312 -5.035156 5.519531 -4.710938 Z M 6.054688 -1.507812 C 6.183594 -1.949219 6.226562 -2.324219 6.179688 -2.636719 C 6.101562 -3.214844 5.746094 -3.628906 5.117188 -3.878906 C 4.667969 -4.058594 4.226562 -4.046875 3.792969 -3.84375 C 3.359375 -3.640625 3.03125 -3.289062 2.816406 -2.796875 Z M 6.054688 -1.507812 "/>
</g>
<g id="glyph-521983-1-7">
<path d="M 5.136719 -4.832031 C 5.59375 -4.648438 5.949219 -4.378906 6.199219 -4.015625 C 6.335938 -3.816406 6.449219 -3.554688 6.546875 -3.238281 L 6.835938 -3.972656 L 7.742188 -3.613281 L 5.632812 1.691406 C 5.339844 2.433594 4.996094 2.972656 4.609375 3.316406 C 3.886719 3.945312 2.964844 4.035156 1.835938 3.585938 C 1.207031 3.335938 0.734375 2.984375 0.417969 2.535156 C 0.101562 2.082031 0.0351562 1.546875 0.222656 0.925781 L 1.21875 1.324219 C 1.164062 1.605469 1.179688 1.84375 1.261719 2.039062 C 1.398438 2.347656 1.703125 2.59375 2.179688 2.78125 C 2.929688 3.082031 3.527344 3.011719 3.96875 2.574219 C 4.230469 2.316406 4.515625 1.785156 4.824219 0.980469 C 4.511719 1.199219 4.1875 1.328125 3.851562 1.363281 C 3.519531 1.398438 3.125 1.324219 2.671875 1.144531 C 2.039062 0.894531 1.578125 0.449219 1.28125 -0.1875 C 0.984375 -0.824219 1.042969 -1.660156 1.457031 -2.695312 C 1.84375 -3.671875 2.386719 -4.335938 3.082031 -4.695312 C 3.777344 -5.054688 4.460938 -5.097656 5.136719 -4.832031 Z M 5.710938 -1.132812 C 5.996094 -1.855469 6.0625 -2.453125 5.902344 -2.917969 C 5.742188 -3.386719 5.433594 -3.710938 4.972656 -3.894531 C 4.28125 -4.167969 3.683594 -4.03125 3.171875 -3.488281 C 2.898438 -3.195312 2.652344 -2.769531 2.429688 -2.210938 C 2.167969 -1.554688 2.105469 -1 2.234375 -0.550781 C 2.363281 -0.101562 2.65625 0.210938 3.105469 0.390625 C 3.808594 0.671875 4.429688 0.550781 4.96875 0.0273438 C 5.273438 -0.269531 5.519531 -0.65625 5.710938 -1.132812 Z M 5.710938 -1.132812 "/>
</g>
<g id="glyph-521983-1-8">
<path d="M 0.347656 0.136719 C 0.652344 -0.519531 1.023438 -1.046875 1.460938 -1.449219 C 1.902344 -1.851562 2.550781 -2.113281 3.414062 -2.242188 L 4.699219 -2.433594 C 5.277344 -2.519531 5.695312 -2.621094 5.960938 -2.738281 C 6.378906 -2.921875 6.664062 -3.207031 6.820312 -3.59375 C 7 -4.046875 7.007812 -4.460938 6.839844 -4.835938 C 6.675781 -5.210938 6.367188 -5.488281 5.910156 -5.671875 C 5.238281 -5.9375 4.675781 -5.867188 4.214844 -5.460938 C 3.96875 -5.246094 3.742188 -4.898438 3.535156 -4.421875 L 2.539062 -4.816406 C 2.820312 -5.492188 3.164062 -5.996094 3.574219 -6.328125 C 4.300781 -6.914062 5.199219 -6.992188 6.273438 -6.566406 C 7.167969 -6.210938 7.722656 -5.710938 7.945312 -5.0625 C 8.164062 -4.417969 8.15625 -3.796875 7.921875 -3.207031 C 7.671875 -2.582031 7.242188 -2.136719 6.625 -1.867188 C 6.269531 -1.710938 5.691406 -1.578125 4.886719 -1.476562 L 3.976562 -1.359375 C 3.542969 -1.304688 3.1875 -1.226562 2.914062 -1.128906 C 2.425781 -0.957031 2.058594 -0.699219 1.8125 -0.351562 L 6.070312 1.339844 L 5.699219 2.265625 Z M 0.347656 0.136719 "/>
</g>
<g id="glyph-521983-2-0">
<path d="M 0.121094 0.355469 C 0.816406 0.160156 1.460938 0.0976562 2.050781 0.171875 C 2.640625 0.246094 3.265625 0.570312 3.921875 1.144531 L 4.898438 2 C 5.339844 2.382812 5.691406 2.636719 5.949219 2.761719 C 6.359375 2.960938 6.765625 2.992188 7.160156 2.859375 C 7.621094 2.703125 7.941406 2.4375 8.121094 2.066406 C 8.296875 1.699219 8.308594 1.28125 8.148438 0.820312 C 7.917969 0.136719 7.496094 -0.25 6.890625 -0.335938 C 6.566406 -0.382812 6.15625 -0.328125 5.65625 -0.175781 L 5.3125 -1.191406 C 6.007812 -1.414062 6.617188 -1.480469 7.136719 -1.382812 C 8.050781 -1.210938 8.695312 -0.582031 9.066406 0.515625 C 9.375 1.425781 9.355469 2.171875 9.007812 2.761719 C 8.65625 3.347656 8.183594 3.742188 7.578125 3.949219 C 6.941406 4.164062 6.324219 4.125 5.71875 3.832031 C 5.367188 3.660156 4.894531 3.304688 4.292969 2.761719 L 3.613281 2.144531 C 3.289062 1.851562 3.003906 1.628906 2.75 1.484375 C 2.304688 1.222656 1.867188 1.113281 1.441406 1.148438 L 2.917969 5.488281 L 1.972656 5.808594 Z M 0.121094 0.355469 "/>
</g>
<g id="glyph-521983-2-1">
<rect x="0" y="0" width="0" height="0" mask="url(#mask-2)"/>
</g>
<g id="glyph-521983-2-2">
<path d="M 2.089844 0.960938 C 1.800781 1.058594 1.609375 1.242188 1.515625 1.507812 C 1.421875 1.777344 1.421875 2.054688 1.519531 2.34375 C 1.640625 2.695312 1.835938 3.007812 2.109375 3.28125 C 2.570312 3.742188 3.105469 3.871094 3.71875 3.664062 L 4.523438 3.390625 C 4.40625 3.292969 4.285156 3.15625 4.167969 2.984375 C 4.050781 2.808594 3.953125 2.632812 3.867188 2.453125 L 3.582031 1.875 C 3.410156 1.53125 3.242188 1.285156 3.078125 1.136719 C 2.800781 0.890625 2.472656 0.832031 2.089844 0.960938 Z M 4.929688 2.695312 C 5.039062 2.914062 5.1875 3.035156 5.375 3.054688 C 5.480469 3.070312 5.617188 3.050781 5.78125 2.992188 C 6.121094 2.875 6.328125 2.671875 6.398438 2.378906 C 6.46875 2.082031 6.429688 1.710938 6.277344 1.257812 C 6.097656 0.738281 5.832031 0.414062 5.476562 0.292969 C 5.28125 0.222656 5.023438 0.222656 4.703125 0.289062 L 4.386719 -0.640625 C 5.125 -0.871094 5.714844 -0.808594 6.15625 -0.449219 C 6.597656 -0.0898438 6.921875 0.390625 7.125 0.996094 C 7.363281 1.695312 7.421875 2.308594 7.304688 2.832031 C 7.1875 3.355469 6.847656 3.714844 6.285156 3.90625 L 2.859375 5.066406 C 2.757812 5.101562 2.679688 5.152344 2.632812 5.214844 C 2.585938 5.28125 2.582031 5.378906 2.628906 5.519531 C 2.644531 5.5625 2.664062 5.609375 2.6875 5.664062 C 2.710938 5.71875 2.742188 5.773438 2.773438 5.832031 L 2.035156 6.085938 C 1.9375 5.945312 1.871094 5.835938 1.832031 5.757812 C 1.792969 5.679688 1.75 5.570312 1.703125 5.429688 C 1.585938 5.085938 1.621094 4.796875 1.8125 4.558594 C 1.914062 4.433594 2.078125 4.3125 2.304688 4.199219 C 1.96875 4.085938 1.640625 3.871094 1.3125 3.558594 C 0.988281 3.242188 0.746094 2.855469 0.59375 2.398438 C 0.40625 1.847656 0.417969 1.339844 0.636719 0.875 C 0.851562 0.414062 1.210938 0.0976562 1.714844 -0.0742188 C 2.265625 -0.261719 2.75 -0.234375 3.171875 0.00390625 C 3.589844 0.246094 3.929688 0.632812 4.191406 1.167969 Z M 4.929688 2.695312 "/>
</g>
<g id="glyph-521983-2-3">
<path d="M 6.191406 -1.285156 L 6.511719 -0.335938 L 5.667969 -0.0507812 C 6.113281 0.113281 6.464844 0.324219 6.722656 0.585938 C 6.980469 0.851562 7.175781 1.175781 7.304688 1.558594 C 7.59375 2.402344 7.492188 3.070312 7.003906 3.566406 C 6.738281 3.839844 6.304688 4.078125 5.707031 4.28125 L 1.894531 5.574219 L 1.550781 4.558594 L 5.292969 3.289062 C 5.65625 3.164062 5.929688 3.011719 6.117188 2.828125 C 6.425781 2.527344 6.5 2.140625 6.34375 1.675781 C 6.261719 1.4375 6.171875 1.253906 6.074219 1.117188 C 5.898438 0.871094 5.652344 0.6875 5.339844 0.5625 C 5.085938 0.460938 4.847656 0.421875 4.621094 0.445312 C 4.394531 0.464844 4.089844 0.542969 3.699219 0.671875 L 0.589844 1.730469 L 0.25 0.730469 Z M 6.191406 -1.285156 "/>
</g>
<g id="glyph-521983-2-4">
<path d="M 3.367188 0.378906 C 2.730469 0.59375 2.242188 0.910156 1.90625 1.328125 C 1.566406 1.742188 1.5 2.25 1.703125 2.84375 C 1.859375 3.304688 2.1875 3.617188 2.6875 3.78125 C 3.183594 3.945312 3.804688 3.898438 4.550781 3.644531 C 5.300781 3.390625 5.804688 3.050781 6.058594 2.621094 C 6.316406 2.191406 6.367188 1.75 6.214844 1.296875 C 6.042969 0.792969 5.714844 0.453125 5.222656 0.269531 C 4.730469 0.0898438 4.113281 0.125 3.367188 0.378906 Z M 7.023438 0.8125 C 7.175781 1.269531 7.210938 1.683594 7.121094 2.054688 C 7.070312 2.269531 6.945312 2.539062 6.746094 2.855469 L 9.746094 1.835938 L 10.070312 2.796875 L 1.894531 5.574219 L 1.589844 4.675781 L 2.414062 4.394531 C 1.96875 4.285156 1.613281 4.101562 1.339844 3.839844 C 1.070312 3.578125 0.867188 3.238281 0.726562 2.828125 C 0.5 2.167969 0.585938 1.5 0.976562 0.824219 C 1.367188 0.152344 2.027344 -0.34375 2.953125 -0.65625 C 3.816406 -0.949219 4.640625 -0.984375 5.425781 -0.757812 C 6.210938 -0.53125 6.742188 -0.0078125 7.023438 0.8125 Z M 7.023438 0.8125 "/>
</g>
<g id="glyph-521983-2-5">
<path d="M 0.785156 3.023438 C 0.46875 2.085938 0.492188 1.316406 0.867188 0.71875 C 1.238281 0.121094 1.792969 -0.304688 2.535156 -0.558594 L 2.886719 0.484375 C 2.386719 0.703125 2.046875 0.925781 1.863281 1.15625 C 1.535156 1.554688 1.484375 2.09375 1.714844 2.769531 C 1.894531 3.296875 2.175781 3.671875 2.566406 3.894531 C 2.957031 4.117188 3.371094 4.152344 3.816406 4 C 4.363281 3.816406 4.6875 3.515625 4.792969 3.109375 C 4.898438 2.699219 4.847656 2.199219 4.648438 1.601562 C 4.625 1.535156 4.601562 1.46875 4.574219 1.398438 C 4.550781 1.332031 4.523438 1.265625 4.496094 1.195312 L 5.378906 0.894531 C 5.402344 1.003906 5.425781 1.09375 5.445312 1.164062 C 5.464844 1.234375 5.488281 1.3125 5.515625 1.394531 C 5.644531 1.765625 5.808594 2.054688 6.007812 2.253906 C 6.359375 2.605469 6.800781 2.691406 7.332031 2.507812 C 7.726562 2.375 7.984375 2.128906 8.105469 1.777344 C 8.222656 1.421875 8.21875 1.058594 8.09375 0.683594 C 7.867188 0.0195312 7.488281 -0.367188 6.957031 -0.46875 C 6.664062 -0.527344 6.289062 -0.488281 5.832031 -0.355469 L 5.496094 -1.339844 C 6.089844 -1.542969 6.632812 -1.59375 7.128906 -1.5 C 8.003906 -1.34375 8.617188 -0.753906 8.964844 0.269531 C 9.242188 1.082031 9.273438 1.769531 9.0625 2.335938 C 8.855469 2.902344 8.40625 3.300781 7.722656 3.535156 C 7.234375 3.699219 6.792969 3.703125 6.402344 3.542969 C 6.15625 3.445312 5.9375 3.285156 5.742188 3.0625 C 5.769531 3.519531 5.660156 3.917969 5.414062 4.265625 C 5.164062 4.613281 4.804688 4.867188 4.332031 5.027344 C 3.574219 5.285156 2.871094 5.242188 2.222656 4.90625 C 1.578125 4.570312 1.097656 3.941406 0.785156 3.023438 Z M 0.785156 3.023438 "/>
</g>
<g id="glyph-521983-2-6">
<path d="M 7.164062 1.144531 C 7.308594 1.566406 7.347656 2.007812 7.285156 2.46875 C 7.222656 2.933594 7.066406 3.320312 6.824219 3.636719 C 6.589844 3.9375 6.285156 4.1875 5.910156 4.390625 C 5.65625 4.542969 5.230469 4.722656 4.632812 4.925781 L 3.152344 0.570312 C 2.554688 0.792969 2.121094 1.097656 1.847656 1.488281 C 1.574219 1.878906 1.53125 2.355469 1.71875 2.914062 C 1.898438 3.433594 2.210938 3.792969 2.660156 3.984375 C 2.917969 4.09375 3.195312 4.140625 3.480469 4.125 L 3.816406 5.109375 C 3.589844 5.15625 3.316406 5.152344 2.996094 5.097656 C 2.679688 5.042969 2.40625 4.953125 2.171875 4.832031 C 1.773438 4.628906 1.449219 4.320312 1.191406 3.910156 C 1.050781 3.6875 0.929688 3.425781 0.824219 3.121094 C 0.574219 2.382812 0.628906 1.664062 0.992188 0.96875 C 1.355469 0.269531 2.023438 -0.242188 2.992188 -0.570312 C 3.945312 -0.894531 4.808594 -0.898438 5.582031 -0.585938 C 6.351562 -0.269531 6.878906 0.308594 7.164062 1.144531 Z M 5.074219 3.628906 C 5.492188 3.441406 5.808594 3.230469 6.015625 2.992188 C 6.40625 2.554688 6.488281 2.015625 6.273438 1.378906 C 6.117188 0.917969 5.820312 0.589844 5.382812 0.390625 C 4.945312 0.195312 4.472656 0.171875 3.953125 0.328125 Z M 5.074219 3.628906 "/>
</g>
<g id="glyph-521983-2-7">
<path d="M 7.007812 0.773438 C 7.167969 1.242188 7.191406 1.6875 7.078125 2.113281 C 7.011719 2.34375 6.890625 2.601562 6.710938 2.882812 L 7.457031 2.628906 L 7.769531 3.546875 L 2.367188 5.382812 C 1.613281 5.640625 0.980469 5.730469 0.46875 5.65625 C -0.480469 5.515625 -1.148438 4.871094 -1.539062 3.722656 C -1.757812 3.082031 -1.796875 2.496094 -1.65625 1.960938 C -1.519531 1.425781 -1.152344 1.03125 -0.5625 0.773438 L -0.214844 1.789062 C -0.464844 1.925781 -0.636719 2.09375 -0.734375 2.285156 C -0.878906 2.585938 -0.867188 2.980469 -0.703125 3.464844 C -0.445312 4.230469 -0.00390625 4.636719 0.617188 4.691406 C 0.984375 4.722656 1.570312 4.597656 2.386719 4.308594 C 2.015625 4.210938 1.707031 4.046875 1.464844 3.816406 C 1.21875 3.585938 1.019531 3.238281 0.863281 2.777344 C 0.644531 2.132812 0.679688 1.492188 0.972656 0.855469 C 1.265625 0.214844 1.941406 -0.28125 2.996094 -0.640625 C 3.988281 -0.976562 4.847656 -1 5.574219 -0.703125 C 6.296875 -0.40625 6.773438 0.0859375 7.007812 0.773438 Z M 4.566406 3.609375 C 5.304688 3.359375 5.796875 3.023438 6.050781 2.597656 C 6.300781 2.175781 6.347656 1.726562 6.1875 1.257812 C 5.949219 0.554688 5.457031 0.1875 4.710938 0.152344 C 4.3125 0.132812 3.828125 0.222656 3.261719 0.414062 C 2.589844 0.640625 2.128906 0.953125 1.871094 1.34375 C 1.613281 1.734375 1.5625 2.15625 1.71875 2.617188 C 1.960938 3.332031 2.457031 3.726562 3.203125 3.800781 C 3.625 3.839844 4.078125 3.773438 4.566406 3.609375 Z M 4.566406 3.609375 "/>
</g>
<g id="glyph-521983-3-0">
<path d="M 1.980469 2.417969 C 1.296875 1.699219 1 0.988281 1.085938 0.289062 C 1.171875 -0.410156 1.5 -1.03125 2.066406 -1.566406 L 2.824219 -0.769531 C 2.464844 -0.363281 2.25 -0.015625 2.175781 0.265625 C 2.046875 0.769531 2.226562 1.28125 2.71875 1.796875 C 3.101562 2.199219 3.515625 2.421875 3.960938 2.460938 C 4.40625 2.5 4.800781 2.355469 5.140625 2.035156 C 5.558594 1.636719 5.730469 1.226562 5.65625 0.8125 C 5.578125 0.398438 5.324219 -0.0390625 4.890625 -0.492188 C 4.84375 -0.542969 4.792969 -0.59375 4.742188 -0.644531 C 4.691406 -0.695312 4.636719 -0.75 4.582031 -0.800781 L 5.257812 -1.441406 C 5.324219 -1.355469 5.382812 -1.28125 5.429688 -1.226562 C 5.480469 -1.167969 5.535156 -1.109375 5.59375 -1.046875 C 5.863281 -0.761719 6.132812 -0.570312 6.398438 -0.472656 C 6.863281 -0.300781 7.300781 -0.40625 7.707031 -0.792969 C 8.011719 -1.082031 8.144531 -1.410156 8.101562 -1.78125 C 8.0625 -2.152344 7.90625 -2.484375 7.632812 -2.769531 C 7.148438 -3.277344 6.644531 -3.46875 6.121094 -3.34375 C 5.832031 -3.273438 5.507812 -3.082031 5.148438 -2.765625 L 4.429688 -3.523438 C 4.882812 -3.953125 5.351562 -4.226562 5.84375 -4.347656 C 6.707031 -4.574219 7.507812 -4.296875 8.253906 -3.511719 C 8.84375 -2.890625 9.160156 -2.28125 9.207031 -1.679688 C 9.253906 -1.078125 9.015625 -0.527344 8.492188 -0.0273438 C 8.117188 0.328125 7.71875 0.515625 7.296875 0.535156 C 7.035156 0.546875 6.769531 0.492188 6.496094 0.371094 C 6.714844 0.777344 6.78125 1.1875 6.703125 1.605469 C 6.621094 2.023438 6.402344 2.402344 6.039062 2.75 C 5.457031 3.300781 4.804688 3.558594 4.074219 3.523438 C 3.347656 3.488281 2.648438 3.121094 1.980469 2.417969 Z M 1.980469 2.417969 "/>
</g>
<g id="glyph-521983-3-1">
<rect x="0" y="0" width="0" height="0" mask="url(#mask-3)"/>
</g>
<g id="glyph-521983-3-2">
<path d="M 2.300781 -0.00390625 C 2.078125 0.207031 1.980469 0.453125 2.007812 0.734375 C 2.035156 1.015625 2.152344 1.269531 2.363281 1.488281 C 2.617188 1.757812 2.925781 1.960938 3.292969 2.09375 C 3.902344 2.320312 4.441406 2.214844 4.910156 1.765625 L 5.527344 1.179688 C 5.378906 1.144531 5.214844 1.070312 5.035156 0.960938 C 4.855469 0.851562 4.691406 0.734375 4.539062 0.609375 L 4.039062 0.203125 C 3.738281 -0.0390625 3.484375 -0.191406 3.273438 -0.257812 C 2.917969 -0.367188 2.59375 -0.28125 2.300781 -0.00390625 Z M 5.605469 0.378906 C 5.796875 0.53125 5.980469 0.582031 6.160156 0.523438 C 6.261719 0.492188 6.375 0.414062 6.503906 0.292969 C 6.765625 0.046875 6.863281 -0.226562 6.804688 -0.523438 C 6.746094 -0.820312 6.554688 -1.140625 6.226562 -1.488281 C 5.847656 -1.886719 5.46875 -2.066406 5.09375 -2.03125 C 4.886719 -2.011719 4.652344 -1.902344 4.390625 -1.707031 L 3.714844 -2.421875 C 4.289062 -2.941406 4.851562 -3.128906 5.402344 -2.988281 C 5.953125 -2.847656 6.449219 -2.546875 6.886719 -2.082031 C 7.394531 -1.546875 7.707031 -1.015625 7.820312 -0.488281 C 7.929688 0.0351562 7.773438 0.503906 7.339844 0.914062 L 4.722656 3.402344 C 4.640625 3.476562 4.59375 3.554688 4.578125 3.632812 C 4.558594 3.710938 4.601562 3.804688 4.699219 3.90625 C 4.730469 3.941406 4.769531 3.976562 4.816406 4.015625 C 4.859375 4.054688 4.910156 4.09375 4.964844 4.132812 L 4.398438 4.671875 C 4.25 4.585938 4.144531 4.515625 4.078125 4.460938 C 4.007812 4.40625 3.925781 4.324219 3.820312 4.21875 C 3.570312 3.953125 3.484375 3.671875 3.558594 3.378906 C 3.597656 3.222656 3.695312 3.042969 3.851562 2.847656 C 3.5 2.882812 3.109375 2.828125 2.683594 2.679688 C 2.257812 2.53125 1.875 2.28125 1.542969 1.929688 C 1.140625 1.507812 0.941406 1.039062 0.945312 0.53125 C 0.945312 0.0195312 1.140625 -0.421875 1.523438 -0.785156 C 1.945312 -1.1875 2.398438 -1.367188 2.882812 -1.324219 C 3.363281 -1.28125 3.835938 -1.070312 4.292969 -0.695312 Z M 5.605469 0.378906 "/>
</g>
<g id="glyph-521983-3-3">
<path d="M 5.082031 -3.761719 L 5.773438 -3.035156 L 5.125 -2.421875 C 5.597656 -2.460938 6.003906 -2.414062 6.347656 -2.285156 C 6.695312 -2.152344 7.007812 -1.941406 7.285156 -1.644531 C 7.898438 -1 8.089844 -0.351562 7.855469 0.304688 C 7.726562 0.664062 7.433594 1.058594 6.972656 1.496094 L 4.054688 4.269531 L 3.316406 3.492188 L 6.183594 0.765625 C 6.460938 0.503906 6.648438 0.25 6.738281 0.00390625 C 6.894531 -0.398438 6.800781 -0.78125 6.460938 -1.136719 C 6.289062 -1.316406 6.128906 -1.449219 5.980469 -1.53125 C 5.71875 -1.679688 5.421875 -1.746094 5.082031 -1.726562 C 4.8125 -1.710938 4.578125 -1.648438 4.382812 -1.535156 C 4.1875 -1.421875 3.9375 -1.222656 3.640625 -0.9375 L 1.257812 1.324219 L 0.53125 0.5625 Z M 5.082031 -3.761719 "/>
</g>
<g id="glyph-521983-3-4">
<path d="M 3.214844 -1.066406 C 2.726562 -0.601562 2.417969 -0.113281 2.285156 0.40625 C 2.152344 0.925781 2.304688 1.414062 2.738281 1.867188 C 3.074219 2.222656 3.503906 2.367188 4.023438 2.308594 C 4.542969 2.246094 5.089844 1.945312 5.660156 1.402344 C 6.234375 0.855469 6.546875 0.335938 6.601562 -0.160156 C 6.652344 -0.660156 6.515625 -1.082031 6.1875 -1.425781 C 5.820312 -1.8125 5.375 -1.984375 4.855469 -1.941406 C 4.332031 -1.902344 3.785156 -1.609375 3.214844 -1.066406 Z M 6.714844 -2.203125 C 7.046875 -1.855469 7.25 -1.492188 7.328125 -1.117188 C 7.371094 -0.902344 7.371094 -0.605469 7.320312 -0.230469 L 9.617188 -2.414062 L 10.316406 -1.679688 L 4.054688 4.269531 L 3.402344 3.582031 L 4.035156 2.980469 C 3.585938 3.066406 3.183594 3.046875 2.828125 2.921875 C 2.472656 2.796875 2.144531 2.578125 1.84375 2.265625 C 1.363281 1.757812 1.160156 1.117188 1.234375 0.339844 C 1.308594 -0.4375 1.695312 -1.160156 2.40625 -1.832031 C 3.066406 -2.460938 3.800781 -2.839844 4.609375 -2.960938 C 5.417969 -3.085938 6.117188 -2.832031 6.714844 -2.203125 Z M 6.714844 -2.203125 "/>
</g>
<g id="glyph-521983-3-5">
<path d="M 4.886719 0.828125 L 7.640625 -1.789062 L 3.035156 -1.121094 Z M 2.746094 2.886719 L 4.230469 1.476562 L 1.695312 -1.191406 L 2.445312 -1.902344 L 8.957031 -2.789062 L 9.570312 -2.144531 L 5.625 1.605469 L 6.476562 2.503906 L 5.808594 3.136719 L 4.957031 2.238281 L 3.472656 3.652344 Z M 2.746094 2.886719 "/>
</g>
<g id="glyph-521983-3-6">
<path d="M 6.984375 -1.964844 C 7.289062 -1.640625 7.511719 -1.257812 7.648438 -0.808594 C 7.785156 -0.363281 7.808594 0.0546875 7.71875 0.441406 C 7.632812 0.8125 7.464844 1.167969 7.207031 1.507812 C 7.039062 1.753906 6.726562 2.09375 6.269531 2.53125 L 3.101562 -0.804688 C 2.652344 -0.351562 2.386719 0.109375 2.300781 0.578125 C 2.214844 1.046875 2.375 1.496094 2.78125 1.921875 C 3.160156 2.320312 3.59375 2.515625 4.085938 2.503906 C 4.367188 2.496094 4.636719 2.421875 4.890625 2.289062 L 5.605469 3.039062 C 5.417969 3.179688 5.171875 3.289062 4.859375 3.371094 C 4.546875 3.457031 4.261719 3.492188 3.996094 3.476562 C 3.550781 3.457031 3.125 3.316406 2.71875 3.050781 C 2.5 2.910156 2.277344 2.722656 2.058594 2.488281 C 1.519531 1.921875 1.269531 1.246094 1.308594 0.460938 C 1.347656 -0.324219 1.734375 -1.066406 2.476562 -1.773438 C 3.207031 -2.46875 3.988281 -2.832031 4.824219 -2.871094 C 5.65625 -2.90625 6.375 -2.605469 6.984375 -1.964844 Z M 6.128906 1.167969 C 6.429688 0.820312 6.625 0.496094 6.71875 0.195312 C 6.886719 -0.363281 6.738281 -0.886719 6.273438 -1.378906 C 5.9375 -1.730469 5.53125 -1.902344 5.054688 -1.898438 C 4.574219 -1.898438 4.132812 -1.71875 3.726562 -1.359375 Z M 6.128906 1.167969 "/>
</g>
<g id="glyph-521983-3-7">
<path d="M 6.6875 -2.234375 C 7.027344 -1.878906 7.234375 -1.480469 7.3125 -1.050781 C 7.351562 -0.8125 7.347656 -0.527344 7.300781 -0.195312 L 7.871094 -0.742188 L 8.542969 -0.0351562 L 4.40625 3.894531 C 3.828125 4.445312 3.292969 4.792969 2.796875 4.941406 C 1.878906 5.210938 1 4.90625 0.164062 4.023438 C -0.300781 3.535156 -0.585938 3.019531 -0.683594 2.476562 C -0.78125 1.933594 -0.613281 1.417969 -0.183594 0.9375 L 0.554688 1.714844 C 0.386719 1.945312 0.296875 2.167969 0.292969 2.382812 C 0.285156 2.714844 0.460938 3.070312 0.8125 3.441406 C 1.367188 4.027344 1.941406 4.214844 2.527344 4 C 2.871094 3.878906 3.351562 3.515625 3.972656 2.910156 C 3.59375 2.980469 3.246094 2.957031 2.929688 2.851562 C 2.609375 2.742188 2.285156 2.511719 1.945312 2.160156 C 1.476562 1.667969 1.242188 1.070312 1.242188 0.367188 C 1.242188 -0.335938 1.644531 -1.070312 2.449219 -1.835938 C 3.210938 -2.558594 3.984375 -2.9375 4.765625 -2.972656 C 5.546875 -3.007812 6.1875 -2.761719 6.6875 -2.234375 Z M 5.660156 1.363281 C 6.222656 0.828125 6.53125 0.3125 6.582031 -0.175781 C 6.632812 -0.667969 6.488281 -1.09375 6.144531 -1.453125 C 5.632812 -1.988281 5.03125 -2.117188 4.339844 -1.835938 C 3.972656 -1.6875 3.570312 -1.402344 3.132812 -0.988281 C 2.621094 -0.503906 2.328125 -0.0273438 2.261719 0.433594 C 2.191406 0.898438 2.324219 1.304688 2.65625 1.65625 C 3.179688 2.203125 3.792969 2.355469 4.5 2.109375 C 4.898438 1.964844 5.285156 1.71875 5.660156 1.363281 Z M 5.660156 1.363281 "/>
</g>
<g id="glyph-521983-4-0">
<path d="M 0.984375 -8.027344 L 2.050781 -8.027344 L 2.050781 -6.273438 L 3.054688 -6.273438 L 3.054688 -5.414062 L 2.050781 -5.414062 L 2.050781 -1.320312 C 2.050781 -1.101562 2.125 -0.953125 2.273438 -0.878906 C 2.355469 -0.835938 2.492188 -0.8125 2.683594 -0.8125 C 2.734375 -0.8125 2.789062 -0.816406 2.847656 -0.816406 C 2.90625 -0.820312 2.976562 -0.824219 3.054688 -0.832031 L 3.054688 0 C 2.933594 0.0351562 2.804688 0.0625 2.675781 0.078125 C 2.542969 0.09375 2.402344 0.101562 2.25 0.101562 C 1.757812 0.101562 1.421875 -0.0273438 1.25 -0.277344 C 1.074219 -0.53125 0.984375 -0.859375 0.984375 -1.257812 L 0.984375 -5.414062 L 0.132812 -5.414062 L 0.132812 -6.273438 L 0.984375 -6.273438 Z M 0.984375 -8.027344 "/>
</g>
<g id="glyph-521983-4-1">
<path d="M 0.773438 -8.636719 L 1.828125 -8.636719 L 1.828125 -5.425781 C 2.078125 -5.742188 2.304688 -5.964844 2.5 -6.09375 C 2.839844 -6.316406 3.265625 -6.429688 3.773438 -6.429688 C 4.683594 -6.429688 5.300781 -6.109375 5.625 -5.472656 C 5.800781 -5.125 5.890625 -4.640625 5.890625 -4.023438 L 5.890625 0 L 4.804688 0 L 4.804688 -3.953125 C 4.804688 -4.414062 4.746094 -4.753906 4.628906 -4.96875 C 4.4375 -5.3125 4.078125 -5.484375 3.550781 -5.484375 C 3.113281 -5.484375 2.71875 -5.335938 2.359375 -5.03125 C 2.003906 -4.730469 1.828125 -4.164062 1.828125 -3.328125 L 1.828125 0 L 0.773438 0 Z M 0.773438 -8.636719 "/>
</g>
<g id="glyph-521983-4-2">
<path d="M 0.773438 -6.246094 L 1.84375 -6.246094 L 1.84375 0 L 0.773438 0 Z M 0.773438 -8.609375 L 1.84375 -8.609375 L 1.84375 -7.414062 L 0.773438 -7.414062 Z M 0.773438 -8.609375 "/>
</g>
<g id="glyph-521983-4-3">
<path d="M 0.773438 -6.273438 L 1.773438 -6.273438 L 1.773438 -5.382812 C 2.070312 -5.75 2.386719 -6.015625 2.71875 -6.175781 C 3.050781 -6.335938 3.421875 -6.414062 3.828125 -6.414062 C 4.71875 -6.414062 5.320312 -6.105469 5.632812 -5.484375 C 5.804688 -5.144531 5.890625 -4.65625 5.890625 -4.023438 L 5.890625 0 L 4.816406 0 L 4.816406 -3.953125 C 4.816406 -4.335938 4.757812 -4.648438 4.648438 -4.882812 C 4.460938 -5.273438 4.117188 -5.46875 3.625 -5.46875 C 3.375 -5.46875 3.171875 -5.441406 3.011719 -5.390625 C 2.722656 -5.304688 2.46875 -5.132812 2.25 -4.875 C 2.074219 -4.667969 1.960938 -4.453125 1.90625 -4.234375 C 1.855469 -4.011719 1.828125 -3.695312 1.828125 -3.289062 L 1.828125 0 L 0.773438 0 Z M 0.773438 -6.273438 "/>
</g>
<g id="glyph-521983-4-4">
<path d="M 2.988281 -6.386719 C 3.480469 -6.386719 3.910156 -6.265625 4.277344 -6.023438 C 4.476562 -5.886719 4.679688 -5.6875 4.886719 -5.425781 L 4.886719 -6.21875 L 5.859375 -6.21875 L 5.859375 -0.507812 C 5.859375 0.289062 5.742188 0.914062 5.507812 1.375 C 5.070312 2.226562 4.242188 2.65625 3.03125 2.65625 C 2.355469 2.65625 1.785156 2.503906 1.324219 2.199219 C 0.863281 1.898438 0.605469 1.421875 0.550781 0.78125 L 1.625 0.78125 C 1.675781 1.0625 1.773438 1.277344 1.929688 1.429688 C 2.167969 1.664062 2.539062 1.78125 3.054688 1.78125 C 3.863281 1.78125 4.390625 1.496094 4.640625 0.925781 C 4.789062 0.589844 4.859375 -0.0078125 4.84375 -0.875 C 4.632812 -0.554688 4.382812 -0.3125 4.085938 -0.15625 C 3.789062 0 3.394531 0.078125 2.90625 0.078125 C 2.226562 0.078125 1.632812 -0.164062 1.121094 -0.648438 C 0.613281 -1.128906 0.359375 -1.929688 0.359375 -3.039062 C 0.359375 -4.089844 0.613281 -4.914062 1.128906 -5.5 C 1.640625 -6.089844 2.261719 -6.386719 2.988281 -6.386719 Z M 4.886719 -3.164062 C 4.886719 -3.941406 4.726562 -4.515625 4.40625 -4.890625 C 4.085938 -5.265625 3.679688 -5.453125 3.179688 -5.453125 C 2.4375 -5.453125 1.929688 -5.109375 1.65625 -4.414062 C 1.511719 -4.042969 1.441406 -3.554688 1.441406 -2.953125 C 1.441406 -2.246094 1.585938 -1.707031 1.871094 -1.339844 C 2.160156 -0.96875 2.546875 -0.785156 3.03125 -0.785156 C 3.789062 -0.785156 4.320312 -1.125 4.628906 -1.8125 C 4.800781 -2.199219 4.886719 -2.648438 4.886719 -3.164062 Z M 4.886719 -3.164062 "/>
</g>
<g id="glyph-521983-4-5">
<rect x="0" y="0" width="0" height="0" mask="url(#mask-4)"/>
</g>
<g id="glyph-521983-4-6">
<path d="M 1.148438 -5.941406 L 1.148438 -6.75 C 1.910156 -6.824219 2.441406 -6.949219 2.742188 -7.121094 C 3.042969 -7.296875 3.265625 -7.707031 3.414062 -8.355469 L 4.25 -8.355469 L 4.25 0 L 3.125 0 L 3.125 -5.941406 Z M 1.148438 -5.941406 "/>
</g>
<g id="glyph-521983-4-7">
<path d="M 0.375 0 C 0.414062 -0.722656 0.5625 -1.351562 0.824219 -1.886719 C 1.082031 -2.421875 1.589844 -2.90625 2.34375 -3.34375 L 3.46875 -3.996094 C 3.972656 -4.289062 4.328125 -4.539062 4.53125 -4.746094 C 4.851562 -5.070312 5.007812 -5.441406 5.007812 -5.859375 C 5.007812 -6.347656 4.863281 -6.734375 4.570312 -7.023438 C 4.277344 -7.308594 3.886719 -7.453125 3.398438 -7.453125 C 2.675781 -7.453125 2.175781 -7.179688 1.898438 -6.632812 C 1.75 -6.339844 1.667969 -5.933594 1.652344 -5.414062 L 0.578125 -5.414062 C 0.589844 -6.144531 0.726562 -6.742188 0.984375 -7.203125 C 1.441406 -8.015625 2.25 -8.421875 3.40625 -8.421875 C 4.367188 -8.421875 5.066406 -8.160156 5.511719 -7.640625 C 5.953125 -7.121094 6.175781 -6.542969 6.175781 -5.90625 C 6.175781 -5.234375 5.9375 -4.660156 5.46875 -4.183594 C 5.195312 -3.90625 4.703125 -3.570312 3.996094 -3.175781 L 3.195312 -2.730469 C 2.8125 -2.519531 2.507812 -2.320312 2.289062 -2.125 C 1.898438 -1.785156 1.65625 -1.410156 1.554688 -0.996094 L 6.132812 -0.996094 L 6.132812 0 Z M 0.375 0 "/>
</g>
<g id="glyph-521983-4-8">
<path d="M 3.117188 0.226562 C 2.125 0.226562 1.40625 -0.0429688 0.957031 -0.589844 C 0.511719 -1.132812 0.289062 -1.796875 0.289062 -2.578125 L 1.390625 -2.578125 C 1.4375 -2.035156 1.539062 -1.640625 1.695312 -1.394531 C 1.96875 -0.953125 2.460938 -0.734375 3.175781 -0.734375 C 3.730469 -0.734375 4.175781 -0.882812 4.511719 -1.179688 C 4.847656 -1.476562 5.015625 -1.859375 5.015625 -2.328125 C 5.015625 -2.90625 4.839844 -3.308594 4.484375 -3.539062 C 4.132812 -3.769531 3.640625 -3.882812 3.011719 -3.882812 C 2.941406 -3.882812 2.871094 -3.882812 2.796875 -3.882812 C 2.726562 -3.878906 2.652344 -3.875 2.578125 -3.875 L 2.578125 -4.804688 C 2.6875 -4.792969 2.78125 -4.785156 2.851562 -4.78125 C 2.925781 -4.777344 3.007812 -4.773438 3.09375 -4.773438 C 3.488281 -4.773438 3.8125 -4.835938 4.066406 -4.960938 C 4.511719 -5.179688 4.734375 -5.570312 4.734375 -6.132812 C 4.734375 -6.550781 4.585938 -6.875 4.289062 -7.101562 C 3.992188 -7.328125 3.648438 -7.441406 3.25 -7.441406 C 2.546875 -7.441406 2.0625 -7.207031 1.792969 -6.738281 C 1.644531 -6.480469 1.5625 -6.113281 1.539062 -5.636719 L 0.5 -5.636719 C 0.5 -6.261719 0.625 -6.792969 0.875 -7.230469 C 1.304688 -8.011719 2.058594 -8.402344 3.140625 -8.402344 C 3.996094 -8.402344 4.65625 -8.210938 5.125 -7.832031 C 5.59375 -7.449219 5.828125 -6.898438 5.828125 -6.175781 C 5.828125 -5.660156 5.691406 -5.242188 5.414062 -4.921875 C 5.242188 -4.722656 5.019531 -4.566406 4.746094 -4.453125 C 5.1875 -4.332031 5.53125 -4.097656 5.78125 -3.753906 C 6.027344 -3.40625 6.152344 -2.984375 6.152344 -2.484375 C 6.152344 -1.683594 5.890625 -1.03125 5.359375 -0.527344 C 4.832031 -0.0234375 4.085938 0.226562 3.117188 0.226562 Z M 3.117188 0.226562 "/>
</g>
<g id="glyph-521983-4-9">
<path d="M 3.96875 -2.96875 L 3.96875 -6.773438 L 1.277344 -2.96875 Z M 3.984375 0 L 3.984375 -2.050781 L 0.304688 -2.050781 L 0.304688 -3.082031 L 4.148438 -8.414062 L 5.039062 -8.414062 L 5.039062 -2.96875 L 6.273438 -2.96875 L 6.273438 -2.050781 L 5.039062 -2.050781 L 5.039062 0 Z M 3.984375 0 "/>
</g>
</g>
<image id="source-6" x="0" y="0" width="0" height="0"/>
<mask id="mask-0">
<use xlink:href="#source-6"/>
</mask>
<image id="source-14" x="0" y="0" width="0" height="0"/>
<mask id="mask-1">
<use xlink:href="#source-14"/>
</mask>
<image id="source-23" x="0" y="0" width="0" height="0"/>
<mask id="mask-2">
<use xlink:href="#source-23"/>
</mask>
<image id="source-31" x="0" y="0" width="0" height="0"/>
<mask id="mask-3">
<use xlink:href="#source-31"/>
</mask>
<image id="source-43" x="0" y="0" width="0" height="0"/>
<mask id="mask-4">
<use xlink:href="#source-43"/>
</mask>
</defs>
<rect x="-60" y="-35" width="720" height="420" fill="rgb(10.196078%, 10.196078%, 10.196078%)" fill-opacity="1"/>
<path fill="none" stroke-width="2" stroke-linecap="butt" stroke-linejoin="miter" stroke="rgb(100%, 100%, 0%)" stroke-opacity="1" stroke-miterlimit="10" d="M 209.46875 103.730469 C 219.015625 94.5 228.21875 85.773438 237.5 77.132812 "/>
<path fill-rule="nonzero" fill="rgb(100%, 100%, 0%)" fill-opacity="1" d="M 231.855469 75.308594 L 244.472656 70.667969 L 238.835938 82.871094 "/>
<path fill-rule="nonzero" fill="rgb(100%, 100%, 0%)" fill-opacity="1" d="M 213.316406 107.109375 L 200.84375 112.128906 L 206.117188 99.761719 "/>
<g fill="rgb(100%, 100%, 100%)" fill-opacity="1">
<use xlink:href="#glyph-521983-0-0" x="201.105458" y="97.777764"/>
<use xlink:href="#glyph-521983-0-1" x="205.943156" y="93.180301"/>
<use xlink:href="#glyph-521983-0-2" x="208.359881" y="90.883588"/>
<use xlink:href="#glyph-521983-0-3" x="213.197578" y="86.286125"/>
<use xlink:href="#glyph-521983-0-4" x="218.035275" y="81.688661"/>
<use xlink:href="#glyph-521983-0-1" x="222.872972" y="77.091198"/>
<use xlink:href="#glyph-521983-0-5" x="225.289697" y="74.794485"/>
</g>
<g fill="rgb(100%, 64.705882%, 0%)" fill-opacity="1">
<use xlink:href="#glyph-521983-0-6" x="217.8607" y="112.988668"/>
<use xlink:href="#glyph-521983-0-4" x="222.698398" y="108.391204"/>
<use xlink:href="#glyph-521983-0-7" x="227.536095" y="103.793741"/>
<use xlink:href="#glyph-521983-0-6" x="232.373792" y="99.196278"/>
<use xlink:href="#glyph-521983-0-1" x="237.211489" y="94.598815"/>
<use xlink:href="#glyph-521983-0-0" x="239.628214" y="92.302101"/>
</g>
<path fill="none" stroke-width="2" stroke-linecap="butt" stroke-linejoin="miter" stroke="rgb(100%, 100%, 0%)" stroke-opacity="1" stroke-miterlimit="10" d="M 217.863281 148.089844 C 237.582031 155.757812 256.460938 163.277344 275.285156 170.9375 "/>
<path fill-rule="nonzero" fill="rgb(100%, 100%, 0%)" fill-opacity="1" d="M 274.929688 165.222656 L 284.472656 174.691406 L 271.027344 174.742188 "/>
<path fill-rule="nonzero" fill="rgb(100%, 100%, 0%)" fill-opacity="1" d="M 216.71875 153.140625 L 206.976562 143.878906 L 220.414062 143.539062 "/>
<g fill="rgb(100%, 100%, 100%)" fill-opacity="1">
<use xlink:href="#glyph-521983-1-0" x="230.901011" y="142.384546"/>
<use xlink:href="#glyph-521983-1-1" x="237.102629" y="144.850294"/>
<use xlink:href="#glyph-521983-1-2" x="240.200716" y="146.082085"/>
<use xlink:href="#glyph-521983-1-3" x="246.402334" y="148.547833"/>
<use xlink:href="#glyph-521983-1-4" x="252.603953" y="151.013581"/>
<use xlink:href="#glyph-521983-1-1" x="258.805571" y="153.479328"/>
<use xlink:href="#glyph-521983-1-5" x="261.903658" y="154.71112"/>
</g>
<g fill="rgb(100%, 64.705882%, 0%)" fill-opacity="1">
<use xlink:href="#glyph-521983-1-6" x="224.109664" y="163.977412"/>
<use xlink:href="#glyph-521983-1-4" x="230.311283" y="166.443159"/>
<use xlink:href="#glyph-521983-1-7" x="236.512901" y="168.908907"/>
<use xlink:href="#glyph-521983-1-6" x="242.71452" y="171.374655"/>
<use xlink:href="#glyph-521983-1-1" x="248.916138" y="173.840402"/>
<use xlink:href="#glyph-521983-1-8" x="252.014225" y="175.072194"/>
</g>
<path fill="none" stroke-width="2" stroke-linecap="butt" stroke-linejoin="miter" stroke="rgb(100%, 100%, 0%)" stroke-opacity="1" stroke-miterlimit="10" d="M 279.730469 89.425781 C 286.6875 109.402344 293.214844 128.648438 299.59375 147.945312 "/>
<path fill-rule="nonzero" fill="rgb(100%, 100%, 0%)" fill-opacity="1" d="M 303.714844 143.964844 L 302.699219 157.371094 L 293.9375 147.171875 "/>
<path fill-rule="nonzero" fill="rgb(100%, 100%, 0%)" fill-opacity="1" d="M 275.140625 91.828125 L 275.871094 78.40625 L 284.847656 88.414062 "/>
<g fill="rgb(100%, 100%, 100%)" fill-opacity="1">
<use xlink:href="#glyph-521983-2-0" x="265.198832" y="104.928907"/>
<use xlink:href="#glyph-521983-2-1" x="267.345783" y="111.247972"/>
<use xlink:href="#glyph-521983-2-2" x="268.418317" y="114.404731"/>
<use xlink:href="#glyph-521983-2-3" x="270.565268" y="120.723796"/>
<use xlink:href="#glyph-521983-2-4" x="272.712219" y="127.04286"/>
<use xlink:href="#glyph-521983-2-1" x="274.859171" y="133.361925"/>
<use xlink:href="#glyph-521983-2-5" x="275.931704" y="136.518684"/>
</g>
<g fill="rgb(100%, 64.705882%, 0%)" fill-opacity="1">
<use xlink:href="#glyph-521983-2-6" x="289.406164" y="98.464858"/>
<use xlink:href="#glyph-521983-2-4" x="291.553116" y="104.783923"/>
<use xlink:href="#glyph-521983-2-7" x="293.700067" y="111.102988"/>
<use xlink:href="#glyph-521983-2-6" x="295.847018" y="117.422053"/>
<use xlink:href="#glyph-521983-2-1" x="297.99397" y="123.741118"/>
<use xlink:href="#glyph-521983-2-5" x="299.066503" y="126.897876"/>
</g>
<path fill="none" stroke-width="2" stroke-linecap="butt" stroke-linejoin="miter" stroke="rgb(100%, 100%, 0%)" stroke-opacity="1" stroke-miterlimit="10" d="M 341.152344 215.945312 C 359.109375 234.578125 376.253906 252.640625 393.277344 270.8125 "/>
<path fill-rule="nonzero" fill="rgb(100%, 100%, 0%)" fill-opacity="1" d="M 395.523438 265.664062 L 400.234375 278.253906 L 388 272.683594 "/>
<path fill-rule="nonzero" fill="rgb(100%, 100%, 0%)" fill-opacity="1" d="M 337.960938 220.023438 L 333.015625 207.523438 L 345.351562 212.867188 "/>
<g fill="rgb(100%, 100%, 100%)" fill-opacity="1">
<use xlink:href="#glyph-521983-3-0" x="360.250212" y="221.330767"/>
<use xlink:href="#glyph-521983-3-1" x="364.847675" y="226.168464"/>
<use xlink:href="#glyph-521983-3-2" x="367.144389" y="228.585189"/>
<use xlink:href="#glyph-521983-3-3" x="371.741852" y="233.422886"/>
<use xlink:href="#glyph-521983-3-4" x="376.339315" y="238.260583"/>
<use xlink:href="#glyph-521983-3-1" x="380.936778" y="243.09828"/>
<use xlink:href="#glyph-521983-3-5" x="383.233492" y="245.515005"/>
</g>
<g fill="rgb(100%, 64.705882%, 0%)" fill-opacity="1">
<use xlink:href="#glyph-521983-3-6" x="345.035062" y="238.090045"/>
<use xlink:href="#glyph-521983-3-4" x="349.632525" y="242.927742"/>
<use xlink:href="#glyph-521983-3-7" x="354.229988" y="247.765439"/>
<use xlink:href="#glyph-521983-3-6" x="358.827451" y="252.603137"/>
<use xlink:href="#glyph-521983-3-1" x="363.424914" y="257.440834"/>
<use xlink:href="#glyph-521983-3-5" x="365.721628" y="259.857559"/>
</g>
<path fill-rule="nonzero" fill="rgb(79.6%, 23.5%, 20%)" fill-opacity="1" stroke-width="1" stroke-linecap="butt" stroke-linejoin="miter" stroke="rgb(100%, 100%, 0%)" stroke-opacity="1" stroke-miterlimit="10" d="M 204.097656 132.796875 C 204.097656 146.601562 192.90625 157.796875 179.097656 157.796875 C 165.289062 157.796875 154.097656 146.601562 154.097656 132.796875 C 154.097656 118.988281 165.289062 107.796875 179.097656 107.796875 C 192.90625 107.796875 204.097656 118.988281 204.097656 132.796875 Z M 204.097656 132.796875 "/>
<g fill="rgb(100%, 100%, 100%)" fill-opacity="1">
<use xlink:href="#glyph-521983-4-0" x="161.083235" y="137.11346"/>
<use xlink:href="#glyph-521983-4-1" x="164.417219" y="137.11346"/>
<use xlink:href="#glyph-521983-4-2" x="171.091047" y="137.11346"/>
<use xlink:href="#glyph-521983-4-3" x="173.757063" y="137.11346"/>
<use xlink:href="#glyph-521983-4-4" x="180.430891" y="137.11346"/>
<use xlink:href="#glyph-521983-4-5" x="187.104719" y="137.11346"/>
<use xlink:href="#glyph-521983-4-6" x="190.438704" y="137.11346"/>
</g>
<path fill-rule="nonzero" fill="rgb(58.4%, 34.5%, 69.8%)" fill-opacity="1" stroke-width="1" stroke-linecap="butt" stroke-linejoin="miter" stroke="rgb(100%, 100%, 0%)" stroke-opacity="1" stroke-miterlimit="10" d="M 291.21875 50 C 291.21875 63.808594 280.027344 75 266.21875 75 C 252.414062 75 241.21875 63.808594 241.21875 50 C 241.21875 36.191406 252.414062 25 266.21875 25 C 280.027344 25 291.21875 36.191406 291.21875 50 Z M 291.21875 50 "/>
<g fill="rgb(100%, 100%, 100%)" fill-opacity="1">
<use xlink:href="#glyph-521983-4-0" x="248.204677" y="54.318359"/>
<use xlink:href="#glyph-521983-4-1" x="251.538662" y="54.318359"/>
<use xlink:href="#glyph-521983-4-2" x="258.21249" y="54.318359"/>
<use xlink:href="#glyph-521983-4-3" x="260.878505" y="54.318359"/>
<use xlink:href="#glyph-521983-4-4" x="267.552333" y="54.318359"/>
<use xlink:href="#glyph-521983-4-5" x="274.226162" y="54.318359"/>
<use xlink:href="#glyph-521983-4-7" x="277.560146" y="54.318359"/>
</g>
<path fill-rule="nonzero" fill="rgb(22%, 59.6%, 14.9%)" fill-opacity="1" stroke-width="1" stroke-linecap="butt" stroke-linejoin="miter" stroke="rgb(100%, 100%, 0%)" stroke-opacity="1" stroke-miterlimit="10" d="M 337.351562 185.777344 C 337.351562 199.582031 326.15625 210.777344 312.351562 210.777344 C 298.542969 210.777344 287.351562 199.582031 287.351562 185.777344 C 287.351562 171.96875 298.542969 160.777344 312.351562 160.777344 C 326.15625 160.777344 337.351562 171.96875 337.351562 185.777344 Z M 337.351562 185.777344 "/>
<g fill="rgb(100%, 100%, 100%)" fill-opacity="1">
<use xlink:href="#glyph-521983-4-0" x="294.335593" y="190.094257"/>
<use xlink:href="#glyph-521983-4-1" x="297.669577" y="190.094257"/>
<use xlink:href="#glyph-521983-4-2" x="304.343405" y="190.094257"/>
<use xlink:href="#glyph-521983-4-3" x="307.009421" y="190.094257"/>
<use xlink:href="#glyph-521983-4-4" x="313.683249" y="190.094257"/>
<use xlink:href="#glyph-521983-4-5" x="320.357077" y="190.094257"/>
<use xlink:href="#glyph-521983-4-8" x="323.691062" y="190.094257"/>
</g>
<path fill-rule="nonzero" fill="rgb(25.1%, 38.8%, 84.7%)" fill-opacity="1" stroke-width="1" stroke-linecap="butt" stroke-linejoin="miter" stroke="rgb(100%, 100%, 0%)" stroke-opacity="1" stroke-miterlimit="10" d="M 445.902344 300 C 445.902344 313.808594 434.710938 325 420.902344 325 C 407.09375 325 395.902344 313.808594 395.902344 300 C 395.902344 286.191406 407.09375 275 420.902344 275 C 434.710938 275 445.902344 286.191406 445.902344 300 Z M 445.902344 300 "/>
<g fill="rgb(100%, 100%, 100%)" fill-opacity="1">
<use xlink:href="#glyph-521983-4-0" x="402.887468" y="304.318359"/>
<use xlink:href="#glyph-521983-4-1" x="406.221453" y="304.318359"/>
<use xlink:href="#glyph-521983-4-2" x="412.895281" y="304.318359"/>
<use xlink:href="#glyph-521983-4-3" x="415.561296" y="304.318359"/>
<use xlink:href="#glyph-521983-4-4" x="422.235125" y="304.318359"/>
<use xlink:href="#glyph-521983-4-5" x="428.908953" y="304.318359"/>
<use xlink:href="#glyph-521983-4-9" x="432.242937" y="304.318359"/>
</g>
</svg>
