<?xml version="1.0" encoding="UTF-8"?>
<svg xmlns="http://www.w3.org/2000/svg" xmlns:xlink="http://www.w3.org/1999/xlink" width="600" height="300" viewBox="0 0 600 300">
<rect x="-60" y="-30" width="720" height="360" fill="rgb(10.196078%, 10.196078%, 10.196078%)" fill-opacity="1"/>
<path fill="none" stroke-width="1" stroke-linecap="butt" stroke-linejoin="miter" stroke="rgb(100%, 64.705882%, 0%)" stroke-opacity="1" stroke-miterlimit="10" d="M 267.078125 77.382812 L 188.121094 98.710938 "/>
<path fill="none" stroke-width="1" stroke-linecap="butt" stroke-linejoin="miter" stroke="rgb(100%, 64.705882%, 0%)" stroke-opacity="1" stroke-miterlimit="10" d="M 267.078125 77.382812 L 337.34375 33.847656 "/>
<path fill="none" stroke-width="1" stroke-linecap="butt" stroke-linejoin="miter" stroke="rgb(100%, 64.705882%, 0%)" stroke-opacity="1" stroke-miterlimit="10" d="M 267.078125 77.382812 L 293.707031 145.71875 "/>
<path fill="none" stroke-width="1" stroke-linecap="butt" stroke-linejoin="miter" stroke="rgb(100%, 64.705882%, 0%)" stroke-opacity="1" stroke-miterlimit="10" d="M 188.121094 98.710938 L 219.652344 60.757812 "/>
<path fill="none" stroke-width="1" stroke-linecap="butt" stroke-linejoin="miter" stroke="rgb(100%, 64.705882%, 0%)" stroke-opacity="1" stroke-miterlimit="10" d="M 188.121094 98.710938 L 179.753906 174.613281 "/>
<path fill="none" stroke-width="1" stroke-linecap="butt" stroke-linejoin="miter" stroke="rgb(100%, 64.705882%, 0%)" stroke-opacity="1" stroke-miterlimit="10" d="M 219.652344 60.757812 L 289.933594 30 "/>
<path fill="none" stroke-width="1" stroke-linecap="butt" stroke-linejoin="miter" stroke="rgb(100%, 64.705882%, 0%)" stroke-opacity="1" stroke-miterlimit="10" d="M 219.652344 60.757812 L 227.78125 142.941406 "/>
<path fill="none" stroke-width="1" stroke-linecap="butt" stroke-linejoin="miter" stroke="rgb(100%, 64.705882%, 0%)" stroke-opacity="1" stroke-miterlimit="10" d="M 289.933594 30 L 337.34375 33.847656 "/>
<path fill="none" stroke-width="1" stroke-linecap="butt" stroke-linejoin="miter" stroke="rgb(100%, 64.705882%, 0%)" stroke-opacity="1" stroke-miterlimit="10" d="M 289.933594 30 L 346.972656 90.1875 "/>
<path fill="none" stroke-width="1" stroke-linecap="butt" stroke-linejoin="miter" stroke="rgb(100%, 64.705882%, 0%)" stroke-opacity="1" stroke-miterlimit="10" d="M 337.34375 33.847656 L 398.523438 79.40625 "/>
<path fill="none" stroke-width="1" stroke-linecap="butt" stroke-linejoin="miter" stroke="rgb(100%, 64.705882%, 0%)" stroke-opacity="1" stroke-miterlimit="10" d="M 372.023438 156.761719 L 293.707031 145.71875 "/>
<path fill="none" stroke-width="1" stroke-linecap="butt" stroke-linejoin="miter" stroke="rgb(100%, 64.705882%, 0%)" stroke-opacity="1" stroke-miterlimit="10" d="M 372.023438 156.761719 L 398.523438 79.40625 "/>
<path fill="none" stroke-width="1" stroke-linecap="butt" stroke-linejoin="miter" stroke="rgb(100%, 64.705882%, 0%)" stroke-opacity="1" stroke-miterlimit="10" d="M 372.023438 156.761719 L 380.523438 238.894531 "/>
<path fill="none" stroke-width="1" stroke-linecap="butt" stroke-linejoin="miter" stroke="rgb(100%, 64.705882%, 0%)" stroke-opacity="1" stroke-miterlimit="10" d="M 293.707031 145.71875 L 252.96875 210.0625 "/>
<path fill="none" stroke-width="1" stroke-linecap="butt" stroke-linejoin="miter" stroke="rgb(100%, 64.705882%, 0%)" stroke-opacity="1" stroke-miterlimit="10" d="M 252.96875 210.0625 L 179.753906 174.613281 "/>
<path fill="none" stroke-width="1" stroke-linecap="butt" stroke-linejoin="miter" stroke="rgb(100%, 64.705882%, 0%)" stroke-opacity="1" stroke-miterlimit="10" d="M 252.96875 210.0625 L 310.386719 270 "/>
<path fill="none" stroke-width="1" stroke-linecap="butt" stroke-linejoin="miter" stroke="rgb(100%, 64.705882%, 0%)" stroke-opacity="1" stroke-miterlimit="10" d="M 179.753906 174.613281 L 201.660156 220.410156 "/>
<path fill="none" stroke-width="1" stroke-linecap="butt" stroke-linejoin="miter" stroke="rgb(100%, 64.705882%, 0%)" stroke-opacity="1" stroke-miterlimit="10" d="M 201.660156 220.410156 L 227.78125 142.941406 "/>
<path fill="none" stroke-width="1" stroke-linecap="butt" stroke-linejoin="miter" stroke="rgb(100%, 64.705882%, 0%)" stroke-opacity="1" stroke-miterlimit="10" d="M 201.660156 220.410156 L 262.964844 266.054688 "/>
<path fill="none" stroke-width="1" stroke-linecap="butt" stroke-linejoin="miter" stroke="rgb(100%, 64.705882%, 0%)" stroke-opacity="1" stroke-miterlimit="10" d="M 227.78125 142.941406 L 305.996094 154.394531 "/>
<path fill="none" stroke-width="1" stroke-linecap="butt" stroke-linejoin="miter" stroke="rgb(100%, 64.705882%, 0%)" stroke-opacity="1" stroke-miterlimit="10" d="M 305.996094 154.394531 L 346.972656 90.1875 "/>
<path fill="none" stroke-width="1" stroke-linecap="butt" stroke-linejoin="miter" stroke="rgb(100%, 64.705882%, 0%)" stroke-opacity="1" stroke-miterlimit="10" d="M 305.996094 154.394531 L 333.148438 222.507812 "/>
<path fill="none" stroke-width="1" stroke-linecap="butt" stroke-linejoin="miter" stroke="rgb(100%, 64.705882%, 0%)" stroke-opacity="1" stroke-miterlimit="10" d="M 346.972656 90.1875 L 420.246094 125.335938 "/>
<path fill="none" stroke-width="1" stroke-linecap="butt" stroke-linejoin="miter" stroke="rgb(100%, 64.705882%, 0%)" stroke-opacity="1" stroke-miterlimit="10" d="M 420.246094 125.335938 L 398.523438 79.40625 "/>
<path fill="none" stroke-width="1" stroke-linecap="butt" stroke-linejoin="miter" stroke="rgb(100%, 64.705882%, 0%)" stroke-opacity="1" stroke-miterlimit="10" d="M 420.246094 125.335938 L 412.105469 201.078125 "/>
<path fill="none" stroke-width="1" stroke-linecap="butt" stroke-linejoin="miter" stroke="rgb(100%, 64.705882%, 0%)" stroke-opacity="1" stroke-miterlimit="10" d="M 310.386719 270 L 262.964844 266.054688 "/>
<path fill="none" stroke-width="1" stroke-linecap="butt" stroke-linejoin="miter" stroke="rgb(100%, 64.705882%, 0%)" stroke-opacity="1" stroke-miterlimit="10" d="M 310.386719 270 L 380.523438 238.894531 "/>
<path fill="none" stroke-width="1" stroke-linecap="butt" stroke-linejoin="miter" stroke="rgb(100%, 64.705882%, 0%)" stroke-opacity="1" stroke-miterlimit="10" d="M 262.964844 266.054688 L 333.148438 222.507812 "/>
<path fill="none" stroke-width="1" stroke-linecap="butt" stroke-linejoin="miter" stroke="rgb(100%, 64.705882%, 0%)" stroke-opacity="1" stroke-miterlimit="10" d="M 333.148438 222.507812 L 412.105469 201.078125 "/>
<path fill="none" stroke-width="1" stroke-linecap="butt" stroke-linejoin="miter" stroke="rgb(100%, 64.705882%, 0%)" stroke-opacity="1" stroke-miterlimit="10" d="M 412.105469 201.078125 L 380.523438 238.894531 "/>
<path fill-rule="nonzero" fill="rgb(100%, 64.705882%, 0%)" fill-opacity="1" stroke-width="1" stroke-linecap="butt" stroke-linejoin="miter" stroke="rgb(100%, 64.705882%, 0%)" stroke-opacity="1" stroke-miterlimit="10" d="M 273.078125 77.382812 C 273.078125 80.695312 270.390625 83.382812 267.078125 83.382812 C 263.761719 83.382812 261.078125 80.695312 261.078125 77.382812 C 261.078125 74.070312 263.761719 71.382812 267.078125 71.382812 C 270.390625 71.382812 273.078125 74.070312 273.078125 77.382812 Z M 273.078125 77.382812 "/>
<path fill-rule="nonzero" fill="rgb(100%, 64.705882%, 0%)" fill-opacity="1" stroke-width="1" stroke-linecap="butt" stroke-linejoin="miter" stroke="rgb(100%, 64.705882%, 0%)" stroke-opacity="1" stroke-miterlimit="10" d="M 194.121094 98.710938 C 194.121094 102.023438 191.433594 104.710938 188.121094 104.710938 C 184.808594 104.710938 182.121094 102.023438 182.121094 98.710938 C 182.121094 95.398438 184.808594 92.710938 188.121094 92.710938 C 191.433594 92.710938 194.121094 95.398438 194.121094 98.710938 Z M 194.121094 98.710938 "/>
<path fill-rule="nonzero" fill="rgb(100%, 64.705882%, 0%)" fill-opacity="1" stroke-width="1" stroke-linecap="butt" stroke-linejoin="miter" stroke="rgb(100%, 64.705882%, 0%)" stroke-opacity="1" stroke-miterlimit="10" d="M 225.652344 60.757812 C 225.652344 64.070312 222.96875 66.757812 219.652344 66.757812 C 216.339844 66.757812 213.652344 64.070312 213.652344 60.757812 C 213.652344 57.441406 216.339844 54.757812 219.652344 54.757812 C 222.96875 54.757812 225.652344 57.441406 225.652344 60.757812 Z M 225.652344 60.757812 "/>
<path fill-rule="nonzero" fill="rgb(100%, 64.705882%, 0%)" fill-opacity="1" stroke-width="1" stroke-linecap="butt" stroke-linejoin="miter" stroke="rgb(100%, 64.705882%, 0%)" stroke-opacity="1" stroke-miterlimit="10" d="M 295.933594 30 C 295.933594 33.3125 293.246094 36 289.933594 36 C 286.621094 36 283.933594 33.3125 283.933594 30 C 283.933594 26.6875 286.621094 24 289.933594 24 C 293.246094 24 295.933594 26.6875 295.933594 30 Z M 295.933594 30 "/>
<path fill-rule="nonzero" fill="rgb(100%, 64.705882%, 0%)" fill-opacity="1" stroke-width="1" stroke-linecap="butt" stroke-linejoin="miter" stroke="rgb(100%, 64.705882%, 0%)" stroke-opacity="1" stroke-miterlimit="10" d="M 343.34375 33.847656 C 343.34375 37.160156 340.660156 39.847656 337.34375 39.847656 C 334.03125 39.847656 331.34375 37.160156 331.34375 33.847656 C 331.34375 30.535156 334.03125 27.847656 337.34375 27.847656 C 340.660156 27.847656 343.34375 30.535156 343.34375 33.847656 Z M 343.34375 33.847656 "/>
<path fill-rule="nonzero" fill="rgb(100%, 64.705882%, 0%)" fill-opacity="1" stroke-width="1" stroke-linecap="butt" stroke-linejoin="miter" stroke="rgb(100%, 64.705882%, 0%)" stroke-opacity="1" stroke-miterlimit="10" d="M 378.023438 156.761719 C 378.023438 160.074219 375.339844 162.761719 372.023438 162.761719 C 368.710938 162.761719 366.023438 160.074219 366.023438 156.761719 C 366.023438 153.445312 368.710938 150.761719 372.023438 150.761719 C 375.339844 150.761719 378.023438 153.445312 378.023438 156.761719 Z M 378.023438 156.761719 "/>
<path fill-rule="nonzero" fill="rgb(100%, 64.705882%, 0%)" fill-opacity="1" stroke-width="1" stroke-linecap="butt" stroke-linejoin="miter" stroke="rgb(100%, 64.705882%, 0%)" stroke-opacity="1" stroke-miterlimit="10" d="M 299.707031 145.71875 C 299.707031 149.03125 297.023438 151.71875 293.707031 151.71875 C 290.394531 151.71875 287.707031 149.03125 287.707031 145.71875 C 287.707031 142.40625 290.394531 139.71875 293.707031 139.71875 C 297.023438 139.71875 299.707031 142.40625 299.707031 145.71875 Z M 299.707031 145.71875 "/>
<path fill-rule="nonzero" fill="rgb(100%, 64.705882%, 0%)" fill-opacity="1" stroke-width="1" stroke-linecap="butt" stroke-linejoin="miter" stroke="rgb(100%, 64.705882%, 0%)" stroke-opacity="1" stroke-miterlimit="10" d="M 258.96875 210.0625 C 258.96875 213.375 256.28125 216.0625 252.96875 216.0625 C 249.652344 216.0625 246.96875 213.375 246.96875 210.0625 C 246.96875 206.75 249.652344 204.0625 252.96875 204.0625 C 256.28125 204.0625 258.96875 206.75 258.96875 210.0625 Z M 258.96875 210.0625 "/>
<path fill-rule="nonzero" fill="rgb(100%, 64.705882%, 0%)" fill-opacity="1" stroke-width="1" stroke-linecap="butt" stroke-linejoin="miter" stroke="rgb(100%, 64.705882%, 0%)" stroke-opacity="1" stroke-miterlimit="10" d="M 185.753906 174.613281 C 185.753906 177.925781 183.070312 180.613281 179.753906 180.613281 C 176.441406 180.613281 173.753906 177.925781 173.753906 174.613281 C 173.753906 171.300781 176.441406 168.613281 179.753906 168.613281 C 183.070312 168.613281 185.753906 171.300781 185.753906 174.613281 Z M 185.753906 174.613281 "/>
<path fill-rule="nonzero" fill="rgb(100%, 64.705882%, 0%)" fill-opacity="1" stroke-width="1" stroke-linecap="butt" stroke-linejoin="miter" stroke="rgb(100%, 64.705882%, 0%)" stroke-opacity="1" stroke-miterlimit="10" d="M 207.660156 220.410156 C 207.660156 223.726562 204.976562 226.410156 201.660156 226.410156 C 198.347656 226.410156 195.660156 223.726562 195.660156 220.410156 C 195.660156 217.097656 198.347656 214.410156 201.660156 214.410156 C 204.976562 214.410156 207.660156 217.097656 207.660156 220.410156 Z M 207.660156 220.410156 "/>
<path fill-rule="nonzero" fill="rgb(100%, 64.705882%, 0%)" fill-opacity="1" stroke-width="1" stroke-linecap="butt" stroke-linejoin="miter" stroke="rgb(100%, 64.705882%, 0%)" stroke-opacity="1" stroke-miterlimit="10" d="M 233.78125 142.941406 C 233.78125 146.253906 231.097656 148.941406 227.78125 148.941406 C 224.46875 148.941406 221.78125 146.253906 221.78125 142.941406 C 221.78125 139.628906 224.46875 136.941406 227.78125 136.941406 C 231.097656 136.941406 233.78125 139.628906 233.78125 142.941406 Z M 233.78125 142.941406 "/>
<path fill-rule="nonzero" fill="rgb(100%, 64.705882%, 0%)" fill-opacity="1" stroke-width="1" stroke-linecap="butt" stroke-linejoin="miter" stroke="rgb(100%, 64.705882%, 0%)" stroke-opacity="1" stroke-miterlimit="10" d="M 311.996094 154.394531 C 311.996094 157.710938 309.3125 160.394531 305.996094 160.394531 C 302.683594 160.394531 299.996094 157.710938 299.996094 154.394531 C 299.996094 151.082031 302.683594 148.394531 305.996094 148.394531 C 309.3125 148.394531 311.996094 151.082031 311.996094 154.394531 Z M 311.996094 154.394531 "/>
<path fill-rule="nonzero" fill="rgb(100%, 64.705882%, 0%)" fill-opacity="1" stroke-width="1" stroke-linecap="butt" stroke-linejoin="miter" stroke="rgb(100%, 64.705882%, 0%)" stroke-opacity="1" stroke-miterlimit="10" d="M 352.972656 90.1875 C 352.972656 93.503906 350.289062 96.1875 346.972656 96.1875 C 343.660156 96.1875 340.972656 93.503906 340.972656 90.1875 C 340.972656 86.875 343.660156 84.1875 346.972656 84.1875 C 350.289062 84.1875 352.972656 86.875 352.972656 90.1875 Z M 352.972656 90.1875 "/>
<path fill-rule="nonzero" fill="rgb(100%, 64.705882%, 0%)" fill-opacity="1" stroke-width="1" stroke-linecap="butt" stroke-linejoin="miter" stroke="rgb(100%, 64.705882%, 0%)" stroke-opacity="1" stroke-miterlimit="10" d="M 426.246094 125.335938 C 426.246094 128.652344 423.558594 131.335938 420.246094 131.335938 C 416.929688 131.335938 414.246094 128.652344 414.246094 125.335938 C 414.246094 122.023438 416.929688 119.335938 420.246094 119.335938 C 423.558594 119.335938 426.246094 122.023438 426.246094 125.335938 Z M 426.246094 125.335938 "/>
<path fill-rule="nonzero" fill="rgb(100%, 64.705882%, 0%)" fill-opacity="1" stroke-width="1" stroke-linecap="butt" stroke-linejoin="miter" stroke="rgb(100%, 64.705882%, 0%)" stroke-opacity="1" stroke-miterlimit="10" d="M 404.523438 79.40625 C 404.523438 82.722656 401.839844 85.40625 398.523438 85.40625 C 395.210938 85.40625 392.523438 82.722656 392.523438 79.40625 C 392.523438 76.09375 395.210938 73.40625 398.523438 73.40625 C 401.839844 73.40625 404.523438 76.09375 404.523438 79.40625 Z M 404.523438 79.40625 "/>
<path fill-rule="nonzero" fill="rgb(100%, 64.705882%, 0%)" fill-opacity="1" stroke-width="1" stroke-linecap="butt" stroke-linejoin="miter" stroke="rgb(100%, 64.705882%, 0%)" stroke-opacity="1" stroke-miterlimit="10" d="M 316.386719 270 C 316.386719 273.3125 313.699219 276 310.386719 276 C 307.070312 276 304.386719 273.3125 304.386719 270 C 304.386719 266.6875 307.070312 264 310.386719 264 C 313.699219 264 316.386719 266.6875 316.386719 270 Z M 316.386719 270 "/>
<path fill-rule="nonzero" fill="rgb(100%, 64.705882%, 0%)" fill-opacity="1" stroke-width="1" stroke-linecap="butt" stroke-linejoin="miter" stroke="rgb(100%, 64.705882%, 0%)" stroke-opacity="1" stroke-miterlimit="10" d="M 268.964844 266.054688 C 268.964844 269.367188 266.28125 272.054688 262.964844 272.054688 C 259.652344 272.054688 256.964844 269.367188 256.964844 266.054688 C 256.964844 262.738281 259.652344 260.054688 262.964844 260.054688 C 266.28125 260.054688 268.964844 262.738281 268.964844 266.054688 Z M 268.964844 266.054688 "/>
<path fill-rule="nonzero" fill="rgb(100%, 64.705882%, 0%)" fill-opacity="1" stroke-width="1" stroke-linecap="butt" stroke-linejoin="miter" stroke="rgb(100%, 64.705882%, 0%)" stroke-opacity="1" stroke-miterlimit="10" d="M 339.148438 222.507812 C 339.148438 225.820312 336.460938 228.507812 333.148438 228.507812 C 329.835938 228.507812 327.148438 225.820312 327.148438 222.507812 C 327.148438 219.195312 329.835938 216.507812 333.148438 216.507812 C 336.460938 216.507812 339.148438 219.195312 339.148438 222.507812 Z M 339.148438 222.507812 "/>
<path fill-rule="nonzero" fill="rgb(100%, 64.705882%, 0%)" fill-opacity="1" stroke-width="1" stroke-linecap="butt" stroke-linejoin="miter" stroke="rgb(100%, 64.705882%, 0%)" stroke-opacity="1" stroke-miterlimit="10" d="M 418.105469 201.078125 C 418.105469 204.390625 415.417969 207.078125 412.105469 207.078125 C 408.789062 207.078125 406.105469 204.390625 406.105469 201.078125 C 406.105469 197.765625 408.789062 195.078125 412.105469 195.078125 C 415.417969 195.078125 418.105469 197.765625 418.105469 201.078125 Z M 418.105469 201.078125 "/>
<path fill-rule="nonzero" fill="rgb(100%, 64.705882%, 0%)" fill-opacity="1" stroke-width="1" stroke-linecap="butt" stroke-linejoin="miter" stroke="rgb(100%, 64.705882%, 0%)" stroke-opacity="1" stroke-miterlimit="10" d="M 386.523438 238.894531 C 386.523438 242.207031 383.839844 244.894531 380.523438 244.894531 C 377.210938 244.894531 374.523438 242.207031 374.523438 238.894531 C 374.523438 235.582031 377.210938 232.894531 380.523438 232.894531 C 383.839844 232.894531 386.523438 235.582031 386.523438 238.894531 Z M 386.523438 238.894531 "/>
</svg>
